<?xml version="1.0" encoding="UTF-8" standalone="no"?>
<!-- Created with Inkscape (http://www.inkscape.org/) -->

<svg
   width="64"
   height="64"
   viewBox="0 0 64 64"
   version="1.1"
   id="svg1"
   inkscape:version="1.4 (e7c3feb100, 2024-10-09)"
   sodipodi:docname="AGD_ESS_USH_SYM.svg"
   xml:space="preserve"
   xmlns:inkscape="http://www.inkscape.org/namespaces/inkscape"
   xmlns:sodipodi="http://sodipodi.sourceforge.net/DTD/sodipodi-0.dtd"
   xmlns:xlink="http://www.w3.org/1999/xlink"
   xmlns="http://www.w3.org/2000/svg"
   xmlns:svg="http://www.w3.org/2000/svg"
   xmlns:rdf="http://www.w3.org/1999/02/22-rdf-syntax-ns#"
   xmlns:cc="http://creativecommons.org/ns#"
   xmlns:dc="http://purl.org/dc/elements/1.1/"><title
     id="title4">Beam - Angled - U-shaped - Symmetric - End Square Square</title><sodipodi:namedview
     id="namedview1"
     pagecolor="#323232"
     bordercolor="#ffffff"
     borderopacity="1"
     inkscape:showpageshadow="0"
     inkscape:pageopacity="0"
     inkscape:pagecheckerboard="1"
     inkscape:deskcolor="#191919"
     inkscape:document-units="px"
     showgrid="true"
     inkscape:zoom="7.9999995"
     inkscape:cx="17.125001"
     inkscape:cy="33.812502"
     inkscape:window-width="1894"
     inkscape:window-height="999"
     inkscape:window-x="0"
     inkscape:window-y="0"
     inkscape:window-maximized="1"
     inkscape:current-layer="svg1"
     showguides="true"
     inkscape:lockguides="false"
     guidecolor="#ffff00"
     guideopacity="0.6"
     guidehicolor="#ff00ff"
     guidehiopacity="0.50196078"><inkscape:grid
       id="grid1"
       units="px"
       originx="0"
       originy="0"
       spacingx="2"
       spacingy="2"
       empcolor="#0099e5"
       empopacity="0.30196078"
       color="#0099e5"
       opacity="0.14901961"
       empspacing="4"
       enabled="true"
       visible="true" /><sodipodi:guide
       position="-2,62"
       orientation="0,1"
       id="guide5"
       inkscape:locked="false"
       inkscape:label="top margin"
       inkscape:color="rgb(255,255,0)" /><sodipodi:guide
       position="64,2"
       orientation="0,1"
       id="guide6"
       inkscape:locked="false"
       inkscape:label="bottom margin"
       inkscape:color="rgb(255,255,0)" /><sodipodi:guide
       position="2,-2"
       orientation="-1,0"
       id="guide7"
       inkscape:locked="false"
       inkscape:label="right margin"
       inkscape:color="rgb(255,255,0)" /><sodipodi:guide
       position="62,64"
       orientation="-1,0"
       id="guide8"
       inkscape:locked="false"
       inkscape:label="left margin"
       inkscape:color="rgb(255,255,0)" /><sodipodi:guide
       position="64,64"
       orientation="0.70710678,-0.70710678"
       id="guide1"
       inkscape:locked="false" /><sodipodi:guide
       position="0,64"
       orientation="0.70710678,0.70710678"
       id="guide2"
       inkscape:label=""
       inkscape:locked="false"
       inkscape:color="rgb(255,255,0)" /></sodipodi:namedview><defs
     id="defs1"><linearGradient
       id="linearGradient3"
       inkscape:collect="always"
       inkscape:label="Sky Blue gradient"><stop
         style="stop-color:#729fcf;stop-opacity:1;"
         offset="0"
         id="stop3" /><stop
         style="stop-color:#3465a4;stop-opacity:1;"
         offset="1"
         id="stop4" /></linearGradient><linearGradient
       inkscape:collect="always"
       xlink:href="#linearGradient3"
       id="linearGradient176"
       x1="13.595889"
       y1="13.594913"
       x2="50.40411"
       y2="50.403133"
       gradientUnits="userSpaceOnUse" /></defs><metadata
     id="metadata1"><rdf:RDF><cc:Work
         rdf:about=""><cc:license
           rdf:resource="http://creativecommons.org/licenses/by-nc-sa/4.0/" /><dc:creator><cc:Agent><dc:title>hasecilu</dc:title></cc:Agent></dc:creator><dc:subject><rdf:Bag><rdf:li>FreeCAD</rdf:li><rdf:li>command</rdf:li></rdf:Bag></dc:subject><dc:description>Template file to create icons for FreeCAD commands.</dc:description><dc:date>2024</dc:date><dc:rights><cc:Agent><dc:title>FreeCAD LGPL2+</dc:title></cc:Agent></dc:rights><dc:identifier>FreeCAD/src/</dc:identifier><dc:publisher><cc:Agent><dc:title>FreeCAD</dc:title></cc:Agent></dc:publisher><dc:relation>https://wiki.freecad.org/Artwork</dc:relation><dc:title>template</dc:title></cc:Work><cc:License
         rdf:about="http://creativecommons.org/licenses/by-nc-sa/4.0/"><cc:permits
           rdf:resource="http://creativecommons.org/ns#Reproduction" /><cc:permits
           rdf:resource="http://creativecommons.org/ns#Distribution" /><cc:requires
           rdf:resource="http://creativecommons.org/ns#Notice" /><cc:requires
           rdf:resource="http://creativecommons.org/ns#Attribution" /><cc:prohibits
           rdf:resource="http://creativecommons.org/ns#CommercialUse" /><cc:permits
           rdf:resource="http://creativecommons.org/ns#DerivativeWorks" /><cc:requires
           rdf:resource="http://creativecommons.org/ns#ShareAlike" /></cc:License></rdf:RDF></metadata><path
     style="display:inline;fill:#729fcf;stroke:#204a87;stroke-width:2;stroke-linecap:round;stroke-linejoin:round;stroke-dasharray:none"
     d="M 26.199995,8.5595386 2.9999914,21.954102 V 35.348626 L 37.799996,55.440457 61,42.045894 V 28.65137 L 49.400051,21.954102 37.799996,28.65137 V 15.256794 Z"
     id="path169"
     inkscape:label="main" /><path
     id="path175"
     style="display:inline;fill:url(#linearGradient176);stroke:none;stroke-width:2;stroke-linecap:round;stroke-linejoin:round;stroke-dasharray:none"
     inkscape:label="gradient"
     sodipodi:type="inkscape:offset"
     inkscape:radius="-2.9729624"
     inkscape:original="M 26.199219 8.5585938 L 3 21.955078 L 3 35.347656 L 37.800781 55.441406 L 61 42.044922 L 61 28.652344 L 49.400391 21.955078 L 37.800781 28.652344 L 37.800781 15.255859 L 26.199219 8.5585938 z "
     d="M 26.199219,11.990234 5.9726562,23.671875 v 9.958984 L 37.800781,52.007812 58.027344,40.328125 v -9.958984 l -8.626953,-4.980469 -10.113282,5.83789 A 2.9732597,2.9732597 0 0 1 34.828125,28.652344 V 16.972656 Z" /><g
     id="g169"
     inkscape:label="holes"
     style="display:inline"><path
       d="m 0,73.4847 c 10.0099,5.7792 19.0342,17.9521 22.8649,30.8423 3.8306,12.89 1.7132,23.959 -5.3649,28.046"
       fill-rule="evenodd"
       vector-effect="none"
       id="path62"
       style="fill:none;stroke:#204a87;stroke-width:15.2394;stroke-dasharray:none"
       transform="matrix(0.13123896,0,0,0.13123896,31.999996,31.999998)" /><path
       d="m 17.5,132.373 c -9.66498,5.58 -25.33502,-3.467 -35,-20.207 -9.665,-16.7405 -9.665,-34.8347 0,-40.4148"
       fill-rule="evenodd"
       vector-effect="none"
       id="path63"
       style="fill:none;stroke:#204a87;stroke-width:15.2394;stroke-dasharray:none"
       transform="matrix(0.13123896,0,0,0.13123896,31.999996,31.999998)" /><path
       d="M -17.5,71.7512 C -12.8587,69.0715 -6.56377,69.6951 0,73.4847"
       fill-rule="evenodd"
       vector-effect="none"
       id="path64"
       style="fill:none;stroke:#204a87;stroke-width:15.2394;stroke-dasharray:none"
       transform="matrix(0.13123896,0,0,0.13123896,31.999996,31.999998)" /><path
       id="path73"
       style="fill:none;stroke:#204a87;stroke-width:15.2394;stroke-dasharray:none"
       d="m -105.888,20.7201 c 4.641,-2.6796 10.9359,-2.056 17.4997,1.7336 m 17.5,58.8882 c -9.665,5.5801 -25.3351,-3.467 -34.9997,-20.2072 -9.665,-16.7403 -9.665,-34.8345 0,-40.4146 m 17.4997,1.7336 c 10.0099,5.7792 19.0342,17.952 22.8648,30.8423 3.8306,12.8902 1.7132,23.9594 -5.3648,28.0459"
       transform="matrix(0.13123896,0,0,0.13123896,31.999996,31.999998)" /><path
       id="path89"
       style="fill:none;stroke:#204a87;stroke-width:15.2394;stroke-dasharray:none"
       d="m -194.277,-30.3109 c 4.642,-2.6796 10.937,-2.0561 17.5,1.7335 m 17.5,58.8883 c -9.665,5.5801 -25.335,-3.467 -35,-20.2073 -9.665,-16.74021 -9.665,-34.8344 0,-40.4145 m 17.5,1.7335 c 10.01,5.7793 19.035,17.9521 22.865,30.84234 3.831,12.89026 1.713,23.95946 -5.365,28.04596"
       transform="matrix(0.13123896,0,0,0.13123896,31.999996,31.999998)" /><path
       id="path96"
       style="fill:none;stroke:#204a87;stroke-width:15.2394;stroke-dasharray:none"
       d="m -167.583,-76.5466 c 0,8.1731 8.528,15.5414 21.607,18.6691 13.078,3.1277 28.132,1.3989 38.142,-4.3804 m 10.2515,-14.2887 c 0,-11.1601 -15.6705,-20.2072 -35.0005,-20.2072 -19.329,0 -35,9.0471 -35,20.2072 m 59.749,14.2887 c 6.564,-3.7896 10.2515,-8.9294 10.2515,-14.2887"
       transform="matrix(0.13123896,0,0,0.13123896,31.999996,31.999998)" /><path
       id="path106"
       style="fill:none;stroke:#204a87;stroke-width:15.2394;stroke-dasharray:none"
       d="m -79.1942,-127.578 c 0,8.173 8.5275,15.542 21.6061,18.669 13.0786,3.128 28.1327,1.399 38.1427,-4.38 m 10.25123,-14.289 c 0,-11.16 -15.67003,-20.207 -35.00003,-20.207 -19.3299,0 -35,9.047 -35,20.207 m 59.7488,14.289 c 6.5637,-3.789 10.25123,-8.929 10.25123,-14.289"
       transform="matrix(0.13123896,0,0,0.13123896,31.999996,31.999998)" /><path
       id="path27"
       style="display:inline;fill:none;stroke:#204a87;stroke-width:15.2394;stroke-dasharray:none"
       d="m 97.5822,-25.5158 c 0,8.173 8.5275,15.542 21.6061,18.669 13.0786,3.128 28.1327,1.399 38.1427,-4.38 m 10.25123,-14.289 c 0,-11.16 -15.67003,-20.207 -35.00003,-20.207 -19.3299,0 -35,9.047 -35,20.207 m 59.7488,14.289 c 6.5637,-3.789 10.25123,-8.929 10.25123,-14.289"
       transform="matrix(0.13123896,0,0,0.13123896,31.999996,31.999998)" /><path
       id="path135"
       style="fill:none;stroke:#204a87;stroke-width:15.2394;stroke-dasharray:none"
       d="m 9.19417,25.5155 c 0,8.1731 8.52753,15.5414 21.60613,18.6691 13.0786,3.1277 28.1327,1.3988 38.1426,-4.3804 M 79.1942,25.5155 c 0,-11.1601 -15.6701,-20.20724 -35,-20.20724 -19.33,0 -35.00003,9.04714 -35.00003,20.20724 M 68.9429,39.8042 c 6.5638,-3.7896 10.2513,-8.9294 10.2513,-14.2887 m -158.3884,-51.031 c 0,8.1731 8.5275,15.54136 21.6061,18.66906 13.0786,3.1277 28.1327,1.39885 38.1427,-4.38036 m 10.25123,-14.2887 c 0,-11.1602 -15.67003,-20.2073 -35.00003,-20.2073 -19.3299,0 -35,9.0471 -35,20.2073 m 59.7488,14.2887 c 6.5637,-3.7896 10.25123,-8.9294 10.25123,-14.2887"
       transform="matrix(0.13123896,0,0,0.13123896,31.999996,31.999998)" /><path
       d="m 88.3883,73.4847 c -10.0099,5.7792 -19.0342,17.9521 -22.8648,30.8423 -3.8306,12.89 -1.7132,23.959 5.3648,28.046"
       fill-rule="evenodd"
       vector-effect="none"
       id="path136"
       style="fill:none;stroke:#204a87;stroke-width:15.2394;stroke-dasharray:none"
       transform="matrix(0.13123896,0,0,0.13123896,31.999996,31.999998)" /><path
       d="m 70.8883,132.373 c 9.665,5.58 25.3351,-3.467 34.9997,-20.207 9.665,-16.7405 9.665,-34.8347 0,-40.4148"
       fill-rule="evenodd"
       vector-effect="none"
       id="path137"
       style="fill:none;stroke:#204a87;stroke-width:15.2394;stroke-dasharray:none"
       transform="matrix(0.13123896,0,0,0.13123896,31.999996,31.999998)" /><path
       d="M 105.888,71.7512 C 101.247,69.0715 94.9521,69.6951 88.3883,73.4847"
       fill-rule="evenodd"
       vector-effect="none"
       id="path138"
       style="fill:none;stroke:#204a87;stroke-width:15.2394;stroke-dasharray:none"
       transform="matrix(0.13123896,0,0,0.13123896,31.999996,31.999998)" /><path
       d="m 176.777,22.4537 c -10.01,5.7792 -19.035,17.952 -22.865,30.8423 -3.831,12.8902 -1.713,23.9594 5.365,28.0459"
       fill-rule="evenodd"
       vector-effect="none"
       id="path157"
       style="fill:none;stroke:#204a87;stroke-width:15.2394;stroke-dasharray:none"
       transform="matrix(0.13123896,0,0,0.13123896,31.999996,31.999998)" /><path
       d="m 159.277,81.3419 c 9.665,5.5801 25.335,-3.467 35,-20.2072 9.665,-16.7403 9.665,-34.8345 0,-40.4146"
       fill-rule="evenodd"
       vector-effect="none"
       id="path158"
       style="fill:none;stroke:#204a87;stroke-width:15.2394;stroke-dasharray:none"
       transform="matrix(0.13123896,0,0,0.13123896,31.999996,31.999998)" /><path
       d="m 194.277,20.7201 c -4.642,-2.6796 -10.937,-2.056 -17.5,1.7336"
       fill-rule="evenodd"
       vector-effect="none"
       id="path159"
       style="fill:none;stroke:#204a87;stroke-width:15.2394;stroke-dasharray:none"
       transform="matrix(0.13123896,0,0,0.13123896,31.999996,31.999998)" /><path
       id="path121"
       style="display:inline;fill:#729fcf;stroke:#204a87;stroke-width:15.2394;stroke-dasharray:none"
       d="M 17.5,-81.3419 C 12.8587,-84.0216 6.56377,-83.398 0,-79.6084 m 17.5,38.681 c 9.665,-16.7402 9.665,-34.8344 0,-40.4145 M 0,-79.6084 c -6.56377,3.7896 -12.8587,10.4348 -17.5,18.4737"
       transform="matrix(0.13123896,0,0,0.13123896,31.999996,31.999998)" /></g><path
     id="path174"
     style="display:inline;fill:#729fcf;stroke:#204a87;stroke-width:2;stroke-linecap:round;stroke-linejoin:round;stroke-dasharray:none"
     d="M 37.799996,28.65137 26.199995,21.954102 M 37.799996,15.256794 26.199995,21.954102 M 61,28.65137 38,42 M 37.799996,55.440457 V 42.045894 M 2.9999914,21.954102 38,42"
     inkscape:label="strokes" /></svg>
