<?xml version="1.0" encoding="UTF-8" standalone="no"?>
<!-- Created with Inkscape (http://www.inkscape.org/) -->

<svg
   width="64"
   height="64"
   viewBox="0 0 64 64"
   version="1.1"
   id="svg1"
   inkscape:version="1.4 (e7c3feb100, 2024-10-09)"
   sodipodi:docname="AGD_ESS_TSH_SYM.svg"
   xml:space="preserve"
   xmlns:inkscape="http://www.inkscape.org/namespaces/inkscape"
   xmlns:sodipodi="http://sodipodi.sourceforge.net/DTD/sodipodi-0.dtd"
   xmlns:xlink="http://www.w3.org/1999/xlink"
   xmlns="http://www.w3.org/2000/svg"
   xmlns:svg="http://www.w3.org/2000/svg"
   xmlns:rdf="http://www.w3.org/1999/02/22-rdf-syntax-ns#"
   xmlns:cc="http://creativecommons.org/ns#"
   xmlns:dc="http://purl.org/dc/elements/1.1/"><title
     id="title28">Beam - Angled - T-shaped - Symmetric - End Square Square</title><sodipodi:namedview
     id="namedview1"
     pagecolor="#323232"
     bordercolor="#ffffff"
     borderopacity="1"
     inkscape:showpageshadow="0"
     inkscape:pageopacity="0"
     inkscape:pagecheckerboard="1"
     inkscape:deskcolor="#191919"
     inkscape:document-units="px"
     showgrid="true"
     inkscape:zoom="11.313709"
     inkscape:cx="25.765203"
     inkscape:cy="32.129164"
     inkscape:window-width="1894"
     inkscape:window-height="999"
     inkscape:window-x="0"
     inkscape:window-y="0"
     inkscape:window-maximized="1"
     inkscape:current-layer="svg1"
     showguides="true"
     inkscape:lockguides="false"
     guidecolor="#ffff00"
     guideopacity="0.6"
     guidehicolor="#ff00ff"
     guidehiopacity="0.50196078"><inkscape:grid
       id="grid1"
       units="px"
       originx="0"
       originy="0"
       spacingx="2"
       spacingy="2"
       empcolor="#0099e5"
       empopacity="0.30196078"
       color="#0099e5"
       opacity="0.14901961"
       empspacing="4"
       enabled="true"
       visible="true" /><sodipodi:guide
       position="-2,62"
       orientation="0,1"
       id="guide5"
       inkscape:locked="false"
       inkscape:label="top margin"
       inkscape:color="rgb(255,255,0)" /><sodipodi:guide
       position="64,2"
       orientation="0,1"
       id="guide6"
       inkscape:locked="false"
       inkscape:label="bottom margin"
       inkscape:color="rgb(255,255,0)" /><sodipodi:guide
       position="2,-2"
       orientation="-1,0"
       id="guide7"
       inkscape:locked="false"
       inkscape:label="right margin"
       inkscape:color="rgb(255,255,0)" /><sodipodi:guide
       position="62,64"
       orientation="-1,0"
       id="guide8"
       inkscape:locked="false"
       inkscape:label="left margin"
       inkscape:color="rgb(255,255,0)" /><sodipodi:guide
       position="64,64"
       orientation="0.70710678,-0.70710678"
       id="guide1"
       inkscape:locked="false" /><sodipodi:guide
       position="0,64"
       orientation="0.70710678,0.70710678"
       id="guide2"
       inkscape:label=""
       inkscape:locked="false"
       inkscape:color="rgb(255,255,0)" /></sodipodi:namedview><defs
     id="defs1"><linearGradient
       id="linearGradient3"
       inkscape:collect="always"
       inkscape:label="Sky Blue gradient"><stop
         style="stop-color:#729fcf;stop-opacity:1;"
         offset="0"
         id="stop3" /><stop
         style="stop-color:#3465a4;stop-opacity:1;"
         offset="1"
         id="stop4" /></linearGradient><marker
       id="DistanceX"
       orient="auto"
       refX="0.0"
       refY="0.0"
       style="overflow:visible"><path
         d="M 3,-3 L -3,3 M 0,-5 L  0,5"
         style="stroke:#000000; stroke-width:0.5"
         id="path1-36" /></marker><pattern
       id="Hatch"
       patternUnits="userSpaceOnUse"
       width="8"
       height="8"
       x="0"
       y="0"><path
         d="M8 4 l-4,4"
         stroke="#000000"
         stroke-width="0.25"
         linecap="square"
         id="path2-7" /><path
         d="M6 2 l-4,4"
         stroke="#000000"
         stroke-width="0.25"
         linecap="square"
         id="path3" /><path
         d="M4 0 l-4,4"
         stroke="#000000"
         stroke-width="0.25"
         linecap="square"
         id="path4" /></pattern><symbol
       id="*MODEL_SPACE" /><symbol
       id="*PAPER_SPACE" /><linearGradient
       inkscape:collect="always"
       xlink:href="#linearGradient3"
       id="linearGradient28"
       x1="13.578279"
       y1="13.378084"
       x2="50.820156"
       y2="50.619961"
       gradientUnits="userSpaceOnUse" /></defs><metadata
     id="metadata1"><rdf:RDF><cc:Work
         rdf:about=""><cc:license
           rdf:resource="http://creativecommons.org/licenses/by-nc-sa/4.0/" /><dc:creator><cc:Agent><dc:title>hasecilu</dc:title></cc:Agent></dc:creator><dc:subject><rdf:Bag><rdf:li>FreeCAD</rdf:li><rdf:li>command</rdf:li></rdf:Bag></dc:subject><dc:description>Template file to create icons for FreeCAD commands.</dc:description><dc:date>2025</dc:date><dc:rights><cc:Agent><dc:title>FreeCAD LGPL2+</dc:title></cc:Agent></dc:rights><dc:identifier>FreeCAD/src/</dc:identifier><dc:publisher><cc:Agent><dc:title>FreeCAD</dc:title></cc:Agent></dc:publisher><dc:relation>https://wiki.freecad.org/Artwork</dc:relation><dc:title>Beam - Angled - T-shaped - Symmetric - End Square Square</dc:title></cc:Work><cc:License
         rdf:about="http://creativecommons.org/licenses/by-nc-sa/4.0/"><cc:permits
           rdf:resource="http://creativecommons.org/ns#Reproduction" /><cc:permits
           rdf:resource="http://creativecommons.org/ns#Distribution" /><cc:requires
           rdf:resource="http://creativecommons.org/ns#Notice" /><cc:requires
           rdf:resource="http://creativecommons.org/ns#Attribution" /><cc:prohibits
           rdf:resource="http://creativecommons.org/ns#CommercialUse" /><cc:permits
           rdf:resource="http://creativecommons.org/ns#DerivativeWorks" /><cc:requires
           rdf:resource="http://creativecommons.org/ns#ShareAlike" /></cc:License></rdf:RDF></metadata><g
     inkscape:label="View"
     id="g90"
     style="fill:#729fcf;stroke:#204a87;stroke-width:146.299;stroke-dasharray:none;stroke-opacity:1"
     transform="matrix(0.01367088,0,0,0.01367088,-162.69262,154.45594)" /><path
     style="display:inline;fill:#729fcf;stroke:#204a87;stroke-width:2;stroke-linecap:round;stroke-linejoin:round;stroke-dasharray:none;stroke-opacity:1"
     d="M 38,55.439944 49.599741,48.742579 V 35.347988 L 61.199483,28.650624 V 15.256306 L 49.599741,8.5589416 26.398891,21.95326 14.799149,15.256306 3.1995461,21.95334 3.1994075,35.347988 Z"
     id="path15"
     inkscape:label="main_outer" /><path
     id="path16"
     style="display:inline;fill:url(#linearGradient28);stroke:none;stroke-width:2;stroke-linecap:round;stroke-linejoin:round;stroke-dasharray:none;stroke-opacity:1"
     inkscape:label="gradient"
     sodipodi:type="inkscape:offset"
     inkscape:radius="-2.6654856"
     inkscape:original="M 49.599609 8.5585938 L 26.398438 21.953125 L 14.798828 15.255859 L 3.1992188 21.953125 L 3.1992188 35.347656 L 38 55.439453 L 49.599609 48.742188 L 49.599609 35.347656 L 61.199219 28.650391 L 61.199219 15.255859 L 49.599609 8.5585938 z "
     d="m 49.599609,11.636719 -21.86914,12.625 a 2.6657522,2.6657522 0 0 1 -2.664063,0 L 14.798828,18.333984 5.8652344,23.492187 V 33.808594 L 38,52.361328 46.933594,47.203125 V 35.347656 a 2.6657522,2.6657522 0 0 1 1.333984,-2.308594 L 58.533203,27.111328 V 16.794922 Z" /><g
     id="g15"
     inkscape:label="inner_lines"
     style="display:inline"><path
       style="display:inline;fill:#729fcf;stroke:#204a87;stroke-width:146.299;stroke-dasharray:none;stroke-opacity:1"
       d="m 14680.3,-7242.84 v -979.79"
       id="path7-3"
       transform="matrix(0.01367088,0,0,0.01367088,-162.69262,154.45594)" /><path
       style="display:inline;fill:#729fcf;stroke:#204a87;stroke-width:146.299;stroke-dasharray:none;stroke-opacity:1"
       d="m 14680.3,-8222.63 848.5,-489.9"
       id="path8"
       transform="matrix(0.01367088,0,0,0.01367088,-162.69262,154.45594)" /><path
       style="display:inline;fill:#729fcf;stroke:#204a87;stroke-width:146.299;stroke-dasharray:none;stroke-opacity:1"
       d="m 15528.8,-7732.74 v -979.79"
       id="path10"
       transform="matrix(0.01367088,0,0,0.01367088,-162.69262,154.45594)" /><path
       style="display:inline;fill:#729fcf;stroke:#204a87;stroke-width:146.299;stroke-dasharray:none;stroke-opacity:1"
       d="m 14680.3,-9202.43 848.5,489.9"
       id="path14"
       transform="matrix(0.01367088,0,0,0.01367088,-162.69262,154.45594)" /><path
       style="display:inline;fill:#729fcf;stroke:#204a87;stroke-width:146.299;stroke-dasharray:none;stroke-opacity:1"
       d="m 14680.3,-9202.43 1697,-979.77"
       id="path46"
       transform="matrix(0.01367088,0,0,0.01367088,-162.69262,154.45594)" /><path
       style="display:inline;fill:#729fcf;stroke:#204a87;stroke-width:146.299;stroke-dasharray:none;stroke-opacity:1"
       d="m 12134.7,-9692.33 2545.6,1469.7"
       id="path79"
       transform="matrix(0.01367088,0,0,0.01367088,-162.69262,154.45594)" /></g><g
     id="g3"
     inkscape:label="holes"
     style="display:inline;fill:none"><path
       id="path56"
       style="fill:none;stroke:#204a87;stroke-width:146.299;stroke-dasharray:none;stroke-opacity:1"
       transform="matrix(0.01367088,0,0,0.01367088,-162.69262,154.45594)"
       d="m 15016.264,-9692.3272 a 336,193.98969 0 0 0 -98.412,-137.1715 m -573.588,137.1715 a 336,193.98969 0 0 0 672,0 m -98.412,-137.1715 a 336,193.98969 0 0 0 -573.588,137.1715" /><path
       id="path13"
       style="display:inline;fill:none;stroke:#204a87;stroke-width:146.299;stroke-dasharray:none;stroke-opacity:1"
       transform="matrix(0.01367088,0,0,0.01367088,-162.69262,154.45594)"
       d="m 15272.528,-8268.669 a 336,193.98969 120 0 0 -168,16.6417 m -168,565.3274 a 193.9897,336.00001 30 1 0 336,-581.9691 m -168,16.6417 a 193.98969,336 30 0 0 -168,565.3274" /><path
       id="path28"
       style="display:inline;fill:none;stroke:#204a87;stroke-width:146.299;stroke-dasharray:none;stroke-opacity:1"
       transform="matrix(0.01367088,0,0,0.01367088,-162.69262,154.45594)"
       d="m 12726.944,-8666.4958 a 336,193.98969 -120 0 0 69.588,-153.8131 m -405.588,-428.156 a 336.00001,193.9897 60 1 0 336,581.9691 m 69.588,-153.8131 a 336,193.98969 60 0 0 -405.588,-428.156" /><path
       id="path49"
       style="display:inline;fill:none;stroke:#204a87;stroke-width:146.299;stroke-dasharray:none;stroke-opacity:1"
       transform="matrix(0.01367088,0,0,0.01367088,-162.69262,154.45594)"
       d="m 15272.528,-8860.4855 a 336,193.98969 120 0 0 69.588,-234.1662 m -69.588,-153.8132 a 193.98969,336 30 0 0 -336,193.9897 m 405.588,-40.1765 a 193.98969,336 30 0 0 -69.588,-153.8132" /><path
       id="path70"
       style="display:inline;fill:none;stroke:#204a87;stroke-width:146.299;stroke-dasharray:none;stroke-opacity:1"
       transform="matrix(0.01367088,0,0,0.01367088,-162.69262,154.45594)"
       d="m 14424,-7686.6999 a 336,193.98969 -120 0 0 69.588,-153.8131 M 14088,-8268.669 a 336.00001,193.9897 60 1 0 336,581.9691 m 69.588,-153.8131 A 336,193.98969 60 0 0 14088,-8268.669" /><path
       id="path83"
       style="display:inline;fill:none;stroke:#204a87;stroke-width:146.299;stroke-dasharray:none;stroke-opacity:1"
       transform="matrix(0.01367088,0,0,0.01367088,-162.69262,154.45594)"
       d="m 13645.06,-8330.4109 a 336,193.98969 -120 0 0 -237.588,-411.5143 m 168,565.3274 a 336,193.98969 60 0 0 69.588,-153.8131 m -405.588,-428.156 a 336.00001,193.9897 60 1 0 336,581.9691 m -168,-565.3274 a 336,193.98969 60 0 0 -168,-16.6417" /><path
       id="path32"
       style="display:inline;fill:none;stroke:#204a87;stroke-width:146.299;stroke-dasharray:none;stroke-opacity:1"
       transform="matrix(0.01367088,0,0,0.01367088,-162.69262,154.45594)"
       d="m 12647.208,-9692.3272 a 336,193.98969 0 0 0 573.588,137.1714 m 98.412,-137.1714 a 336,193.98969 0 1 0 -672,0 m 573.588,137.1714 a 336,193.98969 0 0 0 98.412,-137.1714" /><path
       id="path60"
       style="fill:none;stroke:#204a87;stroke-width:146.299;stroke-dasharray:none;stroke-opacity:1"
       transform="matrix(0.01367088,0,0,0.01367088,-162.69262,154.45594)"
       d="m 15864.792,-10182.225 a 336,193.98969 0 0 0 -98.412,-137.172 m -573.588,137.172 a 336,193.98969 0 0 0 672,0 m -98.412,-137.172 a 336,193.98969 0 0 0 -573.588,137.172" /><path
       id="path52"
       style="fill:none;stroke:#204a87;stroke-width:146.299;stroke-dasharray:none;stroke-opacity:1"
       transform="matrix(0.01367088,0,0,0.01367088,-162.69262,154.45594)"
       d="m 15785.056,-9156.3937 a 336,193.98969 120 0 0 405.588,-428.156 m -69.588,-153.8131 a 193.9897,336.00001 30 0 0 -336,581.9691 m 405.588,-428.156 a 193.98969,336 30 0 0 -69.588,-153.8131" /><path
       id="path87"
       style="display:inline;fill:none;stroke:#204a87;stroke-width:146.299;stroke-dasharray:none;stroke-opacity:1"
       transform="matrix(0.01367088,0,0,0.01367088,-162.69262,154.45594)"
       d="m 13495.736,-9202.4293 a 336,193.98969 0 0 0 573.588,137.1714 m 0,-274.3428 a 336,193.98969 0 0 0 -573.588,137.1714 m 672,0 a 336,193.98969 0 0 0 -98.412,-137.1714 m 0,274.3428 a 336,193.98969 0 0 0 98.412,-137.1714" /><path
       id="path75"
       style="display:inline;fill:none;stroke:#204a87;stroke-width:146.299;stroke-dasharray:none;stroke-opacity:1"
       d="m 14344.264,-8712.5313 a 336,193.98969 0 0 0 573.588,137.1714 m 98.412,-137.1714 a 336,193.98969 0 1 0 -672,0 m 573.588,137.1714 a 336,193.98969 0 0 0 98.412,-137.1714"
       transform="matrix(0.01367088,0,0,0.01367088,-162.8921,154.45653)" /></g></svg>
