<?xml version="1.0" encoding="UTF-8" standalone="no"?>
<!-- Created with Inkscape (http://www.inkscape.org/) -->

<svg
   width="64"
   height="64"
   viewBox="0 0 64 64"
   version="1.1"
   id="svg1"
   inkscape:version="1.4 (e7c3feb100, 2024-10-09)"
   sodipodi:docname="CRN_ERR_ASYM.svg"
   xml:space="preserve"
   xmlns:inkscape="http://www.inkscape.org/namespaces/inkscape"
   xmlns:sodipodi="http://sodipodi.sourceforge.net/DTD/sodipodi-0.dtd"
   xmlns:xlink="http://www.w3.org/1999/xlink"
   xmlns="http://www.w3.org/2000/svg"
   xmlns:svg="http://www.w3.org/2000/svg"
   xmlns:rdf="http://www.w3.org/1999/02/22-rdf-syntax-ns#"
   xmlns:cc="http://creativecommons.org/ns#"
   xmlns:dc="http://purl.org/dc/elements/1.1/"><title
     id="title2">Brace - Corner - End Round Round - Asymmetric</title><sodipodi:namedview
     id="namedview1"
     pagecolor="#323232"
     bordercolor="#ffffff"
     borderopacity="1"
     inkscape:showpageshadow="0"
     inkscape:pageopacity="0"
     inkscape:pagecheckerboard="1"
     inkscape:deskcolor="#191919"
     inkscape:document-units="px"
     showgrid="true"
     inkscape:zoom="11.313709"
     inkscape:cx="38.44893"
     inkscape:cy="25.234872"
     inkscape:window-width="1894"
     inkscape:window-height="999"
     inkscape:window-x="0"
     inkscape:window-y="0"
     inkscape:window-maximized="1"
     inkscape:current-layer="svg1"
     showguides="true"
     inkscape:lockguides="false"
     guidecolor="#ffff00"
     guideopacity="0.6"
     guidehicolor="#ff00ff"
     guidehiopacity="0.50196078"><inkscape:grid
       id="grid1"
       units="px"
       originx="0"
       originy="0"
       spacingx="2"
       spacingy="2"
       empcolor="#0099e5"
       empopacity="0.30196078"
       color="#0099e5"
       opacity="0.14901961"
       empspacing="4"
       enabled="true"
       visible="true" /><sodipodi:guide
       position="-2,62"
       orientation="0,1"
       id="guide5"
       inkscape:locked="false"
       inkscape:label="top margin"
       inkscape:color="rgb(255,255,0)" /><sodipodi:guide
       position="64,2"
       orientation="0,1"
       id="guide6"
       inkscape:locked="false"
       inkscape:label="bottom margin"
       inkscape:color="rgb(255,255,0)" /><sodipodi:guide
       position="2,-2"
       orientation="-1,0"
       id="guide7"
       inkscape:locked="false"
       inkscape:label="right margin"
       inkscape:color="rgb(255,255,0)" /><sodipodi:guide
       position="62,64"
       orientation="-1,0"
       id="guide8"
       inkscape:locked="false"
       inkscape:label="left margin"
       inkscape:color="rgb(255,255,0)" /><sodipodi:guide
       position="64,64"
       orientation="0.70710678,-0.70710678"
       id="guide1"
       inkscape:locked="false" /><sodipodi:guide
       position="0,64"
       orientation="0.70710678,0.70710678"
       id="guide2"
       inkscape:label=""
       inkscape:locked="false"
       inkscape:color="rgb(255,255,0)" /><sodipodi:guide
       position="9.0850262,17.310926"
       orientation="0,-1"
       id="guide9"
       inkscape:locked="false" /><sodipodi:guide
       position="17.310911,25.536811"
       orientation="1,0"
       id="guide10"
       inkscape:locked="false" /><sodipodi:guide
       position="25.536796,46.689086"
       orientation="0,-1"
       id="guide11"
       inkscape:locked="false" /><sodipodi:guide
       position="46.689071,25.536811"
       orientation="1,0"
       id="guide12"
       inkscape:locked="false" /><sodipodi:guide
       position="25.537109,17.310547"
       orientation="1,0"
       id="guide13"
       inkscape:locked="false" /></sodipodi:namedview><defs
     id="defs1"><linearGradient
       id="linearGradient2"
       inkscape:collect="always"><stop
         style="stop-color:#ad7fa8;stop-opacity:1;"
         offset="0"
         id="stop2" /><stop
         style="stop-color:#75507b;stop-opacity:1;"
         offset="1"
         id="stop3" /></linearGradient><marker
       id="DistanceX"
       orient="auto"
       refX="0.0"
       refY="0.0"
       style="overflow:visible"><path
         d="M 3,-3 L -3,3 M 0,-5 L  0,5"
         style="stroke:#000000; stroke-width:0.5"
         id="path1-36" /></marker><pattern
       id="Hatch"
       patternUnits="userSpaceOnUse"
       width="8"
       height="8"
       x="0"
       y="0"><path
         d="M8 4 l-4,4"
         stroke="#000000"
         stroke-width="0.25"
         linecap="square"
         id="path2-7" /><path
         d="M6 2 l-4,4"
         stroke="#000000"
         stroke-width="0.25"
         linecap="square"
         id="path3" /><path
         d="M4 0 l-4,4"
         stroke="#000000"
         stroke-width="0.25"
         linecap="square"
         id="path4" /></pattern><symbol
       id="*MODEL_SPACE" /><symbol
       id="*PAPER_SPACE" /><linearGradient
       inkscape:collect="always"
       xlink:href="#linearGradient2"
       id="linearGradient3"
       x1="13.526835"
       y1="13.526835"
       x2="50.473164"
       y2="50.473164"
       gradientUnits="userSpaceOnUse" /></defs><metadata
     id="metadata1"><rdf:RDF><cc:Work
         rdf:about=""><cc:license
           rdf:resource="http://creativecommons.org/licenses/by-nc-sa/4.0/" /><dc:creator><cc:Agent><dc:title>hasecilu</dc:title></cc:Agent></dc:creator><dc:subject><rdf:Bag><rdf:li>FreeCAD</rdf:li><rdf:li>command</rdf:li></rdf:Bag></dc:subject><dc:description>Template file to create icons for FreeCAD commands.</dc:description><dc:date>2024</dc:date><dc:rights><cc:Agent><dc:title>FreeCAD LGPL2+</dc:title></cc:Agent></dc:rights><dc:identifier>FreeCAD/src/</dc:identifier><dc:publisher><cc:Agent><dc:title>FreeCAD</dc:title></cc:Agent></dc:publisher><dc:relation>https://wiki.freecad.org/Artwork</dc:relation><dc:title>Brace - Corner - End Round Round - Asymmetric</dc:title></cc:Work><cc:License
         rdf:about="http://creativecommons.org/licenses/by-nc-sa/4.0/"><cc:permits
           rdf:resource="http://creativecommons.org/ns#Reproduction" /><cc:permits
           rdf:resource="http://creativecommons.org/ns#Distribution" /><cc:requires
           rdf:resource="http://creativecommons.org/ns#Notice" /><cc:requires
           rdf:resource="http://creativecommons.org/ns#Attribution" /><cc:prohibits
           rdf:resource="http://creativecommons.org/ns#CommercialUse" /><cc:permits
           rdf:resource="http://creativecommons.org/ns#DerivativeWorks" /><cc:requires
           rdf:resource="http://creativecommons.org/ns#ShareAlike" /></cc:License></rdf:RDF></metadata><path
     id="path11"
     style="display:inline;fill:#ad7fa8;stroke:#5c3566;stroke-width:1.99993;stroke-dasharray:none"
     d="m 17.499991,2.9999777 c -0.500495,0 -0.995148,0.025688 -1.482583,0.07519 -0.132466,0.013454 -0.259986,0.042774 -0.391372,0.059766 a 14.499642,14.499642 0 0 0 -0.426074,0.06555 c -0.207063,0.033083 -0.418683,0.052717 -0.622724,0.094469 -0.34676,0.070958 -0.682615,0.1669684 -1.019878,0.2621999 a 14.499642,14.499642 0 0 0 -0.190865,0.048199 c -0.05838,0.017348 -0.119301,0.028208 -0.177371,0.046268 -0.454027,0.1412173 -0.898525,0.3043394 -1.332203,0.487768 -0.09428,0.039878 -0.182449,0.091228 -0.275695,0.1330278 A 14.499642,14.499642 0 0 0 11.299748,4.4073706 C 11.061928,4.520229 10.818824,4.6253362 10.588338,4.7505436 10.338556,4.886235 10.10215,5.0423718 9.8615066,5.1920405 A 14.499642,14.499642 0 0 0 9.5723164,5.3694118 C 9.1244082,5.6627175 8.6883659,5.9724716 8.2767431,6.3121714 8.220183,6.3588487 8.1706313,6.41311 8.1147973,6.4606246 A 14.499642,14.499642 0 0 0 7.8140376,6.7324639 C 7.4343371,7.0742378 7.0742426,7.4343347 6.7324663,7.8140351 A 14.499642,14.499642 0 0 0 6.4606271,8.1147925 C 6.1123248,8.5240977 5.7791091,8.9463968 5.4773797,9.393015 5.4383976,9.450717 5.4075842,9.5140239 5.3694142,9.5723132 A 14.499642,14.499642 0 0 0 5.1920452,9.8615035 C 5.0423743,10.102148 4.8862374,10.338553 4.7505463,10.588336 4.6253413,10.818821 4.5202294,11.061925 4.4073734,11.299745 A 14.499642,14.499642 0 0 0 4.27242,11.581223 c -0.2340868,0.522179 -0.448881,1.055172 -0.6207957,1.607898 -0.018063,0.05808 -0.028924,0.118991 -0.046271,0.177371 a 14.499642,14.499642 0 0 0 -0.048199,0.190865 C 3.4058862,14.09307 3.2897917,14.640995 3.2004855,15.19996 a 14.499642,14.499642 0 0 0 -0.06555,0.426073 c -0.016993,0.131387 -0.046312,0.258907 -0.059766,0.391373 -0.0495,0.487435 -0.07519,0.982087 -0.07519,1.482582 v 29.00002 c 0,0.500495 0.025688,0.995148 0.07519,1.482582 0.013453,0.132466 0.042774,0.259986 0.059766,0.391373 a 14.499642,14.499642 0 0 0 0.06555,0.426073 c 0.033085,0.207065 0.052717,0.418684 0.094472,0.622725 0.070958,0.346759 0.1669662,0.682615 0.2621978,1.019878 a 14.499642,14.499642 0 0 0 0.048199,0.190865 c 0.152991,0.514833 0.3271466,1.020429 0.5340393,1.509574 0.039875,0.09428 0.091227,0.182449 0.1330277,0.275695 a 14.499642,14.499642 0 0 0 0.1349534,0.281478 c 0.2351633,0.495552 0.4968947,0.975545 0.7846718,1.43824 a 14.499642,14.499642 0 0 0 0.177369,0.289192 c 0.3336078,0.509454 0.6979107,0.995335 1.0912128,1.457521 a 14.499642,14.499642 0 0 0 0.2718393,0.300757 c 0.3417763,0.3797 0.7018708,0.739797 1.0815713,1.081573 a 14.499642,14.499642 0 0 0 0.3007597,0.271837 c 0.055834,0.04751 0.1053857,0.101775 0.1619458,0.148452 0.4116228,0.339701 0.8476651,0.649456 1.2955733,0.942761 a 14.499642,14.499642 0 0 0 0.2891902,0.177372 c 0.2406441,0.149667 0.4770491,0.305804 0.7268311,0.441495 0.230486,0.125208 0.47359,0.230315 0.71141,0.343174 a 14.499642,14.499642 0 0 0 0.281478,0.134955 c 0.09324,0.04181 0.181418,0.09315 0.275695,0.133027 0.433678,0.183431 0.878176,0.344623 1.332203,0.485841 0.05302,0.01648 0.108673,0.02652 0.161948,0.04242 a 14.499642,14.499642 0 0 0 0.240991,0.0617 c 0.326103,0.09121 0.650227,0.185948 0.985175,0.254488 0.204041,0.04176 0.415661,0.0614 0.622724,0.09447 a 14.499642,14.499642 0 0 0 0.426074,0.06555 c 0.131386,0.017 0.258906,0.04632 0.391372,0.05977 0.487435,0.04951 0.982088,0.07519 1.482583,0.07519 h 29.00002 c 0.500495,0 0.995148,-0.02568 1.482582,-0.07519 0.132466,-0.01346 0.259986,-0.04277 0.391372,-0.05977 a 14.499633,14.499633 0 0 0 0.426074,-0.06555 c 0.546978,-0.08739 1.083149,-0.202193 1.607899,-0.348956 a 14.499633,14.499633 0 0 0 0.240992,-0.0617 c 0.608701,-0.181618 1.197582,-0.404743 1.769846,-0.661282 a 14.499633,14.499633 0 0 0 0.281478,-0.134955 c 0.495552,-0.235164 0.975545,-0.496896 1.43824,-0.784669 a 14.499633,14.499633 0 0 0 0.289192,-0.177372 c 0.447908,-0.293305 0.883949,-0.60306 1.295573,-0.942761 0.05656,-0.04668 0.106113,-0.100938 0.161947,-0.148452 a 14.499633,14.499633 0 0 0 0.300757,-0.271837 c 0.18985,-0.17089 0.38624,-0.334188 0.566812,-0.514761 0.180571,-0.18057 0.343874,-0.376963 0.514761,-0.566812 a 14.499633,14.499633 0 0 0 0.271839,-0.300757 c 0.04751,-0.05584 0.101773,-0.105389 0.148451,-0.16195 0.295495,-0.358054 0.574228,-0.730581 0.834797,-1.116272 0.03898,-0.05771 0.0698,-0.12101 0.107963,-0.179299 a 14.499633,14.499633 0 0 0 0.177372,-0.289192 c 0.14967,-0.240643 0.305806,-0.477048 0.441495,-0.726831 0.125208,-0.230485 0.230318,-0.473589 0.343174,-0.711409 a 14.499633,14.499633 0 0 0 0.134955,-0.281478 c 0.04181,-0.09324 0.09315,-0.181418 0.133027,-0.275695 0.20485,-0.484318 0.376231,-0.984632 0.528257,-1.494151 a 14.499633,14.499633 0 0 0 0.0617,-0.240992 c 0.146761,-0.52475 0.261564,-1.060921 0.348956,-1.607899 a 14.499633,14.499633 0 0 0 0.06556,-0.426073 c 0.07954,-0.614854 0.134956,-1.237446 0.134956,-1.873955 a 14.499633,14.499633 0 0 0 -0.07326,-1.43053 c -0.0017,-0.01711 -1.91e-4,-0.03495 -0.002,-0.05206 -0.0042,-0.04179 -0.01469,-0.08171 -0.01928,-0.123389 a 14.499633,14.499633 0 0 0 -0.188922,-1.235801 c -0.01688,-0.08493 -0.03755,-0.168174 -0.05591,-0.252559 a 14.499633,14.499633 0 0 0 -0.294974,-1.143268 c -0.0075,-0.02461 -0.01165,-0.05064 -0.01928,-0.07519 -0.01695,-0.05448 -0.04028,-0.105819 -0.05784,-0.160019 A 14.499633,14.499633 0 0 0 59.89528,40.951411 c -0.01304,-0.03145 -0.02145,-0.06506 -0.0347,-0.09641 -0.02711,-0.06408 -0.06262,-0.123405 -0.09062,-0.187011 a 14.499633,14.499633 0 0 0 -0.491582,-1.017953 c -0.03249,-0.06048 -0.06694,-0.11934 -0.100253,-0.179297 a 14.499633,14.499633 0 0 0 -0.640076,-1.050725 c -0.01935,-0.02877 -0.04022,-0.0562 -0.05977,-0.08483 a 14.499633,14.499633 0 0 0 -0.775029,-1.03723 c -0.01944,-0.02363 -0.04019,-0.0459 -0.05977,-0.06941 a 14.499633,14.499633 0 0 0 -1.868172,-1.872026 c -0.02593,-0.02161 -0.05104,-0.04412 -0.07713,-0.06555 a 14.499633,14.499633 0 0 0 -0.99867,-0.746111 c -0.03183,-0.02188 -0.06053,-0.04779 -0.09254,-0.06941 -0.01697,-0.01146 -0.03503,-0.02138 -0.05205,-0.03278 a 14.499633,14.499633 0 0 0 -1.012167,-0.613083 c -0.06971,-0.03883 -0.137815,-0.0799 -0.208217,-0.117604 a 14.499633,14.499633 0 0 0 -1.043015,-0.501265 c -0.07286,-0.03181 -0.144385,-0.06576 -0.217857,-0.09641 a 14.499633,14.499633 0 0 0 -1.06422,-0.389444 c -0.100575,-0.03292 -0.199227,-0.06949 -0.300758,-0.100253 a 14.499633,14.499633 0 0 0 -1.125915,-0.28919 c -0.08501,-0.01842 -0.16893,-0.03899 -0.254488,-0.05591 A 14.499633,14.499633 0 0 0 48.044292,32.08481 c -0.02087,-0.0022 -0.0408,-0.0075 -0.0617,-0.0097 -0.0083,-8.38e-4 -0.01681,-0.0011 -0.02506,-0.002 A 14.499633,14.499633 0 0 0 46.500018,31.99993 H 32.000001 V 17.499988 a 14.499642,14.499642 0 0 0 -0.07326,-1.45752 c -0.0029,-0.02916 -0.0085,-0.05765 -0.01157,-0.08676 a 14.499642,14.499642 0 0 0 -0.198577,-1.29943 c -0.01599,-0.08039 -0.03473,-0.159161 -0.05205,-0.239064 a 14.499642,14.499642 0 0 0 -0.293047,-1.135556 c -0.02984,-0.09823 -0.06454,-0.193783 -0.09641,-0.291117 A 14.499642,14.499642 0 0 0 30.885643,11.92632 c -0.03064,-0.07347 -0.0646,-0.145004 -0.09641,-0.217857 a 14.499642,14.499642 0 0 0 -0.510899,-1.060364 c -0.03468,-0.06455 -0.07233,-0.12691 -0.107964,-0.190867 A 14.499642,14.499642 0 0 0 29.54958,9.4334987 C 29.51922,9.3882497 29.48596,9.3453577 29.45511,9.300471 A 14.499642,14.499642 0 0 0 28.70514,8.2979443 c -0.0203,-0.024686 -0.04124,-0.048715 -0.0617,-0.073262 A 14.499642,14.499642 0 0 0 26.771432,6.3565148 c -0.02488,-0.020729 -0.04823,-0.043058 -0.07326,-0.063622 A 14.499642,14.499642 0 0 0 25.664799,5.5217182 c -0.02863,-0.01955 -0.05606,-0.040413 -0.08483,-0.059766 A 14.499642,14.499642 0 0 0 24.529247,4.8218774 c -0.06521,-0.036232 -0.128899,-0.07464 -0.194721,-0.1098909 A 14.499642,14.499642 0 0 0 23.331999,4.2300021 C 23.237306,4.1883245 23.14433,4.1443828 23.048592,4.1046858 a 14.499642,14.499642 0 0 0 -1.02759,-0.377877 C 21.916825,3.6926314 21.813879,3.6564961 21.708677,3.6246293 A 14.499642,14.499642 0 0 0 20.602041,3.3412228 C 20.510564,3.3212685 20.42039,3.2977473 20.328274,3.279529 A 14.499642,14.499642 0 0 0 19.105963,3.0944459 c -0.06192,-0.00683 -0.122928,-0.017086 -0.185083,-0.023135 a 14.499642,14.499642 0 0 0 -1.420889,-0.071333 z m 0,6.3795417 c 4.484448,0 8.120468,3.6360196 8.120468,8.1204686 0,4.484449 -3.63602,8.11854 -8.120468,8.11854 -4.484449,0 -8.1185405,-3.634091 -8.1185405,-8.11854 0,-4.484449 3.6340915,-8.1204686 8.1185405,-8.1204686 z m 0,29.0000206 c 4.484448,0 8.120468,3.636019 8.120468,8.120468 0,4.484449 -3.63602,8.118539 -8.120468,8.118539 -4.484449,0 -8.1185405,-3.63409 -8.1185405,-8.118539 0,-4.484449 3.6340915,-8.120468 8.1185405,-8.120468 z m 28.998092,0 c 4.48445,0 8.120467,3.636019 8.120467,8.120468 0,4.484449 -3.636017,8.118539 -8.120467,8.118539 -4.484448,0 -8.118541,-3.63409 -8.118541,-8.118539 0,-4.484449 3.634093,-8.120468 8.118541,-8.120468 z"
     inkscape:label="main" /><path
     id="path1"
     style="display:inline;fill:url(#linearGradient3);stroke:none;stroke-width:1.99993;stroke-dasharray:none"
     inkscape:label="gradient"
     sodipodi:type="inkscape:offset"
     inkscape:radius="-2.875"
     inkscape:original="M 17.5 3 C 16.999505 3 16.505013 3.0247167 16.017578 3.0742188 C 15.885112 3.0876727 15.758339 3.1177736 15.626953 3.1347656 A 14.499642 14.499642 0 0 0 15.199219 3.2011719 C 14.992156 3.2342549 14.782166 3.2531699 14.578125 3.2949219 C 14.231365 3.3658799 13.893904 3.4614091 13.556641 3.5566406 A 14.499642 14.499642 0 0 0 13.367188 3.6054688 C 13.308808 3.6228168 13.247523 3.6342837 13.189453 3.6523438 C 12.735426 3.7935611 12.2911 3.9552433 11.857422 4.1386719 C 11.763142 4.1785499 11.675277 4.2296846 11.582031 4.2714844 A 14.499642 14.499642 0 0 0 11.298828 4.4082031 C 11.061008 4.5210615 10.818377 4.6247926 10.587891 4.75 C 10.338109 4.8856914 10.101972 5.0417376 9.8613281 5.1914062 A 14.499642 14.499642 0 0 0 9.5722656 5.3691406 C 9.1243574 5.6624463 8.6889666 5.9728002 8.2773438 6.3125 C 8.2207837 6.3591773 8.1710684 6.4134229 8.1152344 6.4609375 A 14.499642 14.499642 0 0 0 7.8144531 6.7324219 C 7.4347526 7.0741958 7.0741982 7.4347527 6.7324219 7.8144531 A 14.499642 14.499642 0 0 0 6.4609375 8.1152344 C 6.1126352 8.5245396 5.7782919 8.9459599 5.4765625 9.3925781 C 5.4375804 9.4502801 5.4073106 9.5139763 5.3691406 9.5722656 A 14.499642 14.499642 0 0 0 5.1914062 9.8613281 C 5.0417353 10.101973 4.8856911 10.338108 4.75 10.587891 C 4.624795 10.818376 4.5210591 11.061008 4.4082031 11.298828 A 14.499642 14.499642 0 0 0 4.2714844 11.582031 C 4.0373976 12.10421 3.8242585 12.636727 3.6523438 13.189453 C 3.6342807 13.247533 3.6228157 13.308807 3.6054688 13.367188 A 14.499642 14.499642 0 0 0 3.5566406 13.556641 C 3.4053725 14.092354 3.2904781 14.640254 3.2011719 15.199219 A 14.499642 14.499642 0 0 0 3.1347656 15.626953 C 3.1177726 15.75834 3.0876727 15.885112 3.0742188 16.017578 C 3.0247187 16.505013 3 16.999505 3 17.5 L 3 46.5 C 3 47.000495 3.0247167 47.494988 3.0742188 47.982422 C 3.0876718 48.114888 3.1177736 48.24166 3.1347656 48.373047 A 14.499642 14.499642 0 0 0 3.2011719 48.800781 C 3.2342569 49.007846 3.2531669 49.217834 3.2949219 49.421875 C 3.3658799 49.768634 3.461409 50.106096 3.5566406 50.443359 A 14.499642 14.499642 0 0 0 3.6054688 50.632812 C 3.7584598 51.147646 3.9317792 51.653433 4.1386719 52.142578 C 4.1785469 52.236858 4.2296837 52.324723 4.2714844 52.417969 A 14.499642 14.499642 0 0 0 4.4082031 52.701172 C 4.6433664 53.196724 4.9036292 53.675977 5.1914062 54.138672 A 14.499642 14.499642 0 0 0 5.3691406 54.427734 C 5.7027484 54.937188 6.0676354 55.42258 6.4609375 55.884766 A 14.499642 14.499642 0 0 0 6.7324219 56.185547 C 7.0741982 56.565247 7.4347526 56.925802 7.8144531 57.267578 A 14.499642 14.499642 0 0 0 8.1152344 57.539062 C 8.1710684 57.586573 8.2207837 57.640823 8.2773438 57.6875 C 8.6889665 58.027201 9.1243574 58.337554 9.5722656 58.630859 A 14.499642 14.499642 0 0 0 9.8613281 58.808594 C 10.101972 58.958261 10.338109 59.114309 10.587891 59.25 C 10.818377 59.375208 11.061008 59.478938 11.298828 59.591797 A 14.499642 14.499642 0 0 0 11.582031 59.728516 C 11.675271 59.770326 11.763145 59.821451 11.857422 59.861328 C 12.2911 60.044759 12.735426 60.204485 13.189453 60.345703 C 13.242473 60.362183 13.298287 60.372772 13.351562 60.388672 A 14.499642 14.499642 0 0 0 13.591797 60.451172 C 13.9179 60.542382 14.243177 60.636538 14.578125 60.705078 C 14.782166 60.746838 14.992156 60.765758 15.199219 60.798828 A 14.499642 14.499642 0 0 0 15.626953 60.865234 C 15.758339 60.882234 15.885112 60.912331 16.017578 60.925781 C 16.505013 60.975291 16.999505 61 17.5 61 L 46.5 61 C 47.000495 61 47.494988 60.975291 47.982422 60.925781 C 48.114888 60.912321 48.241661 60.882234 48.373047 60.865234 A 14.499633 14.499633 0 0 0 48.800781 60.798828 C 49.347759 60.711438 49.883453 60.597935 50.408203 60.451172 A 14.499633 14.499633 0 0 0 50.648438 60.388672 C 51.257139 60.207054 51.845705 59.985055 52.417969 59.728516 A 14.499633 14.499633 0 0 0 52.701172 59.591797 C 53.196724 59.356633 53.675977 59.096367 54.138672 58.808594 A 14.499633 14.499633 0 0 0 54.427734 58.630859 C 54.875642 58.337554 55.311032 58.027201 55.722656 57.6875 C 55.779216 57.64082 55.828932 57.586576 55.884766 57.539062 A 14.499633 14.499633 0 0 0 56.185547 57.267578 C 56.375397 57.096688 56.571381 56.932526 56.751953 56.751953 C 56.932524 56.571383 57.096691 56.375396 57.267578 56.185547 A 14.499633 14.499633 0 0 0 57.539062 55.884766 C 57.586573 55.828926 57.640822 55.779217 57.6875 55.722656 C 57.982995 55.364602 58.262869 54.993113 58.523438 54.607422 C 58.562418 54.549712 58.592696 54.486023 58.630859 54.427734 A 14.499633 14.499633 0 0 0 58.808594 54.138672 C 58.958264 53.898029 59.114311 53.661892 59.25 53.412109 C 59.375208 53.181624 59.478941 52.938992 59.591797 52.701172 A 14.499633 14.499633 0 0 0 59.728516 52.417969 C 59.770326 52.324729 59.821451 52.236855 59.861328 52.142578 C 60.066178 51.65826 60.236646 51.157956 60.388672 50.648438 A 14.499633 14.499633 0 0 0 60.451172 50.408203 C 60.597933 49.883453 60.711436 49.347759 60.798828 48.800781 A 14.499633 14.499633 0 0 0 60.865234 48.373047 C 60.944774 47.758193 61 47.136509 61 46.5 A 14.499633 14.499633 0 0 0 60.927734 45.070312 C 60.926034 45.053202 60.925637 45.034688 60.923828 45.017578 C 60.919628 44.975788 60.91084 44.93621 60.90625 44.894531 A 14.499633 14.499633 0 0 0 60.716797 43.658203 C 60.699917 43.573273 60.678516 43.490635 60.660156 43.40625 A 14.499633 14.499633 0 0 0 60.365234 42.261719 C 60.357734 42.237109 60.353333 42.21205 60.345703 42.1875 C 60.328753 42.13302 60.306623 42.081544 60.289062 42.027344 A 14.499633 14.499633 0 0 0 59.894531 40.951172 C 59.881491 40.919722 59.874578 40.886819 59.861328 40.855469 C 59.834218 40.791389 59.797531 40.731575 59.769531 40.667969 A 14.499633 14.499633 0 0 0 59.279297 39.650391 C 59.246807 39.589911 59.211047 39.53066 59.177734 39.470703 A 14.499633 14.499633 0 0 0 58.537109 38.419922 C 58.517759 38.391152 58.498066 38.364568 58.478516 38.335938 A 14.499633 14.499633 0 0 0 57.703125 37.298828 C 57.683685 37.275198 57.662158 37.252026 57.642578 37.228516 A 14.499633 14.499633 0 0 0 55.775391 35.357422 C 55.749461 35.335812 55.723356 35.312446 55.697266 35.291016 A 14.499633 14.499633 0 0 0 54.699219 34.544922 C 54.667389 34.523042 54.639432 34.496229 54.607422 34.474609 C 54.590452 34.463149 54.571707 34.454759 54.554688 34.443359 A 14.499633 14.499633 0 0 0 53.542969 33.830078 C 53.473259 33.791248 53.404386 33.750595 53.333984 33.712891 A 14.499633 14.499633 0 0 0 52.291016 33.210938 C 52.218156 33.179127 52.147691 33.145884 52.074219 33.115234 A 14.499633 14.499633 0 0 0 51.009766 32.724609 C 50.909191 32.691689 50.810515 32.655763 50.708984 32.625 A 14.499633 14.499633 0 0 0 49.582031 32.335938 C 49.497021 32.317518 49.413683 32.296217 49.328125 32.279297 A 14.499633 14.499633 0 0 0 48.044922 32.083984 C 48.024052 32.081784 48.003322 32.076419 47.982422 32.074219 C 47.974122 32.073381 47.965281 32.073166 47.957031 32.072266 A 14.499633 14.499633 0 0 0 46.5 32 L 32 32 L 32 17.5 A 14.499642 14.499642 0 0 0 31.925781 16.042969 C 31.922881 16.013809 31.919086 15.984188 31.916016 15.955078 A 14.499642 14.499642 0 0 0 31.716797 14.65625 C 31.700807 14.57586 31.681382 14.497872 31.664062 14.417969 A 14.499642 14.499642 0 0 0 31.371094 13.28125 C 31.341254 13.18302 31.307261 13.087568 31.275391 12.990234 A 14.499642 14.499642 0 0 0 30.884766 11.925781 C 30.854126 11.852311 30.820873 11.781837 30.789062 11.708984 A 14.499642 14.499642 0 0 0 30.279297 10.648438 C 30.244617 10.583887 30.205556 10.520988 30.169922 10.457031 A 14.499642 14.499642 0 0 0 29.548828 9.4335938 C 29.518468 9.3883447 29.485928 9.3456679 29.455078 9.3007812 A 14.499642 14.499642 0 0 0 28.705078 8.2988281 C 28.684778 8.2741421 28.663038 8.2491564 28.642578 8.2246094 A 14.499642 14.499642 0 0 0 26.771484 6.3574219 C 26.746604 6.3366929 26.722296 6.3135327 26.697266 6.2929688 A 14.499642 14.499642 0 0 0 25.664062 5.5214844 C 25.635433 5.5019344 25.608848 5.4822436 25.580078 5.4628906 A 14.499642 14.499642 0 0 0 24.529297 4.8222656 C 24.464087 4.7860336 24.399806 4.7481415 24.333984 4.7128906 A 14.499642 14.499642 0 0 0 23.332031 4.2304688 C 23.237338 4.1887912 23.144566 4.1451657 23.048828 4.1054688 A 14.499642 14.499642 0 0 0 22.021484 3.7265625 C 21.917307 3.6923851 21.814186 3.6568668 21.708984 3.625 A 14.499642 14.499642 0 0 0 20.601562 3.3417969 C 20.510085 3.3218426 20.420241 3.2975152 20.328125 3.2792969 A 14.499642 14.499642 0 0 0 19.105469 3.09375 C 19.043549 3.08692 18.982077 3.0783146 18.919922 3.0722656 A 14.499642 14.499642 0 0 0 17.5 3 z M 17.5 9.3789062 C 21.984448 9.3789062 25.621094 13.015551 25.621094 17.5 C 25.621094 21.984449 21.984448 25.619141 17.5 25.619141 C 13.015551 25.619141 9.3808594 21.984449 9.3808594 17.5 C 9.3808594 13.015551 13.015551 9.3789062 17.5 9.3789062 z M 17.5 38.378906 C 21.984448 38.378906 25.621094 42.015551 25.621094 46.5 C 25.621094 50.984449 21.984448 54.619141 17.5 54.619141 C 13.015551 54.619141 9.3808594 50.984449 9.3808594 46.5 C 9.3808594 42.015551 13.015551 38.378906 17.5 38.378906 z M 46.498047 38.378906 C 50.982497 38.378906 54.619141 42.015551 54.619141 46.5 C 54.619141 50.984449 50.982497 54.619141 46.498047 54.619141 C 42.013599 54.619141 38.378906 50.984449 38.378906 46.5 C 38.378906 42.015551 42.013599 38.378906 46.498047 38.378906 z "
     d="m 17.494141,5.875 c -0.403768,1.956e-4 -0.798766,0.019314 -1.185547,0.058594 0.11296,-0.011473 0.01391,0.01052 -0.3125,0.052734 -0.104738,0.014936 -0.20821,0.031039 -0.3125,0.048828 a 2.8752875,2.8752875 0 0 1 -0.03125,0.00586 c -0.337511,0.053925 -0.506478,0.072038 -0.498047,0.070312 -0.209161,0.042801 -0.477919,0.1173133 -0.816406,0.2128906 a 2.8752875,2.8752875 0 0 1 -0.08203,0.021484 c -0.05072,0.012707 -0.101803,0.025672 -0.152343,0.039063 l 0.08203,-0.023437 c -0.253408,0.075302 -0.302714,0.086913 -0.142578,0.037109 -0.36772,0.1143729 -0.723364,0.2435784 -1.066406,0.3886719 0.127594,-0.053969 0.05796,-0.016622 -0.21875,0.1074218 -0.06052,0.028738 -0.121625,0.060064 -0.181641,0.089844 a 2.8752875,2.8752875 0 0 1 -0.04492,0.021484 c -0.305629,0.1450374 -0.498224,0.2303705 -0.570312,0.2695312 -0.105219,0.057159 -0.296615,0.1799068 -0.582032,0.3574219 a 2.8752875,2.8752875 0 0 1 -0.04101,0.025391 c -0.07453,0.044634 -0.147191,0.090425 -0.220703,0.1367188 -0.0032,0.00203 -0.0065,0.00383 -0.0098,0.00586 -0.36778,0.2424334 -0.704366,0.4845375 -1,0.7285157 0.148932,-0.1229087 0.107936,-0.080459 -0.1289064,0.1210937 -0.070112,0.062 -0.1403899,0.1257784 -0.2089843,0.1894532 a 2.8752875,2.8752875 0 0 1 -0.03125,0.029297 C 9.4332286,9.1437229 9.1437388,9.4332132 8.8691406,9.7382813 a 2.8752875,2.8752875 0 0 1 -0.029297,0.03125 c -0.063675,0.068594 -0.1274536,0.138872 -0.1894532,0.2089843 -0.00166,0.00195 -0.00225,0.00391 -0.00391,0.00586 -0.3035005,0.356941 -0.5684526,0.693924 -0.7871094,1.017578 0.1239553,-0.183481 0.096473,-0.134027 -0.085937,0.144531 l 0.027344,-0.03906 c -0.048399,0.07669 -0.095987,0.152667 -0.1425781,0.230469 a 2.8752875,2.8752875 0 0 1 -0.025391,0.04101 c -0.17751,0.285406 -0.3002627,0.476812 -0.3574219,0.582032 -0.039177,0.07212 -0.1245156,0.264723 -0.2695312,0.570312 a 2.8752875,2.8752875 0 0 1 -0.021484,0.04492 c -0.02978,0.06002 -0.061106,0.121118 -0.089844,0.181641 -0.00218,0.0049 -0.00369,0.0088 -0.00586,0.01367 -0.1991919,0.445421 -0.3643072,0.866614 -0.4902344,1.271485 0.049774,-0.160042 0.038163,-0.11075 -0.037109,0.142578 l 0.023437,-0.08203 c -0.01339,0.05054 -0.026355,0.101627 -0.039063,0.152343 a 2.8752875,2.8752875 0 0 1 -0.021484,0.08203 c -0.115417,0.408747 -0.2083277,0.84581 -0.2832031,1.314453 a 2.8752875,2.8752875 0 0 1 -0.00586,0.03125 c -0.019451,0.114034 -0.036696,0.227233 -0.052734,0.341797 -0.034569,0.257637 -0.05923,0.385623 -0.048828,0.283203 C 5.89412,16.697298 5.875,17.094166 5.875,17.5 v 29 c 0,0.405841 0.01912,0.80272 0.058594,1.191406 -0.011475,-0.112987 0.010518,-0.01393 0.052734,0.3125 0.014936,0.104738 0.031039,0.20821 0.048828,0.3125 a 2.8752875,2.8752875 0 0 1 0.00586,0.03125 c 0.053937,0.337568 0.072051,0.506544 0.070312,0.498047 0.042801,0.209162 0.1173139,0.477921 0.2128906,0.816406 a 2.8752875,2.8752875 0 0 1 0.021484,0.08203 c 0.008,0.03193 0.01712,0.06384 0.025391,0.0957 0.1282001,0.428592 0.2649812,0.826511 0.4160157,1.183593 -0.054001,-0.127679 -0.016632,-0.05798 0.1074218,0.21875 0.028738,0.06052 0.060064,0.121625 0.089844,0.181641 a 2.8752875,2.8752875 0 0 1 0.021484,0.04492 c 0.1907252,0.401909 0.3988265,0.785556 0.6269531,1.152344 a 2.8752875,2.8752875 0 0 1 0.025391,0.04102 c 0.043424,0.07251 0.087817,0.143297 0.1328125,0.214844 0.2604666,0.395524 0.5450066,0.775454 0.8554688,1.140625 0.00119,0.0014 0.00271,0.0025 0.00391,0.0039 0.062,0.07011 0.1257784,0.14039 0.1894532,0.208985 a 2.8752875,2.8752875 0 0 1 0.029297,0.03125 c 0.2745956,0.305065 0.5640793,0.594549 0.8691407,0.86914 a 2.8752875,2.8752875 0 0 1 0.03125,0.0293 c 0.079362,0.07367 0.1607982,0.147327 0.2421877,0.21875 0.104391,0.09101 0.207421,0.183994 0.0957,0.0918 0.29563,0.243976 0.63222,0.486083 1,0.728516 0.0032,0.002 0.0065,0.0038 0.0098,0.0059 0.07351,0.04629 0.146171,0.09208 0.220703,0.136719 a 2.8752875,2.8752875 0 0 1 0.04101,0.02539 c 0.285434,0.177524 0.476825,0.30027 0.582032,0.357422 0.07208,0.03916 0.264673,0.124489 0.570312,0.269532 a 2.8752875,2.8752875 0 0 1 0.04492,0.02148 c 0.06002,0.02978 0.121118,0.06111 0.181641,0.08984 0.276286,0.12389 0.346134,0.161303 0.21875,0.107422 0.33628,0.142235 0.691494,0.270108 1.066406,0.386718 -0.159764,-0.04966 -0.114521,-0.04003 0.130859,0.0332 0.03924,0.01029 0.07784,0.01942 0.117188,0.0293 a 2.8752875,2.8752875 0 0 1 0.07422,0.01953 c 0.342781,0.09587 0.602598,0.168875 0.789063,0.207031 -0.0085,-0.0017 0.160695,0.01643 0.498047,0.07031 a 2.8752875,2.8752875 0 0 1 0.03125,0.0059 c 0.114034,0.01945 0.227233,0.0367 0.341797,0.05273 0.257517,0.03456 0.385634,0.05923 0.283203,0.04883 C 16.697222,58.10588 17.094129,58.125 17.5,58.125 h 29 c 0.405871,0 0.80278,-0.01912 1.191406,-0.05859 -0.102174,0.01038 0.02578,-0.01427 0.283203,-0.04883 0.114564,-0.01604 0.227763,-0.03328 0.341797,-0.05273 a 2.8752875,2.8752875 0 0 1 0.03125,-0.0059 c 0.452788,-0.07234 0.880851,-0.16372 1.28711,-0.277343 a 2.8752875,2.8752875 0 0 1 0.07422,-0.01953 c 0.04135,-0.01038 0.08181,-0.02041 0.123047,-0.03125 0.474203,-0.141782 0.938316,-0.315765 1.398438,-0.521484 0.0037,-0.0017 0.0081,-0.0022 0.01172,-0.0039 0.06052,-0.02874 0.121625,-0.06006 0.181641,-0.08984 a 2.8752875,2.8752875 0 0 1 0.04492,-0.02148 c 0.401902,-0.190723 0.785539,-0.398819 1.152344,-0.626954 a 2.8752875,2.8752875 0 0 1 0.04102,-0.02539 c 0.07453,-0.04463 0.147191,-0.09042 0.220703,-0.136719 0.371778,-0.24468 0.71142,-0.488159 1.009766,-0.734375 -0.111598,0.0921 -0.0086,-8.36e-4 0.0957,-0.0918 l 0.0332,-0.0293 c 0.07011,-0.062 0.14039,-0.125778 0.208985,-0.189453 a 2.8752875,2.8752875 0 0 1 0.03125,-0.0293 c 0.240625,-0.216594 0.395883,-0.35096 0.457031,-0.412109 0.06115,-0.06115 0.195535,-0.216425 0.412109,-0.457031 a 2.8752875,2.8752875 0 0 1 0.0293,-0.03125 c 0.06367,-0.0686 0.127454,-0.138872 0.189453,-0.208985 l 0.0293,-0.0332 c 0.09106,-0.104459 0.184029,-0.207463 0.0918,-0.0957 0.241362,-0.29246 0.464555,-0.590549 0.669922,-0.894531 -0.12366,0.18308 -0.09816,0.133671 0.08398,-0.144531 0.03983,-0.06367 0.0786,-0.126977 0.117188,-0.191407 a 2.8752875,2.8752875 0 0 1 0.02539,-0.04102 c 0.177514,-0.28541 0.300275,-0.476833 0.357422,-0.582032 0.03916,-0.07209 0.124508,-0.264705 0.269532,-0.570312 a 2.8752875,2.8752875 0 0 1 0.02148,-0.04492 c 0.02978,-0.06002 0.06111,-0.121118 0.08984,-0.181641 0.12389,-0.276286 0.161303,-0.346134 0.107422,-0.21875 0.150311,-0.355375 0.287441,-0.754554 0.417968,-1.191406 0.01084,-0.04123 0.02087,-0.0817 0.03125,-0.123047 a 2.8752875,2.8752875 0 0 1 0.01953,-0.07422 c 0.113623,-0.406265 0.204999,-0.834316 0.277343,-1.28711 a 2.8752875,2.8752875 0 0 1 0.0059,-0.03125 c 0.01779,-0.10429 0.03389,-0.207762 0.04883,-0.3125 v -0.0078 c 0.0688,-0.533632 0.111116,-1.025489 0.111328,-1.492188 v -0.002 c -4.92e-4,-0.382062 -0.02049,-0.764373 -0.05859,-1.144531 a 2.8752875,2.8752875 0 0 1 0,-0.002 c -0.01752,-0.176336 -0.01832,-0.189957 -0.002,-0.03516 a 2.8752875,2.8752875 0 0 1 -0.002,-0.01563 c 0.01764,0.175531 0.01295,0.146017 -0.01367,-0.0957 a 2.8752875,2.8752875 0 0 1 0,-0.002 c -0.03627,-0.331735 -0.08767,-0.660896 -0.152344,-0.988281 v -0.002 c 0.0038,0.01926 -0.0111,-0.04379 -0.04492,-0.199219 a 2.8752875,2.8752875 0 0 1 -0.002,-0.0078 c -0.06574,-0.306284 -0.144117,-0.610182 -0.234375,-0.910157 l -0.002,-0.0078 c -0.04857,-0.160685 -0.06912,-0.229199 -0.01367,-0.05078 0.04132,0.132798 0.02642,0.09322 -0.04492,-0.126954 a 2.8752875,2.8752875 0 0 1 -0.002,-0.0039 C 57.459357,42.6205 57.354098,42.334171 57.238281,42.052734 l -0.002,-0.0039 c -2.33e-4,-5.65e-4 2.33e-4,-0.0014 0,-0.002 -0.113655,-0.275392 -0.133405,-0.330089 -0.02344,-0.07031 v -0.002 c 0.08217,0.194574 0.05771,0.151262 -0.07422,-0.148437 a 2.8752875,2.8752875 0 0 1 -0.0059,-0.01172 c -0.118374,-0.272361 -0.247837,-0.540236 -0.386718,-0.802734 0.01325,0.02467 -0.01503,-0.02395 -0.08203,-0.144532 a 2.8752875,2.8752875 0 0 1 -0.002,-0.0059 c -0.158041,-0.285855 -0.328218,-0.564404 -0.509765,-0.835937 l -0.002,-0.0039 c 0.02157,0.03222 0.0093,0.01779 -0.04687,-0.06445 a 2.8752875,2.8752875 0 0 1 -0.002,-0.0039 C 55.907671,39.668081 55.700872,39.391689 55.482422,39.125 l -0.002,-0.0039 c 0.04521,0.05515 0.03636,0.04721 -0.04687,-0.05273 a 2.8752875,2.8752875 0 0 1 -0.002,-0.0039 c -0.451369,-0.543479 -0.953667,-1.045414 -1.496094,-1.498047 -0.07193,-0.05995 -0.08101,-0.06864 -0.05664,-0.04883 l -0.0059,-0.0059 c -0.256014,-0.208818 -0.522056,-0.40554 -0.794922,-0.591797 a 2.8752875,2.8752875 0 0 1 -0.0078,-0.0059 c -0.287784,-0.197823 -0.310486,-0.217538 -0.07227,-0.05664 0.257438,0.17385 0.243133,0.166251 -0.04297,-0.02539 l 0.0098,0.0078 c -0.263533,-0.174836 -0.533638,-0.339419 -0.810547,-0.492188 a 2.8752875,2.8752875 0 0 1 -0.0098,-0.0059 c -0.10661,-0.05938 -0.155238,-0.087 -0.160156,-0.08984 l -0.0059,-0.002 c -0.271491,-0.144096 -0.548024,-0.27826 -0.830079,-0.400391 a 2.8752875,2.8752875 0 0 1 -0.0078,-0.0039 c -0.115055,-0.05023 -0.159748,-0.07099 -0.162109,-0.07227 l -0.01172,-0.0039 C 50.690246,35.655931 50.409484,35.552883 50.125,35.460937 a 2.8752875,2.8752875 0 0 1 -0.0098,-0.0039 c -0.154847,-0.05068 -0.225986,-0.07594 -0.232422,-0.07813 l -0.0078,-0.002 c -0.295392,-0.08832 -0.593054,-0.16591 -0.894531,-0.230469 a 2.8752875,2.8752875 0 0 1 -0.0078,0 c -0.153271,-0.03321 -0.219507,-0.05011 -0.203125,-0.04687 -0.339094,-0.06726 -0.681652,-0.119465 -1.02539,-0.15625 h -0.0039 c -0.205051,-0.02188 -0.166003,-0.01963 -0.04687,-0.0078 l -0.01172,-0.002 c 0.0161,0.0018 -0.0097,5.2e-5 -0.01172,0 -0.388076,-0.03889 -0.777949,-0.05889 -1.167969,-0.05859 a 2.8752875,2.8752875 0 0 1 -0.002,0 H 32 A 2.8752875,2.8752875 0 0 1 29.125,32 V 17.501953 17.5 c -2.85e-4,-0.389395 -0.01925,-0.778613 -0.05859,-1.166016 a 2.8752875,2.8752875 0 0 1 -0.002,-0.0059 c 0.0024,0.02377 -0.0015,-0.0068 -0.0078,-0.06641 v -0.0059 c -0.03744,-0.347333 -0.08965,-0.692603 -0.158204,-1.035156 a 2.8752875,2.8752875 0 0 1 -0.002,-0.0039 c 0.0015,0.0076 -0.01342,-0.05312 -0.04297,-0.189453 a 2.8752875,2.8752875 0 0 1 0,-0.0059 c -0.06552,-0.304769 -0.142625,-0.605778 -0.232422,-0.904296 l -0.002,-0.0059 c -0.0049,-0.01558 -0.03033,-0.08655 -0.07617,-0.226562 a 2.8752875,2.8752875 0 0 1 -0.0039,-0.0098 c -0.09195,-0.284484 -0.194993,-0.565246 -0.308593,-0.841797 l -0.0039,-0.01172 c -0.0012,-0.0021 -0.022,-0.047 -0.07227,-0.162109 a 2.8752875,2.8752875 0 0 1 -0.0039,-0.01172 c -0.122921,-0.284783 -0.258999,-0.563848 -0.404297,-0.83789 l -0.002,-0.002 c 0.02085,0.03899 -0.0068,-0.01031 -0.08594,-0.152344 a 2.8752875,2.8752875 0 0 1 -0.0059,-0.0098 c -0.154593,-0.280202 -0.320866,-0.553819 -0.498047,-0.820312 0.01986,0.03019 0.0072,0.0142 -0.06836,-0.0957 a 2.8752875,2.8752875 0 0 1 -0.0039,-0.0078 C 26.894609,10.647563 26.694599,10.382255 26.484375,10.125 l -0.0039,-0.0059 c 0.008,0.0098 -0.0052,-0.0051 -0.04492,-0.05274 l -0.002,-0.002 C 25.980961,9.5220263 25.479026,9.0197281 24.935547,8.5683594 a 2.8752875,2.8752875 0 0 1 -0.0039,-0.00195 C 24.814027,8.468415 24.809474,8.4623789 24.876953,8.5175781 l -0.0039,-0.00391 C 24.607595,8.2966345 24.332422,8.0911668 24.048828,7.8984375 a 2.8752875,2.8752875 0 0 1 -0.0059,-0.00195 c -0.07931,-0.054161 -0.0898,-0.063119 -0.0625,-0.044922 l -0.002,-0.00195 C 23.705843,7.6671525 23.425797,7.4966343 23.138672,7.3378906 a 2.8752875,2.8752875 0 0 1 -0.0059,-0.00195 C 23.032757,7.2803445 22.992646,7.2565327 22.988281,7.2539062 L 22.978516,7.25 C 22.7188,7.1127437 22.454912,6.9843795 22.185547,6.8671875 a 2.8752875,2.8752875 0 0 1 -0.01172,-0.00586 c -0.134615,-0.059248 -0.203836,-0.090503 -0.220703,-0.097656 l -0.0059,-0.00195 c -0.26875,-0.1106533 -0.542073,-0.212531 -0.81836,-0.3027343 a 2.8752875,2.8752875 0 0 1 -0.0039,0 c -0.124667,-0.0409 -0.199131,-0.066018 -0.238281,-0.078125 L 20.875,6.3769531 C 20.586039,6.2911226 20.294757,6.2154584 20,6.1523437 a 2.8752875,2.8752875 0 0 1 -0.01172,-0.00195 c -0.178858,-0.039015 -0.242841,-0.054535 -0.21289,-0.048828 l -0.0059,-0.00195 C 19.44706,6.0366746 19.121564,5.9865708 18.794922,5.9511719 a 2.8752875,2.8752875 0 0 1 -0.0039,0 c -0.11739,-0.012949 -0.167982,-0.01929 -0.150391,-0.017578 a 2.8752875,2.8752875 0 0 1 -0.0078,0 C 18.256545,5.8958802 17.878151,5.8758724 17.5,5.875 Z M 17.5,6.5039062 c 6.038761,0 10.996094,4.9573318 10.996094,10.9960938 0,6.038762 -4.958168,10.994141 -10.996094,10.994141 C 11.462073,28.494141 6.5058594,23.537927 6.5058594,17.5 6.5058594,11.462073 11.461238,6.5039063 17.5,6.5039062 Z m 0,28.9999998 c 6.038761,0 10.996094,4.957332 10.996094,10.996094 0,6.038762 -4.958168,10.994141 -10.996094,10.994141 -6.037927,0 -10.9941406,-4.956214 -10.9941406,-10.994141 0,-6.037927 4.9553786,-10.996094 10.9941406,-10.996094 z m 28.998047,0 c 6.038762,0 10.996094,4.957333 10.996094,10.996094 0,6.038761 -4.958166,10.994141 -10.996094,10.994141 -6.037927,0 -10.994141,-4.956214 -10.994141,-10.994141 0,-6.037927 4.95538,-10.996094 10.994141,-10.996094 z" /></svg>
