<?xml version="1.0" encoding="UTF-8" standalone="no"?>
<!-- Created with Inkscape (http://www.inkscape.org/) -->

<svg
   width="64"
   height="64"
   viewBox="0 0 64 64"
   version="1.1"
   id="svg1"
   inkscape:version="1.4 (e7c3feb100, 2024-10-09)"
   sodipodi:docname="CRN_ERR_ASYM.svg"
   xml:space="preserve"
   xmlns:inkscape="http://www.inkscape.org/namespaces/inkscape"
   xmlns:sodipodi="http://sodipodi.sourceforge.net/DTD/sodipodi-0.dtd"
   xmlns:xlink="http://www.w3.org/1999/xlink"
   xmlns="http://www.w3.org/2000/svg"
   xmlns:svg="http://www.w3.org/2000/svg"
   xmlns:rdf="http://www.w3.org/1999/02/22-rdf-syntax-ns#"
   xmlns:cc="http://creativecommons.org/ns#"
   xmlns:dc="http://purl.org/dc/elements/1.1/"><title
     id="title2">Brace - Corner - End Round Round - Asymmetric</title><sodipodi:namedview
     id="namedview1"
     pagecolor="#323232"
     bordercolor="#ffffff"
     borderopacity="1"
     inkscape:showpageshadow="0"
     inkscape:pageopacity="0"
     inkscape:pagecheckerboard="1"
     inkscape:deskcolor="#191919"
     inkscape:document-units="px"
     showgrid="true"
     inkscape:zoom="5.6568543"
     inkscape:cx="-18.031223"
     inkscape:cy="11.22532"
     inkscape:window-width="1894"
     inkscape:window-height="999"
     inkscape:window-x="0"
     inkscape:window-y="0"
     inkscape:window-maximized="1"
     inkscape:current-layer="svg1"
     showguides="true"
     inkscape:lockguides="false"
     guidecolor="#ffff00"
     guideopacity="0.6"
     guidehicolor="#ff00ff"
     guidehiopacity="0.50196078"><inkscape:grid
       id="grid1"
       units="px"
       originx="0"
       originy="0"
       spacingx="2"
       spacingy="2"
       empcolor="#0099e5"
       empopacity="0.30196078"
       color="#0099e5"
       opacity="0.14901961"
       empspacing="4"
       enabled="true"
       visible="true" /><sodipodi:guide
       position="-2,62"
       orientation="0,1"
       id="guide5"
       inkscape:locked="false"
       inkscape:label="top margin"
       inkscape:color="rgb(255,255,0)" /><sodipodi:guide
       position="64,2"
       orientation="0,1"
       id="guide6"
       inkscape:locked="false"
       inkscape:label="bottom margin"
       inkscape:color="rgb(255,255,0)" /><sodipodi:guide
       position="2,-2"
       orientation="-1,0"
       id="guide7"
       inkscape:locked="false"
       inkscape:label="right margin"
       inkscape:color="rgb(255,255,0)" /><sodipodi:guide
       position="62,64"
       orientation="-1,0"
       id="guide8"
       inkscape:locked="false"
       inkscape:label="left margin"
       inkscape:color="rgb(255,255,0)" /><sodipodi:guide
       position="64,64"
       orientation="0.70710678,-0.70710678"
       id="guide1"
       inkscape:locked="false" /><sodipodi:guide
       position="0,64"
       orientation="0.70710678,0.70710678"
       id="guide2"
       inkscape:label=""
       inkscape:locked="false"
       inkscape:color="rgb(255,255,0)" /></sodipodi:namedview><defs
     id="defs1"><linearGradient
       id="linearGradient28"
       inkscape:collect="always"><stop
         style="stop-color:#ad7fa8;stop-opacity:1;"
         offset="0"
         id="stop28" /><stop
         style="stop-color:#75507b;stop-opacity:1;"
         offset="1"
         id="stop31" /></linearGradient><marker
       id="DistanceX"
       orient="auto"
       refX="0.0"
       refY="0.0"
       style="overflow:visible"><path
         d="M 3,-3 L -3,3 M 0,-5 L  0,5"
         style="stroke:#000000; stroke-width:0.5"
         id="path1-36" /></marker><pattern
       id="Hatch"
       patternUnits="userSpaceOnUse"
       width="8"
       height="8"
       x="0"
       y="0"><path
         d="M8 4 l-4,4"
         stroke="#000000"
         stroke-width="0.25"
         linecap="square"
         id="path2-7" /><path
         d="M6 2 l-4,4"
         stroke="#000000"
         stroke-width="0.25"
         linecap="square"
         id="path3" /><path
         d="M4 0 l-4,4"
         stroke="#000000"
         stroke-width="0.25"
         linecap="square"
         id="path4" /></pattern><symbol
       id="*MODEL_SPACE" /><symbol
       id="*PAPER_SPACE" /><linearGradient
       inkscape:collect="always"
       xlink:href="#linearGradient28"
       id="linearGradient2"
       x1="13.646412"
       y1="16.562428"
       x2="47.435619"
       y2="50.351635"
       gradientUnits="userSpaceOnUse" /></defs><metadata
     id="metadata1"><rdf:RDF><cc:Work
         rdf:about=""><cc:license
           rdf:resource="http://creativecommons.org/licenses/by-nc-sa/4.0/" /><dc:creator><cc:Agent><dc:title>hasecilu</dc:title></cc:Agent></dc:creator><dc:subject><rdf:Bag><rdf:li>FreeCAD</rdf:li><rdf:li>command</rdf:li></rdf:Bag></dc:subject><dc:description>Template file to create icons for FreeCAD commands.</dc:description><dc:date>2024</dc:date><dc:rights><cc:Agent><dc:title>FreeCAD LGPL2+</dc:title></cc:Agent></dc:rights><dc:identifier>FreeCAD/src/</dc:identifier><dc:publisher><cc:Agent><dc:title>FreeCAD</dc:title></cc:Agent></dc:publisher><dc:relation>https://wiki.freecad.org/Artwork</dc:relation><dc:title>Brace - Corner - End Round Round - Asymmetric</dc:title></cc:Work><cc:License
         rdf:about="http://creativecommons.org/licenses/by-nc-sa/4.0/"><cc:permits
           rdf:resource="http://creativecommons.org/ns#Reproduction" /><cc:permits
           rdf:resource="http://creativecommons.org/ns#Distribution" /><cc:requires
           rdf:resource="http://creativecommons.org/ns#Notice" /><cc:requires
           rdf:resource="http://creativecommons.org/ns#Attribution" /><cc:prohibits
           rdf:resource="http://creativecommons.org/ns#CommercialUse" /><cc:permits
           rdf:resource="http://creativecommons.org/ns#DerivativeWorks" /><cc:requires
           rdf:resource="http://creativecommons.org/ns#ShareAlike" /></cc:License></rdf:RDF></metadata><path
     id="path16"
     style="fill:#ad7fa8;stroke:#5c3566;stroke-width:2.8395;stroke-linejoin:round;stroke-dasharray:none;stroke-opacity:1"
     d="M 19.39757,3.4197519 C 10.613009,3.4197512 3.419753,10.613008 3.4197524,19.397572 v 9.227035 c 0,31.955641 0,0 0,31.955641 41.1826696,0 41.1826696,0 41.1826696,0 8.784562,0 15.977826,-7.193269 15.977825,-15.977821 0,-8.784558 -7.193263,-15.97782 -15.977825,-15.97782 h -9.22703 v -9.227035 c 0,-8.784564 -7.193265,-15.9778207 -15.977822,-15.9778201 z m 0,6.0441106 c 4.244394,1.34e-4 7.685562,3.4400265 7.687271,7.6844205 -0.07924,10.170153 -15.29532,10.170153 -15.374561,0 0.0017,-4.244392 3.442877,-7.6842818 7.687269,-7.684417 z M 46.851717,36.915159 c 4.246636,-0.0014 7.69002,3.440656 7.690142,7.68729 -9.75e-4,4.245675 -3.443046,7.686947 -7.688754,7.68691 -4.245671,-10e-7 -7.687741,-3.441273 -7.688754,-7.68691 1.31e-4,-4.245511 3.441765,-7.687146 7.687277,-7.687276 z m -27.457019,0.003 c 4.244391,1.35e-4 7.685557,3.440025 7.687267,7.684416 -0.07984,10.169538 -15.294707,10.169538 -15.374552,0 0.0017,-4.24439 3.442877,-7.684279 7.687266,-7.684415 z"
     inkscape:label="main"
     sodipodi:nodetypes="ssccssscsssccssscscsssccss" /><path
     id="path1"
     style="fill:url(#linearGradient2);fill-opacity:1;stroke:none;stroke-width:2.8395;stroke-linejoin:round;stroke-dasharray:none;stroke-opacity:1"
     inkscape:label="gradient"
     sodipodi:type="inkscape:offset"
     inkscape:radius="-3.2285156"
     inkscape:original="M 19.398438 3.4199219 C 10.613876 3.4199212 3.4199225 10.613873 3.4199219 19.398438 L 3.4199219 28.625 L 3.4199219 60.580078 L 44.601562 60.580078 C 53.386125 60.580078 60.580079 53.386114 60.580078 44.601562 C 60.580078 35.817005 53.386124 28.625 44.601562 28.625 L 35.375 28.625 L 35.375 19.398438 C 35.375 10.613874 28.182994 3.4199213 19.398438 3.4199219 z M 19.398438 9.4628906 C 23.642831 9.4630246 27.082275 12.904044 27.083984 17.148438 C 27.004744 27.31859 11.790178 27.31859 11.710938 17.148438 C 11.712637 12.904045 15.154045 9.4630258 19.398438 9.4628906 z M 46.851562 36.916016 C 51.098199 36.914616 54.540894 40.354929 54.541016 44.601562 C 54.540041 48.847237 51.099224 52.289099 46.853516 52.289062 C 42.607845 52.289062 39.165075 48.847199 39.164062 44.601562 C 39.164194 40.356051 42.606051 36.916146 46.851562 36.916016 z M 19.394531 36.917969 C 23.638922 36.918104 27.080321 40.359125 27.082031 44.603516 C 27.002191 54.773054 11.786876 54.773054 11.707031 44.603516 C 11.708731 40.359126 15.150142 36.918105 19.394531 36.917969 z "
     d="M 11.615234,9.5625 C 8.6655981,11.901356 6.6484378,15.356872 6.6484375,19.398437 V 28.625 57.351562 H 44.601562 c 4.039036,0 7.493045,-2.01446 9.832032,-4.960937 -1.970815,1.918629 -4.638045,3.126979 -7.580078,3.126953 -5.990525,0 -10.91654,-4.925468 -10.917969,-10.916016 1.86e-4,-5.989709 4.925577,-10.912788 10.914062,-10.914062 h 0.002 c 2.941434,-4.34e-4 5.610809,1.20711 7.582032,3.125 -2.338902,-2.945928 -5.792721,-4.958984 -9.832032,-4.958984 H 35.375 A 3.2288385,3.2288385 0 0 1 32.146484,28.625 v -9.226563 c 0,-4.041839 -2.015756,-7.497165 -4.964843,-9.835937 1.920945,1.970945 3.129674,4.64077 3.130859,7.583984 a 3.2288385,3.2288385 0 0 1 0,0.02734 c -0.02608,3.347442 -1.413617,6.257912 -3.515625,8.115234 -2.102008,1.857323 -4.771074,2.714844 -7.398438,2.714844 -2.627363,0 -5.298382,-0.857521 -7.40039,-2.714844 C 9.8960392,23.43174 8.5085032,20.52127 8.4824219,17.173828 a 3.2288385,3.2288385 0 0 1 0,-0.02734 C 8.4836002,14.202779 9.6938075,11.533328 11.615234,9.5625 Z m 7.779297,24.126953 c 5.989288,1.91e-4 10.913603,4.923278 10.916016,10.912109 a 3.2288385,3.2288385 0 0 1 0,0.02734 c -0.02628,3.347376 -1.413444,6.258083 -3.515625,8.115235 -2.102181,1.857151 -4.772964,2.714843 -7.400391,2.714843 -2.627426,0 -5.298209,-0.857692 -7.40039,-2.714843 C 9.8919594,50.886989 8.5047972,47.976282 8.4785156,44.628906 a 3.2288385,3.2288385 0 0 1 0,-0.02734 c 0.0024,-5.988841 4.9267294,-10.911917 10.9160154,-10.912109 z" /></svg>
