<?xml version="1.0" encoding="UTF-8" standalone="no"?>
<!-- Created with Inkscape (http://www.inkscape.org/) -->

<svg
   width="64"
   height="64"
   id="svg2869"
   version="1.1"
   viewBox="0 0 64 64"
   sodipodi:docname="GRW.svg"
   inkscape:version="1.4 (e7c3feb100, 2024-10-09)"
   xmlns:inkscape="http://www.inkscape.org/namespaces/inkscape"
   xmlns:sodipodi="http://sodipodi.sourceforge.net/DTD/sodipodi-0.dtd"
   xmlns:xlink="http://www.w3.org/1999/xlink"
   xmlns="http://www.w3.org/2000/svg"
   xmlns:svg="http://www.w3.org/2000/svg"
   xmlns:rdf="http://www.w3.org/1999/02/22-rdf-syntax-ns#"
   xmlns:cc="http://creativecommons.org/ns#"
   xmlns:dc="http://purl.org/dc/elements/1.1/">
  <sodipodi:namedview
     id="namedview1"
     pagecolor="#505050"
     bordercolor="#ffffff"
     borderopacity="1"
     inkscape:showpageshadow="0"
     inkscape:pageopacity="0"
     inkscape:pagecheckerboard="1"
     inkscape:deskcolor="#505050"
     inkscape:zoom="11.313709"
     inkscape:cx="25.455844"
     inkscape:cy="33.013048"
     inkscape:window-width="1894"
     inkscape:window-height="999"
     inkscape:window-x="0"
     inkscape:window-y="0"
     inkscape:window-maximized="1"
     inkscape:current-layer="svg2869" />
  <title
     id="title23">FCGear Involute Gear</title>
  <defs
     id="defs2871">
    <linearGradient
       id="linearGradient22">
      <stop
         style="stop-color:#c4a000;stop-opacity:1"
         offset="0"
         id="stop22" />
      <stop
         style="stop-color:#fce94f;stop-opacity:1"
         offset="1"
         id="stop23" />
    </linearGradient>
    <linearGradient
       id="linearGradient5">
      <stop
         style="stop-color:#ef2929;stop-opacity:1;"
         offset="0"
         id="stop19" />
      <stop
         style="stop-color:#ef2929;stop-opacity:0;"
         offset="1"
         id="stop20" />
    </linearGradient>
    <linearGradient
       id="swatch18">
      <stop
         style="stop-color:#ef2929;stop-opacity:1;"
         offset="0"
         id="stop18" />
    </linearGradient>
    <linearGradient
       id="swatch15">
      <stop
         style="stop-color:#3d0000;stop-opacity:1;"
         offset="0"
         id="stop15" />
    </linearGradient>
    <linearGradient
       id="linearGradient5-1">
      <stop
         style="stop-color:#ef2929;stop-opacity:1;"
         offset="0"
         id="stop5" />
      <stop
         style="stop-color:#ef2929;stop-opacity:0;"
         offset="1"
         id="stop6" />
    </linearGradient>
    <linearGradient
       id="linearGradient3836-9">
      <stop
         style="stop-color:#a40000;stop-opacity:1"
         offset="0"
         id="stop3838-8" />
      <stop
         style="stop-color:#ef2929;stop-opacity:1"
         offset="1"
         id="stop3840-1" />
    </linearGradient>
    <linearGradient
       id="linearGradient3836-9-3">
      <stop
         style="stop-color:#a40000;stop-opacity:1"
         offset="0"
         id="stop3838-8-5" />
      <stop
         style="stop-color:#ef2929;stop-opacity:1"
         offset="1"
         id="stop3840-1-6" />
    </linearGradient>
    <linearGradient
       y2="5"
       x2="-22"
       y1="18"
       x1="-18"
       gradientUnits="userSpaceOnUse"
       id="linearGradient3082"
       xlink:href="#linearGradient3836-9-3" />
    <linearGradient
       id="linearGradient3836-9-7">
      <stop
         style="stop-color:#a40000;stop-opacity:1"
         offset="0"
         id="stop3838-8-0" />
      <stop
         style="stop-color:#ef2929;stop-opacity:1"
         offset="1"
         id="stop3840-1-9" />
    </linearGradient>
    <linearGradient
       y2="5"
       x2="-22"
       y1="18"
       x1="-18"
       gradientUnits="userSpaceOnUse"
       id="linearGradient3082-3"
       xlink:href="#linearGradient3836-9-7" />
    <linearGradient
       xlink:href="#linearGradient3836-9-3"
       id="linearGradient3801-1-3"
       gradientUnits="userSpaceOnUse"
       x1="-18"
       y1="18"
       x2="-22"
       y2="5"
       gradientTransform="matrix(0.76342439,0,0,0.75750425,-4.596389,2.7525637)" />
    <linearGradient
       xlink:href="#linearGradient3836-9-3"
       id="linearGradient3801-1-3-2"
       gradientUnits="userSpaceOnUse"
       x1="-18"
       y1="18"
       x2="-22"
       y2="5"
       gradientTransform="matrix(0.84956703,0,0,0.84301394,-2.927337,1.7790378)" />
    <linearGradient
       xlink:href="#linearGradient3838"
       id="linearGradient3844"
       x1="36"
       y1="1039.3622"
       x2="32"
       y2="1003.3622"
       gradientUnits="userSpaceOnUse"
       gradientTransform="translate(2.0563921e-6,-988.36218)" />
    <linearGradient
       id="linearGradient3838">
      <stop
         style="stop-color:#d3d7cf;stop-opacity:1;"
         offset="0"
         id="stop3840" />
      <stop
         style="stop-color:#ffffff;stop-opacity:1;"
         offset="1"
         id="stop3842" />
    </linearGradient>
    <linearGradient
       xlink:href="#linearGradient3830"
       id="linearGradient3836"
       x1="36"
       y1="1037.3622"
       x2="32"
       y2="1005.3622"
       gradientUnits="userSpaceOnUse"
       gradientTransform="translate(2.0563921e-6,-988.36218)" />
    <linearGradient
       id="linearGradient3830">
      <stop
         style="stop-color:#ffffff;stop-opacity:1;"
         offset="0"
         id="stop3832" />
      <stop
         style="stop-color:#d3d7cf;stop-opacity:1;"
         offset="1"
         id="stop3834" />
    </linearGradient>
    <linearGradient
       x1="10.504496"
       y1="16.48678"
       x2="5.9349072"
       y2="1.6356685"
       id="linearGradient-1"
       gradientTransform="scale(0.99999018,1.0000098)"
       gradientUnits="userSpaceOnUse"
       inkscape:swatch="gradient">
      <stop
         stop-color="#A40000"
         offset="0%"
         id="stop6-9" />
      <stop
         stop-color="#EF2929"
         offset="100%"
         id="stop8" />
    </linearGradient>
    <linearGradient
       xlink:href="#linearGradient3815"
       id="linearGradient3856"
       gradientUnits="userSpaceOnUse"
       x1="80"
       y1="58"
       x2="79"
       y2="42" />
    <linearGradient
       id="linearGradient3815">
      <stop
         style="stop-color:#3465a4;stop-opacity:1"
         offset="0"
         id="stop3817" />
      <stop
         style="stop-color:#729fcf;stop-opacity:1"
         offset="1"
         id="stop3819" />
    </linearGradient>
    <linearGradient
       xlink:href="#linearGradient3841"
       id="linearGradient3858"
       gradientUnits="userSpaceOnUse"
       x1="109"
       y1="51"
       x2="105"
       y2="38" />
    <linearGradient
       id="linearGradient3841">
      <stop
         style="stop-color:#204a87;stop-opacity:1"
         offset="0"
         id="stop3843" />
      <stop
         style="stop-color:#3465a4;stop-opacity:1"
         offset="1"
         id="stop3845" />
    </linearGradient>
    <linearGradient
       y2="5"
       x2="-22"
       y1="18"
       x1="-18"
       gradientTransform="matrix(0.77114848,0,0,0.77113937,-4.4090973,2.5859051)"
       gradientUnits="userSpaceOnUse"
       id="linearGradient3898"
       xlink:href="#linearGradient3836-9-3" />
    <linearGradient
       xlink:href="#linearGradient3815"
       id="linearGradient3978"
       gradientUnits="userSpaceOnUse"
       x1="-15"
       y1="37"
       x2="-19"
       y2="37"
       gradientTransform="rotate(135.18861,5.7426909,37.969029)" />
    <linearGradient
       xlink:href="#linearGradient17"
       id="linearGradient3898-0"
       x1="37.429146"
       y1="41.590584"
       x2="24.483221"
       y2="4.9104676"
       gradientUnits="userSpaceOnUse" />
    <linearGradient
       id="linearGradient17">
      <stop
         style="stop-color:#ffffff;stop-opacity:1;"
         offset="0"
         id="stop16" />
      <stop
         style="stop-color:#ffffff;stop-opacity:0"
         offset="1"
         id="stop17" />
    </linearGradient>
    <linearGradient
       xlink:href="#linearGradient17"
       id="linearGradient3856-9"
       x1="22.84341"
       y1="4.8241611"
       x2="30.783579"
       y2="28.644661"
       gradientUnits="userSpaceOnUse" />
    <linearGradient
       id="linearGradient2">
      <stop
         style="stop-color:#73d216;stop-opacity:1;"
         offset="0"
         id="stop1" />
      <stop
         style="stop-color:#8ae234;stop-opacity:1;"
         offset="1"
         id="stop2" />
    </linearGradient>
    <linearGradient
       xlink:href="#linearGradient22"
       id="linearGradient23"
       x1="64"
       y1="64"
       x2="0"
       y2="0"
       gradientUnits="userSpaceOnUse" />
    <linearGradient
       inkscape:collect="always"
       xlink:href="#linearGradient19"
       id="linearGradient4"
       x1="12.201"
       y1="12.201033"
       x2="51.798935"
       y2="51.798965"
       gradientUnits="userSpaceOnUse" />
    <linearGradient
       id="linearGradient19"
       inkscape:collect="always"
       inkscape:label="Chocolate gradient">
      <stop
         style="stop-color:#e9b96e;stop-opacity:1;"
         offset="0"
         id="stop19-3" />
      <stop
         style="stop-color:#c17d11;stop-opacity:1;"
         offset="1"
         id="stop20-6" />
    </linearGradient>
  </defs>
  <metadata
     id="metadata2874">
    <rdf:RDF>
      <cc:Work
         rdf:about="">
        <dc:format>image/svg+xml</dc:format>
        <dc:type
           rdf:resource="http://purl.org/dc/dcmitype/StillImage" />
        <dc:creator>
          <cc:Agent>
            <dc:title>[maxwxyz]</dc:title>
          </cc:Agent>
        </dc:creator>
        <dc:relation>https://www.freecad.org/wiki/index.php?title=Artwork</dc:relation>
        <dc:publisher>
          <cc:Agent>
            <dc:title>FreeCAD</dc:title>
          </cc:Agent>
        </dc:publisher>
        <dc:identifier>FreeCAD/src/</dc:identifier>
        <dc:rights>
          <cc:Agent>
            <dc:title>FreeCAD LGPL2+</dc:title>
          </cc:Agent>
        </dc:rights>
        <dc:date>2024</dc:date>
        <dc:title>FCGear Involute Gear</dc:title>
      </cc:Work>
    </rdf:RDF>
  </metadata>
  <path
     id="path19"
     style="display:inline;fill:#e9b96e;fill-rule:evenodd;stroke:#8f5902;stroke-width:2;stroke-linecap:round;stroke-linejoin:round;stroke-dasharray:none;stroke-opacity:1"
     d="M 30.427734 3 C 29.493468 4.172378 28.736588 5.4460829 28.154297 6.8261719 C 27.891708 7.4583629 27.688049 8.112058 27.544922 8.78125 C 27.424558 9.394914 27.335961 10.026272 27.421875 10.650391 L 28.648438 16.380859 L 23.324219 18.587891 L 20.142578 13.667969 C 19.762009 13.165884 19.249513 12.780496 18.730469 12.431641 C 18.156071 12.059667 17.554591 11.743801 16.921875 11.482422 C 15.534295 10.918304 14.095105 10.553153 12.605469 10.384766 L 10.384766 12.605469 C 10.553152 14.095105 10.918307 15.534294 11.482422 16.921875 C 11.743805 17.55459 12.059667 18.156072 12.431641 18.730469 C 12.780496 19.249514 13.165886 19.762008 13.667969 20.142578 L 18.587891 23.324219 L 16.380859 28.648438 L 10.650391 27.421875 C 10.026271 27.335955 9.394913 27.424653 8.78125 27.544922 C 8.112058 27.688046 7.4583639 27.891708 6.8261719 28.154297 C 5.4460839 28.736589 4.172378 29.493468 3 30.427734 L 3 33.572266 C 4.172378 34.506532 5.4460839 35.263411 6.8261719 35.845703 C 7.4583639 36.10829 8.112056 36.309999 8.78125 36.453125 C 9.394913 36.573488 10.026273 36.664046 10.650391 36.578125 L 16.380859 35.347656 L 18.587891 40.675781 L 13.667969 43.857422 C 13.165889 44.237989 12.780496 44.750488 12.431641 45.269531 C 12.059667 45.843929 11.743803 46.445411 11.482422 47.078125 C 10.918306 48.465707 10.553152 49.904895 10.384766 51.394531 L 12.605469 53.615234 C 14.095105 53.446846 15.534295 53.081695 16.921875 52.517578 C 17.554591 52.256197 18.156071 51.940333 18.730469 51.568359 C 19.249513 51.219504 19.762009 50.834114 20.142578 50.332031 L 23.324219 45.412109 L 28.648438 47.619141 L 27.421875 53.345703 C 27.335955 53.969822 27.424653 54.605088 27.544922 55.21875 C 27.688046 55.887942 27.891708 56.537729 28.154297 57.169922 C 28.736588 58.550009 29.493468 59.827622 30.427734 61 L 33.572266 61 C 34.506533 59.827622 35.263412 58.550009 35.845703 57.169922 C 36.108292 56.537729 36.309999 55.887942 36.453125 55.21875 C 36.573489 54.605088 36.662088 53.969822 36.576172 53.345703 L 35.347656 47.619141 L 40.675781 45.412109 L 43.857422 50.332031 C 44.237991 50.834114 44.750488 51.219504 45.269531 51.568359 C 45.84393 51.940333 46.44541 52.256197 47.078125 52.517578 C 48.465706 53.081695 49.904895 53.446846 51.394531 53.615234 L 53.615234 51.394531 C 53.446848 49.904896 53.081696 48.465707 52.517578 47.078125 C 52.256198 46.445411 51.940332 45.843928 51.568359 45.269531 C 51.219503 44.750488 50.834114 44.237993 50.332031 43.857422 L 45.412109 40.675781 L 47.619141 35.347656 L 53.345703 36.578125 C 53.969822 36.664045 54.605087 36.573491 55.21875 36.453125 C 55.887942 36.310001 56.53773 36.108291 57.169922 35.845703 C 58.55001 35.263411 59.827622 34.506532 61 33.572266 L 61 30.427734 C 59.827622 29.493468 58.55001 28.736588 57.169922 28.154297 C 56.53773 27.891708 55.887942 27.688049 55.21875 27.544922 C 54.605087 27.424558 53.969822 27.33596 53.345703 27.421875 L 47.619141 28.648438 L 45.412109 23.324219 L 50.332031 20.142578 C 50.834114 19.762009 51.219503 19.249513 51.568359 18.730469 C 51.940332 18.156071 52.256198 17.554591 52.517578 16.921875 C 53.081696 15.534295 53.446848 14.095105 53.615234 12.605469 L 51.394531 10.384766 C 49.904895 10.553152 48.465705 10.918304 47.078125 11.482422 C 46.445409 11.743802 45.843928 12.059668 45.269531 12.431641 C 44.750488 12.780497 44.237991 13.165885 43.857422 13.667969 L 40.675781 18.587891 L 35.347656 16.380859 L 36.576172 10.650391 C 36.662092 10.026273 36.573393 9.394913 36.453125 8.78125 C 36.31 8.112058 36.108292 7.4583639 35.845703 6.8261719 C 35.263412 5.4460839 34.506533 4.172378 33.572266 3 L 30.427734 3 z M 31.929688 22 C 33.13986 21.994847 34.374003 22.207449 35.560547 22.654297 C 36.282463 25.497611 38.502412 27.717519 41.345703 28.439453 C 42.219118 30.73231 42.219118 33.267662 41.345703 35.560547 C 38.502412 36.28245 36.282463 38.502412 35.560547 41.345703 C 33.267688 42.219119 30.732343 42.219119 28.439453 41.345703 C 27.717555 38.502412 25.497612 36.28245 22.654297 35.560547 C 21.780898 33.267662 21.780898 30.73231 22.654297 28.439453 C 25.497612 27.717519 27.717555 25.497611 28.439453 22.654297 C 29.531381 22.228063 30.719515 22.005153 31.929688 22 z "
     inkscape:label="main" />
  <path
     id="path20"
     style="display:inline;fill:url(#linearGradient4);fill-rule:evenodd;stroke:none;stroke-width:2;stroke-linecap:round;stroke-linejoin:round;stroke-dasharray:none;stroke-opacity:1"
     inkscape:label="gradient"
     sodipodi:type="inkscape:offset"
     inkscape:radius="-0.99322748"
     inkscape:original="M 31.431641 5 C 30.866385 5.8125531 30.389388 6.677492 30.001953 7.59375 C 29.790645 8.1024808 29.624996 8.627623 29.507812 9.1660156 C 29.507013 9.1698956 29.506659 9.1719212 29.505859 9.1757812 C 29.402494 9.7049706 29.365884 10.052021 29.402344 10.349609 L 30.603516 15.962891 C 30.805234 16.906115 30.305004 17.858936 29.414062 18.228516 L 24.089844 20.435547 C 23.197738 20.805295 22.168843 20.484797 21.644531 19.673828 L 18.529297 14.857422 C 18.349381 14.627481 18.077258 14.405202 17.642578 14.111328 C 17.641378 14.110528 17.639872 14.110175 17.638672 14.109375 C 17.171242 13.806984 16.681636 13.548876 16.167969 13.335938 C 15.241251 12.959181 14.288412 12.685144 13.308594 12.509766 L 12.509766 13.308594 C 12.685144 14.28841 12.95918 15.241246 13.335938 16.167969 C 13.548887 16.681651 13.807032 17.171292 14.109375 17.638672 L 14.111328 17.642578 C 14.405199 18.077254 14.627476 18.349376 14.857422 18.529297 L 19.673828 21.644531 C 20.484797 22.168843 20.805295 23.197738 20.435547 24.089844 L 18.228516 29.414062 C 17.858936 30.305004 16.906115 30.805234 15.962891 30.603516 L 10.349609 29.402344 C 10.05219 29.365904 9.7053057 29.402509 9.1757812 29.505859 L 9.1660156 29.507812 C 8.6276753 29.625033 8.1024882 29.790642 7.59375 30.001953 C 6.6774911 30.389389 5.8125531 30.866386 5 31.431641 L 5 32.568359 C 5.8125531 33.133614 6.6774911 33.610611 7.59375 33.998047 C 8.0991089 34.207953 8.6244257 34.372402 9.1660156 34.490234 C 9.1691456 34.490934 9.1707081 34.491488 9.1738281 34.492188 C 9.7065079 34.596356 10.05332 34.633276 10.347656 34.597656 L 15.960938 33.392578 C 16.904806 33.189817 17.858797 33.690231 18.228516 34.582031 L 20.435547 39.910156 C 20.805295 40.802262 20.484797 41.831157 19.673828 42.355469 L 14.857422 45.470703 C 14.627484 45.650618 14.4052 45.922745 14.111328 46.357422 C 14.110528 46.358622 14.110175 46.360128 14.109375 46.361328 C 13.806986 46.828754 13.548882 47.318356 13.335938 47.832031 C 12.959181 48.758754 12.685144 49.71159 12.509766 50.691406 L 13.308594 51.490234 C 14.288412 51.314856 15.241251 51.040819 16.167969 50.664062 C 16.681643 50.451118 17.171245 50.193015 17.638672 49.890625 C 18.075789 49.595331 18.348803 49.373256 18.529297 49.142578 L 21.644531 44.326172 C 22.168843 43.515203 23.197738 43.194705 24.089844 43.564453 L 29.414062 45.771484 C 30.305004 46.141064 30.805234 47.093885 30.603516 48.037109 L 29.402344 53.646484 C 29.365964 53.943763 29.402421 54.296566 29.505859 54.826172 L 29.507812 54.833984 C 29.624561 55.369989 29.789827 55.891643 30.001953 56.402344 C 30.390608 57.321516 30.866696 58.18718 31.431641 59 L 32.568359 59 C 33.133303 58.187181 33.609451 57.321569 33.998047 56.402344 C 34.20952 55.893214 34.3748 55.367638 34.492188 54.826172 C 34.595439 54.297937 34.631743 53.945524 34.595703 53.648438 L 33.392578 48.039062 C 33.189817 47.095194 33.690231 46.141203 34.582031 45.771484 L 39.910156 43.564453 C 40.802262 43.194705 41.831157 43.515203 42.355469 44.326172 L 45.470703 49.142578 C 45.65062 49.372519 45.922744 49.594799 46.357422 49.888672 C 46.358622 49.889472 46.360128 49.889825 46.361328 49.890625 C 46.828757 50.193015 47.318357 50.451118 47.832031 50.664062 C 48.758751 51.040819 49.711588 51.314856 50.691406 51.490234 L 51.490234 50.691406 C 51.314866 49.711515 51.040819 48.758752 50.664062 47.832031 C 50.451121 47.318361 50.193014 46.828755 49.890625 46.361328 C 49.595329 45.924209 49.37326 45.6512 49.142578 45.470703 L 44.326172 42.355469 C 43.515203 41.831157 43.194705 40.802262 43.564453 39.910156 L 45.771484 34.582031 C 46.141203 33.690231 47.095195 33.189817 48.039062 33.392578 L 53.648438 34.597656 C 53.942253 34.633166 54.294675 34.596055 54.826172 34.492188 C 55.367629 34.374803 55.89321 34.209521 56.402344 33.998047 C 57.321517 33.609391 58.187181 33.133303 59 32.568359 L 59 31.431641 C 58.187181 30.866696 57.321516 30.390607 56.402344 30.001953 C 55.89165 29.78983 55.37 29.624564 54.833984 29.507812 C 54.830884 29.507113 54.829272 29.506559 54.826172 29.505859 C 54.296901 29.402406 53.943931 29.365934 53.646484 29.402344 L 48.037109 30.603516 C 47.093885 30.805234 46.141064 30.305004 45.771484 29.414062 L 43.564453 24.089844 C 43.194705 23.197738 43.515203 22.168843 44.326172 21.644531 L 49.142578 18.529297 C 49.37252 18.34938 49.594797 18.077258 49.888672 17.642578 C 49.889472 17.641378 49.889825 17.639872 49.890625 17.638672 C 50.193016 17.171241 50.451121 16.681638 50.664062 16.167969 C 51.040819 15.241251 51.314857 14.288411 51.490234 13.308594 L 50.691406 12.509766 C 49.711589 12.685143 48.758749 12.959181 47.832031 13.335938 C 47.318361 13.548877 46.828757 13.806985 46.361328 14.109375 L 46.357422 14.111328 C 45.92274 14.405205 45.650619 14.627482 45.470703 14.857422 L 42.355469 19.673828 C 41.831157 20.484797 40.802262 20.805295 39.910156 20.435547 L 34.582031 18.228516 C 33.690231 17.858797 33.189817 16.904806 33.392578 15.960938 L 34.595703 10.347656 C 34.631763 10.050198 34.595664 9.7035742 34.492188 9.1738281 C 34.374201 8.6294504 34.208973 8.1015627 33.998047 7.59375 C 33.610612 6.6774917 33.133615 5.8125527 32.568359 5 L 31.431641 5 z M 31.929688 22 C 33.13986 21.9948 34.374003 22.207449 35.560547 22.654297 C 36.282463 25.497611 38.502412 27.717519 41.345703 28.439453 C 42.219118 30.73231 42.219118 33.267662 41.345703 35.560547 C 38.502412 36.28245 36.282463 38.502412 35.560547 41.345703 C 33.267688 42.219119 30.732343 42.219119 28.439453 41.345703 C 27.717555 38.502412 25.497612 36.28245 22.654297 35.560547 C 21.780898 33.267662 21.780898 30.73231 22.654297 28.439453 C 25.497612 27.717519 27.717555 25.497611 28.439453 22.654297 C 29.531381 22.228063 30.719515 22.005153 31.929688 22 z "
     d="m 32,6.0136719 c -0.40242,0.6286185 -0.786625,1.2679523 -1.080078,1.9609375 -0.187691,0.4518716 -0.335218,0.9164837 -0.439453,1.3925781 -2.15e-4,0.0011 2.13e-4,8.567e-4 0,0.00195 -8.77e-4,0.0045 -0.0011,0.00335 -0.002,0.00781 -0.09174,0.4745943 -0.104384,0.7190749 -0.08984,0.8437499 l 1.185547,5.535156 c 0.300553,1.405374 -0.451824,2.839964 -1.779297,3.390625 l -5.324219,2.207032 c -1.329181,0.550901 -2.878963,0.06767 -3.660156,-1.140625 l -3.072266,-4.751953 c -0.07239,-0.09081 -0.258418,-0.258787 -0.638672,-0.517579 l -0.0039,-0.002 c -0.002,-0.0013 -0.0039,-0.0026 -0.0059,-0.0039 -0.413607,-0.266779 -0.844814,-0.493843 -1.296875,-0.681641 l -0.0059,-0.002 c -0.698391,-0.283551 -1.423309,-0.460862 -2.154296,-0.621093 0.160231,0.730986 0.337541,1.4559 0.621093,2.154296 2.22e-4,5.34e-4 -2.21e-4,0.0014 0,0.002 5.44e-4,0.0013 0.0014,0.0026 0.002,0.0039 0.1887,0.454221 0.417142,0.887344 0.685547,1.302734 7.96e-4,0.0012 0.0012,0.0027 0.002,0.0039 0.25879,0.380251 0.426758,0.566275 0.517579,0.638672 l 4.751953,3.072266 c 1.208294,0.781193 1.691526,2.330975 1.140625,3.660156 l -2.207032,5.324219 c -0.550661,1.327473 -1.985251,2.07985 -3.390625,1.779297 l -5.535156,-1.185547 c -0.124469,-0.01452 -0.3687302,-0.0019 -0.8437499,0.08984 -0.00262,5.71e-4 -0.00519,0.0014 -0.00781,0.002 -0.00262,5.73e-4 -0.00519,0.0014 -0.00781,0.002 -0.4740427,0.104207 -0.9368093,0.250624 -1.3867187,0.4375 C 7.2816233,31.213376 6.6422906,31.59758 6.0136719,32 c 0.6286187,0.40242 1.2679514,0.786624 1.9609375,1.080078 0.448573,0.18632 0.9155765,0.332183 1.3984375,0.4375 0.00142,3.1e-4 0.00249,0.0016 0.00391,0.002 0.4762022,0.09216 0.7190779,0.10334 0.8398439,0.08984 l 5.535156,-1.1875 c 1.406315,-0.302103 2.843669,0.450562 3.394531,1.779297 l 2.207032,5.328125 c 0.550901,1.329181 0.06767,2.878963 -1.140625,3.660156 l -4.751953,3.072266 c -0.09081,0.07239 -0.25879,0.258422 -0.517579,0.638672 -7.97e-4,0.0012 -0.0012,0.0027 -0.002,0.0039 -0.0013,0.002 -0.0026,0.0039 -0.0039,0.0059 -0.266776,0.413601 -0.493835,0.844801 -0.681641,1.296875 -5.43e-4,0.0013 -0.0014,0.0026 -0.002,0.0039 -2.21e-4,5.34e-4 2.22e-4,0.0014 0,0.002 -0.283552,0.698397 -0.460862,1.423311 -0.621093,2.154296 0.730987,-0.160231 1.455905,-0.337542 2.154296,-0.621093 0.454416,-0.188379 0.887178,-0.417446 1.302735,-0.685547 0.38885,-0.263811 0.575743,-0.430306 0.648437,-0.521485 l 3.072266,-4.751953 c 0.781193,-1.208294 2.330975,-1.691526 3.660156,-1.140625 l 5.324219,2.207032 c 1.327473,0.550661 2.07985,1.985251 1.779297,3.390625 l -1.185547,5.53125 c -0.01431,0.123022 -0.0012,0.375825 0.08984,0.847656 2.07e-4,0.0011 -2.09e-4,8.76e-4 0,0.002 0.103763,0.475856 0.251328,0.938864 0.441406,1.396484 0.294269,0.694951 0.678925,1.333045 1.080078,1.960938 0.401175,-0.627897 0.785883,-1.266019 1.080078,-1.960938 0.187644,-0.451759 0.334906,-0.917061 0.439453,-1.396484 0.09146,-0.472173 0.101919,-0.720685 0.08789,-0.845703 l -1.185547,-5.53125 c -0.302103,-1.406315 0.450562,-2.843669 1.779297,-3.394531 l 5.328125,-2.207032 c 1.329181,-0.550901 2.878963,-0.06767 3.660156,1.140625 l 3.072266,4.751953 c 0.07239,0.09081 0.25842,0.258788 0.638672,0.517579 0.0012,7.97e-4 0.0027,0.0012 0.0039,0.002 0.002,0.0013 0.0039,0.0026 0.0059,0.0039 0.413605,0.266778 0.844801,0.493835 1.296875,0.681641 0.700235,0.284679 1.427158,0.462374 2.160156,0.623046 -0.160225,-0.730989 -0.337534,-1.455883 -0.621093,-2.154296 v -0.002 c -0.188245,-0.453822 -0.41776,-0.88571 -0.685547,-1.300781 -0.263814,-0.388855 -0.4303,-0.575738 -0.521485,-0.648437 L 43.787109,43.189453 C 42.578815,42.40826 42.095583,40.858478 42.646484,39.529297 l 2.207032,-5.328125 c 0.550862,-1.328736 1.988217,-2.081401 3.394531,-1.779297 l 5.53125,1.1875 c 0.11851,0.01318 0.369378,0.0019 0.84375,-0.08984 0.480059,-0.104569 0.946098,-0.251569 1.398437,-0.439453 0.694952,-0.29427 1.333045,-0.678925 1.960938,-1.080078 -0.627893,-0.401153 -1.265988,-0.78581 -1.960938,-1.080078 -0.456848,-0.189758 -0.9195,-0.335717 -1.394531,-0.439453 -0.0023,-4.43e-4 -0.0016,-0.0015 -0.0039,-0.002 -0.473478,-0.09155 -0.724193,-0.104207 -0.847656,-0.08984 l -5.53125,1.185547 c -1.405374,0.300553 -2.839964,-0.451824 -3.390625,-1.779297 l -2.207032,-5.324219 c -0.550901,-1.329181 -0.06767,-2.878963 1.140625,-3.660156 l 4.751953,-3.072266 c 0.09081,-0.07239 0.258785,-0.258416 0.517579,-0.638672 l 0.002,-0.0039 c 0.0013,-0.002 0.0026,-0.0039 0.0039,-0.0059 0.266779,-0.413608 0.493839,-0.844808 0.681641,-1.296875 l 0.002,-0.0039 c 0.283894,-0.698952 0.460728,-1.424652 0.621093,-2.15625 -0.730986,0.160231 -1.455904,0.337542 -2.154296,0.621093 -5.34e-4,2.22e-4 -0.0014,-2.21e-4 -0.002,0 -0.0013,5.44e-4 -0.0026,0.0014 -0.0039,0.002 -0.454224,0.188696 -0.887313,0.417108 -1.302734,0.685547 -0.0012,7.96e-4 -0.0027,0.0012 -0.0039,0.002 -0.380258,0.258796 -0.566282,0.426766 -0.638672,0.517579 l -3.072266,4.751953 c -0.781193,1.208294 -2.330975,1.691526 -3.660156,1.140625 l -5.328125,-2.207032 c -1.328735,-0.550862 -2.0814,-1.988216 -1.779297,-3.394531 l 1.185547,-5.535156 c 0.01425,-0.126686 0.0029,-0.3695801 -0.08789,-0.8398439 C 33.41417,8.8930946 33.266931,8.4244658 33.080078,7.9746094 32.786625,7.281624 32.40242,6.6422901 32,6.0136719 Z m -0.07422,14.9921871 c 1.329422,-0.0057 2.682515,0.228475 3.984375,0.71875 a 0.9933268,0.9933268 0 0 1 0.613281,0.685547 c 0.632742,2.492095 2.574321,4.433646 5.066407,5.066406 a 0.9933268,0.9933268 0 0 1 0.683593,0.609375 c 0.960119,2.520469 0.960116,5.307634 0,7.828125 a 0.9933268,0.9933268 0 0 1 -0.683593,0.609375 c -2.492067,0.632729 -4.433665,2.574334 -5.066407,5.066407 a 0.9933268,0.9933268 0 0 1 -0.609375,0.683593 c -2.520469,0.96012 -5.307629,0.960117 -7.828125,0 a 0.9933268,0.9933268 0 0 1 -0.609375,-0.683593 c -0.632724,-2.49207 -2.574314,-4.433677 -5.066406,-5.066407 a 0.9933268,0.9933268 0 0 1 -0.683594,-0.609375 c -0.960097,-2.520489 -0.9601,-5.307659 0,-7.828125 a 0.9933268,0.9933268 0 0 1 0.683594,-0.609375 c 2.492111,-0.632761 4.433682,-2.574315 5.066406,-5.066406 a 0.9933268,0.9933268 0 0 1 0.601563,-0.68164 c 1.210007,-0.472326 2.518288,-0.716996 3.847656,-0.722657 z" />
</svg>
