<?xml version="1.0" encoding="UTF-8" standalone="no"?>
<!-- Created with Inkscape (http://www.inkscape.org/) -->

<svg
   width="64"
   height="64"
   viewBox="0 0 64 64"
   version="1.1"
   id="svg1"
   inkscape:version="1.4 (e7c3feb100, 2024-10-09)"
   sodipodi:docname="Plate_HEX.svg"
   xml:space="preserve"
   xmlns:inkscape="http://www.inkscape.org/namespaces/inkscape"
   xmlns:sodipodi="http://sodipodi.sourceforge.net/DTD/sodipodi-0.dtd"
   xmlns:xlink="http://www.w3.org/1999/xlink"
   xmlns="http://www.w3.org/2000/svg"
   xmlns:svg="http://www.w3.org/2000/svg"
   xmlns:rdf="http://www.w3.org/1999/02/22-rdf-syntax-ns#"
   xmlns:cc="http://creativecommons.org/ns#"
   xmlns:dc="http://purl.org/dc/elements/1.1/"><title
     id="title31">Hexagonal plate</title><sodipodi:namedview
     id="namedview1"
     pagecolor="#323232"
     bordercolor="#ffffff"
     borderopacity="1"
     inkscape:showpageshadow="0"
     inkscape:pageopacity="0"
     inkscape:pagecheckerboard="1"
     inkscape:deskcolor="#191919"
     inkscape:document-units="px"
     showgrid="true"
     inkscape:zoom="11.313708"
     inkscape:cx="29.168157"
     inkscape:cy="31.245283"
     inkscape:window-width="1894"
     inkscape:window-height="999"
     inkscape:window-x="0"
     inkscape:window-y="0"
     inkscape:window-maximized="1"
     inkscape:current-layer="svg1"
     showguides="true"
     inkscape:lockguides="false"
     guidecolor="#ffff00"
     guideopacity="0.6"
     guidehicolor="#ff00ff"
     guidehiopacity="0.50196078"><inkscape:grid
       id="grid1"
       units="px"
       originx="0"
       originy="0"
       spacingx="2"
       spacingy="2"
       empcolor="#0099e5"
       empopacity="0.30196078"
       color="#0099e5"
       opacity="0.14901961"
       empspacing="4"
       enabled="true"
       visible="true" /><sodipodi:guide
       position="-2,62"
       orientation="0,1"
       id="guide5"
       inkscape:locked="false"
       inkscape:label="top margin"
       inkscape:color="rgb(255,255,0)" /><sodipodi:guide
       position="64,2"
       orientation="0,1"
       id="guide6"
       inkscape:locked="false"
       inkscape:label="bottom margin"
       inkscape:color="rgb(255,255,0)" /><sodipodi:guide
       position="2,-2"
       orientation="-1,0"
       id="guide7"
       inkscape:locked="false"
       inkscape:label="right margin"
       inkscape:color="rgb(255,255,0)" /><sodipodi:guide
       position="62,64"
       orientation="-1,0"
       id="guide8"
       inkscape:locked="false"
       inkscape:label="left margin"
       inkscape:color="rgb(255,255,0)" /><sodipodi:guide
       position="64,64"
       orientation="0.70710678,-0.70710678"
       id="guide1"
       inkscape:locked="false" /><sodipodi:guide
       position="0,64"
       orientation="0.70710678,0.70710678"
       id="guide2"
       inkscape:label=""
       inkscape:locked="false"
       inkscape:color="rgb(255,255,0)" /><sodipodi:guide
       position="41.646258,58.353807"
       orientation="0,-1"
       id="guide24"
       inkscape:locked="false" /></sodipodi:namedview><defs
     id="defs1"><linearGradient
       id="linearGradient13"
       inkscape:collect="always"
       inkscape:label="Orange gradient"><stop
         style="stop-color:#fcaf3e;stop-opacity:1;"
         offset="0"
         id="stop13" /><stop
         style="stop-color:#f57900;stop-opacity:1;"
         offset="1"
         id="stop14" /></linearGradient><marker
       id="DistanceX"
       orient="auto"
       refX="0.0"
       refY="0.0"
       style="overflow:visible"><path
         d="M 3,-3 L -3,3 M 0,-5 L  0,5"
         style="stroke:#000000; stroke-width:0.5"
         id="path1-36" /></marker><pattern
       id="Hatch"
       patternUnits="userSpaceOnUse"
       width="8"
       height="8"
       x="0"
       y="0"><path
         d="M8 4 l-4,4"
         stroke="#000000"
         stroke-width="0.25"
         linecap="square"
         id="path2-7" /><path
         d="M6 2 l-4,4"
         stroke="#000000"
         stroke-width="0.25"
         linecap="square"
         id="path3" /><path
         d="M4 0 l-4,4"
         stroke="#000000"
         stroke-width="0.25"
         linecap="square"
         id="path4" /></pattern><symbol
       id="*MODEL_SPACE" /><symbol
       id="*PAPER_SPACE" /><linearGradient
       inkscape:collect="always"
       xlink:href="#linearGradient13"
       id="linearGradient31"
       x1="522.61243"
       y1="682.02563"
       x2="599.90717"
       y2="759.32043"
       gradientUnits="userSpaceOnUse" /></defs><metadata
     id="metadata1"><rdf:RDF><cc:Work
         rdf:about=""><cc:license
           rdf:resource="http://creativecommons.org/licenses/by-nc-sa/4.0/" /><dc:creator><cc:Agent><dc:title>hasecilu</dc:title></cc:Agent></dc:creator><dc:subject><rdf:Bag><rdf:li>FreeCAD</rdf:li><rdf:li>command</rdf:li></rdf:Bag></dc:subject><dc:description>Template file to create icons for FreeCAD commands.</dc:description><dc:date>2024</dc:date><dc:rights><cc:Agent><dc:title>FreeCAD LGPL2+</dc:title></cc:Agent></dc:rights><dc:identifier>FreeCAD/src/</dc:identifier><dc:publisher><cc:Agent><dc:title>FreeCAD</dc:title></cc:Agent></dc:publisher><dc:relation>https://wiki.freecad.org/Artwork</dc:relation><dc:title>Hexagonal plate</dc:title></cc:Work><cc:License
         rdf:about="http://creativecommons.org/licenses/by-nc-sa/4.0/"><cc:permits
           rdf:resource="http://creativecommons.org/ns#Reproduction" /><cc:permits
           rdf:resource="http://creativecommons.org/ns#Distribution" /><cc:requires
           rdf:resource="http://creativecommons.org/ns#Notice" /><cc:requires
           rdf:resource="http://creativecommons.org/ns#Attribution" /><cc:prohibits
           rdf:resource="http://creativecommons.org/ns#CommercialUse" /><cc:permits
           rdf:resource="http://creativecommons.org/ns#DerivativeWorks" /><cc:requires
           rdf:resource="http://creativecommons.org/ns#ShareAlike" /></cc:License></rdf:RDF></metadata><path
     id="path16"
     style="stroke-width:4.89768539;fill:#fcaf3e;stroke-dasharray:none;stroke:#ce5c00"
     d="M 538.50281 661.13371 C 529.53295 661.13371 521.23512 665.92547 516.7502 673.6936 L 493.9884 713.10944 C 489.50347 720.87757 489.50347 730.46108 493.9884 738.22921 L 516.7502 777.64506 C 521.23512 785.41319 529.53295 790.20494 538.50281 790.20494 L 584.01685 790.20494 C 592.98672 790.20494 601.28454 785.41319 605.76946 777.64506 L 628.53126 738.22921 C 633.01619 730.46108 633.01619 720.87757 628.53126 713.10944 L 605.76946 673.6936 C 601.28454 665.92547 592.98672 661.13371 584.01685 661.13371 L 538.50281 661.13371 z M 585.34171 671.53651 A 13.22835 13.22835 0 0 1 598.11205 684.75644 A 13.22949 13.22949 0 0 1 571.65307 684.75644 A 13.22835 13.22835 0 0 1 583.8925 671.56521 A 13.22835 13.22835 0 0 1 585.34171 671.53651 z M 536.65183 671.56999 A 13.228346 13.228346 0 0 1 550.8666 684.75644 A 13.22949 13.22949 0 0 1 524.40762 684.75644 A 13.228346 13.228346 0 0 1 536.65183 671.56999 z M 513.02911 712.48288 A 13.228346 13.228346 0 0 1 527.24388 725.66933 A 13.228346 13.228346 0 0 1 500.78968 725.66933 A 13.228346 13.228346 0 0 1 513.02911 712.48288 z M 560.26977 712.48288 A 13.228347 13.228347 0 0 1 574.48932 725.66933 A 13.22949 13.22949 0 0 1 548.03034 725.66933 A 13.228347 13.228347 0 0 1 560.26977 712.48288 z M 607.51522 712.48288 A 13.228346 13.228346 0 0 1 621.72999 725.66933 A 13.228346 13.228346 0 0 1 595.27579 725.66933 A 13.228346 13.228346 0 0 1 607.51522 712.48288 z M 585.34171 753.36229 A 13.22835 13.22835 0 0 1 598.11205 766.58222 A 13.22949 13.22949 0 0 1 571.65307 766.58222 A 13.22835 13.22835 0 0 1 583.8925 753.39099 A 13.22835 13.22835 0 0 1 585.34171 753.36229 z M 536.65183 753.39577 A 13.228346 13.228346 0 0 1 550.8666 766.58222 A 13.22949 13.22949 0 0 1 524.40762 766.58222 A 13.228346 13.228346 0 0 1 536.65183 753.39577 z "
     inkscape:label="hexagon"
     transform="matrix(0.40835616,0,0,0.40835616,-197.19391,-264.33154)" /><path
     id="path24"
     style="fill:url(#linearGradient31);fill-opacity:1;stroke:none;stroke-width:4.89769;stroke-dasharray:none"
     sodipodi:type="inkscape:offset"
     inkscape:radius="-7.7615156"
     inkscape:original="M 538.50195 661.13281 C 529.53209 661.13281 521.23492 665.92523 516.75 673.69336 L 493.98828 713.10938 C 489.50335 720.87751 489.50335 730.46039 493.98828 738.22852 L 516.75 777.64453 C 521.23492 785.41266 529.53209 790.20508 538.50195 790.20508 L 584.01758 790.20508 C 592.98745 790.20508 601.28461 785.41266 605.76953 777.64453 L 628.53125 738.22852 C 633.01618 730.46039 633.01618 720.87751 628.53125 713.10938 L 605.76953 673.69336 C 601.28461 665.92523 592.98745 661.13281 584.01758 661.13281 L 538.50195 661.13281 z M 585.3418 671.53711 A 13.22835 13.22835 0 0 1 598.11133 684.75586 A 13.22949 13.22949 0 0 1 571.65234 684.75586 A 13.22835 13.22835 0 0 1 583.89258 671.56445 A 13.22835 13.22835 0 0 1 585.3418 671.53711 z M 536.65234 671.57031 A 13.228346 13.228346 0 0 1 550.86719 684.75586 A 13.22949 13.22949 0 0 1 524.4082 684.75586 A 13.228346 13.228346 0 0 1 536.65234 671.57031 z M 513.0293 712.48242 A 13.228346 13.228346 0 0 1 527.24414 725.66992 A 13.228346 13.228346 0 0 1 500.78906 725.66992 A 13.228346 13.228346 0 0 1 513.0293 712.48242 z M 560.26953 712.48242 A 13.228347 13.228347 0 0 1 574.49023 725.66992 A 13.22949 13.22949 0 0 1 548.03125 725.66992 A 13.228347 13.228347 0 0 1 560.26953 712.48242 z M 607.51562 712.48242 A 13.228346 13.228346 0 0 1 621.73047 725.66992 A 13.228346 13.228346 0 0 1 595.27539 725.66992 A 13.228346 13.228346 0 0 1 607.51562 712.48242 z M 585.3418 753.36328 A 13.22835 13.22835 0 0 1 598.11133 766.58203 A 13.22949 13.22949 0 0 1 571.65234 766.58203 A 13.22835 13.22835 0 0 1 583.89258 753.39062 A 13.22835 13.22835 0 0 1 585.3418 753.36328 z M 536.65234 753.39648 A 13.228346 13.228346 0 0 1 550.86719 766.58203 A 13.22949 13.22949 0 0 1 524.4082 766.58203 A 13.228346 13.228346 0 0 1 536.65234 753.39648 z "
     d="m 551.43945,668.89453 c 0.22,0.22119 0.0145,0.0517 0.47461,0.47852 2.97401,2.75865 0.49175,-0.0695 2.83985,3.23828 2.34809,3.30777 0.49783,0.0344 2.12109,3.75195 1.62326,3.71752 0.48052,0.13288 1.31055,4.10352 0.83003,3.97063 0.44153,0.22869 0.44336,4.28515 a 7.7622918,7.7622918 0 0 1 0,0.004 c 0,10.99087 -10.00132,20.99023 -20.99219,20.99023 -9.67458,0 -18.56393,-7.75156 -20.5586,-17.10351 l -9.83789,17.03711 c 0.10473,0.005 -0.0573,0.0946 1.34571,-0.28125 4.0444,-1.08341 -0.31202,-0.3435 3.86328,-0.65625 a 7.7622918,7.7622918 0 0 1 0.002,0 c 4.04504,-0.3025 0.28506,-0.40876 4.30664,0.12109 4.02158,0.52986 0.36276,-0.34183 4.19141,0.99805 3.82865,1.33988 0.42405,-0.25946 3.89844,1.83398 3.47438,2.09345 0.46965,-0.16699 3.44336,2.5918 2.9737,2.75879 0.49408,-0.0696 2.84179,3.23828 2.34772,3.30788 0.49635,0.0344 2.11914,3.75195 1.6228,3.71758 0.48106,0.1329 1.31055,4.10352 0.82949,3.97061 0.44213,0.23078 0.44336,4.28711 a 7.7622918,7.7622918 0 0 1 0,0.0879 c -0.12217,11.06683 -9.92273,20.75781 -20.99024,20.75781 -2.46897,0 -4.85024,-0.54569 -7.0996,-1.41797 l 10.10742,17.50391 c 0.6906,-3.72201 -0.4235,0.13374 1.07812,-3.6875 1.53132,-3.8968 -0.46144,0.0462 1.76758,-3.49805 2.22902,-3.54421 -0.4623,-0.0413 2.38672,-3.10937 2.84902,-3.06808 -0.44588,-0.1244 2.92383,-2.60938 3.3697,-2.48497 -0.41549,-0.20623 3.35742,-2.02148 3.77291,-1.81525 -0.37077,-0.27909 3.67383,-1.36133 4.04459,-1.08224 -0.312,-0.34474 3.86328,-0.65625 4.04516,-0.30251 0.28492,-0.4087 4.30664,0.12109 4.02172,0.5298 0.36258,-0.34173 4.19141,0.99805 3.82882,1.33978 0.42382,-0.25933 3.89843,1.83398 3.47461,2.09332 0.46936,-0.16881 3.44336,2.58985 2.97401,2.75865 0.49175,-0.0695 2.83985,3.23828 2.34809,3.30777 0.49783,0.0344 2.12109,3.75195 1.62326,3.71752 0.48052,0.13289 1.31055,4.10352 0.83003,3.97063 0.44153,0.22869 0.44336,4.28515 a 7.7622918,7.7622918 0 0 1 0,0.004 c 0,6.14495 -3.18403,11.91031 -7.86133,15.86133 h 20.98437 c -4.6773,-3.95102 -7.86132,-9.71638 -7.86133,-15.86133 0,-4.18674 -0.41314,0.2114 0.36524,-3.90234 0.77838,-4.11375 -0.44368,0.13169 1.08594,-3.76563 1.52961,-3.89731 -0.4619,0.045 1.76562,-3.5 2.22752,-3.54498 -0.46103,-0.0403 2.38672,-3.10937 2.84776,-3.06905 -0.44682,-0.12523 2.92188,-2.61133 3.36869,-2.4861 -0.41475,-0.20698 3.35742,-2.02344 3.77216,-1.81646 -0.36833,-0.27979 3.67578,-1.36328 4.04411,-1.08349 -0.31176,-0.34352 3.86328,-0.65625 a 7.7622918,7.7622918 0 0 1 0.008,0 c 10.76922,-0.79489 -10.21273,0.46432 0.57422,-0.0352 10.78695,-0.49947 -10.22042,0.18611 0.57617,-0.0176 10.79659,-0.20368 -10.22389,-0.0962 0.57422,-0.004 10.79812,0.0923 -10.21536,-0.37446 0.57617,0.0137 l -0.01,-0.002 c 4.1493,0.144 -0.0573,-0.40774 3.98828,0.52539 4.04558,0.93313 0.0232,-0.41257 3.81641,1.27539 3.79318,1.68796 0.10252,-0.40029 3.5039,1.98047 3.40139,2.38076 0.17401,-0.37279 3.0586,2.61328 2.88458,2.98607 0.24407,-0.3332 2.50585,3.14844 2.26179,3.48163 0.30352,-0.27894 1.85938,3.57031 1.55586,3.84925 0.34983,-0.21799 1.14258,3.85742 0.006,0.0285 0.002,-3.4e-4 0.008,0.0273 l 10.10938,-17.50782 c -2.24937,0.87228 -4.63063,1.41797 -7.09961,1.41797 -11.06751,0 -20.86807,-9.69098 -20.99024,-20.75781 a 7.7622918,7.7622918 0 0 1 0,-0.0879 c 0.001,-4.187 -0.4123,0.21145 0.36719,-3.90235 0.77949,-4.11379 -0.44464,0.13159 1.08594,-3.76562 1.53057,-3.89721 -0.46269,0.0487 1.76562,-3.49609 2.22831,-3.5448 -0.46166,-0.0406 2.38672,-3.10938 2.84838,-3.06882 -0.4473,-0.12545 2.92188,-2.61133 3.36917,-2.48588 -0.41511,-0.20518 3.35742,-2.02148 3.77253,-1.8163 -0.37057,-0.27987 3.67383,-1.36328 4.04439,-1.08341 -0.31202,-0.3435 3.86328,-0.65625 a 7.7622918,7.7622918 0 0 1 0.002,0 c 4.04504,-0.3025 0.28506,-0.40876 4.30664,0.12109 3.95525,0.52111 0.59836,-0.2763 4.125,0.9707 l -9.92773,-17.1914 c -1.99467,9.35195 -10.88597,17.10351 -20.56055,17.10351 -10.99087,0 -20.99023,-9.99936 -20.99024,-20.99023 0,-4.18674 -0.41314,0.2114 0.36524,-3.90234 0.77838,-4.11375 -0.44368,0.13168 1.08594,-3.76563 1.52961,-3.89731 -0.4619,0.045 1.76562,-3.5 2.22752,-3.54499 -0.46103,-0.0403 2.38672,-3.10937 1.50289,-1.61969 1.39358,-1.63165 1.35742,-1.58399 z m 10.41016,35.5957 c 0.0689,0.002 0.1358,0.10892 2.14648,0.37305 4.02137,0.52826 0.36467,-0.3424 4.19336,0.99609 3.82869,1.3385 0.42581,-0.26027 3.90039,1.83204 3.47458,2.0923 0.47135,-0.1661 3.44532,2.59179 2.97396,2.7579 0.49384,-0.067 2.84179,3.24024 2.34796,3.30719 0.49815,0.0349 2.1211,3.75195 1.62295,3.71705 0.48103,0.13528 1.31054,4.10547 0.82951,3.97018 0.44227,0.23119 0.44336,4.28711 a 7.7622918,7.7622918 0 0 1 0,0.002 c 0,10.99087 -10.00132,20.99024 -20.99218,20.99024 -10.99087,0 -20.99024,-9.99937 -20.99024,-20.99024 a 7.7622918,7.7622918 0 0 1 0,-0.002 c 0.001,-4.18712 -0.4122,0.21159 0.36719,-3.90235 0.77939,-4.11393 -0.4445,0.13373 1.08594,-3.76367 1.53044,-3.89739 -0.46253,0.047 1.76562,-3.49804 2.22816,-3.54504 -0.4615,-0.0383 2.38672,-3.10743 2.84822,-3.06913 -0.44716,-0.12505 2.92187,-2.61132 3.36904,-2.48628 -0.41696,-0.20666 3.35547,-2.02344 3.77244,-1.81678 -0.37054,-0.27931 3.67383,-1.36328 4.04238,-1.08344 -0.30358,-0.34406 3.86133,-0.65625 2.02224,-0.15213 2.09325,-0.25387 2.16211,-0.25196 z"
     inkscape:label="gradient"
     transform="matrix(0.40835616,0,0,0.40835616,-197.19391,-264.33154)" /></svg>
