<?xml version="1.0" encoding="UTF-8" standalone="no"?>
<!-- Created with Inkscape (http://www.inkscape.org/) -->

<svg
   width="64"
   height="64"
   viewBox="0 0 64 64"
   version="1.1"
   id="svg1"
   inkscape:version="1.4 (e7c3feb100, 2024-10-09)"
   sodipodi:docname="Plate_TRI.svg"
   xml:space="preserve"
   xmlns:inkscape="http://www.inkscape.org/namespaces/inkscape"
   xmlns:sodipodi="http://sodipodi.sourceforge.net/DTD/sodipodi-0.dtd"
   xmlns:xlink="http://www.w3.org/1999/xlink"
   xmlns="http://www.w3.org/2000/svg"
   xmlns:svg="http://www.w3.org/2000/svg"
   xmlns:rdf="http://www.w3.org/1999/02/22-rdf-syntax-ns#"
   xmlns:cc="http://creativecommons.org/ns#"
   xmlns:dc="http://purl.org/dc/elements/1.1/"><title
     id="title1">Triangular plate</title><sodipodi:namedview
     id="namedview1"
     pagecolor="#323232"
     bordercolor="#ffffff"
     borderopacity="1"
     inkscape:showpageshadow="0"
     inkscape:pageopacity="0"
     inkscape:pagecheckerboard="1"
     inkscape:deskcolor="#191919"
     inkscape:document-units="px"
     showgrid="true"
     inkscape:zoom="11.313708"
     inkscape:cx="24.925515"
     inkscape:cy="27.356195"
     inkscape:window-width="1894"
     inkscape:window-height="999"
     inkscape:window-x="0"
     inkscape:window-y="0"
     inkscape:window-maximized="1"
     inkscape:current-layer="svg1"
     showguides="true"
     inkscape:lockguides="false"
     guidecolor="#ffff00"
     guideopacity="0.6"
     guidehicolor="#ff00ff"
     guidehiopacity="0.50196078"><inkscape:grid
       id="grid1"
       units="px"
       originx="0"
       originy="0"
       spacingx="2"
       spacingy="2"
       empcolor="#0099e5"
       empopacity="0.30196078"
       color="#0099e5"
       opacity="0.14901961"
       empspacing="4"
       enabled="true"
       visible="true" /><sodipodi:guide
       position="-2,62"
       orientation="0,1"
       id="guide5"
       inkscape:locked="false"
       inkscape:label="top margin"
       inkscape:color="rgb(255,255,0)" /><sodipodi:guide
       position="64,2"
       orientation="0,1"
       id="guide6"
       inkscape:locked="false"
       inkscape:label="bottom margin"
       inkscape:color="rgb(255,255,0)" /><sodipodi:guide
       position="2,-2"
       orientation="-1,0"
       id="guide7"
       inkscape:locked="false"
       inkscape:label="right margin"
       inkscape:color="rgb(255,255,0)" /><sodipodi:guide
       position="62,64"
       orientation="-1,0"
       id="guide8"
       inkscape:locked="false"
       inkscape:label="left margin"
       inkscape:color="rgb(255,255,0)" /></sodipodi:namedview><defs
     id="defs1"><marker
       id="DistanceX"
       orient="auto"
       refX="0.0"
       refY="0.0"
       style="overflow:visible"><path
         d="M 3,-3 L -3,3 M 0,-5 L  0,5"
         style="stroke:#000000; stroke-width:0.5"
         id="path1" /></marker><pattern
       id="Hatch"
       patternUnits="userSpaceOnUse"
       width="8"
       height="8"
       x="0"
       y="0"><path
         d="M8 4 l-4,4"
         stroke="#000000"
         stroke-width="0.25"
         linecap="square"
         id="path2" /><path
         d="M6 2 l-4,4"
         stroke="#000000"
         stroke-width="0.25"
         linecap="square"
         id="path3-3" /><path
         d="M4 0 l-4,4"
         stroke="#000000"
         stroke-width="0.25"
         linecap="square"
         id="path4-6" /></pattern><symbol
       id="*MODEL_SPACE" /><symbol
       id="*PAPER_SPACE" /><linearGradient
       inkscape:collect="always"
       xlink:href="#linearGradient13"
       id="linearGradient7"
       x1="529.97565"
       y1="694.40985"
       x2="592.54462"
       y2="756.97882"
       gradientUnits="userSpaceOnUse" /><linearGradient
       id="linearGradient13"
       inkscape:collect="always"
       inkscape:label="Orange gradient"><stop
         style="stop-color:#fcaf3e;stop-opacity:1;"
         offset="0"
         id="stop13" /><stop
         style="stop-color:#f57900;stop-opacity:1;"
         offset="1"
         id="stop14" /></linearGradient></defs><metadata
     id="metadata1"><rdf:RDF><cc:Work
         rdf:about=""><cc:license
           rdf:resource="http://creativecommons.org/licenses/by-nc-sa/4.0/" /><dc:creator><cc:Agent><dc:title>hasecilu</dc:title></cc:Agent></dc:creator><dc:subject><rdf:Bag><rdf:li>FreeCAD</rdf:li><rdf:li>command</rdf:li></rdf:Bag></dc:subject><dc:description>Template file to create icons for FreeCAD commands.</dc:description><dc:date>2024</dc:date><dc:rights><cc:Agent><dc:title>FreeCAD LGPL2+</dc:title></cc:Agent></dc:rights><dc:identifier>FreeCAD/src/</dc:identifier><dc:publisher><cc:Agent><dc:title>FreeCAD</dc:title></cc:Agent></dc:publisher><dc:relation>https://wiki.freecad.org/Artwork</dc:relation><dc:title>Triangular plate</dc:title></cc:Work><cc:License
         rdf:about="http://creativecommons.org/licenses/by-nc-sa/4.0/"><cc:permits
           rdf:resource="http://creativecommons.org/ns#Reproduction" /><cc:permits
           rdf:resource="http://creativecommons.org/ns#Distribution" /><cc:requires
           rdf:resource="http://creativecommons.org/ns#Notice" /><cc:requires
           rdf:resource="http://creativecommons.org/ns#Attribution" /><cc:prohibits
           rdf:resource="http://creativecommons.org/ns#CommercialUse" /><cc:permits
           rdf:resource="http://creativecommons.org/ns#DerivativeWorks" /><cc:requires
           rdf:resource="http://creativecommons.org/ns#ShareAlike" /></cc:License></rdf:RDF></metadata><path
     id="path8"
     style="display:inline;fill:#fcaf3e;fill-opacity:1;stroke:#ce5c00;stroke-width:1.91323;stroke-dasharray:none;stroke-opacity:1"
     d="m 32.000008,4.8544536 c -5.058406,0 -10.117044,2.4889125 -12.992768,7.4698114 L 4.9607016,36.65441 c -5.75144637,9.961798 1.491742,22.502854 12.9946344,22.502854 h 28.091205 c 11.502893,0 18.744214,-12.541056 12.992768,-22.502854 L 44.99277,12.324265 C 42.117047,7.3433661 37.058414,4.8544536 32.000008,4.8544536 Z m -0.586676,7.1335014 a 7.8656882,7.8656882 0 0 1 8.452586,7.837886 7.865913,7.865913 0 0 1 -15.731826,0 7.8656882,7.8656882 0 0 1 7.27924,-7.837886 z m 14.044671,24.32267 a 7.86569,7.86569 0 0 1 8.454454,7.843488 7.865913,7.865913 0 0 1 -15.731826,0 7.86569,7.86569 0 0 1 7.277372,-7.843488 z m -28.09121,0.0036 a 7.8656876,7.8656876 0 0 1 8.452586,7.839753 7.8659112,7.8659112 0 0 1 -15.73182,0 7.8656876,7.8656876 0 0 1 7.279234,-7.839753 z" /><path
     id="path4"
     style="display:inline;fill:url(#linearGradient7);stroke:none;stroke-width:3.21763;stroke-dasharray:none;stroke-opacity:1"
     sodipodi:type="inkscape:offset"
     inkscape:radius="-4.6852651"
     inkscape:original="M 561.25977 680.03125 C 552.75265 680.03125 544.24453 684.21698 539.4082 692.59375 L 515.78516 733.51172 C 506.1125 750.26526 518.2953 771.35742 537.64062 771.35742 L 584.88281 771.35742 C 604.22813 771.35742 616.40704 750.26526 606.73438 733.51172 L 583.11133 692.59375 C 578.275 684.21698 569.76689 680.03125 561.25977 680.03125 z M 560.27344 692.0293 A 13.228347 13.228347 0 0 1 574.48828 705.21094 A 13.228725 13.228725 0 0 1 548.03125 705.21094 A 13.228347 13.228347 0 0 1 560.27344 692.0293 z M 583.89258 732.93359 A 13.22835 13.22835 0 0 1 598.11133 746.125 A 13.228725 13.228725 0 0 1 571.6543 746.125 A 13.22835 13.22835 0 0 1 583.89258 732.93359 z M 536.65039 732.93945 A 13.228346 13.228346 0 0 1 550.86523 746.125 A 13.228722 13.228722 0 0 1 524.4082 746.125 A 13.228346 13.228346 0 0 1 536.65039 732.93945 z "
     d="m 561.25977,684.7168 c -6.97027,0 -13.81036,3.31728 -17.79493,10.21875 l -23.62304,40.91797 c -7.96952,13.8036 1.85906,30.81836 17.79882,30.81835 h 47.24219 c 15.93977,0 25.76471,-17.01428 17.79492,-30.81835 l -23.62304,-40.91797 c -3.98457,-6.90147 -10.82465,-10.21875 -17.79492,-10.21875 z m 0.50976,2.42578 c 0.0581,0.002 0.11381,0.0923 1.83008,0.31836 3.43253,0.45205 0.3082,-0.2917 3.57617,0.85156 3.26797,1.14326 0.36041,-0.22381 3.32617,1.5625 2.96576,1.78631 0.39886,-0.14319 2.9375,2.21094 2.53865,2.35412 0.42117,-0.0591 2.42578,2.76367 2.00462,2.82279 0.4244,0.0266 1.81055,3.19922 1.38615,3.17257 0.40789,0.11322 1.11719,3.50195 0.7093,3.38874 0.37827,0.19408 0.38086,3.65625 a 4.6857336,4.6857336 0 0 1 0,0.0312 c -0.053,9.41324 -8.50067,17.8125 -17.91406,17.8125 -9.41339,0 -17.86103,-8.39926 -17.91407,-17.8125 a 4.6857336,4.6857336 0 0 1 0,-0.0312 c 0.003,-3.57358 -0.35229,0.18271 0.31446,-3.32812 0.66675,-3.51084 -0.37986,0.11287 0.92773,-3.21289 1.30759,-3.32577 -0.39312,0.0404 1.50977,-2.98438 1.90288,-3.02482 -0.39672,-0.0319 2.03515,-2.65039 2.43187,-2.61849 -0.38199,-0.10758 2.49414,-2.22852 2.87614,-2.12093 -0.35495,-0.17513 2.86524,-1.72461 3.22019,-1.54947 -0.31729,-0.23807 3.13476,-1.1621 3.45205,-0.92404 -0.26676,-0.29219 3.29688,-0.5586 1.72626,-0.12909 1.78762,-0.21648 1.8457,-0.21484 z m 23.61914,40.90429 c 0.0589,0.002 0.11417,0.0907 1.83008,0.31641 3.43183,0.45139 0.31087,-0.28937 3.57812,0.85352 3.26726,1.14289 0.36518,-0.22175 3.33008,1.56445 2.96491,1.7862 0.40193,-0.14324 2.93946,2.21094 2.53752,2.35418 0.42265,-0.0573 2.42578,2.76562 2.00312,2.82289 0.42433,0.0306 1.80859,3.20313 1.38426,3.17254 0.41018,0.11745 1.11719,3.50586 0.70701,3.38841 0.37895,0.19682 0.3789,3.6582 a 4.6857336,4.6857336 0 0 1 0,0.0273 c -0.053,9.41324 -8.50067,17.8125 -17.91406,17.8125 -9.41339,0 -17.86102,-8.39926 -17.91406,-17.8125 a 4.6857336,4.6857336 0 0 1 0,-0.0273 c -4e-5,-3.57324 -0.35172,0.18088 0.3125,-3.33008 0.66422,-3.51096 -0.37954,0.11144 0.92578,-3.21484 1.30533,-3.32628 -0.39311,0.0413 1.50781,-2.98438 1.90093,-3.02564 -0.39509,-0.0348 2.03516,-2.65429 2.43025,-2.61953 -0.38072,-0.10644 2.49414,-2.22852 2.87486,-2.12208 -0.354,-0.17591 2.86523,-1.72656 3.21924,-1.55066 -0.31662,-0.23889 3.13477,-1.16406 3.45139,-0.92518 -0.26634,-0.29311 3.29688,-0.56055 1.72583,-0.12958 1.78878,-0.21649 1.84765,-0.21485 z m -47.24219,0.006 c 0.0583,0.002 0.11393,0.0923 1.83008,0.31836 3.4323,0.45215 0.3085,-0.29186 3.57617,0.85157 3.26768,1.14342 0.36276,-0.22207 3.32813,1.56445 2.96537,1.78652 0.39936,-0.14341 2.9375,2.21094 2.53814,2.35435 0.42182,-0.0593 2.42578,2.76367 2.00396,2.82298 0.42324,0.0285 1.80859,3.20117 1.38536,3.17268 0.41076,0.11325 1.11914,3.50195 0.70839,3.38871 0.37735,0.19626 0.37891,3.65821 a 4.6857336,4.6857336 0 0 1 0,0.0273 c -0.0527,9.413 -8.50091,17.81445 -17.91406,17.81445 -9.41315,0 -17.8614,-8.40145 -17.91406,-17.81445 a 4.6857336,4.6857336 0 0 1 0,-0.0273 c 0.002,-3.57336 -0.35135,0.18071 0.31445,-3.33008 0.6658,-3.51079 -0.381,0.11295 0.92578,-3.21289 1.30678,-3.32585 -0.39244,0.0406 1.50977,-2.98438 1.9022,-3.02498 -0.39423,-0.0336 2.03711,-2.65234 2.43133,-2.61869 -0.38158,-0.1074 2.49414,-2.22852 2.87572,-2.12112 -0.3566,-0.17499 2.86328,-1.72461 3.21987,-1.54962 -0.31509,-0.23995 3.13672,-1.16406 3.4518,-0.92411 -0.26655,-0.2922 3.29687,-0.55859 1.72616,-0.12909 1.7874,-0.21649 1.8457,-0.21485 z"
     transform="matrix(0.59460855,0,0,0.59460855,-301.7299,-399.49833)" /></svg>
