<?xml version="1.0" encoding="UTF-8" standalone="no"?>
<!-- Created with Inkscape (http://www.inkscape.org/) -->

<svg
   width="64"
   height="64"
   viewBox="0 0 64 64"
   version="1.1"
   id="svg1"
   inkscape:version="1.4 (e7c3feb100, 2024-10-09)"
   sodipodi:docname="SFT_PLN.svg"
   xml:space="preserve"
   xmlns:inkscape="http://www.inkscape.org/namespaces/inkscape"
   xmlns:sodipodi="http://sodipodi.sourceforge.net/DTD/sodipodi-0.dtd"
   xmlns:xlink="http://www.w3.org/1999/xlink"
   xmlns="http://www.w3.org/2000/svg"
   xmlns:svg="http://www.w3.org/2000/svg"
   xmlns:rdf="http://www.w3.org/1999/02/22-rdf-syntax-ns#"
   xmlns:cc="http://creativecommons.org/ns#"
   xmlns:dc="http://purl.org/dc/elements/1.1/"><title
     id="title6">Shaft plain</title><sodipodi:namedview
     id="namedview1"
     pagecolor="#323232"
     bordercolor="#ffffff"
     borderopacity="1"
     inkscape:showpageshadow="0"
     inkscape:pageopacity="0"
     inkscape:pagecheckerboard="1"
     inkscape:deskcolor="#191919"
     inkscape:document-units="px"
     showgrid="true"
     inkscape:zoom="11.313709"
     inkscape:cx="27.400388"
     inkscape:cy="31.245281"
     inkscape:window-width="1894"
     inkscape:window-height="999"
     inkscape:window-x="0"
     inkscape:window-y="0"
     inkscape:window-maximized="1"
     inkscape:current-layer="svg1"
     showguides="true"
     inkscape:lockguides="false"
     guidecolor="#ffff00"
     guideopacity="0.6"
     guidehicolor="#ff00ff"
     guidehiopacity="0.50196078"><inkscape:grid
       id="grid1"
       units="px"
       originx="0"
       originy="0"
       spacingx="2"
       spacingy="2"
       empcolor="#0099e5"
       empopacity="0.30196078"
       color="#0099e5"
       opacity="0.14901961"
       empspacing="4"
       enabled="true"
       visible="true" /><sodipodi:guide
       position="-2,62"
       orientation="0,1"
       id="guide5"
       inkscape:locked="false"
       inkscape:label="top margin"
       inkscape:color="rgb(255,255,0)" /><sodipodi:guide
       position="64,2"
       orientation="0,1"
       id="guide6"
       inkscape:locked="false"
       inkscape:label="bottom margin"
       inkscape:color="rgb(255,255,0)" /><sodipodi:guide
       position="2,-2"
       orientation="-1,0"
       id="guide7"
       inkscape:locked="false"
       inkscape:label="right margin"
       inkscape:color="rgb(255,255,0)" /><sodipodi:guide
       position="62,64"
       orientation="-1,0"
       id="guide8"
       inkscape:locked="false"
       inkscape:label="left margin"
       inkscape:color="rgb(255,255,0)" /><sodipodi:guide
       position="64,64"
       orientation="0.70710678,-0.70710678"
       id="guide1"
       inkscape:locked="false" /><sodipodi:guide
       position="0,64"
       orientation="0.70710678,0.70710678"
       id="guide2"
       inkscape:label=""
       inkscape:locked="false"
       inkscape:color="rgb(255,255,0)" /><sodipodi:guide
       position="49.279095,55.040646"
       orientation="0,-1"
       id="guide3"
       inkscape:locked="false" /></sodipodi:namedview><defs
     id="defs1"><linearGradient
       id="linearGradient9"
       inkscape:collect="always"
       inkscape:label="Butter gradient"><stop
         style="stop-color:#fce94f;stop-opacity:1;"
         offset="0"
         id="stop9" /><stop
         style="stop-color:#edd400;stop-opacity:1;"
         offset="1"
         id="stop10" /></linearGradient><marker
       id="DistanceX"
       orient="auto"
       refX="0.0"
       refY="0.0"
       style="overflow:visible"><path
         d="M 3,-3 L -3,3 M 0,-5 L  0,5"
         style="stroke:#000000; stroke-width:0.5"
         id="path1-36" /></marker><pattern
       id="Hatch"
       patternUnits="userSpaceOnUse"
       width="8"
       height="8"
       x="0"
       y="0"><path
         d="M8 4 l-4,4"
         stroke="#000000"
         stroke-width="0.25"
         linecap="square"
         id="path2-7" /><path
         d="M6 2 l-4,4"
         stroke="#000000"
         stroke-width="0.25"
         linecap="square"
         id="path3" /><path
         d="M4 0 l-4,4"
         stroke="#000000"
         stroke-width="0.25"
         linecap="square"
         id="path4" /></pattern><symbol
       id="*MODEL_SPACE" /><symbol
       id="*PAPER_SPACE" /><linearGradient
       inkscape:collect="always"
       xlink:href="#linearGradient9"
       id="linearGradient7"
       x1="13.575256"
       y1="13.575256"
       x2="50.424744"
       y2="50.424744"
       gradientUnits="userSpaceOnUse" /></defs><metadata
     id="metadata1"><rdf:RDF><cc:Work
         rdf:about=""><cc:license
           rdf:resource="http://creativecommons.org/licenses/by-nc-sa/4.0/" /><dc:creator><cc:Agent><dc:title>hasecilu</dc:title></cc:Agent></dc:creator><dc:subject><rdf:Bag><rdf:li>FreeCAD</rdf:li><rdf:li>command</rdf:li></rdf:Bag></dc:subject><dc:description>Template file to create icons for FreeCAD commands.</dc:description><dc:date>2024</dc:date><dc:rights><cc:Agent><dc:title>FreeCAD LGPL2+</dc:title></cc:Agent></dc:rights><dc:identifier>FreeCAD/src/</dc:identifier><dc:publisher><cc:Agent><dc:title>FreeCAD</dc:title></cc:Agent></dc:publisher><dc:relation>https://wiki.freecad.org/Artwork</dc:relation><dc:title>Shaft plain</dc:title></cc:Work><cc:License
         rdf:about="http://creativecommons.org/licenses/by-nc-sa/4.0/"><cc:permits
           rdf:resource="http://creativecommons.org/ns#Reproduction" /><cc:permits
           rdf:resource="http://creativecommons.org/ns#Distribution" /><cc:requires
           rdf:resource="http://creativecommons.org/ns#Notice" /><cc:requires
           rdf:resource="http://creativecommons.org/ns#Attribution" /><cc:prohibits
           rdf:resource="http://creativecommons.org/ns#CommercialUse" /><cc:permits
           rdf:resource="http://creativecommons.org/ns#DerivativeWorks" /><cc:requires
           rdf:resource="http://creativecommons.org/ns#ShareAlike" /></cc:License></rdf:RDF></metadata><path
     id="path8"
     style="fill:#fce94f;stroke:#c4a000;stroke-width:2;stroke-linejoin:round;stroke-dasharray:none"
     inkscape:label="main"
     d="m 15.288313,8.5384121 -0.708009,0.2346621 c -15.45929573,11.5944588 -15.45929573,34.8593818 0,46.4538408 l 0.708009,0.234687 h 33.423376 l 0.708009,-0.234687 c 15.459296,-11.594459 15.459296,-34.859382 0,-46.4538408 L 48.711689,8.5384121 Z m 16.01165,14.1163259 a 9.3843201,9.3843201 0 0 1 10.085083,9.345269 9.3850452,9.3850452 0 0 1 -18.77009,0 9.3843201,9.3843201 0 0 1 8.685007,-9.345269 z" /><path
     id="path6"
     style="fill:url(#linearGradient7);fill-opacity:1;stroke:none;stroke-width:2;stroke-linejoin:round;stroke-dasharray:none"
     inkscape:label="gradient"
     sodipodi:type="inkscape:offset"
     inkscape:radius="-2.953125"
     inkscape:original="M 15.289062 8.5390625 L 14.580078 8.7734375 C -0.8792176 20.367896 -0.87921761 43.632104 14.580078 55.226562 L 15.289062 55.460938 L 48.710938 55.460938 L 49.419922 55.226562 C 64.879218 43.632103 64.879218 20.367896 49.419922 8.7734375 L 48.710938 8.5390625 L 15.289062 8.5390625 z M 31.300781 22.654297 A 9.3843201 9.3843201 0 0 1 41.384766 32 A 9.3850452 9.3850452 0 0 1 22.615234 32 A 9.3843201 9.3843201 0 0 1 31.300781 22.654297 z "
     d="m 15.978516,11.492188 c -13.3800507,10.448355 -13.3800506,30.567269 0,41.015624 h 32.042968 c 13.380051,-10.448356 13.380051,-30.567269 0,-41.015624 z m 15.101562,8.216796 c 2.378136,-0.177803 0.166874,-0.238973 2.53125,0.07227 2.364376,0.311239 0.20983,-0.201246 2.460938,0.585937 2.251108,0.787184 0.247917,-0.153825 2.291015,1.076172 2.043099,1.229997 0.274335,-0.101513 2.023438,1.519532 1.749102,1.621044 0.288429,-0.04153 1.669922,1.902343 1.381492,1.943869 0.292306,0.01824 1.248046,2.203125 0.955741,2.184881 0.279767,0.07622 0.769532,2.410157 0.489764,2.33394 0.260496,0.132806 0.263672,2.517578 a 2.9534203,2.9534203 0 0 1 0,0.02734 c -0.02504,3.245891 -1.34239,6.37572 -3.646485,8.66211 -2.304095,2.28639 -5.445419,3.580078 -8.691406,3.580078 -3.245987,0 -6.387311,-1.293688 -8.691406,-3.580078 -2.304095,-2.28639 -3.621447,-5.416219 -3.646485,-8.66211 a 2.9534203,2.9534203 0 0 1 0,-0.02734 c 0.0033,-2.461451 -0.241777,0.126972 0.21875,-2.291016 0.460528,-2.417988 -0.263053,0.07745 0.638672,-2.212891 0.901725,-2.290336 -0.272464,0.03021 1.039063,-2.052734 1.311526,-2.082942 -0.271368,-0.02315 1.404297,-1.826172 1.675664,-1.803025 -0.264663,-0.07287 1.716796,-1.533203 1.98146,-1.460331 -0.245609,-0.118754 1.972657,-1.185547 2.218266,-1.066793 -0.219635,-0.16467 2.158203,-0.800781 2.377838,-0.636111 -0.185089,-0.201484 2.269531,-0.384766 z" /></svg>
