<?xml version="1.0" encoding="UTF-8" standalone="no"?>
<!-- Created with Inkscape (http://www.inkscape.org/) -->

<svg
   width="64"
   height="64"
   viewBox="0 0 64 64"
   version="1.1"
   id="svg1"
   inkscape:version="1.4 (e7c3feb100, 2024-10-09)"
   sodipodi:docname="SFT_IDX.svg"
   xml:space="preserve"
   xmlns:inkscape="http://www.inkscape.org/namespaces/inkscape"
   xmlns:sodipodi="http://sodipodi.sourceforge.net/DTD/sodipodi-0.dtd"
   xmlns:xlink="http://www.w3.org/1999/xlink"
   xmlns="http://www.w3.org/2000/svg"
   xmlns:svg="http://www.w3.org/2000/svg"
   xmlns:rdf="http://www.w3.org/1999/02/22-rdf-syntax-ns#"
   xmlns:cc="http://creativecommons.org/ns#"
   xmlns:dc="http://purl.org/dc/elements/1.1/"><title
     id="title6">Shaft - Indexing</title><sodipodi:namedview
     id="namedview1"
     pagecolor="#323232"
     bordercolor="#ffffff"
     borderopacity="1"
     inkscape:showpageshadow="0"
     inkscape:pageopacity="0"
     inkscape:pagecheckerboard="1"
     inkscape:deskcolor="#191919"
     inkscape:document-units="px"
     showgrid="true"
     inkscape:zoom="32.000001"
     inkscape:cx="30.140624"
     inkscape:cy="17.984374"
     inkscape:window-width="1894"
     inkscape:window-height="999"
     inkscape:window-x="0"
     inkscape:window-y="0"
     inkscape:window-maximized="1"
     inkscape:current-layer="svg1"
     showguides="true"
     inkscape:lockguides="false"
     guidecolor="#ffff00"
     guideopacity="0.6"
     guidehicolor="#ff00ff"
     guidehiopacity="0.50196078"><inkscape:grid
       id="grid1"
       units="px"
       originx="0"
       originy="0"
       spacingx="2"
       spacingy="2"
       empcolor="#0099e5"
       empopacity="0.30196078"
       color="#0099e5"
       opacity="0.14901961"
       empspacing="4"
       enabled="true"
       visible="true" /><sodipodi:guide
       position="-2,62"
       orientation="0,1"
       id="guide5"
       inkscape:locked="false"
       inkscape:label="top margin"
       inkscape:color="rgb(255,255,0)" /><sodipodi:guide
       position="64,2"
       orientation="0,1"
       id="guide6"
       inkscape:locked="false"
       inkscape:label="bottom margin"
       inkscape:color="rgb(255,255,0)" /><sodipodi:guide
       position="2,-2"
       orientation="-1,0"
       id="guide7"
       inkscape:locked="false"
       inkscape:label="right margin"
       inkscape:color="rgb(255,255,0)" /><sodipodi:guide
       position="62,64"
       orientation="-1,0"
       id="guide8"
       inkscape:locked="false"
       inkscape:label="left margin"
       inkscape:color="rgb(255,255,0)" /><sodipodi:guide
       position="64,64"
       orientation="0.70710678,-0.70710678"
       id="guide1"
       inkscape:locked="false" /><sodipodi:guide
       position="0,64"
       orientation="0.70710678,0.70710678"
       id="guide2"
       inkscape:label=""
       inkscape:locked="false"
       inkscape:color="rgb(255,255,0)" /><sodipodi:guide
       position="49.279095,55.040646"
       orientation="0,-1"
       id="guide3"
       inkscape:locked="false" /></sodipodi:namedview><defs
     id="defs1"><linearGradient
       id="linearGradient9"
       inkscape:collect="always"
       inkscape:label="Butter gradient"><stop
         style="stop-color:#fce94f;stop-opacity:1;"
         offset="0"
         id="stop9" /><stop
         style="stop-color:#edd400;stop-opacity:1;"
         offset="1"
         id="stop10" /></linearGradient><marker
       id="DistanceX"
       orient="auto"
       refX="0.0"
       refY="0.0"
       style="overflow:visible"><path
         d="M 3,-3 L -3,3 M 0,-5 L  0,5"
         style="stroke:#000000; stroke-width:0.5"
         id="path1-36" /></marker><pattern
       id="Hatch"
       patternUnits="userSpaceOnUse"
       width="8"
       height="8"
       x="0"
       y="0"><path
         d="M8 4 l-4,4"
         stroke="#000000"
         stroke-width="0.25"
         linecap="square"
         id="path2-7" /><path
         d="M6 2 l-4,4"
         stroke="#000000"
         stroke-width="0.25"
         linecap="square"
         id="path3" /><path
         d="M4 0 l-4,4"
         stroke="#000000"
         stroke-width="0.25"
         linecap="square"
         id="path4" /></pattern><symbol
       id="*MODEL_SPACE" /><symbol
       id="*PAPER_SPACE" /><linearGradient
       inkscape:collect="always"
       xlink:href="#linearGradient9"
       id="linearGradient7"
       x1="13.575256"
       y1="13.575256"
       x2="50.424744"
       y2="50.424744"
       gradientUnits="userSpaceOnUse" /></defs><metadata
     id="metadata1"><rdf:RDF><cc:Work
         rdf:about=""><cc:license
           rdf:resource="http://creativecommons.org/licenses/by-nc-sa/4.0/" /><dc:creator><cc:Agent><dc:title>hasecilu</dc:title></cc:Agent></dc:creator><dc:subject><rdf:Bag><rdf:li>FreeCAD</rdf:li><rdf:li>command</rdf:li></rdf:Bag></dc:subject><dc:description>Template file to create icons for FreeCAD commands.</dc:description><dc:date>2024</dc:date><dc:rights><cc:Agent><dc:title>FreeCAD LGPL2+</dc:title></cc:Agent></dc:rights><dc:identifier>FreeCAD/src/</dc:identifier><dc:publisher><cc:Agent><dc:title>FreeCAD</dc:title></cc:Agent></dc:publisher><dc:relation>https://wiki.freecad.org/Artwork</dc:relation><dc:title>Shaft Indexing</dc:title></cc:Work><cc:License
         rdf:about="http://creativecommons.org/licenses/by-nc-sa/4.0/"><cc:permits
           rdf:resource="http://creativecommons.org/ns#Reproduction" /><cc:permits
           rdf:resource="http://creativecommons.org/ns#Distribution" /><cc:requires
           rdf:resource="http://creativecommons.org/ns#Notice" /><cc:requires
           rdf:resource="http://creativecommons.org/ns#Attribution" /><cc:prohibits
           rdf:resource="http://creativecommons.org/ns#CommercialUse" /><cc:permits
           rdf:resource="http://creativecommons.org/ns#DerivativeWorks" /><cc:requires
           rdf:resource="http://creativecommons.org/ns#ShareAlike" /></cc:License></rdf:RDF></metadata><path
     id="path8"
     style="fill:#fce94f;stroke:#c4a000;stroke-width:2;stroke-linejoin:round;stroke-dasharray:none"
     inkscape:label="main"
     d="m 15.288313,8.5384121 -0.708009,0.2346621 c -15.45929573,11.5944588 -15.45929573,34.8593818 0,46.4538408 l 0.708009,0.234687 h 33.423376 l 0.708009,-0.234687 c 15.459296,-11.594459 15.459296,-34.859382 0,-46.4538408 L 48.711689,8.5384121 Z m 16.01165,14.1163259 a 9.3843201,9.3843201 0 0 1 10.085083,9.345269 9.3850452,9.3850452 0 0 1 -18.77009,0 9.3843201,9.3843201 0 0 1 8.685007,-9.345269 z" /><path
     id="path6"
     style="fill:url(#linearGradient7);fill-opacity:1;stroke:none;stroke-width:2;stroke-linejoin:round;stroke-dasharray:none"
     inkscape:label="gradient"
     sodipodi:type="inkscape:offset"
     inkscape:radius="-2.953125"
     inkscape:original="M 15.289062 8.5390625 L 14.580078 8.7734375 C -0.8792176 20.367896 -0.87921761 43.632104 14.580078 55.226562 L 15.289062 55.460938 L 48.710938 55.460938 L 49.419922 55.226562 C 64.879218 43.632103 64.879218 20.367896 49.419922 8.7734375 L 48.710938 8.5390625 L 15.289062 8.5390625 z M 31.300781 22.654297 A 9.3843201 9.3843201 0 0 1 41.384766 32 A 9.3850452 9.3850452 0 0 1 22.615234 32 A 9.3843201 9.3843201 0 0 1 31.300781 22.654297 z "
     d="m 15.978516,11.492188 c -13.3800507,10.448355 -13.3800506,30.567269 0,41.015624 h 32.042968 c 13.380051,-10.448356 13.380051,-30.567269 0,-41.015624 z m 15.101562,8.216796 c 2.378136,-0.177803 0.166874,-0.238973 2.53125,0.07227 2.364376,0.311239 0.20983,-0.201246 2.460938,0.585937 2.251108,0.787184 0.247917,-0.153825 2.291015,1.076172 2.043099,1.229997 0.274335,-0.101513 2.023438,1.519532 1.749102,1.621044 0.288429,-0.04153 1.669922,1.902343 1.381492,1.943869 0.292306,0.01824 1.248046,2.203125 0.955741,2.184881 0.279767,0.07622 0.769532,2.410157 0.489764,2.33394 0.260496,0.132806 0.263672,2.517578 a 2.9534203,2.9534203 0 0 1 0,0.02734 c -0.02504,3.245891 -1.34239,6.37572 -3.646485,8.66211 -2.304095,2.28639 -5.445419,3.580078 -8.691406,3.580078 -3.245987,0 -6.387311,-1.293688 -8.691406,-3.580078 -2.304095,-2.28639 -3.621447,-5.416219 -3.646485,-8.66211 a 2.9534203,2.9534203 0 0 1 0,-0.02734 c 0.0033,-2.461451 -0.241777,0.126972 0.21875,-2.291016 0.460528,-2.417988 -0.263053,0.07745 0.638672,-2.212891 0.901725,-2.290336 -0.272464,0.03021 1.039063,-2.052734 1.311526,-2.082942 -0.271368,-0.02315 1.404297,-1.826172 1.675664,-1.803025 -0.264663,-0.07287 1.716796,-1.533203 1.98146,-1.460331 -0.245609,-0.118754 1.972657,-1.185547 2.218266,-1.066793 -0.219635,-0.16467 2.158203,-0.800781 2.377838,-0.636111 -0.185089,-0.201484 2.269531,-0.384766 z" /><path
     id="text1"
     style="font-size:13.3333px;font-family:'OCR A';-inkscape-font-specification:'OCR A';text-align:start;writing-mode:lr-tb;direction:ltr;text-anchor:start;fill:#c4a000;fill-opacity:1;stroke-width:2;stroke-linecap:round;stroke-linejoin:round"
     sodipodi:type="inkscape:offset"
     inkscape:radius="0.34374961"
     inkscape:original="M 20.837891 11.492188 L 20.837891 12.638672 L 21.996094 13.171875 L 21.996094 19.330078 L 20.837891 19.865234 L 20.837891 21.009766 L 25.167969 21.009766 L 25.167969 19.865234 L 24.007812 19.330078 L 24.007812 13.171875 L 25.167969 12.638672 L 25.167969 11.492188 L 20.837891 11.492188 z M 26.794922 11.492188 L 26.794922 21.009766 L 29.300781 21.009766 C 30.069008 21.009766 30.752606 20.909071 31.351562 20.705078 C 31.95486 20.501086 32.462675 20.196614 32.875 19.792969 C 33.291666 19.384984 33.609159 18.878688 33.826172 18.275391 C 34.047525 17.667753 34.158203 16.963106 34.158203 16.160156 C 34.158203 15.396269 34.049045 14.724174 33.832031 14.142578 C 33.619358 13.560982 33.313367 13.074218 32.914062 12.683594 C 32.514758 12.288629 32.032985 11.990668 31.46875 11.791016 C 30.908856 11.591363 30.280814 11.492188 29.582031 11.492188 L 26.794922 11.492188 z M 35.003906 11.492188 L 37.693359 16.101562 L 34.802734 21.009766 L 36.964844 21.009766 L 38.910156 17.410156 L 40.857422 21.009766 L 43.162109 21.009766 L 40.212891 16.212891 L 42.933594 11.492188 L 40.759766 11.492188 L 39.015625 14.916016 L 37.230469 11.492188 L 35.003906 11.492188 z M 28.8125 13.146484 L 29.744141 13.146484 C 30.121744 13.146484 30.455296 13.206598 30.746094 13.328125 C 31.041232 13.449652 31.288629 13.636936 31.488281 13.888672 C 31.692274 14.140407 31.847005 14.459419 31.951172 14.845703 C 32.059679 15.227647 32.113281 15.683378 32.113281 16.212891 C 32.113281 17.258895 31.898436 18.041668 31.46875 18.5625 C 31.043404 19.083332 30.40538 19.34375 29.554688 19.34375 L 28.8125 19.34375 L 28.8125 13.146484 z "
     d="m 20.837891,11.148438 a 0.34378399,0.34378399 0 0 0 -0.34375,0.34375 v 1.146484 a 0.34378399,0.34378399 0 0 0 0.199218,0.3125 l 0.958985,0.441406 v 5.716797 l -0.958985,0.443359 a 0.34378399,0.34378399 0 0 0 -0.199218,0.3125 v 1.144532 a 0.34378399,0.34378399 0 0 0 0.34375,0.34375 h 4.330078 a 0.34378399,0.34378399 0 0 0 0.34375,-0.34375 v -1.144532 a 0.34378399,0.34378399 0 0 0 -0.199219,-0.3125 l -0.960938,-0.443359 v -5.716797 l 0.958985,-0.441406 a 0.34378399,0.34378399 0 0 0 0.201172,-0.3125 v -1.146484 a 0.34378399,0.34378399 0 0 0 -0.34375,-0.34375 z m 5.957031,0 a 0.34378399,0.34378399 0 0 0 -0.34375,0.34375 v 9.517578 a 0.34378399,0.34378399 0 0 0 0.34375,0.34375 h 2.505859 c 0.797544,0 1.518757,-0.104073 2.160156,-0.322266 0.646171,-0.218489 1.202901,-0.550294 1.654297,-0.992188 0.455872,-0.446374 0.802732,-1.000344 1.035157,-1.646484 h -0.002 c 0.237994,-0.653318 0.353516,-1.397884 0.353516,-2.232422 0,-0.795185 -0.114381,-1.508104 -0.347656,-2.134765 -0.227613,-0.622451 -0.560413,-1.157202 -0.998047,-1.585938 -0.436134,-0.431395 -0.964648,-0.757654 -1.572266,-0.972656 -0.602572,-0.214872 -1.270645,-0.31836 -2.001953,-0.318359 z m 8.208984,0 a 0.34378399,0.34378399 0 0 0 -0.296875,0.517578 l 2.587891,4.435546 -2.789063,4.734375 a 0.34378399,0.34378399 0 0 0 0.296875,0.517579 h 2.16211 a 0.34378399,0.34378399 0 0 0 0.302734,-0.179688 l 1.642578,-3.039062 1.644531,3.039062 a 0.34378399,0.34378399 0 0 0 0.302735,0.179688 h 2.304687 a 0.34378399,0.34378399 0 0 0 0.292969,-0.523438 l -2.841797,-4.623047 2.617188,-4.542968 a 0.34378399,0.34378399 0 0 0 -0.296875,-0.515625 h -2.173828 a 0.34378399,0.34378399 0 0 0 -0.306641,0.1875 l -1.441406,2.830078 -1.476563,-2.832032 a 0.34378399,0.34378399 0 0 0 -0.304687,-0.185546 z m -5.847656,2.341796 h 0.587891 c 0.34112,0 0.627418,0.05328 0.86914,0.154297 a 0.34378399,0.34378399 0 0 0 0.002,0.002 c 0.242702,0.09994 0.438194,0.246629 0.603516,0.455079 a 0.34378399,0.34378399 0 0 0 0.002,0.0039 c 0.168089,0.207428 0.304164,0.48048 0.398438,0.830078 a 0.34378399,0.34378399 0 0 0 0.002,0.0039 c 0.097,0.341427 0.148437,0.767123 0.148437,1.273438 0,0.998934 -0.208519,1.697057 -0.566406,2.130859 a 0.34378399,0.34378399 0 0 0 0,0.002 C 30.848796,18.779576 30.335226,19 29.554687,19 H 29.15625 Z"
     transform="translate(5.2658185e-5,-0.39257813)" /></svg>
