<?xml version="1.0" encoding="UTF-8" standalone="no"?>
<!-- Created with Inkscape (http://www.inkscape.org/) -->

<svg
   width="64"
   height="64"
   viewBox="0 0 64 64"
   version="1.1"
   id="svg1"
   inkscape:version="1.4 (e7c3feb100, 2024-10-09)"
   sodipodi:docname="Spacer_BUD_FRE.svg"
   xmlns:inkscape="http://www.inkscape.org/namespaces/inkscape"
   xmlns:sodipodi="http://sodipodi.sourceforge.net/DTD/sodipodi-0.dtd"
   xmlns:xlink="http://www.w3.org/1999/xlink"
   xmlns="http://www.w3.org/2000/svg"
   xmlns:svg="http://www.w3.org/2000/svg"
   xmlns:rdf="http://www.w3.org/1999/02/22-rdf-syntax-ns#"
   xmlns:cc="http://creativecommons.org/ns#"
   xmlns:dc="http://purl.org/dc/elements/1.1/">
  <title
     id="title6">Spacer - Block Unit Diameter - Free</title>
  <sodipodi:namedview
     id="namedview1"
     pagecolor="#323232"
     bordercolor="#ffffff"
     borderopacity="1"
     inkscape:showpageshadow="0"
     inkscape:pageopacity="0"
     inkscape:pagecheckerboard="1"
     inkscape:deskcolor="#191919"
     inkscape:document-units="px"
     showgrid="true"
     inkscape:zoom="5.6568539"
     inkscape:cx="20.506098"
     inkscape:cy="12.993088"
     inkscape:window-width="1894"
     inkscape:window-height="999"
     inkscape:window-x="0"
     inkscape:window-y="0"
     inkscape:window-maximized="1"
     inkscape:current-layer="svg1"
     showguides="true"
     inkscape:lockguides="false"
     guidecolor="#ffff00"
     guideopacity="0.6"
     guidehicolor="#ff00ff"
     guidehiopacity="0.50196078">
    <inkscape:grid
       id="grid1"
       units="px"
       originx="0"
       originy="0"
       spacingx="2"
       spacingy="2"
       empcolor="#0099e5"
       empopacity="0.30196078"
       color="#0099e5"
       opacity="0.14901961"
       empspacing="4"
       enabled="true"
       visible="true" />
    <sodipodi:guide
       position="-2,62"
       orientation="0,1"
       id="guide5"
       inkscape:locked="false"
       inkscape:label="top margin"
       inkscape:color="rgb(255,255,0)" />
    <sodipodi:guide
       position="64,2"
       orientation="0,1"
       id="guide6"
       inkscape:locked="false"
       inkscape:label="bottom margin"
       inkscape:color="rgb(255,255,0)" />
    <sodipodi:guide
       position="2,-2"
       orientation="-1,0"
       id="guide7"
       inkscape:locked="false"
       inkscape:label="right margin"
       inkscape:color="rgb(255,255,0)" />
    <sodipodi:guide
       position="62,64"
       orientation="-1,0"
       id="guide8"
       inkscape:locked="false"
       inkscape:label="left margin"
       inkscape:color="rgb(255,255,0)" />
    <sodipodi:guide
       position="64,64"
       orientation="0.70710678,-0.70710678"
       id="guide1"
       inkscape:locked="false" />
    <sodipodi:guide
       position="0,64"
       orientation="0.70710678,0.70710678"
       id="guide2"
       inkscape:label=""
       inkscape:locked="false"
       inkscape:color="rgb(255,255,0)" />
  </sodipodi:namedview>
  <defs
     id="defs1">
    <linearGradient
       id="linearGradient22"
       inkscape:collect="always"
       inkscape:label="Scarlet red gradient">
      <stop
         style="stop-color:#ef2929;stop-opacity:1;"
         offset="0"
         id="stop22" />
      <stop
         style="stop-color:#cc0000;stop-opacity:1;"
         offset="1"
         id="stop23" />
    </linearGradient>
    <linearGradient
       inkscape:collect="always"
       xlink:href="#linearGradient22"
       id="linearGradient2"
       x1="11.493903"
       y1="11.493903"
       x2="52.506096"
       y2="52.506096"
       gradientUnits="userSpaceOnUse" />
  </defs>
  <metadata
     id="metadata1">
    <rdf:RDF>
      <cc:Work
         rdf:about="">
        <cc:license
           rdf:resource="http://creativecommons.org/licenses/by-nc-sa/4.0/" />
        <dc:creator>
          <cc:Agent>
            <dc:title>hasecilu</dc:title>
          </cc:Agent>
        </dc:creator>
        <dc:subject>
          <rdf:Bag>
            <rdf:li>FreeCAD</rdf:li>
            <rdf:li>command</rdf:li>
          </rdf:Bag>
        </dc:subject>
        <dc:description>Template file to create icons for FreeCAD commands.</dc:description>
        <dc:date>2025</dc:date>
        <dc:rights>
          <cc:Agent>
            <dc:title>FreeCAD LGPL2+</dc:title>
          </cc:Agent>
        </dc:rights>
        <dc:identifier>FreeCAD/src/</dc:identifier>
        <dc:publisher>
          <cc:Agent>
            <dc:title>FreeCAD</dc:title>
          </cc:Agent>
        </dc:publisher>
        <dc:relation>https://wiki.freecad.org/Artwork</dc:relation>
        <dc:title>Spacer BUD FRE</dc:title>
      </cc:Work>
      <cc:License
         rdf:about="http://creativecommons.org/licenses/by-nc-sa/4.0/">
        <cc:permits
           rdf:resource="http://creativecommons.org/ns#Reproduction" />
        <cc:permits
           rdf:resource="http://creativecommons.org/ns#Distribution" />
        <cc:requires
           rdf:resource="http://creativecommons.org/ns#Notice" />
        <cc:requires
           rdf:resource="http://creativecommons.org/ns#Attribution" />
        <cc:prohibits
           rdf:resource="http://creativecommons.org/ns#CommercialUse" />
        <cc:permits
           rdf:resource="http://creativecommons.org/ns#DerivativeWorks" />
        <cc:requires
           rdf:resource="http://creativecommons.org/ns#ShareAlike" />
      </cc:License>
    </rdf:RDF>
  </metadata>
  <path
     id="path3"
     style="display:inline;fill:#ef2929;stroke:#a40000;stroke-width:1.99993;stroke-linecap:round;stroke-linejoin:round;stroke-dasharray:none"
     inkscape:label="main"
     d="M 32 3 A 29.000034 29.000034 0 0 0 3 32 A 29.000034 29.000034 0 0 0 32 61 A 29.000034 29.000034 0 0 0 61 32 A 29.000034 29.000034 0 0 0 32 3 z M 32 20 A 12 12 0 0 1 44 32 A 12 12 0 0 1 32 44 A 12 12 0 0 1 20 32 A 12 12 0 0 1 32 20 z " />
  <path
     id="path1"
     style="display:inline;fill:url(#linearGradient2);stroke:none;stroke-width:1.99993;stroke-linecap:round;stroke-linejoin:round;stroke-dasharray:none"
     inkscape:label="gradient"
     sodipodi:type="inkscape:offset"
     inkscape:radius="-2.8978024"
     inkscape:original="M 32 3 A 29.000034 29.000034 0 0 0 3 32 A 29.000034 29.000034 0 0 0 32 61 A 29.000034 29.000034 0 0 0 61 32 A 29.000034 29.000034 0 0 0 32 3 z M 32 20 A 12 12 0 0 1 44 32 A 12 12 0 0 1 32 44 A 12 12 0 0 1 20 32 A 12 12 0 0 1 32 20 z "
     d="m 32,5.8984375 c -6.833538,8e-6 -13.62499,2.8124901 -18.457031,7.6445315 C 8.7109276,18.37501 5.8984455,25.166462 5.8984375,32 c 8e-6,6.833538 2.8124901,13.62499 7.6445315,18.457031 4.832041,4.832041 11.623493,7.644523 18.457031,7.644531 6.833538,-8e-6 13.62499,-2.81249 18.457031,-7.644531 C 55.289072,45.62499 58.101554,38.833538 58.101562,32 58.101554,25.166462 55.289072,18.37501 50.457031,13.542969 45.62499,8.7109276 38.833538,5.8984455 32,5.8984375 Z m 0,11.2031245 c 2.925177,0 0.03728,-0.283564 2.90625,0.28711 2.86897,0.570674 0.09241,-0.271761 2.794922,0.847656 2.702511,1.119417 0.143976,-0.248188 2.576172,1.376953 2.432195,1.625141 0.1894,-0.216849 2.257812,1.851563 2.068412,2.068412 0.226422,-0.174383 1.851563,2.257812 1.625141,2.432196 0.257536,-0.126339 1.376953,2.576172 1.119417,2.702511 0.276982,-0.07405 0.847656,2.794922 0.570674,2.86897 0.28711,-0.01893 0.287109,2.90625 0,2.925177 0.283565,0.03728 -0.287109,2.90625 -0.570674,2.86897 0.271761,0.09241 -0.847656,2.794922 -1.119417,2.702511 0.248188,0.143976 -1.376953,2.576172 -1.625141,2.432195 0.216849,0.1894 -1.851563,2.257812 -2.068412,2.068412 0.174383,0.226422 -2.257812,1.851563 -2.432196,1.625141 0.126339,0.257536 -2.576172,1.376953 -2.702511,1.119417 0.07405,0.276982 -2.794922,0.847656 -2.86897,0.570674 0.01893,0.28711 -2.90625,0.287109 -2.925177,0 -0.03728,0.283565 -2.90625,-0.287109 -2.86897,-0.570674 -0.09241,0.271761 -2.794922,-0.847656 -2.702511,-1.119417 -0.143976,0.248188 -2.576172,-1.376953 -2.432195,-1.625141 -0.1894,0.216849 -2.257812,-1.851563 -2.068412,-2.068412 -0.226422,0.174383 -1.851563,-2.257812 -1.625141,-2.432196 -0.257536,0.126339 -1.376953,-2.576172 -1.119417,-2.702511 -0.276982,0.07405 -0.847656,-2.794922 -0.570674,-2.86897 -0.28711,0.01893 -0.28711,-2.90625 0,-2.925177 -0.283564,-0.03728 0.28711,-2.90625 0.570674,-2.86897 -0.271761,-0.09241 0.847656,-2.794922 1.119417,-2.702511 -0.248188,-0.143976 1.376953,-2.576172 1.625141,-2.432195 -0.216849,-0.1894 1.851563,-2.257812 2.068412,-2.068412 -0.174383,-0.226422 2.257812,-1.851563 2.432196,-1.625141 -0.126339,-0.257536 2.576172,-1.376953 2.702511,-1.119417 -0.07405,-0.276982 2.794922,-0.847656 2.86897,-0.570674 -0.01893,-0.28711 2.90625,-0.28711 z" />
  <path
     id="text1"
     style="font-weight:bold;font-size:13.3333px;font-family:'Droid Sans';-inkscape-font-specification:'Droid Sans Bold';text-align:center;writing-mode:lr-tb;direction:ltr;text-anchor:middle;fill:#a40000;stroke:none;stroke-width:2;stroke-linecap:round;stroke-linejoin:round"
     inkscape:label="BUD"
     sodipodi:type="inkscape:offset"
     inkscape:radius="0.34375003"
     inkscape:original="M 20 8 L 20 17.517578 L 23.359375 17.517578 C 23.871526 17.517578 24.328777 17.455946 24.732422 17.330078 C 25.140407 17.20421 25.485461 17.023437 25.767578 16.789062 C 26.054036 16.550348 26.273872 16.262369 26.425781 15.923828 C 26.577691 15.580947 26.654297 15.191839 26.654297 14.757812 C 26.654297 14.38455 26.608724 14.067057 26.517578 13.806641 C 26.430773 13.546225 26.308593 13.33138 26.152344 13.162109 C 26.000434 12.988499 25.819661 12.855251 25.611328 12.759766 C 25.407336 12.659939 25.18598 12.583333 24.947266 12.53125 L 24.947266 12.466797 C 25.18164 12.427734 25.388455 12.349609 25.566406 12.232422 C 25.748697 12.110894 25.903429 11.961154 26.029297 11.783203 C 26.155165 11.605252 26.249349 11.398437 26.314453 11.164062 C 26.379557 10.929688 26.412109 10.6773 26.412109 10.408203 C 26.412109 9.9611556 26.333984 9.5870218 26.177734 9.2832031 C 26.025825 8.9750442 25.797959 8.7276471 25.494141 8.5410156 C 25.190322 8.3500439 24.812716 8.2133244 24.361328 8.1308594 C 23.90994 8.044054 23.386066 8 22.787109 8 L 20 8 z M 28.496094 8 L 28.496094 14.132812 C 28.496094 14.662325 28.574219 15.144098 28.730469 15.578125 C 28.886718 16.007811 29.114584 16.377388 29.414062 16.685547 C 29.717881 16.993706 30.093968 17.23112 30.541016 17.400391 C 30.992403 17.565321 31.509767 17.648438 32.095703 17.648438 C 32.716361 17.648438 33.256729 17.55881 33.716797 17.380859 C 34.176865 17.202908 34.559463 16.958984 34.863281 16.646484 C 35.17144 16.333985 35.399306 15.964409 35.546875 15.539062 C 35.698784 15.113716 35.775391 14.652994 35.775391 14.158203 L 35.775391 8 L 33.763672 8 L 33.763672 13.970703 C 33.763672 14.634764 33.634982 15.131077 33.378906 15.460938 C 33.127171 15.790798 32.717012 15.955078 32.148438 15.955078 C 31.875001 15.955078 31.635633 15.919488 31.431641 15.845703 C 31.227648 15.771919 31.056857 15.65625 30.917969 15.5 C 30.78342 15.33941 30.680772 15.136067 30.611328 14.888672 C 30.541884 14.636936 30.507812 14.333983 30.507812 13.982422 L 30.507812 8 L 28.496094 8 z M 38.105469 8 L 38.105469 17.517578 L 40.611328 17.517578 C 41.379555 17.517578 42.063153 17.416883 42.662109 17.212891 C 43.265406 17.008898 43.773222 16.704426 44.185547 16.300781 C 44.602212 15.892796 44.919705 15.3865 45.136719 14.783203 C 45.358072 14.175566 45.46875 13.470918 45.46875 12.667969 C 45.46875 11.904082 45.359591 11.231986 45.142578 10.650391 C 44.929905 10.068795 44.623914 9.5820303 44.224609 9.1914062 C 43.825305 8.796442 43.343532 8.4984804 42.779297 8.2988281 C 42.219402 8.0991759 41.591361 8 40.892578 8 L 38.105469 8 z M 22.017578 9.6542969 L 22.974609 9.6542969 C 23.4694 9.6542969 23.830947 9.7339414 24.056641 9.8945312 C 24.286675 10.050781 24.400391 10.311199 24.400391 10.675781 C 24.400391 10.858072 24.377821 11.019315 24.330078 11.158203 C 24.286675 11.292751 24.211588 11.404948 24.107422 11.496094 C 24.003255 11.587239 23.866536 11.657335 23.697266 11.705078 C 23.527995 11.748481 23.318142 11.769531 23.066406 11.769531 L 22.017578 11.769531 L 22.017578 9.6542969 z M 40.123047 9.6542969 L 41.054688 9.6542969 C 41.432291 9.6542969 41.765843 9.71441 42.056641 9.8359375 C 42.351779 9.957465 42.599176 10.144749 42.798828 10.396484 C 43.002821 10.64822 43.157552 10.967232 43.261719 11.353516 C 43.370225 11.735459 43.423828 12.191191 43.423828 12.720703 C 43.423828 13.766707 43.208983 14.54948 42.779297 15.070312 C 42.353951 15.591145 41.715927 15.851562 40.865234 15.851562 L 40.123047 15.851562 L 40.123047 9.6542969 z M 22.017578 13.371094 L 23.150391 13.371094 C 23.428168 13.371094 23.661025 13.398655 23.847656 13.455078 C 24.034288 13.511502 24.184028 13.593099 24.296875 13.697266 C 24.414062 13.801432 24.497179 13.92665 24.544922 14.074219 C 24.592665 14.217448 24.615234 14.37869 24.615234 14.556641 C 24.615234 14.751953 24.592665 14.929254 24.544922 15.089844 C 24.497179 15.250434 24.415581 15.387153 24.302734 15.5 C 24.194228 15.612847 24.049479 15.699002 23.867188 15.759766 C 23.689237 15.820529 23.467881 15.851562 23.203125 15.851562 L 22.017578 15.851562 L 22.017578 13.371094 z "
     d="M 20,7.65625 A 0.3437844,0.3437844 0 0 0 19.65625,8 v 9.517578 A 0.3437844,0.3437844 0 0 0 20,17.861328 h 3.359375 c 0.539729,0 1.030977,-0.06479 1.474609,-0.203125 0.444409,-0.137105 0.831083,-0.338574 1.152344,-0.605469 a 0.3437844,0.3437844 0 0 0 0.002,0 c 0.324463,-0.270384 0.579141,-0.603156 0.751953,-0.988281 a 0.3437844,0.3437844 0 0 0 0,-0.002 c 0.173587,-0.391808 0.257813,-0.830212 0.257813,-1.304687 0,-0.401242 -0.04813,-0.755534 -0.15625,-1.064454 -0.09913,-0.295666 -0.24338,-0.55292 -0.435547,-0.761718 -0.170851,-0.194132 -0.380605,-0.340794 -0.609375,-0.453125 0.196581,-0.138524 0.37438,-0.299164 0.513672,-0.496094 0.151693,-0.214462 0.261908,-0.460058 0.335937,-0.726563 0.07423,-0.267221 0.109375,-0.550837 0.109375,-0.847656 0,-0.4855241 -0.08337,-0.9136488 -0.269531,-1.2773436 l -0.002,-0.00195 C 26.305044,8.7663009 26.029116,8.4667517 25.677734,8.25 l -0.0039,-0.00195 C 25.32511,8.0295973 24.90749,7.8811706 24.425781,7.7929687 h -0.002 C 23.945595,7.701142 23.402193,7.65625 22.787109,7.65625 Z m 8.496094,0 A 0.3437844,0.3437844 0 0 0 28.152344,8 v 6.132813 c 0,0.563324 0.08256,1.086554 0.253906,1.5625 a 0.3437844,0.3437844 0 0 0 0.002,0 c 0.171296,0.471066 0.42529,0.886297 0.759766,1.230468 a 0.3437844,0.3437844 0 0 0 0.002,0.002 c 0.341419,0.346296 0.763114,0.610567 1.25,0.794922 a 0.3437844,0.3437844 0 0 0 0.0039,0 c 0.495947,0.181212 1.053431,0.269531 1.671875,0.269531 0.653752,0 1.235829,-0.0944 1.744141,-0.291015 0.497945,-0.192602 0.925841,-0.461604 1.267578,-0.8125 l 0.002,-0.002 c 0.342462,-0.347863 0.598719,-0.763335 0.761719,-1.232422 v -0.002 c 0.165618,-0.464418 0.248047,-0.964542 0.248047,-1.494141 V 8 A 0.3437844,0.3437844 0 0 0 35.775391,7.65625 H 33.763672 A 0.3437844,0.3437844 0 0 0 33.419922,8 v 5.970703 c 0,0.61965 -0.124636,1.037302 -0.3125,1.279297 a 0.3437844,0.3437844 0 0 0 -0.002,0.002 c -0.175881,0.230465 -0.454671,0.359375 -0.957032,0.359375 -0.243609,0 -0.443253,-0.03329 -0.599609,-0.08984 -0.152162,-0.05504 -0.267923,-0.135177 -0.369141,-0.248046 -0.09614,-0.116059 -0.178187,-0.270734 -0.236328,-0.476563 -0.05831,-0.211368 -0.0918,-0.485102 -0.0918,-0.814453 V 8 a 0.3437844,0.3437844 0 0 0 -0.34375,-0.34375 z m 9.609375,0 A 0.3437844,0.3437844 0 0 0 37.761719,8 v 9.517578 a 0.3437844,0.3437844 0 0 0 0.34375,0.34375 h 2.505859 c 0.797544,0 1.518757,-0.104073 2.160156,-0.322266 0.64617,-0.218489 1.202901,-0.550293 1.654297,-0.992187 0.455871,-0.446374 0.802731,-1.000344 1.035156,-1.646484 h -0.002 c 0.237994,-0.653318 0.353516,-1.397885 0.353516,-2.232422 0,-0.795186 -0.114382,-1.508106 -0.347656,-2.134766 C 45.237231,9.9107524 44.904432,9.3760014 44.466797,8.9472656 44.030663,8.5158715 43.502149,8.1896123 42.894531,7.9746094 42.291958,7.7597388 41.623886,7.65625 40.892578,7.65625 Z M 22.361328,9.9980469 h 0.613281 c 0.457903,0 0.754671,0.084603 0.882813,0.1757811 a 0.3437844,0.3437844 0 0 0 0.0059,0.0059 c 0.126737,0.08608 0.19336,0.20299 0.19336,0.496093 0,0.153917 -0.0188,0.278059 -0.05078,0.371094 a 0.3437844,0.3437844 0 0 0 -0.0039,0.0059 c -0.02498,0.07744 -0.06053,0.132551 -0.121094,0.185547 -0.0569,0.04979 -0.145277,0.09794 -0.273437,0.134766 -0.12882,0.03266 -0.310094,0.05273 -0.541016,0.05273 h -0.705078 z m 18.105469,0 h 0.58789 c 0.341121,0 0.627419,0.053279 0.869141,0.1542971 a 0.3437844,0.3437844 0 0 0 0.002,0.002 c 0.242702,0.09994 0.438194,0.246629 0.603516,0.455078 a 0.3437844,0.3437844 0 0 0 0.002,0.0039 c 0.16809,0.20743 0.304163,0.480481 0.398437,0.830078 a 0.3437844,0.3437844 0 0 0 0.002,0.0039 c 0.09699,0.341426 0.148437,0.767124 0.148437,1.273437 0,0.998934 -0.208519,1.697057 -0.566406,2.13086 a 0.3437844,0.3437844 0 0 0 0,0.002 c -0.354329,0.433873 -0.867898,0.654297 -1.648438,0.654297 H 40.466797 Z M 22.361328,13.714844 h 0.789063 c 0.255039,0 0.457158,0.02588 0.597656,0.06836 0.147511,0.0446 0.249182,0.103962 0.316406,0.166016 a 0.3437844,0.3437844 0 0 0 0.0039,0.0059 c 0.07527,0.06691 0.121085,0.134027 0.150391,0.22461 a 0.3437844,0.3437844 0 0 0 0,0.0039 c 0.03355,0.100636 0.05273,0.22416 0.05273,0.373047 0,0.168831 -0.02016,0.312838 -0.05664,0.435547 -0.03244,0.109122 -0.08103,0.192354 -0.154297,0.265625 a 0.3437844,0.3437844 0 0 0 -0.0059,0.0039 c -0.06323,0.06576 -0.15527,0.124673 -0.296875,0.171875 a 0.3437844,0.3437844 0 0 0 -0.002,0 c -0.129325,0.04416 -0.314839,0.07422 -0.552734,0.07422 h -0.841797 z" />
</svg>
