<?xml version="1.0" encoding="UTF-8" standalone="no"?>
<svg
   width="50mm"
   height="50mm"
   viewBox="0 0 50 50"
   version="1.1"
   id="svg2282"
   inkscape:version="1.1-alpha (17bc9184, 2021-03-28)"
   sodipodi:docname="Stemfie® - Logo (only symbol).svg"
   xmlns:inkscape="http://www.inkscape.org/namespaces/inkscape"
   xmlns:sodipodi="http://sodipodi.sourceforge.net/DTD/sodipodi-0.dtd"
   xmlns="http://www.w3.org/2000/svg"
   xmlns:svg="http://www.w3.org/2000/svg">
  <sodipodi:namedview
     id="namedview2284"
     pagecolor="#ffffff"
     bordercolor="#666666"
     borderopacity="1.0"
     objecttolerance="10.0"
     gridtolerance="10.0"
     guidetolerance="10.0"
     inkscape:pageshadow="2"
     inkscape:pageopacity="0"
     inkscape:pagecheckerboard="true"
     inkscape:document-units="mm"
     showgrid="false"
     borderlayer="true"
     fit-margin-top="0"
     fit-margin-left="0"
     fit-margin-right="0"
     fit-margin-bottom="0"
     inkscape:snap-bbox="true"
     inkscape:bbox-nodes="true"
     inkscape:bbox-paths="true"
     inkscape:snap-bbox-edge-midpoints="true"
     inkscape:snap-bbox-midpoints="true"
     inkscape:snap-midpoints="true"
     inkscape:snap-smooth-nodes="true"
     inkscape:snap-intersection-paths="true"
     inkscape:object-paths="true"
     inkscape:zoom="2.1487374"
     inkscape:cx="113.32236"
     inkscape:cy="103.08379"
     inkscape:window-width="1440"
     inkscape:window-height="829"
     inkscape:window-x="0"
     inkscape:window-y="23"
     inkscape:window-maximized="1"
     inkscape:current-layer="layer1" />
  <defs
     id="defs2279" />
  <g
     inkscape:label="Layer 1"
     inkscape:groupmode="layer"
     id="layer1"
     transform="translate(-125.77037,-69.621109)">
    <path
       sodipodi:nodetypes="cccccccccccccc"
       id="path4561"
       d="m 142.24732,72.244271 c -1.72851,6.808016 -7.04463,12.124061 -13.85265,13.852654 -2.09126,5.490005 -2.09126,11.557965 0,17.048035 6.80802,1.72852 12.12414,7.04464 13.85265,13.8526 5.49008,2.0913 11.55607,2.0913 17.04608,0 1.72855,-6.80796 7.04467,-12.12408 13.85263,-13.8526 2.0913,-5.49007 2.0913,-11.55803 0,-17.048035 -6.80796,-1.728593 -12.12408,-7.044638 -13.85263,-13.852654 -5.68211,-2.13986 -11.81707,-2.041144 -17.04608,0 z m 8.52305,10.550337 c 6.53219,-3.92e-4 11.8277,5.295094 11.8273,11.827294 -6.7e-4,6.531438 -5.29588,11.825738 -11.8273,11.825348 -6.53144,3.9e-4 -11.82664,-5.29391 -11.82732,-11.825348 -3.9e-4,-6.5322 5.29511,-11.827686 11.82732,-11.827294 z"
       style="fill:#ff6600;fill-opacity:1;stroke:none;stroke-width:0.249024;stroke-miterlimit:4;stroke-dasharray:none"
       inkscape:connector-curvature="0" />
  </g>
</svg>
