<?xml version="1.0" encoding="UTF-8" standalone="no"?>
<!-- Created with Inkscape (http://www.inkscape.org/) -->

<svg
   width="64"
   height="64"
   viewBox="0 0 64 64"
   version="1.1"
   id="svg1"
   inkscape:version="1.4 (e7c3feb100, 2024-10-09)"
   sodipodi:docname="STR_BXS_ESS_C.svg"
   xml:space="preserve"
   xmlns:inkscape="http://www.inkscape.org/namespaces/inkscape"
   xmlns:sodipodi="http://sodipodi.sourceforge.net/DTD/sodipodi-0.dtd"
   xmlns:xlink="http://www.w3.org/1999/xlink"
   xmlns="http://www.w3.org/2000/svg"
   xmlns:svg="http://www.w3.org/2000/svg"
   xmlns:rdf="http://www.w3.org/1999/02/22-rdf-syntax-ns#"
   xmlns:cc="http://creativecommons.org/ns#"
   xmlns:dc="http://purl.org/dc/elements/1.1/"><title
     id="title4">Beam - Straight - Box-section - End Square Square - Holes at ends</title><sodipodi:namedview
     id="namedview1"
     pagecolor="#323232"
     bordercolor="#ffffff"
     borderopacity="1"
     inkscape:showpageshadow="0"
     inkscape:pageopacity="0"
     inkscape:pagecheckerboard="1"
     inkscape:deskcolor="#191919"
     inkscape:document-units="px"
     showgrid="true"
     inkscape:zoom="11.313709"
     inkscape:cx="15.733126"
     inkscape:cy="20.815456"
     inkscape:window-width="1894"
     inkscape:window-height="999"
     inkscape:window-x="0"
     inkscape:window-y="0"
     inkscape:window-maximized="1"
     inkscape:current-layer="svg1"
     showguides="true"
     inkscape:lockguides="false"
     guidecolor="#ffff00"
     guideopacity="0.6"
     guidehicolor="#ff00ff"
     guidehiopacity="0.50196078"><inkscape:grid
       id="grid1"
       units="px"
       originx="0"
       originy="0"
       spacingx="2"
       spacingy="2"
       empcolor="#0099e5"
       empopacity="0.30196078"
       color="#0099e5"
       opacity="0.14901961"
       empspacing="4"
       enabled="true"
       visible="true" /><sodipodi:guide
       position="-2,62"
       orientation="0,1"
       id="guide5"
       inkscape:locked="false"
       inkscape:label="top margin"
       inkscape:color="rgb(255,255,0)" /><sodipodi:guide
       position="64,2"
       orientation="0,1"
       id="guide6"
       inkscape:locked="false"
       inkscape:label="bottom margin"
       inkscape:color="rgb(255,255,0)" /><sodipodi:guide
       position="2,-2"
       orientation="-1,0"
       id="guide7"
       inkscape:locked="false"
       inkscape:label="right margin"
       inkscape:color="rgb(255,255,0)" /><sodipodi:guide
       position="62,64"
       orientation="-1,0"
       id="guide8"
       inkscape:locked="false"
       inkscape:label="left margin"
       inkscape:color="rgb(255,255,0)" /><sodipodi:guide
       position="64,64"
       orientation="0.70710678,-0.70710678"
       id="guide1"
       inkscape:locked="false" /><sodipodi:guide
       position="0,64"
       orientation="0.70710678,0.70710678"
       id="guide2"
       inkscape:label=""
       inkscape:locked="false"
       inkscape:color="rgb(255,255,0)" /></sodipodi:namedview><defs
     id="defs1"><linearGradient
       id="linearGradient3"
       inkscape:collect="always"
       inkscape:label="Sky Blue gradient"><stop
         style="stop-color:#729fcf;stop-opacity:1;"
         offset="0"
         id="stop3" /><stop
         style="stop-color:#3465a4;stop-opacity:1;"
         offset="1"
         id="stop4" /></linearGradient><linearGradient
       inkscape:collect="always"
       xlink:href="#linearGradient3"
       id="linearGradient108"
       x1="-129.31058"
       y1="-129.31058"
       x2="129.31058"
       y2="129.31058"
       gradientUnits="userSpaceOnUse" /></defs><metadata
     id="metadata1"><rdf:RDF><cc:Work
         rdf:about=""><cc:license
           rdf:resource="http://creativecommons.org/licenses/by-nc-sa/4.0/" /><dc:creator><cc:Agent><dc:title>hasecilu</dc:title></cc:Agent></dc:creator><dc:subject><rdf:Bag><rdf:li>FreeCAD</rdf:li><rdf:li>command</rdf:li></rdf:Bag></dc:subject><dc:description>Template file to create icons for FreeCAD commands.</dc:description><dc:date>2024</dc:date><dc:rights><cc:Agent><dc:title>FreeCAD LGPL2+</dc:title></cc:Agent></dc:rights><dc:identifier>FreeCAD/src/</dc:identifier><dc:publisher><cc:Agent><dc:title>FreeCAD</dc:title></cc:Agent></dc:publisher><dc:relation>https://wiki.freecad.org/Artwork</dc:relation><dc:title>Beam - Straight - Box-section - End Square Square - Holes at ends</dc:title></cc:Work><cc:License
         rdf:about="http://creativecommons.org/licenses/by-nc-sa/4.0/"><cc:permits
           rdf:resource="http://creativecommons.org/ns#Reproduction" /><cc:permits
           rdf:resource="http://creativecommons.org/ns#Distribution" /><cc:requires
           rdf:resource="http://creativecommons.org/ns#Notice" /><cc:requires
           rdf:resource="http://creativecommons.org/ns#Attribution" /><cc:prohibits
           rdf:resource="http://creativecommons.org/ns#CommercialUse" /><cc:permits
           rdf:resource="http://creativecommons.org/ns#DerivativeWorks" /><cc:requires
           rdf:resource="http://creativecommons.org/ns#ShareAlike" /></cc:License></rdf:RDF></metadata><path
     id="path106"
     style="display:inline;fill:#729fcf;stroke:#204a87;stroke-width:12.1915;stroke-linecap:round;stroke-linejoin:round;stroke-dasharray:none"
     d="M -11.0485,-19.1366 V -95.6832 M 176.777,102.062 V 0 M 88.3883,153.093 176.777,102.062 M 77.3398,-44.6522 -11.0485,-95.6832 m -66.2913,38.2733 66.2913,-38.2733 M 11.0485,-6.37888 77.3398,-44.6522 M 11.0485,-6.37888 -77.3398,-57.4099 M 88.3883,51.031 176.777,0 M -88.3883,-153.093 176.777,0 M 88.3883,153.093 V 51.031 M -176.777,0 88.3883,153.093 m -265.1653,-255.155 88.3887,-51.031 M -176.777,0 v -102.062 m 165.7285,82.9254 -66.2913,-38.2733 66.2913,-38.2733 v 76.5466 m 22.097,12.75772 -22.097,-12.75772 v -76.5466 l 88.3883,51.031 -66.2913,38.27332 m 0,0 -22.097,-12.75772 -66.2913,-38.2733 66.2913,-38.2733 88.3883,51.031 -66.2913,38.27332 M 88.3883,153.093 V 51.031 L 176.777,0 V 102.062 L 88.3883,153.093 M -176.777,0 V -102.062 L 88.3883,51.031 V 153.093 L -176.777,0 m 0,-102.062 88.3887,-51.031 L 176.777,0 88.3883,51.031 -176.777,-102.062 m 0,102.062 V -102.062 L -88.3883,-153.093 176.777,0 V 102.062 L 88.3883,153.093 -176.777,0"
     sodipodi:nodetypes="ccccccccccccccccccccccccccccccccccccccccccccccccccccccccccccccc"
     transform="matrix(0.16404829,0,0,0.16404829,32.000011,32.000005)"
     inkscape:label="main" /><path
     id="path107"
     style="display:inline;fill:url(#linearGradient108);stroke:none;stroke-width:12.1915;stroke-linecap:round;stroke-linejoin:round;stroke-dasharray:none"
     inkscape:label="gradient"
     sodipodi:type="inkscape:offset"
     inkscape:radius="-15.593519"
     inkscape:original="M -88.388672 -153.09375 L -176.77734 -102.0625 L -176.77734 0 L 88.388672 153.09375 L 176.77734 102.0625 L 176.77734 0 L -88.388672 -153.09375 z "
     d="m -88.388672,-135.08789 -72.794918,42.027343 V -9.0019531 L 88.388672,135.08789 161.18359,93.060547 V 9.0019531 Z"
     transform="matrix(0.16404829,0,0,0.16404829,32.000011,32.000005)" /><g
     id="g107"
     inkscape:label="holes"
     style="display:inline;fill:none;stroke:#204a87;stroke-width:2;stroke-linecap:round;stroke-linejoin:round;stroke-dasharray:none;stroke-opacity:1"><path
       id="path93"
       style="fill:none;stroke:#204a87;stroke-width:12.1915;stroke-linecap:round;stroke-linejoin:round;stroke-dasharray:none;stroke-opacity:1"
       d="m -26.6942,-55.8264 c -4.6413,-2.6797 -10.9362,-2.0561 -17.5,1.7335 m 22.1295,28.5961 c 4.7719,-13.7594 2.9068,-25.9785 -4.6295,-30.3296 m -17.5,1.7335 c -3.847,2.2211 -7.641,5.4471 -11.0809,9.4221"
       transform="matrix(0.16404829,0,0,0.16404829,32.000011,32.000005)" /><path
       id="path53"
       style="fill:none;stroke:#204a87;stroke-width:12.1915;stroke-linecap:round;stroke-linejoin:round;stroke-dasharray:none;stroke-opacity:1"
       d="m 26.6942,46.2357 c 4.6413,-2.6797 10.9362,-2.0561 17.5,1.7335 m 17.5,58.8878 c -9.665,5.581 -25.335,-3.467 -35,-20.2068 -9.665,-16.7403 -9.665,-34.8345 0,-40.4145 m 17.5,1.7335 c 10.0099,5.7792 19.0342,17.952 22.8648,30.8423 3.8307,12.8902 1.7133,23.9595 -5.3648,28.0455"
       transform="matrix(0.16404829,0,0,0.16404829,32.000011,32.000005)" /><path
       id="path82"
       style="fill:none;stroke:#204a87;stroke-width:12.1915;stroke-linecap:round;stroke-linejoin:round;stroke-dasharray:none;stroke-opacity:1"
       d="m 150.083,46.2357 c -4.642,-2.6797 -10.937,-2.0561 -17.5,1.7335 m -17.5,58.8878 c 9.665,5.581 25.335,-3.467 35,-20.2068 9.665,-16.7403 9.665,-34.8345 0,-40.4145 m -17.5,1.7335 c -10.01,5.7792 -19.035,17.952 -22.865,30.8423 -3.831,12.8902 -1.714,23.9595 5.365,28.0455"
       transform="matrix(0.16404829,0,0,0.16404829,32.000011,32.000005)" /><path
       id="path50"
       style="fill:none;stroke:#204a87;stroke-width:12.1915;stroke-linecap:round;stroke-linejoin:round;stroke-dasharray:none;stroke-opacity:1"
       d="m -150.083,-55.8264 c 4.642,-2.6797 10.937,-2.0561 17.5,1.7335 m 17.5,58.88827 c -9.665,5.58013 -25.335,-3.46702 -35,-20.20727 -9.665,-16.7402 -9.665,-34.8344 0,-40.4145 m 17.5,1.7335 c 10.01,5.7792 19.035,17.9521 22.865,30.8423 3.831,12.8903 1.714,23.959434 -5.365,28.04597"
       transform="matrix(0.16404829,0,0,0.16404829,32.000011,32.000005)" /><path
       id="path58"
       style="fill:none;stroke:#204a87;stroke-width:12.1915;stroke-linecap:round;stroke-linejoin:round;stroke-dasharray:none;stroke-opacity:1"
       d="m -123.388,-102.062 c 0,8.173 8.527,15.5413 21.606,18.669 13.0783,3.1277 28.1325,1.3989 38.1424,-4.3804 m 10.2513,-14.2886 c 0,-11.16 -15.6701,-20.207 -35,-20.207 -19.3297,0 -34.9997,9.047 -34.9997,20.207 m 59.7484,14.2886 c 6.5638,-3.7896 10.2513,-8.9294 10.2513,-14.2886"
       transform="matrix(0.16404829,0,0,0.16404829,32.000011,32.000005)" /><path
       id="path65"
       style="fill:none;stroke:#204a87;stroke-width:12.1915;stroke-linecap:round;stroke-linejoin:round;stroke-dasharray:none;stroke-opacity:1"
       d="m 53.3883,0 c 0,8.17307 8.5275,15.5414 21.6061,18.6691 13.0786,3.1277 28.1326,1.3988 38.1426,-4.3804 M 123.388,0 c 0,-11.1602 -15.67,-20.2073 -34.9997,-20.2073 -19.3299,0 -35,9.0471 -35,20.2073 M 113.137,14.2887 C 119.701,10.4991 123.388,5.3593 123.388,0"
       transform="matrix(0.16404829,0,0,0.16404829,32.000011,32.000005)" /></g><path
     id="path111"
     style="fill:none;stroke:#204a87;stroke-width:2;stroke-linecap:round;stroke-linejoin:round;stroke-dasharray:none;stroke-opacity:1"
     d="M 44.687473,24.674888 33.812499,30.953561 19.312549,22.582009 30.187523,16.30334 M 60.999976,32.000005 46.49996,40.371553 m 0,16.743097 V 40.371553 M 3.0000464,15.256908 46.49996,40.371553"
     inkscape:label="strokes" /></svg>
