<?xml version="1.0" encoding="UTF-8" standalone="no"?>
<!-- Created with Inkscape (http://www.inkscape.org/) -->

<svg
   width="64"
   height="64"
   viewBox="0 0 64 64"
   version="1.1"
   id="svg1"
   inkscape:version="1.4 (e7c3feb100, 2024-10-09)"
   sodipodi:docname="STR_TRPL.svg"
   xml:space="preserve"
   xmlns:inkscape="http://www.inkscape.org/namespaces/inkscape"
   xmlns:sodipodi="http://sodipodi.sourceforge.net/DTD/sodipodi-0.dtd"
   xmlns:xlink="http://www.w3.org/1999/xlink"
   xmlns="http://www.w3.org/2000/svg"
   xmlns:svg="http://www.w3.org/2000/svg"
   xmlns:rdf="http://www.w3.org/1999/02/22-rdf-syntax-ns#"
   xmlns:cc="http://creativecommons.org/ns#"
   xmlns:dc="http://purl.org/dc/elements/1.1/"><title
     id="title4">Beam - Straight - Triple</title><sodipodi:namedview
     id="namedview1"
     pagecolor="#323232"
     bordercolor="#ffffff"
     borderopacity="1"
     inkscape:showpageshadow="0"
     inkscape:pageopacity="0"
     inkscape:pagecheckerboard="1"
     inkscape:deskcolor="#191919"
     inkscape:document-units="px"
     showgrid="true"
     inkscape:zoom="11.313709"
     inkscape:cx="17.147339"
     inkscape:cy="30.980116"
     inkscape:window-width="1894"
     inkscape:window-height="999"
     inkscape:window-x="0"
     inkscape:window-y="0"
     inkscape:window-maximized="1"
     inkscape:current-layer="svg1"
     showguides="true"
     inkscape:lockguides="false"
     guidecolor="#ffff00"
     guideopacity="0.6"
     guidehicolor="#ff00ff"
     guidehiopacity="0.50196078"><inkscape:grid
       id="grid1"
       units="px"
       originx="0"
       originy="0"
       spacingx="2"
       spacingy="2"
       empcolor="#0099e5"
       empopacity="0.30196078"
       color="#0099e5"
       opacity="0.14901961"
       empspacing="4"
       enabled="true"
       visible="true" /><sodipodi:guide
       position="-2,62"
       orientation="0,1"
       id="guide5"
       inkscape:locked="false"
       inkscape:label="top margin"
       inkscape:color="rgb(255,255,0)" /><sodipodi:guide
       position="64,2"
       orientation="0,1"
       id="guide6"
       inkscape:locked="false"
       inkscape:label="bottom margin"
       inkscape:color="rgb(255,255,0)" /><sodipodi:guide
       position="2,-2"
       orientation="-1,0"
       id="guide7"
       inkscape:locked="false"
       inkscape:label="right margin"
       inkscape:color="rgb(255,255,0)" /><sodipodi:guide
       position="62,64"
       orientation="-1,0"
       id="guide8"
       inkscape:locked="false"
       inkscape:label="left margin"
       inkscape:color="rgb(255,255,0)" /><sodipodi:guide
       position="64,64"
       orientation="0.70710678,-0.70710678"
       id="guide1"
       inkscape:locked="false" /><sodipodi:guide
       position="0,64"
       orientation="0.70710678,0.70710678"
       id="guide2"
       inkscape:label=""
       inkscape:locked="false"
       inkscape:color="rgb(255,255,0)" /></sodipodi:namedview><defs
     id="defs1"><linearGradient
       id="linearGradient3"
       inkscape:collect="always"
       inkscape:label="Sky Blue gradient"><stop
         style="stop-color:#729fcf;stop-opacity:1;"
         offset="0"
         id="stop3" /><stop
         style="stop-color:#3465a4;stop-opacity:1;"
         offset="1"
         id="stop4" /></linearGradient><linearGradient
       inkscape:collect="always"
       xlink:href="#linearGradient3"
       id="linearGradient254"
       x1="-277.09766"
       y1="2.7724609"
       x2="277.09766"
       y2="2.7724609"
       gradientUnits="userSpaceOnUse" /></defs><metadata
     id="metadata1"><rdf:RDF><cc:Work
         rdf:about=""><cc:license
           rdf:resource="http://creativecommons.org/licenses/by-nc-sa/4.0/" /><dc:creator><cc:Agent><dc:title>hasecilu</dc:title></cc:Agent></dc:creator><dc:subject><rdf:Bag><rdf:li>FreeCAD</rdf:li><rdf:li>command</rdf:li></rdf:Bag></dc:subject><dc:description>Template file to create icons for FreeCAD commands.</dc:description><dc:date>2024</dc:date><dc:rights><cc:Agent><dc:title>FreeCAD LGPL2+</dc:title></cc:Agent></dc:rights><dc:identifier>FreeCAD/src/</dc:identifier><dc:publisher><cc:Agent><dc:title>FreeCAD</dc:title></cc:Agent></dc:publisher><dc:relation>https://wiki.freecad.org/Artwork</dc:relation><dc:title>Beam - Straight - Triple</dc:title></cc:Work><cc:License
         rdf:about="http://creativecommons.org/licenses/by-nc-sa/4.0/"><cc:permits
           rdf:resource="http://creativecommons.org/ns#Reproduction" /><cc:permits
           rdf:resource="http://creativecommons.org/ns#Distribution" /><cc:requires
           rdf:resource="http://creativecommons.org/ns#Notice" /><cc:requires
           rdf:resource="http://creativecommons.org/ns#Attribution" /><cc:prohibits
           rdf:resource="http://creativecommons.org/ns#CommercialUse" /><cc:permits
           rdf:resource="http://creativecommons.org/ns#DerivativeWorks" /><cc:requires
           rdf:resource="http://creativecommons.org/ns#ShareAlike" /></cc:License></rdf:RDF></metadata><g
     fill="none"
     font-family="'Noto Sans'"
     font-size="35.2778px"
     font-style="normal"
     font-weight="400"
     stroke="#000000"
     stroke-linecap="round"
     stroke-linejoin="bevel"
     stroke-opacity="1"
     stroke-width="2.5"
     transform="matrix(0.08387394,0.08387392,-0.08387392,0.08387394,30.146638,33.853378)"
     id="g204"
     style="display:inline;stroke:#729fcf;stroke-width:16.8612;stroke-linecap:round;stroke-linejoin:round;stroke-dasharray:none"
     inkscape:label="main"><path
       style="fill:#729fcf;stroke:#204a87;stroke-width:16.8612;stroke-linecap:round;stroke-linejoin:round;stroke-dasharray:none"
       d="M -99.1117,-47.9854 H 99.1117 l 114.2763,-80.8056 88.389,62.4997 V 22.0971 L 169.194,115.847 c -11.721,8.288 -27.618,12.944 -44.194,12.944 h -250 c -16.576,0 -32.473,-4.656 -44.194,-12.944 L -301.777,22.0971 v -88.3884 l 88.389,-62.4997 114.2763,80.8056"
       id="path228" /><path
       style="fill:#729fcf;stroke:#204a87;stroke-width:16.8612;stroke-linecap:round;stroke-linejoin:round;stroke-dasharray:none"
       d="M -99.1117,-47.9854 H 99.1117 l 114.2763,-80.8056 88.389,62.4997 -132.583,93.75 C 79.010706,59.368904 -29.843904,40.4029 -125,40.4029 c -16.576,0 -32.473,-4.6561 -44.194,-12.9442 l -132.583,-93.75 88.389,-62.4997 114.2763,80.8056"
       id="path227" /><path
       style="fill:#729fcf;stroke:#204a87;stroke-width:16.8612;stroke-linecap:round;stroke-linejoin:round;stroke-dasharray:none"
       d="M -169.194,115.847 V 27.4587 l -132.583,-93.75 v 88.3884 l 132.583,93.7499"
       id="path225" /><path
       style="fill:#729fcf;stroke:#204a87;stroke-width:16.8612;stroke-linecap:round;stroke-linejoin:round;stroke-dasharray:none"
       d="M 169.194,115.847 V 27.4587 l 132.583,-93.75 V 22.0971 L 169.194,115.847"
       id="path224" /><path
       style="fill:#729fcf;stroke:#204a87;stroke-width:16.8612;stroke-linecap:round;stroke-linejoin:round;stroke-dasharray:none"
       d="M -169.194,115.847 V 27.4587 c 11.721,8.2881 27.618,12.9442 44.194,12.9442 v 88.3881 c -16.576,0 -32.473,-4.656 -44.194,-12.944"
       id="path222" /><path
       style="fill:#729fcf;stroke:#204a87;stroke-width:16.8612;stroke-linecap:round;stroke-linejoin:round;stroke-dasharray:none"
       d="M -99.1117,-47.9854 H 99.1117"
       id="path221" /><path
       style="fill:#729fcf;stroke:#204a87;stroke-width:16.8612;stroke-linecap:round;stroke-linejoin:round;stroke-dasharray:none"
       d="m -169.194,27.4587 c 11.721,8.2881 27.618,12.9442 44.194,12.9442"
       id="path220" /><path
       style="fill:#729fcf;stroke:#204a87;stroke-width:16.8612;stroke-linecap:round;stroke-linejoin:round;stroke-dasharray:none"
       d="M -125,128.791 V 40.4029"
       id="path219" /><path
       style="fill:#729fcf;stroke:#204a87;stroke-width:16.8612;stroke-linecap:round;stroke-linejoin:round;stroke-dasharray:none"
       d="m -169.194,115.847 c 11.721,8.288 27.618,12.944 44.194,12.944"
       id="path218" /><path
       style="fill:#729fcf;stroke:#204a87;stroke-width:16.8612;stroke-linecap:round;stroke-linejoin:round;stroke-dasharray:none"
       d="M -169.194,115.847 V 27.4587"
       id="path217" /><path
       style="fill:#729fcf;stroke:#204a87;stroke-width:16.8612;stroke-linecap:round;stroke-linejoin:round;stroke-dasharray:none"
       d="M -125,128.791 H 125"
       id="path216" /><path
       style="fill:#729fcf;stroke:#204a87;stroke-width:16.8612;stroke-linecap:round;stroke-linejoin:round;stroke-dasharray:none"
       d="M -169.194,115.847 -301.777,22.0971"
       id="path215" /><path
       style="fill:#729fcf;stroke:#204a87;stroke-width:16.8612;stroke-linecap:round;stroke-linejoin:round;stroke-dasharray:none"
       d="M -301.777,22.0971 V -66.2913"
       id="path214" /><path
       style="fill:#729fcf;stroke:#204a87;stroke-width:16.8612;stroke-linecap:round;stroke-linejoin:round;stroke-dasharray:none"
       d="m -169.194,27.4587 -132.583,-93.75"
       id="path213" /><path
       style="fill:#729fcf;stroke:#204a87;stroke-width:16.8612;stroke-linecap:round;stroke-linejoin:round;stroke-dasharray:none"
       d="M 99.1117,-47.9854 213.388,-128.791"
       id="path212" /><path
       style="fill:#729fcf;stroke:#204a87;stroke-width:16.8612;stroke-linecap:round;stroke-linejoin:round;stroke-dasharray:none"
       d="M -99.1117,-47.9854 -213.388,-128.791"
       id="path211" /><path
       style="fill:#729fcf;stroke:#204a87;stroke-width:16.8612;stroke-linecap:round;stroke-linejoin:round;stroke-dasharray:none"
       d="m 125,128.791 c 16.576,0 32.473,-4.656 44.194,-12.944"
       id="path210" /><path
       style="fill:#729fcf;stroke:#204a87;stroke-width:16.8612;stroke-linecap:round;stroke-linejoin:round;stroke-dasharray:none"
       d="M 169.194,115.847 V 27.4587"
       id="path209" /><path
       style="fill:#729fcf;stroke:#204a87;stroke-width:16.8612;stroke-linecap:round;stroke-linejoin:round;stroke-dasharray:none"
       d="m -213.388,-128.791 -88.389,62.4997"
       id="path208" /><path
       style="fill:#729fcf;stroke:#204a87;stroke-width:16.8612;stroke-linecap:round;stroke-linejoin:round;stroke-dasharray:none"
       d="M 301.777,22.0971 V -66.2913"
       id="path207" /><path
       style="fill:#729fcf;stroke:#204a87;stroke-width:16.8612;stroke-linecap:round;stroke-linejoin:round;stroke-dasharray:none"
       d="M 301.777,-66.2913 213.388,-128.791"
       id="path206" /><path
       style="fill:#729fcf;stroke:#204a87;stroke-width:16.8612;stroke-linecap:round;stroke-linejoin:round;stroke-dasharray:none"
       d="M 169.194,115.847 301.777,22.0971"
       id="path205" /><path
       style="fill:#729fcf;stroke:#204a87;stroke-width:16.8612;stroke-linecap:round;stroke-linejoin:round;stroke-dasharray:none"
       d="m 169.194,27.4587 132.583,-93.75"
       id="path204" /><path
       style="fill:#729fcf;stroke:#204a87;stroke-width:16.8612;stroke-linecap:round;stroke-linejoin:round;stroke-dasharray:none"
       d="M 125,128.791 V 40.4027"
       id="path229" /></g><path
     id="path253"
     style="display:inline;fill:url(#linearGradient254);stroke:none;stroke-width:16.8612;stroke-linecap:round;stroke-linejoin:round;stroke-dasharray:none"
     inkscape:label="gradient"
     sodipodi:type="inkscape:offset"
     inkscape:radius="-24.678776"
     inkscape:original="M -213.38867 -128.79102 L -301.77734 -66.291016 L -301.77734 22.097656 L -169.19336 115.84766 C -166.26311 117.91966 -163.07339 119.76323 -159.67578 121.36523 C -152.88056 124.56923 -145.25897 126.80159 -137.25 127.93359 C -133.24552 128.49959 -129.144 128.79102 -125 128.79102 L 125 128.79102 L 169.19336 115.84766 L 301.77734 22.097656 L 301.77734 -66.291016 L 213.38867 -128.79102 L 99.111328 -47.986328 L -99.111328 -47.986328 L -213.38867 -128.79102 z "
     d="m -213.38867,-98.566406 -63.70899,45.050781 V 9.3222656 l 122.15235,86.3750004 c 1.67136,1.181834 3.61416,2.317459 5.79492,3.345703 4.35629,2.054021 9.64808,3.648661 15.35352,4.455081 2.85467,0.40348 5.80991,0.61328 8.79687,0.61328 H 121.46094 L 158.30664,93.320312 277.09766,9.3222656 V -53.515625 l -63.70899,-45.050781 -100.02929,70.730469 a 24.681244,24.681244 0 0 1 -14.248052,4.529296 H -99.111328 a 24.681244,24.681244 0 0 1 -14.248052,-4.529296 z"
     transform="matrix(0.08387394,0.08387392,-0.08387392,0.08387394,30.146638,33.853378)" /><g
     fill="none"
     font-family="'Noto Sans'"
     font-size="35.2778px"
     font-style="normal"
     font-weight="400"
     stroke="#000000"
     stroke-linecap="round"
     stroke-linejoin="bevel"
     stroke-opacity="1"
     stroke-width="2.5"
     transform="matrix(0.08387394,0.08387392,-0.08387392,0.08387394,30.146638,33.853378)"
     id="g277"
     style="display:inline;stroke:#729fcf;stroke-width:16.8612;stroke-linecap:round;stroke-linejoin:round;stroke-dasharray:none;fill:none;fill-opacity:1"
     inkscape:label="strokes"><path
       style="fill:none;stroke:#204a87;stroke-width:16.8612;stroke-linecap:round;stroke-linejoin:round;stroke-dasharray:none;fill-opacity:1"
       d="M -99.1117,-47.9854 H 99.1117 l 114.2763,-80.8056 88.389,62.4997 V 22.0971 L 169.194,115.847 c -11.721,8.288 -27.618,12.944 -44.194,12.944 h -250 c -16.576,0 -32.473,-4.656 -44.194,-12.944 L -301.777,22.0971 v -88.3884 l 88.389,-62.4997 114.2763,80.8056"
       id="path254" /><path
       style="fill:none;stroke:#204a87;stroke-width:16.8612;stroke-linecap:round;stroke-linejoin:round;stroke-dasharray:none;fill-opacity:1"
       d="M -99.1117,-47.9854 H 99.1117 l 114.2763,-80.8056 88.389,62.4997 -132.583,93.75 C 79.010706,59.368904 -29.843904,40.4029 -125,40.4029 c -16.576,0 -32.473,-4.6561 -44.194,-12.9442 l -132.583,-93.75 88.389,-62.4997 114.2763,80.8056"
       id="path255" /><path
       style="fill:none;stroke:#204a87;stroke-width:16.8612;stroke-linecap:round;stroke-linejoin:round;stroke-dasharray:none;fill-opacity:1"
       d="M -169.194,115.847 V 27.4587 l -132.583,-93.75 v 88.3884 l 132.583,93.7499"
       id="path256" /><path
       style="fill:none;stroke:#204a87;stroke-width:16.8612;stroke-linecap:round;stroke-linejoin:round;stroke-dasharray:none;fill-opacity:1"
       d="M 169.194,115.847 V 27.4587 l 132.583,-93.75 V 22.0971 L 169.194,115.847"
       id="path257" /><path
       style="fill:none;stroke:#204a87;stroke-width:16.8612;stroke-linecap:round;stroke-linejoin:round;stroke-dasharray:none;fill-opacity:1"
       d="M -169.194,115.847 V 27.4587 c 11.721,8.2881 27.618,12.9442 44.194,12.9442 v 88.3881 c -16.576,0 -32.473,-4.656 -44.194,-12.944"
       id="path258" /><path
       style="fill:none;stroke:#204a87;stroke-width:16.8612;stroke-linecap:round;stroke-linejoin:round;stroke-dasharray:none;fill-opacity:1"
       d="M -99.1117,-47.9854 H 99.1117"
       id="path259" /><path
       style="fill:none;stroke:#204a87;stroke-width:16.8612;stroke-linecap:round;stroke-linejoin:round;stroke-dasharray:none;fill-opacity:1"
       d="m -169.194,27.4587 c 11.721,8.2881 27.618,12.9442 44.194,12.9442"
       id="path260" /><path
       style="fill:none;stroke:#204a87;stroke-width:16.8612;stroke-linecap:round;stroke-linejoin:round;stroke-dasharray:none;fill-opacity:1"
       d="M -125,128.791 V 40.4029"
       id="path261" /><path
       style="fill:none;stroke:#204a87;stroke-width:16.8612;stroke-linecap:round;stroke-linejoin:round;stroke-dasharray:none;fill-opacity:1"
       d="m -169.194,115.847 c 11.721,8.288 27.618,12.944 44.194,12.944"
       id="path262" /><path
       style="fill:none;stroke:#204a87;stroke-width:16.8612;stroke-linecap:round;stroke-linejoin:round;stroke-dasharray:none;fill-opacity:1"
       d="M -169.194,115.847 V 27.4587"
       id="path263" /><path
       style="fill:none;stroke:#204a87;stroke-width:16.8612;stroke-linecap:round;stroke-linejoin:round;stroke-dasharray:none;fill-opacity:1"
       d="M -125,128.791 H 125"
       id="path264" /><path
       style="fill:none;stroke:#204a87;stroke-width:16.8612;stroke-linecap:round;stroke-linejoin:round;stroke-dasharray:none;fill-opacity:1"
       d="M -169.194,115.847 -301.777,22.0971"
       id="path265" /><path
       style="fill:none;stroke:#204a87;stroke-width:16.8612;stroke-linecap:round;stroke-linejoin:round;stroke-dasharray:none;fill-opacity:1"
       d="M -301.777,22.0971 V -66.2913"
       id="path266" /><path
       style="fill:none;stroke:#204a87;stroke-width:16.8612;stroke-linecap:round;stroke-linejoin:round;stroke-dasharray:none;fill-opacity:1"
       d="m -169.194,27.4587 -132.583,-93.75"
       id="path267" /><path
       style="fill:none;stroke:#204a87;stroke-width:16.8612;stroke-linecap:round;stroke-linejoin:round;stroke-dasharray:none;fill-opacity:1"
       d="M 99.1117,-47.9854 213.388,-128.791"
       id="path268" /><path
       style="fill:none;stroke:#204a87;stroke-width:16.8612;stroke-linecap:round;stroke-linejoin:round;stroke-dasharray:none;fill-opacity:1"
       d="M -99.1117,-47.9854 -213.388,-128.791"
       id="path269" /><path
       style="fill:none;stroke:#204a87;stroke-width:16.8612;stroke-linecap:round;stroke-linejoin:round;stroke-dasharray:none;fill-opacity:1"
       d="m 125,128.791 c 16.576,0 32.473,-4.656 44.194,-12.944"
       id="path270" /><path
       style="fill:none;stroke:#204a87;stroke-width:16.8612;stroke-linecap:round;stroke-linejoin:round;stroke-dasharray:none;fill-opacity:1"
       d="M 169.194,115.847 V 27.4587"
       id="path271" /><path
       style="fill:none;stroke:#204a87;stroke-width:16.8612;stroke-linecap:round;stroke-linejoin:round;stroke-dasharray:none;fill-opacity:1"
       d="m -213.388,-128.791 -88.389,62.4997"
       id="path272" /><path
       style="fill:none;stroke:#204a87;stroke-width:16.8612;stroke-linecap:round;stroke-linejoin:round;stroke-dasharray:none;fill-opacity:1"
       d="M 301.777,22.0971 V -66.2913"
       id="path273" /><path
       style="fill:none;stroke:#204a87;stroke-width:16.8612;stroke-linecap:round;stroke-linejoin:round;stroke-dasharray:none;fill-opacity:1"
       d="M 301.777,-66.2913 213.388,-128.791"
       id="path274" /><path
       style="fill:none;stroke:#204a87;stroke-width:16.8612;stroke-linecap:round;stroke-linejoin:round;stroke-dasharray:none;fill-opacity:1"
       d="M 169.194,115.847 301.777,22.0971"
       id="path275" /><path
       style="fill:none;stroke:#204a87;stroke-width:16.8612;stroke-linecap:round;stroke-linejoin:round;stroke-dasharray:none;fill-opacity:1"
       d="m 169.194,27.4587 132.583,-93.75"
       id="path276" /><path
       style="fill:none;stroke:#204a87;stroke-width:16.8612;stroke-linecap:round;stroke-linejoin:round;stroke-dasharray:none;fill-opacity:1"
       d="M 125,128.791 V 40.4027"
       id="path277" /></g><g
     id="g205"
     inkscape:label="holes"
     style="display:inline;stroke:#204a87"><path
       id="path172"
       style="display:inline;fill:none;stroke:#204a87;stroke-width:16.8612;stroke-linecap:round;stroke-linejoin:round;stroke-dasharray:none"
       d="m 248.388,-66.2913 c 0,-6.5637 -3.687,-12.8587 -10.251,-17.5 m -59.749,17.5 c 0,13.6684 15.67,24.7488 35,24.7488 19.33,0 35,-11.0804 35,-24.7488 m -10.251,-17.5 c -10.01,-7.0781 -25.064,-9.1954 -38.143,-5.3648 -13.078,3.8306 -21.606,12.8549 -21.606,22.8648"
       transform="matrix(0.08387394,0.08387392,-0.08387392,0.08387394,30.146638,33.853378)" /><path
       id="path195"
       style="display:inline;fill:none;stroke:#204a87;stroke-width:16.8612;stroke-linecap:round;stroke-linejoin:round;stroke-dasharray:none"
       d="M 160,-3.79126 C 160,-10.355 156.313,-16.65 149.749,-21.2913 m 0,0 C 143.185,-25.9325 134.283,-28.54 125,-28.54 m 0,0 c -9.283,0 -18.185,2.6075 -24.749,7.2487 M 90,-3.79126 C 90,9.87709 105.67,20.9575 125,20.9575 M 100.251,-21.2913 C 93.6875,-16.65 90,-10.355 90,-3.79126 m 35,24.74876 c 9.283,0 18.185,-2.6075 24.749,-7.2488 m 0,0 C 156.313,9.06745 160,2.77251 160,-3.79126"
       transform="matrix(0.08387394,0.08387392,-0.08387392,0.08387394,30.146638,33.853378)" /><path
       id="path106"
       style="display:inline;fill:none;stroke:#204a87;stroke-width:16.8612;stroke-linecap:round;stroke-linejoin:round;stroke-dasharray:none"
       d="m -35,-3.79126 c 0,13.66835 15.67,24.74876 35,24.74876 19.33,0 35,-11.08041 35,-24.74876 m 0,0 C 35,-17.4596 19.33,-28.54 0,-28.54 c -19.33,0 -35,11.0804 -35,24.74874"
       transform="matrix(0.08387394,0.08387392,-0.08387392,0.08387394,30.146638,33.853378)" /><path
       id="path202"
       style="display:inline;fill:none;stroke:#204a87;stroke-width:16.8612;stroke-linecap:round;stroke-linejoin:round;stroke-dasharray:none"
       d="M -90,-3.79126 C -90,-10.355 -93.6875,-16.65 -100.251,-21.2913 m 0,0 C -106.815,-25.9325 -115.717,-28.54 -125,-28.54 m 0,0 c -9.283,0 -18.185,2.6075 -24.749,7.2487 M -160,-3.79126 c 0,6.56377 3.687,12.85871 10.251,17.49996 m 0,-35 C -156.313,-16.65 -160,-10.355 -160,-3.79126 m 10.251,17.49996 c 6.564,4.6413 15.466,7.2488 24.749,7.2488 m 0,0 c 19.33,0 35,-11.08041 35,-24.74876"
       transform="matrix(0.08387394,0.08387392,-0.08387392,0.08387394,30.146638,33.853378)" /><path
       id="path147"
       style="display:inline;fill:none;stroke:#204a87;stroke-width:16.8612;stroke-linecap:round;stroke-linejoin:round;stroke-dasharray:none"
       d="m -178.388,-66.2913 c 0,-10.0099 -8.528,-19.0342 -21.606,-22.8648 -13.079,-3.8306 -28.133,-1.7133 -38.143,5.3648 m -10.251,17.5 c 0,13.6684 15.67,24.7488 35,24.7488 19.33,0 35,-11.0804 35,-24.7488 m -59.749,-17.5 c -6.564,4.6413 -10.251,10.9363 -10.251,17.5"
       transform="matrix(0.08387394,0.08387392,-0.08387392,0.08387394,30.146638,33.853378)" /><path
       id="path112"
       style="display:inline;fill:none;stroke:#204a87;stroke-width:16.8612;stroke-linecap:round;stroke-linejoin:round;stroke-dasharray:none"
       transform="matrix(0.08387394,0.08387392,-0.08387392,0.08387394,30.146638,33.853378)"
       d="m -239.277,5.44186 c -4.69,-8.47145 -11.336,-16.10966 -18.306,-21.03766 m -20.207,-3.8287 c -7.551,5.3395 -5.489,21.50805 4.706,36.9093 10.196,15.4013 25.006,24.7178 33.807,21.2675 m -18.306,-54.3481 c -8.034,-5.6811 -15.568,-7.1087 -20.207,-3.8287 m 89.15,94.8274 3.796,-0.4945 2.99,-1.4696 2.098,-2.4031 1.148,-3.2687 0.165,-4.042 -0.823,-4.701 -1.787,-5.2272 -2.7,-5.6057 -3.538,-5.8257 -4.275,-5.8812 -4.892,-5.7705 -5.371,-5.4967 -5.697,-5.0676 -5.862,-4.4952 m -25.889,23.0981 2.889,4.0425 3.196,4.0105 3.46,3.9251 3.677,3.7874 3.847,3.599 3.965,3.3627 4.029,3.0815 4.04,2.7592 3.998,2.4001 3.901,2.009 3.753,1.591 3.555,1.1518 3.308,0.6973 3.019,0.2335 M -234.642,5.71119 c -1.466,-0.1322 -3.011,-0.22198 -4.635,-0.26933 M -25.8883,67.9419 C -19.2554,62.7869 -9.85613,59.8483 0,59.8483 m -62.5,0 2.9419,0.0438 2.9314,0.1311 2.9107,0.218 2.8797,0.3041 2.8384,0.3891 2.7871,0.4728 2.726,0.5548 2.6552,0.6348 2.5751,0.7126 2.4858,0.7879 2.3878,0.8603 2.2813,0.9298 2.1667,0.9959 2.0446,1.0586 m -77.0267,30.9439 -3.952,-3.3167 -2.873,-3.5837 -1.724,-3.7635 -0.531,-3.8518 0.672,-3.8462 1.862,-3.7471 3.004,-3.5567 4.073,-3.2799 5.0449,-2.9232 5.8923,-2.4953 6.5968,-2.0067 7.1408,-1.4693 7.5109,-0.8962 7.6983,-0.3012 m 36.6117,41.4037 -4.5406,2.196 -5.0629,1.889 -5.5028,1.551 -5.853,1.188 -6.1079,0.805 -6.2634,0.41 -6.3169,0.008 -6.2674,-0.394 -6.1159,-0.791 -5.8647,-1.173 -5.5181,-1.537 -5.0816,-1.876 -4.5623,-2.185 -3.9692,-2.4572 M 25.8883,101.252 C 19.2554,106.407 9.85613,109.346 0,109.346 c -9.85613,0 -19.2554,-2.939 -25.8883,-8.094 m 128.8033,-2.3662 -3.9692,2.4572 -4.5623,2.185 -5.0816,1.876 -5.5181,1.537 -5.8647,1.173 -6.1159,0.791 -6.2674,0.394 -6.3169,-0.008 -6.2634,-0.41 -6.1079,-0.805 -5.853,-1.188 -5.5028,-1.551 -5.0629,-1.889 -4.5406,-2.196 M 62.5,59.8483 l 7.6983,0.3012 7.5109,0.8962 7.1408,1.4693 6.5968,2.0067 5.8923,2.4953 5.0449,2.9232 4.073,3.2799 3.004,3.5567 1.862,3.7471 0.672,3.8462 -0.531,3.8518 -1.724,3.7635 -2.873,3.5837 -3.952,3.3167 m -77.0267,-30.9439 2.0446,-1.0586 2.1667,-0.9959 2.2813,-0.9298 2.3878,-0.8603 2.4858,-0.7879 2.5751,-0.7126 2.6552,-0.6348 2.726,-0.5548 2.7871,-0.4728 2.8384,-0.3891 2.8797,-0.3041 2.9107,-0.218 2.9314,-0.1311 2.9419,-0.0438 m -62.5,0 c 9.85613,0 19.2554,2.9386 25.8883,8.0936 m -239.2763,-52.287697 -1.963,-1.3488 -1.956,-1.2666 -1.944,-1.1805 -1.926,-1.0907 -1.901,-0.99751 -1.87,-0.90109 -1.834,-0.80187 -1.792,-0.70013 -1.745,-0.59619 -1.69,-0.49037 -1.633,-0.38301 -1.568,-0.27444 -1.5,-0.16502 -1.427,-0.05506" /><path
       id="path168"
       style="display:inline;fill:none;stroke:#204a87;stroke-width:16.8612;stroke-linecap:round;stroke-linejoin:round;stroke-dasharray:none"
       d="m 239.277,5.44186 c 4.69,-8.47145 11.336,-16.10966 18.306,-21.03766 m -44.195,31.25 1.963,-1.3488 1.956,-1.2666 1.944,-1.1805 1.926,-1.0907 1.901,-0.99751 1.87,-0.90109 1.834,-0.80187 1.792,-0.70013 1.745,-0.59619 1.69,-0.49037 1.633,-0.38301 1.568,-0.27444 1.5,-0.16502 1.427,-0.05506 m -49.497,69.99999 -3.796,-0.4945 -2.99,-1.4696 -2.098,-2.4031 -1.148,-3.2687 -0.165,-4.042 0.823,-4.701 1.787,-5.2272 2.7,-5.6057 3.538,-5.8257 4.275,-5.8812 4.892,-5.7705 5.371,-5.4967 5.697,-5.0676 5.862,-4.4952 m 25.889,23.0981 -2.889,4.0425 -3.196,4.0105 -3.46,3.9251 -3.677,3.7874 -3.847,3.599 -3.965,3.3627 -4.029,3.0815 -4.04,2.7592 -3.998,2.4001 -3.901,2.009 -3.753,1.591 -3.555,1.1518 -3.308,0.6973 -3.019,0.2335 m 89.15,-94.8274 c 7.551,5.3395 5.489,21.50805 -4.706,36.9093 -10.196,15.4013 -25.006,24.7178 -33.807,21.2675 m 18.306,-54.3481 c 8.034,-5.6811 15.568,-7.1087 20.207,-3.8287"
       transform="matrix(0.08387394,0.08387392,-0.08387392,0.08387394,30.146638,33.853378)" /></g></svg>
