<?xml version="1.0" encoding="UTF-8" standalone="no"?>
<!-- Created with Inkscape (http://www.inkscape.org/) -->

<svg
   width="64"
   height="64"
   viewBox="0 0 64 64"
   version="1.1"
   id="svg1"
   inkscape:version="1.4 (e7c3feb100, 2024-10-09)"
   sodipodi:docname="STR_STD_ERR.svg"
   xml:space="preserve"
   xmlns:inkscape="http://www.inkscape.org/namespaces/inkscape"
   xmlns:sodipodi="http://sodipodi.sourceforge.net/DTD/sodipodi-0.dtd"
   xmlns:xlink="http://www.w3.org/1999/xlink"
   xmlns="http://www.w3.org/2000/svg"
   xmlns:svg="http://www.w3.org/2000/svg"
   xmlns:rdf="http://www.w3.org/1999/02/22-rdf-syntax-ns#"
   xmlns:cc="http://creativecommons.org/ns#"
   xmlns:dc="http://purl.org/dc/elements/1.1/"><title
     id="title4">Brace - Straight - Standard - End Round Round</title><sodipodi:namedview
     id="namedview1"
     pagecolor="#323232"
     bordercolor="#ffffff"
     borderopacity="1"
     inkscape:showpageshadow="0"
     inkscape:pageopacity="0"
     inkscape:pagecheckerboard="1"
     inkscape:deskcolor="#191919"
     inkscape:document-units="px"
     showgrid="true"
     inkscape:zoom="11.313708"
     inkscape:cx="36.062447"
     inkscape:cy="31.422059"
     inkscape:window-width="1894"
     inkscape:window-height="999"
     inkscape:window-x="0"
     inkscape:window-y="0"
     inkscape:window-maximized="1"
     inkscape:current-layer="svg1"
     showguides="true"
     inkscape:lockguides="false"
     guidecolor="#ffff00"
     guideopacity="0.6"
     guidehicolor="#ff00ff"
     guidehiopacity="0.50196078"><inkscape:grid
       id="grid1"
       units="px"
       originx="0"
       originy="0"
       spacingx="2"
       spacingy="2"
       empcolor="#0099e5"
       empopacity="0.30196078"
       color="#0099e5"
       opacity="0.14901961"
       empspacing="4"
       enabled="true"
       visible="true" /><sodipodi:guide
       position="-2,62"
       orientation="0,1"
       id="guide5"
       inkscape:locked="false"
       inkscape:label="top margin"
       inkscape:color="rgb(255,255,0)" /><sodipodi:guide
       position="64,2"
       orientation="0,1"
       id="guide6"
       inkscape:locked="false"
       inkscape:label="bottom margin"
       inkscape:color="rgb(255,255,0)" /><sodipodi:guide
       position="2,-2"
       orientation="-1,0"
       id="guide7"
       inkscape:locked="false"
       inkscape:label="right margin"
       inkscape:color="rgb(255,255,0)" /><sodipodi:guide
       position="62,64"
       orientation="-1,0"
       id="guide8"
       inkscape:locked="false"
       inkscape:label="left margin"
       inkscape:color="rgb(255,255,0)" /><sodipodi:guide
       position="64,64"
       orientation="0.70710678,-0.70710678"
       id="guide1"
       inkscape:locked="false" /><sodipodi:guide
       position="0,64"
       orientation="0.70710678,0.70710678"
       id="guide2"
       inkscape:label=""
       inkscape:locked="false"
       inkscape:color="rgb(255,255,0)" /></sodipodi:namedview><defs
     id="defs1"><linearGradient
       id="linearGradient28"
       inkscape:collect="always"><stop
         style="stop-color:#ad7fa8;stop-opacity:1;"
         offset="0"
         id="stop28" /><stop
         style="stop-color:#75507b;stop-opacity:1;"
         offset="1"
         id="stop31" /></linearGradient><marker
       id="DistanceX"
       orient="auto"
       refX="0.0"
       refY="0.0"
       style="overflow:visible"><path
         d="M 3,-3 L -3,3 M 0,-5 L  0,5"
         style="stroke:#000000; stroke-width:0.5"
         id="path1-36" /></marker><pattern
       id="Hatch"
       patternUnits="userSpaceOnUse"
       width="8"
       height="8"
       x="0"
       y="0"><path
         d="M8 4 l-4,4"
         stroke="#000000"
         stroke-width="0.25"
         linecap="square"
         id="path2-7" /><path
         d="M6 2 l-4,4"
         stroke="#000000"
         stroke-width="0.25"
         linecap="square"
         id="path3" /><path
         d="M4 0 l-4,4"
         stroke="#000000"
         stroke-width="0.25"
         linecap="square"
         id="path4" /></pattern><symbol
       id="*MODEL_SPACE" /><symbol
       id="*PAPER_SPACE" /><linearGradient
       inkscape:collect="always"
       xlink:href="#linearGradient28"
       id="linearGradient2"
       x1="16.163197"
       y1="16.178822"
       x2="47.817272"
       y2="47.832897"
       gradientUnits="userSpaceOnUse" /></defs><metadata
     id="metadata1"><rdf:RDF><cc:Work
         rdf:about=""><cc:license
           rdf:resource="http://creativecommons.org/licenses/by-nc-sa/4.0/" /><dc:creator><cc:Agent><dc:title>hasecilu</dc:title></cc:Agent></dc:creator><dc:subject><rdf:Bag><rdf:li>FreeCAD</rdf:li><rdf:li>command</rdf:li></rdf:Bag></dc:subject><dc:description>Template file to create icons for FreeCAD commands.</dc:description><dc:date>2024</dc:date><dc:rights><cc:Agent><dc:title>FreeCAD LGPL2+</dc:title></cc:Agent></dc:rights><dc:identifier>FreeCAD/src/</dc:identifier><dc:publisher><cc:Agent><dc:title>FreeCAD</dc:title></cc:Agent></dc:publisher><dc:relation>https://wiki.freecad.org/Artwork</dc:relation><dc:title>Brace - Straight - Standard - End Round Round</dc:title></cc:Work><cc:License
         rdf:about="http://creativecommons.org/licenses/by-nc-sa/4.0/"><cc:permits
           rdf:resource="http://creativecommons.org/ns#Reproduction" /><cc:permits
           rdf:resource="http://creativecommons.org/ns#Distribution" /><cc:requires
           rdf:resource="http://creativecommons.org/ns#Notice" /><cc:requires
           rdf:resource="http://creativecommons.org/ns#Attribution" /><cc:prohibits
           rdf:resource="http://creativecommons.org/ns#CommercialUse" /><cc:permits
           rdf:resource="http://creativecommons.org/ns#DerivativeWorks" /><cc:requires
           rdf:resource="http://creativecommons.org/ns#ShareAlike" /></cc:License></rdf:RDF></metadata><path
     id="path16"
     style="fill:#ad7fa8;stroke:#5c3566;stroke-width:2.39412;stroke-linejoin:round;stroke-dasharray:none;stroke-opacity:1"
     d="m 26.492137,7.453835 c -5.237313,-5.2373145 -13.814488,-5.2373111 -19.0517988,0 -5.2373091,5.237309 -5.237316,13.814487 -2.4e-6,19.051801 L 37.494362,56.559661 c 5.237314,5.237314 13.814496,5.237311 19.051804,2e-6 5.237311,-5.237311 5.237311,-13.814489 -3e-6,-19.051803 z m 26.452257,36.337832 c 2.53269,2.530958 2.533451,6.636055 0.0017,9.167952 -2.531832,2.530669 -6.635648,2.530193 -9.166897,-0.0011 -2.531248,-2.531249 -2.531724,-6.635065 -0.0011,-9.166897 2.531232,-2.531076 6.635004,-2.531076 9.166236,0 z m -32.737816,-32.7343 c 2.530407,2.530567 2.531168,6.633022 0.0017,9.164527 -2.531961,2.529911 -6.635157,2.529077 -9.166092,-0.0019 -2.5309349,-2.530934 -2.5317699,-6.63413 -0.0019,-9.166092 2.532198,-2.5301106 6.635972,-2.5285437 9.166237,0.0035 z M 36.57288,27.423694 c 2.530405,2.530566 2.531166,6.633019 0.0017,9.164524 -6.110634,6.015427 -15.181662,-3.055601 -9.166235,-9.166235 2.531505,-2.529465 6.633957,-2.528704 9.164523,0.0017 z"
     inkscape:label="main"
     sodipodi:nodetypes="sssssssscscssccscccsccss" /><path
     id="path1"
     style="fill:url(#linearGradient2);fill-opacity:1;stroke:none;stroke-width:2.39412;stroke-linejoin:round;stroke-dasharray:none;stroke-opacity:1"
     inkscape:label="gradient"
     sodipodi:type="inkscape:offset"
     inkscape:radius="-3.5631552"
     inkscape:original="M 16.966797 3.5253906 C 13.513175 3.5253911 10.058109 4.8344694 7.4394531 7.453125 C 2.202144 12.690434 2.2021395 21.268545 7.4394531 26.505859 L 37.494141 56.560547 C 42.731455 61.797861 51.309567 61.797856 56.546875 56.560547 C 61.784186 51.323236 61.784189 42.745127 56.546875 37.507812 L 26.492188 7.453125 C 23.873531 4.8344677 20.420419 3.5253902 16.966797 3.5253906 z M 15.625 9.1582031 C 17.283751 9.1588365 18.941899 9.7906188 20.207031 11.056641 C 22.737438 13.587208 22.738452 17.691151 20.208984 20.222656 C 17.677023 22.752567 13.573904 22.75168 11.042969 20.220703 C 8.5120338 17.689769 8.5111457 13.58665 11.041016 11.054688 C 12.307115 9.7896322 13.966249 9.1575698 15.625 9.1582031 z M 31.990234 25.525391 C 33.648606 25.525698 35.306983 26.158626 36.572266 27.423828 C 39.102671 29.954394 39.103685 34.056386 36.574219 36.587891 C 30.463585 42.603318 21.392776 33.532509 27.408203 27.421875 C 28.673956 26.157142 30.331862 25.525083 31.990234 25.525391 z M 48.361328 41.892578 C 50.020079 41.892578 51.677743 42.525478 52.943359 43.791016 L 52.945312 43.791016 C 55.478003 46.321974 55.477064 50.427087 52.945312 52.958984 C 50.41348 55.489653 46.310546 55.490277 43.779297 52.958984 C 41.248049 50.427735 41.24672 46.322848 43.777344 43.791016 C 45.04296 42.525478 46.702577 41.892578 48.361328 41.892578 z "
     d="m 23.443359,9.6210938 c 2.989379,3.9222562 2.85966,9.5437132 -0.71289,13.1191402 a 3.5635115,3.5635115 0 0 1 -0.0039,0.0039 c -3.575333,3.572439 -9.196931,3.702392 -13.1191401,0.71289 0.1434743,0.163708 0.1954694,0.373204 0.3515625,0.529297 L 24.626953,38.654297 c -1.507378,-1.653893 -2.591323,-3.749024 -2.740234,-6.15625 -0.160255,-2.59061 0.855316,-5.415401 2.982422,-7.576172 a 3.5635115,3.5635115 0 0 1 0.02148,-0.02148 c 1.946352,-1.944784 4.535441,-2.937977 7.099609,-2.9375 2.349455,4.35e-4 4.667483,0.935936 6.544922,2.572265 L 23.972656,9.9726563 C 23.816227,9.8162272 23.607242,9.7647008 23.443359,9.6210938 Z M 39.457031,25.457031 c 3.418105,3.922793 3.366524,9.917581 -0.361328,13.648438 a 3.5635115,3.5635115 0 0 1 -0.02148,0.02148 c -2.160772,2.127105 -4.985562,3.142677 -7.576172,2.982422 -2.407226,-0.148911 -4.502357,-1.232856 -6.15625,-2.740234 l 14.671875,14.671875 c 0.155428,0.155428 0.364365,0.206692 0.527344,0.349609 -2.987171,-3.922747 -2.85618,-9.544459 0.716796,-13.119141 1.946926,-1.946805 4.538412,-2.941406 7.103516,-2.941406 2.143926,0 4.223601,0.854236 6.011719,2.21875 -0.141464,-0.161085 -0.192005,-0.367786 -0.345703,-0.521484 z" /></svg>
