<?xml version="1.0" encoding="UTF-8" standalone="no"?>
<!-- Created with Inkscape (http://www.inkscape.org/) -->

<svg
   width="64"
   height="64"
   viewBox="0 0 64 64"
   version="1.1"
   id="svg1"
   inkscape:version="1.4 (e7c3feb100, 2024-10-09)"
   sodipodi:docname="STR_SLT_BE_SYM_ERR.svg"
   xml:space="preserve"
   xmlns:inkscape="http://www.inkscape.org/namespaces/inkscape"
   xmlns:sodipodi="http://sodipodi.sourceforge.net/DTD/sodipodi-0.dtd"
   xmlns:xlink="http://www.w3.org/1999/xlink"
   xmlns="http://www.w3.org/2000/svg"
   xmlns:svg="http://www.w3.org/2000/svg"
   xmlns:rdf="http://www.w3.org/1999/02/22-rdf-syntax-ns#"
   xmlns:cc="http://creativecommons.org/ns#"
   xmlns:dc="http://purl.org/dc/elements/1.1/"><title
     id="title4">Brace - Standard - Slotted - Both Ends - Symmetric - End Round Round</title><sodipodi:namedview
     id="namedview1"
     pagecolor="#323232"
     bordercolor="#ffffff"
     borderopacity="1"
     inkscape:showpageshadow="0"
     inkscape:pageopacity="0"
     inkscape:pagecheckerboard="1"
     inkscape:deskcolor="#191919"
     inkscape:document-units="px"
     showgrid="true"
     inkscape:zoom="15.999999"
     inkscape:cx="39.187502"
     inkscape:cy="18.718751"
     inkscape:window-width="1894"
     inkscape:window-height="999"
     inkscape:window-x="0"
     inkscape:window-y="0"
     inkscape:window-maximized="1"
     inkscape:current-layer="svg1"
     showguides="true"
     inkscape:lockguides="false"
     guidecolor="#ffff00"
     guideopacity="0.6"
     guidehicolor="#ff00ff"
     guidehiopacity="0.50196078"><inkscape:grid
       id="grid1"
       units="px"
       originx="0"
       originy="0"
       spacingx="2"
       spacingy="2"
       empcolor="#0099e5"
       empopacity="0.30196078"
       color="#0099e5"
       opacity="0.14901961"
       empspacing="4"
       enabled="true"
       visible="true" /><sodipodi:guide
       position="-2,62"
       orientation="0,1"
       id="guide5"
       inkscape:locked="false"
       inkscape:label="top margin"
       inkscape:color="rgb(255,255,0)" /><sodipodi:guide
       position="64,2"
       orientation="0,1"
       id="guide6"
       inkscape:locked="false"
       inkscape:label="bottom margin"
       inkscape:color="rgb(255,255,0)" /><sodipodi:guide
       position="2,-2"
       orientation="-1,0"
       id="guide7"
       inkscape:locked="false"
       inkscape:label="right margin"
       inkscape:color="rgb(255,255,0)" /><sodipodi:guide
       position="62,64"
       orientation="-1,0"
       id="guide8"
       inkscape:locked="false"
       inkscape:label="left margin"
       inkscape:color="rgb(255,255,0)" /><sodipodi:guide
       position="64,64"
       orientation="0.70710678,-0.70710678"
       id="guide1"
       inkscape:locked="false" /><sodipodi:guide
       position="7.7631424,56.601357"
       orientation="0.70710678,-0.70710678"
       id="guide3"
       inkscape:locked="false" /><sodipodi:guide
       position="39.751864,24.325259"
       orientation="0.70710678,-0.70710678"
       id="guide4"
       inkscape:locked="false" /></sodipodi:namedview><defs
     id="defs1"><linearGradient
       id="linearGradient17"
       inkscape:collect="always"
       inkscape:label="Plum gradient"><stop
         style="stop-color:#ad7fa8;stop-opacity:1;"
         offset="0"
         id="stop17" /><stop
         style="stop-color:#75507b;stop-opacity:1;"
         offset="1"
         id="stop18" /></linearGradient><marker
       id="DistanceX"
       orient="auto"
       refX="0.0"
       refY="0.0"
       style="overflow:visible"><path
         d="M 3,-3 L -3,3 M 0,-5 L  0,5"
         style="stroke:#000000; stroke-width:0.5"
         id="path1-36" /></marker><pattern
       id="Hatch"
       patternUnits="userSpaceOnUse"
       width="8"
       height="8"
       x="0"
       y="0"><path
         d="M8 4 l-4,4"
         stroke="#000000"
         stroke-width="0.25"
         linecap="square"
         id="path2-7" /><path
         d="M6 2 l-4,4"
         stroke="#000000"
         stroke-width="0.25"
         linecap="square"
         id="path3" /><path
         d="M4 0 l-4,4"
         stroke="#000000"
         stroke-width="0.25"
         linecap="square"
         id="path4" /></pattern><symbol
       id="*MODEL_SPACE" /><symbol
       id="*PAPER_SPACE" /><linearGradient
       inkscape:collect="always"
       xlink:href="#linearGradient17"
       id="linearGradient7"
       x1="23.167164"
       y1="23.170094"
       x2="40.817211"
       y2="40.820141"
       gradientUnits="userSpaceOnUse" /></defs><metadata
     id="metadata1"><rdf:RDF><cc:Work
         rdf:about=""><cc:license
           rdf:resource="http://creativecommons.org/licenses/by-nc-sa/4.0/" /><dc:creator><cc:Agent><dc:title>hasecilu</dc:title></cc:Agent></dc:creator><dc:subject><rdf:Bag><rdf:li>FreeCAD</rdf:li><rdf:li>command</rdf:li></rdf:Bag></dc:subject><dc:description>Template file to create icons for FreeCAD commands.</dc:description><dc:date>2024</dc:date><dc:rights><cc:Agent><dc:title>FreeCAD LGPL2+</dc:title></cc:Agent></dc:rights><dc:identifier>FreeCAD/src/</dc:identifier><dc:publisher><cc:Agent><dc:title>FreeCAD</dc:title></cc:Agent></dc:publisher><dc:relation>https://wiki.freecad.org/Artwork</dc:relation><dc:title>Brace - Standard - Slotted - Both Ends - Symmetric - End Round Round</dc:title></cc:Work><cc:License
         rdf:about="http://creativecommons.org/licenses/by-nc-sa/4.0/"><cc:permits
           rdf:resource="http://creativecommons.org/ns#Reproduction" /><cc:permits
           rdf:resource="http://creativecommons.org/ns#Distribution" /><cc:requires
           rdf:resource="http://creativecommons.org/ns#Notice" /><cc:requires
           rdf:resource="http://creativecommons.org/ns#Attribution" /><cc:prohibits
           rdf:resource="http://creativecommons.org/ns#CommercialUse" /><cc:permits
           rdf:resource="http://creativecommons.org/ns#DerivativeWorks" /><cc:requires
           rdf:resource="http://creativecommons.org/ns#ShareAlike" /></cc:License></rdf:RDF></metadata><path
     id="path8"
     style="display:inline;fill:#ad7fa8;stroke:#5c3566;stroke-width:1.99993;stroke-dasharray:none;stroke-opacity:1"
     d="M 11.288387,2.9999672 C 9.090353,2.9999621 6.9822013,3.8737216 5.4279615,5.4279615 3.8737208,6.9822022 2.9999612,9.0903538 2.9999673,11.288387 c -3.5e-6,2.198027 0.8737526,4.308069 2.4279916,5.862307 L 46.8493,58.572036 c 1.554238,1.554238 3.664289,2.428003 5.862315,2.427999 2.198034,7e-6 4.306187,-0.873753 5.860427,-2.427993 1.554239,-1.55424 2.427999,-3.662392 2.427994,-5.860427 2e-6,-2.198026 -0.873762,-4.308077 -2.428,-5.862315 L 17.150694,5.4279589 C 15.596456,3.8737199 13.486413,2.9999647 11.288387,2.9999672 Z m 0.407812,4.0328146 c 1.1967,-1.7e-6 2.394247,0.4533592 3.302156,1.3612686 l 9.540177,9.5420656 c 1.815811,1.81581 1.81581,4.786612 2e-6,6.602418 -1.815807,1.815809 -4.786608,1.815809 -6.602418,-2e-6 L 8.3940505,14.998355 c -1.8158102,-1.81581 -1.8158068,-4.788496 8e-7,-6.6043037 C 9.3019545,7.4861479 10.499499,7.0327844 11.696199,7.0327818 Z M 31.847072,27.902993 a 4.1005668,4.1005668 0 0 1 3.05293,6.997009 4.1012265,4.1012265 0 0 1 -5.80001,-5.80001 4.1005668,4.1005668 0 0 1 2.74708,-1.196999 z m 10.91277,10.189656 c 1.19746,-1e-6 2.39556,0.454671 3.304038,1.36315 l 9.545847,9.547735 c 1.816966,1.816967 1.816962,4.789239 4e-6,6.606197 -1.816958,1.816959 -4.78923,1.816962 -6.606197,-4e-6 L 39.455799,46.06388 c -1.816966,-1.816966 -1.816951,-4.791114 8e-6,-6.608073 0.908478,-0.908479 2.106576,-1.363156 3.304035,-1.363158 z"
     inkscape:label="main" /><path
     id="path6"
     style="display:inline;fill:url(#linearGradient7);fill-opacity:1;stroke:none;stroke-width:1.99993;stroke-dasharray:none;stroke-opacity:1"
     inkscape:label="gradient"
     sodipodi:type="inkscape:offset"
     inkscape:radius="-2.3505776"
     inkscape:original="M 11.289062 3 C 9.0910285 2.9999949 6.9819742 3.8734945 5.4277344 5.4277344 C 3.8734937 6.9819751 2.9999939 9.0910293 3 11.289062 C 2.9999965 13.487089 3.8734954 15.596153 5.4277344 17.150391 L 46.849609 58.572266 C 48.403847 60.126504 50.512912 61.000004 52.710938 61 C 54.908971 61.000007 57.018026 60.126506 58.572266 58.572266 C 60.126505 57.018026 61.000005 54.908972 61 52.710938 C 61.000002 50.512912 60.126504 48.403847 58.572266 46.849609 L 17.150391 5.4277344 C 15.596153 3.8734954 13.487089 2.9999975 11.289062 3 z M 11.695312 7.0332031 C 12.892012 7.0332014 14.090138 7.4866218 14.998047 8.3945312 L 24.539062 17.935547 C 26.354874 19.751357 26.35487 22.723257 24.539062 24.539062 C 22.723256 26.354872 19.751357 26.354874 17.935547 24.539062 L 8.3945312 14.998047 C 6.5787211 13.182237 6.5787237 10.210339 8.3945312 8.3945312 C 9.3024344 7.4866278 10.498613 7.0332057 11.695312 7.0332031 z M 31.847656 27.902344 A 4.1005668 4.1005668 0 0 1 34.900391 34.900391 A 4.1012265 4.1012265 0 0 1 29.099609 29.099609 A 4.1005668 4.1005668 0 0 1 31.847656 27.902344 z M 42.759766 38.091797 C 43.957226 38.091796 45.155975 38.546599 46.064453 39.455078 L 55.609375 49.003906 C 57.426341 50.820873 57.426333 53.792417 55.609375 55.609375 C 53.792417 57.426334 50.820873 57.426341 49.003906 55.609375 L 39.455078 46.064453 C 37.638112 44.247487 37.638119 41.272037 39.455078 39.455078 C 40.363556 38.546599 41.562307 38.091799 42.759766 38.091797 z "
     d="m 27.910156,19.511719 c 0.588339,2.326431 0.09602,4.884449 -1.708984,6.689453 -1.805005,1.805008 -4.363022,2.297324 -6.689453,1.708984 l 6.630859,6.63086 C 25.202957,32.183953 25.624119,29.250881 27.4375,27.4375 c 1.052363,-1.051637 -0.698726,0.542491 0.447266,-0.40625 1.145992,-0.948741 -0.747179,0.474269 0.482421,-0.363281 1.229601,-0.83755 -0.788785,0.402629 0.513672,-0.316407 1.302458,-0.719035 -0.82291,0.328609 0.541016,-0.265625 1.363926,-0.594233 -0.850968,0.249392 0.5625,-0.214843 1.413468,-0.464236 -0.86862,0.168069 0.582031,-0.16211 1.450652,-0.330178 -0.8814,0.08777 0.59375,-0.105468 1.470395,-0.192612 -0.8577,0.002 0.59961,-0.05078 h 0.002 c 1.041202,-0.03918 0.899423,-0.05533 1.908203,0.214844 0.50443,0.1351 0.677158,0.295992 0.880859,0.384766 z m 10.039063,10.039062 c 0.331789,0.757606 0.354195,0.762812 0.46289,1.728516 0.116927,1.038829 0.122262,0.894744 -0.07227,1.921875 -0.194528,1.027131 -0.146075,0.890321 -0.634766,1.814453 -0.488691,0.924132 -0.403163,0.807886 -1.142578,1.546875 -1.813381,1.813381 -4.746453,2.234543 -7.103516,1.294922 l 6.621094,6.621094 c -0.585346,-2.325741 -0.09118,-4.881473 1.712891,-6.685547 1.362177,-1.362179 3.174167,-2.050779 4.966797,-2.050782 0.580512,0 1.144252,0.187981 1.71289,0.332032 z" /></svg>
