<?xml version="1.0" encoding="UTF-8" standalone="no"?>
<!-- Created with Inkscape (http://www.inkscape.org/) -->

<svg
   width="64"
   height="64"
   viewBox="0 0 64 64"
   version="1.1"
   id="svg1"
   inkscape:version="1.4 (e7c3feb100, 2024-10-09)"
   sodipodi:docname="STR_BXS_ESS_H.svg"
   xml:space="preserve"
   xmlns:inkscape="http://www.inkscape.org/namespaces/inkscape"
   xmlns:sodipodi="http://sodipodi.sourceforge.net/DTD/sodipodi-0.dtd"
   xmlns:xlink="http://www.w3.org/1999/xlink"
   xmlns="http://www.w3.org/2000/svg"
   xmlns:svg="http://www.w3.org/2000/svg"
   xmlns:rdf="http://www.w3.org/1999/02/22-rdf-syntax-ns#"
   xmlns:cc="http://creativecommons.org/ns#"
   xmlns:dc="http://purl.org/dc/elements/1.1/"><title
     id="title4">Beam - Straight - Box-section - End Square Square - Full Length</title><sodipodi:namedview
     id="namedview1"
     pagecolor="#323232"
     bordercolor="#ffffff"
     borderopacity="1"
     inkscape:showpageshadow="0"
     inkscape:pageopacity="0"
     inkscape:pagecheckerboard="1"
     inkscape:deskcolor="#191919"
     inkscape:document-units="px"
     showgrid="true"
     inkscape:zoom="8"
     inkscape:cx="7.125"
     inkscape:cy="18.8125"
     inkscape:window-width="1894"
     inkscape:window-height="999"
     inkscape:window-x="0"
     inkscape:window-y="0"
     inkscape:window-maximized="1"
     inkscape:current-layer="svg1"
     showguides="true"
     inkscape:lockguides="false"
     guidecolor="#ffff00"
     guideopacity="0.6"
     guidehicolor="#ff00ff"
     guidehiopacity="0.50196078"><inkscape:grid
       id="grid1"
       units="px"
       originx="0"
       originy="0"
       spacingx="2"
       spacingy="2"
       empcolor="#0099e5"
       empopacity="0.30196078"
       color="#0099e5"
       opacity="0.14901961"
       empspacing="4"
       enabled="true"
       visible="true" /><sodipodi:guide
       position="-2,62"
       orientation="0,1"
       id="guide5"
       inkscape:locked="false"
       inkscape:label="top margin"
       inkscape:color="rgb(255,255,0)" /><sodipodi:guide
       position="64,2"
       orientation="0,1"
       id="guide6"
       inkscape:locked="false"
       inkscape:label="bottom margin"
       inkscape:color="rgb(255,255,0)" /><sodipodi:guide
       position="2,-2"
       orientation="-1,0"
       id="guide7"
       inkscape:locked="false"
       inkscape:label="right margin"
       inkscape:color="rgb(255,255,0)" /><sodipodi:guide
       position="62,64"
       orientation="-1,0"
       id="guide8"
       inkscape:locked="false"
       inkscape:label="left margin"
       inkscape:color="rgb(255,255,0)" /><sodipodi:guide
       position="64,64"
       orientation="0.70710678,-0.70710678"
       id="guide1"
       inkscape:locked="false" /><sodipodi:guide
       position="0,64"
       orientation="0.70710678,0.70710678"
       id="guide2"
       inkscape:label=""
       inkscape:locked="false"
       inkscape:color="rgb(255,255,0)" /></sodipodi:namedview><defs
     id="defs1"><linearGradient
       id="linearGradient3"
       inkscape:collect="always"
       inkscape:label="Sky Blue gradient"><stop
         style="stop-color:#729fcf;stop-opacity:1;"
         offset="0"
         id="stop3" /><stop
         style="stop-color:#3465a4;stop-opacity:1;"
         offset="1"
         id="stop4" /></linearGradient><linearGradient
       inkscape:collect="always"
       xlink:href="#linearGradient3"
       id="linearGradient28"
       x1="8"
       y1="32.003906"
       x2="55.990234"
       y2="32.003906"
       gradientUnits="userSpaceOnUse" /></defs><metadata
     id="metadata1"><rdf:RDF><cc:Work
         rdf:about=""><cc:license
           rdf:resource="http://creativecommons.org/licenses/by-nc-sa/4.0/" /><dc:creator><cc:Agent><dc:title>hasecilu</dc:title></cc:Agent></dc:creator><dc:subject><rdf:Bag><rdf:li>FreeCAD</rdf:li><rdf:li>command</rdf:li></rdf:Bag></dc:subject><dc:description>Template file to create icons for FreeCAD commands.</dc:description><dc:date>2024</dc:date><dc:rights><cc:Agent><dc:title>FreeCAD LGPL2+</dc:title></cc:Agent></dc:rights><dc:identifier>FreeCAD/src/</dc:identifier><dc:publisher><cc:Agent><dc:title>FreeCAD</dc:title></cc:Agent></dc:publisher><dc:relation>https://wiki.freecad.org/Artwork</dc:relation><dc:title>Beam - Straight - Box-section - End Square Square - Full Length</dc:title></cc:Work><cc:License
         rdf:about="http://creativecommons.org/licenses/by-nc-sa/4.0/"><cc:permits
           rdf:resource="http://creativecommons.org/ns#Reproduction" /><cc:permits
           rdf:resource="http://creativecommons.org/ns#Distribution" /><cc:requires
           rdf:resource="http://creativecommons.org/ns#Notice" /><cc:requires
           rdf:resource="http://creativecommons.org/ns#Attribution" /><cc:prohibits
           rdf:resource="http://creativecommons.org/ns#CommercialUse" /><cc:permits
           rdf:resource="http://creativecommons.org/ns#DerivativeWorks" /><cc:requires
           rdf:resource="http://creativecommons.org/ns#ShareAlike" /></cc:License></rdf:RDF></metadata><path
     style="display:inline;fill:#729fcf;stroke:#204a87;stroke-width:2;stroke-linecap:round;stroke-linejoin:round;stroke-dasharray:none"
     d="M 17.492893,6.8859591 2.9904772,15.258893 V 32.004762 L 46.497593,57.123565 61.000009,48.750631 V 32.004762 Z"
     id="path4"
     inkscape:label="main" /><path
     id="path36"
     style="display:inline;fill:#729fcf;stroke:#204a87;stroke-width:12.1895;stroke-linecap:round;stroke-linejoin:round;stroke-dasharray:none"
     d="M -77.3398,-57.4099 V -133.956 M 176.777,102.062 V 0 M 88.3883,153.093 176.777,102.062 M -143.631,-95.6832 -77.3398,-133.956 M 143.631,-6.37888 -77.3398,-133.956 M 77.3398,31.8944 143.631,-6.37888 M 77.3398,31.8944 -143.631,-95.6832 M 88.3883,51.031 176.777,0 M -88.3883,-153.093 176.777,0 M -176.777,-102.062 88.3883,51.031 m 0,102.062 V 51.031 M -176.777,0 88.3883,153.093 m -265.1653,-255.155 88.3887,-51.031 M -176.777,0 v -102.062 m 99.4372,44.6521 -66.2912,-38.2733 66.2912,-38.2728 v 76.5461 M 88.3883,153.093 V 51.031 L 176.777,0 V 102.062 L 88.3883,153.093 M 77.3398,31.8944 -77.3398,-57.4099 V -133.956 L 143.631,-6.37888 77.3398,31.8944 m 0,0 -154.6796,-89.3043 C -143.631,-95.6832 -143.631,-95.6832 -143.631,-95.6832 L -77.3398,-133.956 143.631,-6.37888 77.3398,31.8944 M -176.777,0 V -102.062 L 88.3883,51.031 V 153.093 L -176.777,0 m 0,-102.062 88.3887,-51.031 L 176.777,0 88.3883,51.031 -176.777,-102.062 m 0,102.062 V -102.062 L -88.3883,-153.093 176.777,0 V 102.062 L 88.3883,153.093 -176.777,0"
     sodipodi:nodetypes="ccccccccccccccccccccccccccccccccccccccccccccccccccccccccccccccccc"
     transform="matrix(0.16407545,0,0,0.16407545,31.995243,32.004762)"
     inkscape:label="main2" /><path
     id="path10"
     style="display:inline;fill:url(#linearGradient28);stroke:none;stroke-width:2;stroke-linecap:round;stroke-linejoin:round;stroke-dasharray:none"
     inkscape:label="gradient"
     sodipodi:type="inkscape:offset"
     inkscape:radius="-2.7887948"
     inkscape:original="M 17.492188 6.8867188 L 2.9902344 15.259766 L 2.9902344 32.003906 L 46.498047 57.123047 L 61 48.75 L 61 32.003906 L 17.492188 6.8867188 z "
     d="M 17.492187,10.107422 5.7792969,16.869141 v 13.52539 L 46.498047,53.902344 58.210937,47.140625 V 33.613281 Z" /><path
     id="path34"
     style="display:inline;fill:none;stroke:#204a87;stroke-width:12.1895;stroke-dasharray:none"
     transform="matrix(0.16407545,0,0,0.16407545,31.995243,32.004762)"
     d="m 150.083,46.2357 c -4.642,-2.6797 -10.937,-2.0561 -17.5,1.7335 m -17.5,58.8878 c 9.665,5.581 25.335,-3.467 35,-20.2068 9.665,-16.7403 9.665,-34.8345 0,-40.4145 m -17.5,1.7335 c -10.01,5.7792 -19.035,17.952 -22.865,30.8423 -3.831,12.8902 -1.714,23.9595 5.365,28.0455 M -92.985398,-94.099697 c -4.6413,-2.6796 -10.936602,-2.0561 -17.499602,1.7335 m 22.129002,28.5961 c 4.772,-13.7593 2.9069,-25.9785 -4.6294,-30.3296 m -17.499602,1.7335 c -3.847,2.2211 -7.641,5.4472 -11.081,9.4221"
     inkscape:label="holes" /><path
     id="path31"
     style="display:inline;fill:#729fcf;stroke:#204a87;stroke-width:2;stroke-linecap:round;stroke-linejoin:round;stroke-dasharray:none;stroke-opacity:1"
     d="m 19.305681,10.025871 v 12.559336 m 0,-12.559336 -10.876759,6.279627 m 0,0 36.255883,20.932352 M 55.561564,30.958144 44.684805,37.23785 m 16.315204,-5.233088 -14.502416,8.372934 m 0,16.745869 V 40.377696 m 0,0 L 2.9904772,15.258893"
     inkscape:label="strokes" /></svg>
