<?xml version="1.0" encoding="UTF-8" standalone="no"?>
<!-- Created with Inkscape (http://www.inkscape.org/) -->

<svg
   width="64"
   height="64"
   viewBox="0 0 64 64"
   version="1.1"
   id="svg1"
   inkscape:version="1.4 (e7c3feb100, 2024-10-09)"
   sodipodi:docname="STR_ESS.svg"
   xml:space="preserve"
   xmlns:inkscape="http://www.inkscape.org/namespaces/inkscape"
   xmlns:sodipodi="http://sodipodi.sourceforge.net/DTD/sodipodi-0.dtd"
   xmlns:xlink="http://www.w3.org/1999/xlink"
   xmlns="http://www.w3.org/2000/svg"
   xmlns:svg="http://www.w3.org/2000/svg"
   xmlns:rdf="http://www.w3.org/1999/02/22-rdf-syntax-ns#"
   xmlns:cc="http://creativecommons.org/ns#"
   xmlns:dc="http://purl.org/dc/elements/1.1/"><title
     id="title4">template</title><sodipodi:namedview
     id="namedview1"
     pagecolor="#323232"
     bordercolor="#ffffff"
     borderopacity="1"
     inkscape:showpageshadow="0"
     inkscape:pageopacity="0"
     inkscape:pagecheckerboard="1"
     inkscape:deskcolor="#191919"
     inkscape:document-units="px"
     showgrid="true"
     inkscape:zoom="10.24"
     inkscape:cx="38.916016"
     inkscape:cy="34.033203"
     inkscape:window-width="1894"
     inkscape:window-height="999"
     inkscape:window-x="0"
     inkscape:window-y="0"
     inkscape:window-maximized="1"
     inkscape:current-layer="svg1"
     showguides="true"
     inkscape:lockguides="false"
     guidecolor="#ffff00"
     guideopacity="0.6"
     guidehicolor="#ff00ff"
     guidehiopacity="0.50196078"><inkscape:grid
       id="grid1"
       units="px"
       originx="0"
       originy="0"
       spacingx="2"
       spacingy="2"
       empcolor="#0099e5"
       empopacity="0.30196078"
       color="#0099e5"
       opacity="0.14901961"
       empspacing="4"
       enabled="true"
       visible="true" /><sodipodi:guide
       position="-2,62"
       orientation="0,1"
       id="guide5"
       inkscape:locked="false"
       inkscape:label="top margin"
       inkscape:color="rgb(255,255,0)" /><sodipodi:guide
       position="64,2"
       orientation="0,1"
       id="guide6"
       inkscape:locked="false"
       inkscape:label="bottom margin"
       inkscape:color="rgb(255,255,0)" /><sodipodi:guide
       position="2,-2"
       orientation="-1,0"
       id="guide7"
       inkscape:locked="false"
       inkscape:label="right margin"
       inkscape:color="rgb(255,255,0)" /><sodipodi:guide
       position="62,64"
       orientation="-1,0"
       id="guide8"
       inkscape:locked="false"
       inkscape:label="left margin"
       inkscape:color="rgb(255,255,0)" /><sodipodi:guide
       position="64,64"
       orientation="0.70710678,-0.70710678"
       id="guide1"
       inkscape:locked="false" /><sodipodi:guide
       position="0,64"
       orientation="0.70710678,0.70710678"
       id="guide2"
       inkscape:label=""
       inkscape:locked="false"
       inkscape:color="rgb(255,255,0)" /></sodipodi:namedview><defs
     id="defs1"><linearGradient
       id="linearGradient3"
       inkscape:collect="always"
       inkscape:label="Sky Blue gradient"><stop
         style="stop-color:#729fcf;stop-opacity:1;"
         offset="0"
         id="stop3" /><stop
         style="stop-color:#3465a4;stop-opacity:1;"
         offset="1"
         id="stop4" /></linearGradient><marker
       id="DistanceX"
       orient="auto"
       refX="0.0"
       refY="0.0"
       style="overflow:visible"><path
         d="M 3,-3 L -3,3 M 0,-5 L  0,5"
         style="stroke:#000000; stroke-width:0.5"
         id="path1-36" /></marker><pattern
       id="Hatch"
       patternUnits="userSpaceOnUse"
       width="8"
       height="8"
       x="0"
       y="0"><path
         d="M8 4 l-4,4"
         stroke="#000000"
         stroke-width="0.25"
         linecap="square"
         id="path2-7" /><path
         d="M6 2 l-4,4"
         stroke="#000000"
         stroke-width="0.25"
         linecap="square"
         id="path3" /><path
         d="M4 0 l-4,4"
         stroke="#000000"
         stroke-width="0.25"
         linecap="square"
         id="path4" /></pattern><linearGradient
       inkscape:collect="always"
       xlink:href="#linearGradient3"
       id="linearGradient107"
       x1="12.050838"
       y1="12.050833"
       x2="51.949165"
       y2="51.949162"
       gradientUnits="userSpaceOnUse" /></defs><metadata
     id="metadata1"><rdf:RDF><cc:Work
         rdf:about=""><cc:license
           rdf:resource="http://creativecommons.org/licenses/by-nc-sa/4.0/" /><dc:creator><cc:Agent><dc:title>hasecilu</dc:title></cc:Agent></dc:creator><dc:subject><rdf:Bag><rdf:li>FreeCAD</rdf:li><rdf:li>command</rdf:li></rdf:Bag></dc:subject><dc:description>Template file to create icons for FreeCAD commands.</dc:description><dc:date>2024</dc:date><dc:rights><cc:Agent><dc:title>FreeCAD LGPL2+</dc:title></cc:Agent></dc:rights><dc:identifier>FreeCAD/src/</dc:identifier><dc:publisher><cc:Agent><dc:title>FreeCAD</dc:title></cc:Agent></dc:publisher><dc:relation>https://wiki.freecad.org/Artwork</dc:relation><dc:title>template</dc:title></cc:Work><cc:License
         rdf:about="http://creativecommons.org/licenses/by-nc-sa/4.0/"><cc:permits
           rdf:resource="http://creativecommons.org/ns#Reproduction" /><cc:permits
           rdf:resource="http://creativecommons.org/ns#Distribution" /><cc:requires
           rdf:resource="http://creativecommons.org/ns#Notice" /><cc:requires
           rdf:resource="http://creativecommons.org/ns#Attribution" /><cc:prohibits
           rdf:resource="http://creativecommons.org/ns#CommercialUse" /><cc:permits
           rdf:resource="http://creativecommons.org/ns#DerivativeWorks" /><cc:requires
           rdf:resource="http://creativecommons.org/ns#ShareAlike" /></cc:License></rdf:RDF></metadata><path
     style="fill:#729fcf;stroke:#204a87;stroke-width:2.05392;stroke-linecap:round;stroke-linejoin:round;stroke-dasharray:none"
     d="m 3.0269661,20.938679 v 15.32131 L 51.621106,52.352196 60.973038,43.061312 V 27.740003 L 12.378899,11.647796 Z"
     id="path64"
     inkscape:label="main" /><path
     id="path106"
     style="fill:url(#linearGradient107);stroke:none;stroke-width:2;stroke-linecap:round;stroke-linejoin:round;stroke-dasharray:none"
     inkscape:label="gradient"
     sodipodi:type="inkscape:offset"
     inkscape:radius="-2.7988281"
     inkscape:original="M 12.894531 12.181641 L 3.7871094 21.228516 L 3.7871094 36.148438 L 51.105469 51.818359 L 60.212891 42.771484 L 60.212891 27.851562 L 12.894531 12.181641 z "
     d="M 13.648438,15.378906 6.5859375,22.392578 V 34.126953 L 50.353516,48.621094 57.414062,41.607422 V 29.873047 Z"
     transform="matrix(1.0269618,0,0,1.0269618,-0.86277841,-0.86277843)" /><g
     id="g105"
     inkscape:label="holes"
     style="fill:none;stroke:#204a87;stroke-width:2;stroke-dasharray:none;stroke-opacity:1"
     transform="matrix(1.0269618,0,0,1.0269618,-0.86277841,-0.86277843)"><path
       id="path45"
       style="fill:none;stroke:#204a87;stroke-width:2;stroke-dasharray:none;stroke-opacity:1"
       d="M 8.0798736,27.682466 C 8.9089209,26.858912 10.24749,26.650499 11.674063,27.122881 m 3.594044,7.795099 C 13.850713,36.326137 11.092565,35.847941 9.1075135,33.849908 7.122608,31.851884 6.6624795,29.090623 8.0798736,27.682466 m 3.5941894,-0.559585 c 1.654161,0.547798 3.169759,1.92406 3.926683,3.565967 0.757071,1.641901 0.628707,3.274111 -0.332639,4.229132" /><path
       id="path48"
       style="fill:none;stroke:#204a87;stroke-width:2;stroke-dasharray:none;stroke-opacity:1"
       d="m 23.852696,32.90569 c 0.82896,-0.823553 2.167616,-1.031974 3.594117,-0.559583 m 3.594109,7.79509 c -1.417416,1.408157 -4.175593,0.929961 -6.160572,-1.068058 -1.984978,-1.998033 -2.445077,-4.7593 -1.027654,-6.167449 m 3.594117,-0.559583 c 1.654204,0.547796 3.169712,1.924065 3.92675,3.565958 0.757038,1.641907 0.628657,3.27411 -0.332641,4.229132" /><path
       id="path51"
       style="fill:none;stroke:#204a87;stroke-width:2;stroke-dasharray:none;stroke-opacity:1"
       d="m 39.62546,38.128914 c 0.828974,-0.823554 2.167631,-1.031982 3.594117,-0.559585 m 3.594146,7.795085 c -1.417452,1.408215 -4.17563,0.929961 -6.160609,-1.068058 -1.984963,-1.998033 -2.445063,-4.759285 -1.027654,-6.167442 m 3.594117,-0.559585 c 1.654204,0.547798 3.169714,1.92406 3.926785,3.565953 0.75707,1.641907 0.62856,3.27411 -0.332639,4.229132" /><path
       id="path56"
       style="fill:none;stroke:#204a87;stroke-width:2;stroke-dasharray:none;stroke-opacity:1"
       d="m 11.127679,19.317247 c 0,1.323868 1.550275,2.482698 3.779669,2.825332 2.22954,0.342649 4.582213,-0.216324 5.736264,-1.362828 m 0.683214,-1.462504 c 0,-1.615433 -2.283158,-2.925051 -5.099559,-2.925051 -2.81643,0 -5.099588,1.309618 -5.099588,2.925051 m 9.515934,1.462504 c 0.447583,-0.444655 0.683213,-0.949063 0.683213,-1.462504" /><path
       id="path59"
       style="fill:none;stroke:#204a87;stroke-width:2;stroke-dasharray:none;stroke-opacity:1"
       d="m 26.900414,24.540464 c 0,1.323868 1.55026,2.482698 3.779723,2.825347 2.229458,0.342634 4.582188,-0.216339 5.73624,-1.362843 m 0.683213,-1.462504 c 0,-1.615433 -2.283158,-2.925007 -5.099583,-2.925007 -2.81642,0 -5.099593,1.309574 -5.099593,2.925007 m 9.515963,1.462504 C 36.86396,25.558313 37.09959,25.05392 37.09959,24.540464" /><path
       id="path80"
       style="fill:none;stroke:#204a87;stroke-width:2;stroke-dasharray:none;stroke-opacity:1"
       d="m 57.262342,34.993775 c -0.453863,-0.150263 -1.019626,0.08401 -1.603165,0.663719 m -1.603165,9.018388 c 1.095101,0.362625 2.700597,-1.510818 3.585885,-4.18446 0.885434,-2.673626 0.715399,-5.135008 -0.379555,-5.497647 m -1.603165,0.663719 c -1.08053,1.073375 -2.043623,3.145848 -2.403946,5.172556 -0.360176,2.026707 -0.03934,3.567599 0.800781,3.845832 M 42.673192,29.763681 c 0,1.323878 1.550261,2.482699 3.779713,2.825344 2.229453,0.342644 4.582257,-0.216328 5.736221,-1.362838 m 0.683199,-1.462492 c 0,-1.615447 -2.283158,-2.925007 -5.099588,-2.925021 -2.816386,0 -5.099545,1.309574 -5.099545,2.925007 m 9.515934,1.462506 c 0.447598,-0.444656 0.683199,-0.94905 0.683199,-1.462492" /></g><path
     id="path68"
     style="fill:#729fcf;stroke:#204a87;stroke-width:2.05392;stroke-linecap:round;stroke-linejoin:round;stroke-dasharray:none"
     d="M 3.0269661,20.938679 51.621106,37.030827 m 9.351932,-9.290824 -9.351932,9.290824 m 0,15.321369 V 37.030827"
     inkscape:label="strokes" /></svg>
