<?xml version="1.0" encoding="UTF-8" standalone="no"?>
<!-- Created with Inkscape (http://www.inkscape.org/) -->

<svg
   width="64"
   height="64"
   viewBox="0 0 64 64"
   version="1.1"
   id="svg1"
   inkscape:version="1.4 (e7c3feb100, 2024-10-09)"
   sodipodi:docname="STR_SLT_CNT_ERR.svg"
   xml:space="preserve"
   xmlns:inkscape="http://www.inkscape.org/namespaces/inkscape"
   xmlns:sodipodi="http://sodipodi.sourceforge.net/DTD/sodipodi-0.dtd"
   xmlns:xlink="http://www.w3.org/1999/xlink"
   xmlns="http://www.w3.org/2000/svg"
   xmlns:svg="http://www.w3.org/2000/svg"
   xmlns:rdf="http://www.w3.org/1999/02/22-rdf-syntax-ns#"
   xmlns:cc="http://creativecommons.org/ns#"
   xmlns:dc="http://purl.org/dc/elements/1.1/"><title
     id="title4">Brace - Straight - Slotted - Centered - End Round Round</title><sodipodi:namedview
     id="namedview1"
     pagecolor="#323232"
     bordercolor="#ffffff"
     borderopacity="1"
     inkscape:showpageshadow="0"
     inkscape:pageopacity="0"
     inkscape:pagecheckerboard="1"
     inkscape:deskcolor="#191919"
     inkscape:document-units="px"
     showgrid="true"
     inkscape:zoom="8"
     inkscape:cx="12.25"
     inkscape:cy="23.5625"
     inkscape:window-width="1894"
     inkscape:window-height="999"
     inkscape:window-x="0"
     inkscape:window-y="0"
     inkscape:window-maximized="1"
     inkscape:current-layer="svg1"
     showguides="true"
     inkscape:lockguides="false"
     guidecolor="#ffff00"
     guideopacity="0.6"
     guidehicolor="#ff00ff"
     guidehiopacity="0.50196078"><inkscape:grid
       id="grid1"
       units="px"
       originx="0"
       originy="0"
       spacingx="2"
       spacingy="2"
       empcolor="#0099e5"
       empopacity="0.30196078"
       color="#0099e5"
       opacity="0.14901961"
       empspacing="4"
       enabled="true"
       visible="true" /><sodipodi:guide
       position="-2,62"
       orientation="0,1"
       id="guide5"
       inkscape:locked="false"
       inkscape:label="top margin"
       inkscape:color="rgb(255,255,0)" /><sodipodi:guide
       position="64,2"
       orientation="0,1"
       id="guide6"
       inkscape:locked="false"
       inkscape:label="bottom margin"
       inkscape:color="rgb(255,255,0)" /><sodipodi:guide
       position="2,-2"
       orientation="-1,0"
       id="guide7"
       inkscape:locked="false"
       inkscape:label="right margin"
       inkscape:color="rgb(255,255,0)" /><sodipodi:guide
       position="62,64"
       orientation="-1,0"
       id="guide8"
       inkscape:locked="false"
       inkscape:label="left margin"
       inkscape:color="rgb(255,255,0)" /><sodipodi:guide
       position="64,64"
       orientation="0.70710678,-0.70710678"
       id="guide1"
       inkscape:locked="false" /><sodipodi:guide
       position="21.845191,42.302764"
       orientation="0.70710678,-0.70710678"
       id="guide3"
       inkscape:locked="false" /><sodipodi:guide
       position="5.7802767,58.239321"
       orientation="0.70710678,-0.70710678"
       id="guide4"
       inkscape:locked="false" /></sodipodi:namedview><defs
     id="defs1"><linearGradient
       id="linearGradient17"
       inkscape:collect="always"
       inkscape:label="Plum gradient"><stop
         style="stop-color:#ad7fa8;stop-opacity:1;"
         offset="0"
         id="stop17" /><stop
         style="stop-color:#75507b;stop-opacity:1;"
         offset="1"
         id="stop18" /></linearGradient><marker
       id="DistanceX"
       orient="auto"
       refX="0.0"
       refY="0.0"
       style="overflow:visible"><path
         d="M 3,-3 L -3,3 M 0,-5 L  0,5"
         style="stroke:#000000; stroke-width:0.5"
         id="path1-36" /></marker><pattern
       id="Hatch"
       patternUnits="userSpaceOnUse"
       width="8"
       height="8"
       x="0"
       y="0"><path
         d="M8 4 l-4,4"
         stroke="#000000"
         stroke-width="0.25"
         linecap="square"
         id="path2-7" /><path
         d="M6 2 l-4,4"
         stroke="#000000"
         stroke-width="0.25"
         linecap="square"
         id="path3" /><path
         d="M4 0 l-4,4"
         stroke="#000000"
         stroke-width="0.25"
         linecap="square"
         id="path4" /></pattern><symbol
       id="*MODEL_SPACE" /><symbol
       id="*PAPER_SPACE" /><linearGradient
       inkscape:collect="always"
       xlink:href="#linearGradient17"
       id="linearGradient7"
       x1="13.381246"
       y1="14.756246"
       x2="49.294537"
       y2="50.669537"
       gradientUnits="userSpaceOnUse" /></defs><metadata
     id="metadata1"><rdf:RDF><cc:Work
         rdf:about=""><cc:license
           rdf:resource="http://creativecommons.org/licenses/by-nc-sa/4.0/" /><dc:creator><cc:Agent><dc:title>hasecilu</dc:title></cc:Agent></dc:creator><dc:subject><rdf:Bag><rdf:li>FreeCAD</rdf:li><rdf:li>command</rdf:li></rdf:Bag></dc:subject><dc:description>Template file to create icons for FreeCAD commands.</dc:description><dc:date>2024</dc:date><dc:rights><cc:Agent><dc:title>FreeCAD LGPL2+</dc:title></cc:Agent></dc:rights><dc:identifier>FreeCAD/src/</dc:identifier><dc:publisher><cc:Agent><dc:title>FreeCAD</dc:title></cc:Agent></dc:publisher><dc:relation>https://wiki.freecad.org/Artwork</dc:relation><dc:title>Brace - Straight - Slotted - Centered - End Round Round</dc:title></cc:Work><cc:License
         rdf:about="http://creativecommons.org/licenses/by-nc-sa/4.0/"><cc:permits
           rdf:resource="http://creativecommons.org/ns#Reproduction" /><cc:permits
           rdf:resource="http://creativecommons.org/ns#Distribution" /><cc:requires
           rdf:resource="http://creativecommons.org/ns#Notice" /><cc:requires
           rdf:resource="http://creativecommons.org/ns#Attribution" /><cc:prohibits
           rdf:resource="http://creativecommons.org/ns#CommercialUse" /><cc:permits
           rdf:resource="http://creativecommons.org/ns#DerivativeWorks" /><cc:requires
           rdf:resource="http://creativecommons.org/ns#ShareAlike" /></cc:License></rdf:RDF></metadata><path
     id="path8"
     style="display:inline;fill:#ad7fa8;stroke:#5c3566;stroke-width:1.99965;stroke-dasharray:none"
     d="m 12.948839,2.9998155 c -2.638256,1.1e-6 -5.1698768,1.0480903 -7.0354052,2.9136187 -1.8655295,1.8655295 -2.9136176,4.3971498 -2.9136187,7.0354048 -1.1e-6,2.638256 1.0480838,5.169877 2.9136176,7.035411 L 44.015753,58.086571 c 1.865534,1.865533 4.397144,2.913607 7.0354,2.913606 2.638256,-10e-7 5.167941,-1.050024 7.03347,-2.915553 1.865529,-1.865529 2.915553,-4.395215 2.915554,-7.033471 2e-6,-2.638257 -1.050022,-5.169873 -2.915556,-7.035407 L 19.984247,5.9134364 C 18.118713,4.0479026 15.587093,2.9998166 12.948836,2.9998188 Z M 12.241802,7.2750594 A 5.1646865,5.1646865 0 0 1 16.087776,16.087776 5.1646865,5.1646865 0 0 1 8.7843178,8.7843182 5.1646865,5.1646865 0 0 1 12.241802,7.2750594 Z M 25.900837,20.145476 c 1.476192,-7e-6 2.95231,0.561204 4.073231,1.682125 l 12.198334,12.198335 c 2.241842,2.241841 2.241851,5.904619 1e-6,8.146468 -2.24185,2.241851 -5.904627,2.24184 -8.146468,-10e-7 L 21.8276,29.974068 c -2.241841,-2.241841 -2.241852,-5.904618 -1e-6,-8.146468 1.120924,-1.120925 2.597035,-1.682127 4.073238,-1.682124 z m 25.470811,26.257489 a 5.1646865,5.1646865 0 0 1 3.844037,8.812721 5.1646865,5.1646865 0 0 1 -7.303458,-7.303459 5.1646865,5.1646865 0 0 1 3.459421,-1.509262 z"
     inkscape:label="main" /><path
     id="path6"
     style="display:inline;fill:url(#linearGradient7);fill-opacity:1;stroke:none;stroke-width:1.99965;stroke-dasharray:none"
     inkscape:label="gradient"
     sodipodi:type="inkscape:offset"
     inkscape:radius="-2.3723743"
     inkscape:original="M 12.949219 3 C 10.310963 3.0000011 7.7795909 4.0485341 5.9140625 5.9140625 C 4.048533 7.779592 3.0000011 10.310964 3 12.949219 C 2.9999989 15.587475 4.0485287 18.118841 5.9140625 19.984375 L 44.015625 58.085938 C 45.881159 59.95147 48.412525 61.000001 51.050781 61 C 53.689037 60.999999 56.218455 59.949513 58.083984 58.083984 C 59.949513 56.218455 60.999999 53.689037 61 51.050781 C 61.000002 48.412524 59.949518 45.881159 58.083984 44.015625 L 19.984375 5.9140625 C 18.118841 4.0485287 15.587476 2.9999978 12.949219 3 z M 12.242188 7.2753906 A 5.1646865 5.1646865 0 0 1 16.087891 16.087891 A 5.1646865 5.1646865 0 0 1 8.7851562 8.7851562 A 5.1646865 5.1646865 0 0 1 12.242188 7.2753906 z M 25.900391 20.144531 C 27.376583 20.144524 28.853688 20.707204 29.974609 21.828125 L 42.171875 34.025391 C 44.413717 36.267232 44.413725 39.930026 42.171875 42.171875 C 39.930025 44.413726 36.267232 44.413716 34.025391 42.171875 L 21.828125 29.974609 C 19.586284 27.732768 19.586274 24.069975 21.828125 21.828125 C 22.949049 20.7072 24.424188 20.144528 25.900391 20.144531 z M 51.371094 46.402344 A 5.1646865 5.1646865 0 0 1 55.214844 55.214844 A 5.1646865 5.1646865 0 0 1 47.912109 47.912109 A 5.1646865 5.1646865 0 0 1 51.371094 46.402344 z "
     d="m 17.972656,7.3691406 c 0.06472,0.075327 0.09372,0.055047 0.175781,0.1503906 0.79686,0.9258492 0.706735,0.782758 1.195313,1.9023438 0.488578,1.119586 0.445141,0.956068 0.582031,2.169922 0.13689,1.213854 0.142976,1.043861 -0.08398,2.244141 -0.22696,1.200279 -0.171542,1.041026 -0.742188,2.121093 -0.570645,1.080067 -0.470351,0.944697 -1.333984,1.808594 a 2.3726115,2.3726115 0 0 1 -0.03125,0.03125 c -2.868345,2.764747 -7.713168,2.720922 -10.5390625,-0.08398 0.1531586,0.185656 0.2248414,0.422107 0.3964844,0.59375 L 18.615234,29.330078 c -1.403951,-3.013911 -0.93815,-6.706382 1.535157,-9.179687 1.576109,-1.576111 3.670955,-2.378911 5.75,-2.378907 1.175405,-5e-6 2.326715,0.322435 3.416015,0.830078 L 18.306641,7.5917969 C 18.21014,7.4952966 18.073689,7.459841 17.972656,7.3691406 Z M 5.9433594,15.820313 c 0.1546844,0.377644 0.4558064,0.672639 0.6699218,1.021484 C 6.3685768,16.51154 6.1268887,16.182964 5.9433594,15.820313 Z M 45.386719,34.673828 c 1.401684,3.013226 0.935134,6.703539 -1.53711,9.175781 -2.473305,2.473307 -6.165776,2.939108 -9.179687,1.535157 l 11.023437,11.023437 c 0.171643,0.171643 0.408094,0.243326 0.59375,0.396484 -2.804903,-2.825892 -2.848733,-7.670724 -0.08398,-10.539062 a 2.3726115,2.3726115 0 0 1 0.03125,-0.03125 c 1.228907,-1.229376 -0.816845,0.634649 0.521484,-0.474609 1.33833,-1.109259 -0.873557,0.555619 0.5625,-0.423829 1.436058,-0.979447 -0.921628,0.471939 0.59961,-0.36914 1.521238,-0.841079 -0.962267,0.384815 0.630859,-0.310547 1.593126,-0.695362 -0.992891,0.291615 0.658203,-0.251953 1.651095,-0.543569 -1.014948,0.197572 0.679688,-0.189453 1.694635,-0.387026 -1.030011,0.104054 0.693359,-0.123047 1.72337,-0.227101 -1.035874,0.0046 0.701172,-0.06055 a 2.3726115,2.3726115 0 0 1 0.002,0 c 1.220842,-0.04521 1.052471,-0.06461 2.232422,0.251953 1.179951,0.316565 1.024328,0.250166 2.058594,0.900391 0.704379,0.442831 0.872974,0.693249 1.158203,0.998047 -0.128668,-0.150648 -0.185074,-0.347184 -0.326172,-0.488282 z m 1.771484,22.712891 c 0.348845,0.214115 0.64384,0.515237 1.021484,0.669922 -0.362652,-0.183529 -0.691227,-0.425218 -1.021484,-0.669922 z" /></svg>
