<?xml version="1.0" encoding="UTF-8" standalone="no"?>
<!-- Created with Inkscape (http://www.inkscape.org/) -->

<svg
   width="64"
   height="64"
   viewBox="0 0 64 64"
   version="1.1"
   id="svg1"
   inkscape:version="1.4 (e7c3feb100, 2024-10-09)"
   sodipodi:docname="STR_SLT_FL_ERR.svg"
   xml:space="preserve"
   xmlns:inkscape="http://www.inkscape.org/namespaces/inkscape"
   xmlns:sodipodi="http://sodipodi.sourceforge.net/DTD/sodipodi-0.dtd"
   xmlns:xlink="http://www.w3.org/1999/xlink"
   xmlns="http://www.w3.org/2000/svg"
   xmlns:svg="http://www.w3.org/2000/svg"
   xmlns:rdf="http://www.w3.org/1999/02/22-rdf-syntax-ns#"
   xmlns:cc="http://creativecommons.org/ns#"
   xmlns:dc="http://purl.org/dc/elements/1.1/"><title
     id="title4">Brace - Straight - Slotted - Full Length - End Round Round</title><sodipodi:namedview
     id="namedview1"
     pagecolor="#323232"
     bordercolor="#ffffff"
     borderopacity="1"
     inkscape:showpageshadow="0"
     inkscape:pageopacity="0"
     inkscape:pagecheckerboard="1"
     inkscape:deskcolor="#191919"
     inkscape:document-units="px"
     showgrid="true"
     inkscape:zoom="11.313709"
     inkscape:cx="24.130018"
     inkscape:cy="35.311143"
     inkscape:window-width="1894"
     inkscape:window-height="999"
     inkscape:window-x="0"
     inkscape:window-y="0"
     inkscape:window-maximized="1"
     inkscape:current-layer="svg1"
     showguides="true"
     inkscape:lockguides="false"
     guidecolor="#ffff00"
     guideopacity="0.6"
     guidehicolor="#ff00ff"
     guidehiopacity="0.50196078"><inkscape:grid
       id="grid1"
       units="px"
       originx="0"
       originy="0"
       spacingx="2"
       spacingy="2"
       empcolor="#0099e5"
       empopacity="0.30196078"
       color="#0099e5"
       opacity="0.14901961"
       empspacing="4"
       enabled="true"
       visible="true" /><sodipodi:guide
       position="-2,62"
       orientation="0,1"
       id="guide5"
       inkscape:locked="false"
       inkscape:label="top margin"
       inkscape:color="rgb(255,255,0)" /><sodipodi:guide
       position="64,2"
       orientation="0,1"
       id="guide6"
       inkscape:locked="false"
       inkscape:label="bottom margin"
       inkscape:color="rgb(255,255,0)" /><sodipodi:guide
       position="2,-2"
       orientation="-1,0"
       id="guide7"
       inkscape:locked="false"
       inkscape:label="right margin"
       inkscape:color="rgb(255,255,0)" /><sodipodi:guide
       position="62,64"
       orientation="-1,0"
       id="guide8"
       inkscape:locked="false"
       inkscape:label="left margin"
       inkscape:color="rgb(255,255,0)" /><sodipodi:guide
       position="64,64"
       orientation="0.70710678,-0.70710678"
       id="guide1"
       inkscape:locked="false" /><sodipodi:guide
       position="0,64"
       orientation="0.70710678,0.70710678"
       id="guide2"
       inkscape:label=""
       inkscape:locked="false"
       inkscape:color="rgb(255,255,0)" /><sodipodi:guide
       position="56.557649,7.4423513"
       orientation="1,0"
       id="guide10"
       inkscape:locked="false" /><sodipodi:guide
       position="56.557649,7.442351"
       orientation="0,-1"
       id="guide11"
       inkscape:locked="false" /></sodipodi:namedview><defs
     id="defs1"><linearGradient
       id="linearGradient17"
       inkscape:collect="always"
       inkscape:label="Plum gradient"><stop
         style="stop-color:#ad7fa8;stop-opacity:1;"
         offset="0"
         id="stop17" /><stop
         style="stop-color:#75507b;stop-opacity:1;"
         offset="1"
         id="stop18" /></linearGradient><marker
       id="DistanceX"
       orient="auto"
       refX="0.0"
       refY="0.0"
       style="overflow:visible"><path
         d="M 3,-3 L -3,3 M 0,-5 L  0,5"
         style="stroke:#000000; stroke-width:0.5"
         id="path1-36" /></marker><pattern
       id="Hatch"
       patternUnits="userSpaceOnUse"
       width="8"
       height="8"
       x="0"
       y="0"><path
         d="M8 4 l-4,4"
         stroke="#000000"
         stroke-width="0.25"
         linecap="square"
         id="path2-7" /><path
         d="M6 2 l-4,4"
         stroke="#000000"
         stroke-width="0.25"
         linecap="square"
         id="path3" /><path
         d="M4 0 l-4,4"
         stroke="#000000"
         stroke-width="0.25"
         linecap="square"
         id="path4" /></pattern><symbol
       id="*MODEL_SPACE" /><symbol
       id="*PAPER_SPACE" /><linearGradient
       inkscape:collect="always"
       xlink:href="#linearGradient17"
       id="linearGradient28"
       x1="13.6518"
       y1="13.658282"
       x2="50.349327"
       y2="50.355808"
       gradientUnits="userSpaceOnUse" /></defs><metadata
     id="metadata1"><rdf:RDF><cc:Work
         rdf:about=""><cc:license
           rdf:resource="http://creativecommons.org/licenses/by-nc-sa/4.0/" /><dc:creator><cc:Agent><dc:title>hasecilu</dc:title></cc:Agent></dc:creator><dc:subject><rdf:Bag><rdf:li>FreeCAD</rdf:li><rdf:li>command</rdf:li></rdf:Bag></dc:subject><dc:description>Template file to create icons for FreeCAD commands.</dc:description><dc:date>2024</dc:date><dc:rights><cc:Agent><dc:title>FreeCAD LGPL2+</dc:title></cc:Agent></dc:rights><dc:identifier>FreeCAD/src/</dc:identifier><dc:publisher><cc:Agent><dc:title>FreeCAD</dc:title></cc:Agent></dc:publisher><dc:relation>https://wiki.freecad.org/Artwork</dc:relation><dc:title>Brace - Straight - Slotted - Full Length - End Round Round</dc:title></cc:Work><cc:License
         rdf:about="http://creativecommons.org/licenses/by-nc-sa/4.0/"><cc:permits
           rdf:resource="http://creativecommons.org/ns#Reproduction" /><cc:permits
           rdf:resource="http://creativecommons.org/ns#Distribution" /><cc:requires
           rdf:resource="http://creativecommons.org/ns#Notice" /><cc:requires
           rdf:resource="http://creativecommons.org/ns#Attribution" /><cc:prohibits
           rdf:resource="http://creativecommons.org/ns#CommercialUse" /><cc:permits
           rdf:resource="http://creativecommons.org/ns#DerivativeWorks" /><cc:requires
           rdf:resource="http://creativecommons.org/ns#ShareAlike" /></cc:License></rdf:RDF></metadata><path
     id="path8"
     style="display:inline;fill:#ad7fa8;stroke:#5c3566;stroke-width:1.99993;stroke-dasharray:none;stroke-opacity:1;stroke-linejoin:round"
     d="m 20.91569,2.9956349 c -4.594659,0 -9.189544,1.745869 -12.6818199,5.2381444 -6.984561,6.9845617 -6.982677,18.3790937 0.00188,25.3636547 L 30.404393,55.766078 c 6.984563,6.984561 18.37721,6.984561 25.361771,0 6.984556,-6.984556 6.984556,-18.377205 -5e-6,-25.361766 L 33.59752,8.2337793 C 30.105238,4.7414988 25.510349,2.9956349 20.91569,2.9956349 Z m 0.270029,7.7986811 a 9.3987722,9.3987722 0 0 1 5.593148,2.692714 l -0.0095,0.0095 c 0.0059,-0.0044 0.01348,-0.0054 0.01888,0 l 23.715176,23.715156 c 0.0054,0.0054 0.0044,0.01296 0,0.01888 l 0.0095,-0.0095 a 9.3987722,9.3987722 0 0 1 -13.29176,13.291761 l 0.0095,-0.0095 c -0.0059,0.0044 -0.01351,0.0054 -0.01888,5e-6 L 13.496556,26.788221 c -0.0054,-0.0054 -0.0044,-0.01297 5e-6,-0.01889 l -0.0095,0.0095 a 9.3987722,9.3987722 0 0 1 7.698603,-15.984465 z" /><path
     id="path12"
     style="display:inline;fill:url(#linearGradient28);stroke:none;stroke-width:1.99993;stroke-dasharray:none;stroke-opacity:1"
     sodipodi:type="inkscape:offset"
     inkscape:radius="-3.0675967"
     inkscape:original="M 20.916016 2.9960938 C 16.321357 2.9960938 11.726651 4.7420996 8.234375 8.234375 C 1.249814 15.218937 1.2517711 26.613095 8.2363281 33.597656 L 30.404297 55.765625 C 37.38886 62.750186 48.781064 62.750186 55.765625 55.765625 C 62.750181 48.781069 62.750186 37.388858 55.765625 30.404297 L 33.597656 8.234375 C 30.105374 4.7420945 25.510675 2.9960938 20.916016 2.9960938 z M 21.185547 10.794922 A 9.3987722 9.3987722 0 0 1 26.779297 13.486328 L 26.769531 13.496094 C 26.775431 13.491694 26.783663 13.490694 26.789062 13.496094 L 50.503906 37.210938 C 50.509306 37.216338 50.508306 37.224549 50.503906 37.230469 L 50.513672 37.220703 A 9.3987722 9.3987722 0 0 1 37.220703 50.513672 L 37.230469 50.503906 C 37.224569 50.508306 37.216307 50.509301 37.210938 50.503906 L 13.496094 26.789062 C 13.490694 26.783662 13.491689 26.775451 13.496094 26.769531 L 13.486328 26.779297 A 9.3987722 9.3987722 0 0 1 21.185547 10.794922 z "
     d="m 20.916016,6.0644531 c -3.817519,0 -7.609237,1.437362 -10.511719,4.3398439 -5.8048393,5.80484 -5.8032874,15.218194 0.002,21.023437 l 22.167969,22.167969 c 5.805246,5.805244 15.21624,5.805244 21.021484,0 5.805238,-5.805238 5.805243,-15.216242 0,-21.021484 L 31.427734,10.404297 C 28.525245,7.5018085 24.733537,6.0644531 20.916016,6.0644531 Z m 0.611328,1.6816406 h 0.002 c 2.862619,0.3209341 -1.817832,-0.404462 1.035156,0.1621094 2.858243,0.5676149 -1.780899,-0.5597145 1.019531,0.2460938 2.800431,0.8058083 -1.728664,-0.7062695 0.994141,0.3320312 2.722805,1.0383008 -1.663026,-0.8493847 0.962891,0.4140625 2.625916,1.2634474 -1.584669,-0.9855143 0.925781,0.4941407 2.51045,1.4796547 -1.498316,-1.1150818 0.878906,0.5703125 2.377222,1.6853942 -1.397097,-1.2366314 0.830078,0.6425782 2.227175,1.879209 -1.289887,-1.3507453 0.771485,0.708984 a 3.0679034,3.0679034 0 0 1 0.0039,0.0078 c 0.0021,0.0021 0.0057,0.0018 0.0078,0.0039 l 23.714844,23.712891 c 0.0027,0.0027 0.0032,0.0071 0.0059,0.0098 a 3.0679034,3.0679034 0 0 1 0.0039,0 c 2.307919,2.30792 3.65039,5.552515 3.65039,8.816406 0,3.263892 -1.342471,6.508487 -3.65039,8.816407 -2.30792,2.307919 -5.552515,3.65039 -8.816407,3.65039 -3.263891,0 -6.508486,-1.342471 -8.816406,-3.65039 a 3.0679034,3.0679034 0 0 1 0,-0.0078 c -0.0038,-0.0037 -0.0099,-0.004 -0.01367,-0.0078 L 11.326172,28.958984 c -0.0033,-0.0033 -0.0045,-0.0084 -0.0078,-0.01172 a 3.0679034,3.0679034 0 0 1 -0.002,0 C 9.915442,27.545766 9.9658911,27.616198 9.0566406,25.855469 8.1473902,24.09474 8.1754237,24.174391 7.84375,22.220703 7.5120763,20.267015 7.5118385,20.352779 7.7890625,18.390625 c 0.277224,-1.962154 0.2533387,-1.880686 1.1132813,-3.666016 0.8599425,-1.785329 0.8104205,-1.714385 2.1718752,-3.154296 1.361454,-1.439912 1.294896,-1.387185 3.029297,-2.3457036 1.7344,-0.9585186 1.654093,-0.9297961 3.597656,-1.3164063 1.942573,-0.3864132 1.860076,-0.3835811 3.826172,-0.1621094 z" /></svg>
