<?xml version="1.0" encoding="UTF-8" standalone="no"?>
<!-- Created with Inkscape (http://www.inkscape.org/) -->

<svg
   width="64"
   height="64"
   viewBox="0 0 64 64"
   version="1.1"
   id="svg1"
   inkscape:version="1.4 (e7c3feb100, 2024-10-09)"
   sodipodi:docname="STR_STD_DBL_AZ.svg"
   xml:space="preserve"
   xmlns:inkscape="http://www.inkscape.org/namespaces/inkscape"
   xmlns:sodipodi="http://sodipodi.sourceforge.net/DTD/sodipodi-0.dtd"
   xmlns:xlink="http://www.w3.org/1999/xlink"
   xmlns="http://www.w3.org/2000/svg"
   xmlns:svg="http://www.w3.org/2000/svg"
   xmlns:rdf="http://www.w3.org/1999/02/22-rdf-syntax-ns#"
   xmlns:cc="http://creativecommons.org/ns#"
   xmlns:dc="http://purl.org/dc/elements/1.1/"><title
     id="title4">Brace - Straight - Standard - Double - Axis Z</title><sodipodi:namedview
     id="namedview1"
     pagecolor="#323232"
     bordercolor="#ffffff"
     borderopacity="1"
     inkscape:showpageshadow="0"
     inkscape:pageopacity="0"
     inkscape:pagecheckerboard="1"
     inkscape:deskcolor="#191919"
     inkscape:document-units="px"
     showgrid="true"
     inkscape:zoom="11.313708"
     inkscape:cx="25.986175"
     inkscape:cy="34.692428"
     inkscape:window-width="1894"
     inkscape:window-height="999"
     inkscape:window-x="0"
     inkscape:window-y="0"
     inkscape:window-maximized="1"
     inkscape:current-layer="svg1"
     showguides="true"
     inkscape:lockguides="false"
     guidecolor="#ffff00"
     guideopacity="0.6"
     guidehicolor="#ff00ff"
     guidehiopacity="0.50196078"><inkscape:grid
       id="grid1"
       units="px"
       originx="0"
       originy="0"
       spacingx="2"
       spacingy="2"
       empcolor="#0099e5"
       empopacity="0.30196078"
       color="#0099e5"
       opacity="0.14901961"
       empspacing="4"
       enabled="true"
       visible="true" /><sodipodi:guide
       position="-2,62"
       orientation="0,1"
       id="guide5"
       inkscape:locked="false"
       inkscape:label="top margin"
       inkscape:color="rgb(255,255,0)" /><sodipodi:guide
       position="64,2"
       orientation="0,1"
       id="guide6"
       inkscape:locked="false"
       inkscape:label="bottom margin"
       inkscape:color="rgb(255,255,0)" /><sodipodi:guide
       position="2,-2"
       orientation="-1,0"
       id="guide7"
       inkscape:locked="false"
       inkscape:label="right margin"
       inkscape:color="rgb(255,255,0)" /><sodipodi:guide
       position="62,64"
       orientation="-1,0"
       id="guide8"
       inkscape:locked="false"
       inkscape:label="left margin"
       inkscape:color="rgb(255,255,0)" /><sodipodi:guide
       position="64,64"
       orientation="0.70710678,-0.70710678"
       id="guide1"
       inkscape:locked="false" /><sodipodi:guide
       position="0,64"
       orientation="0.70710678,0.70710678"
       id="guide2"
       inkscape:label=""
       inkscape:locked="false"
       inkscape:color="rgb(255,255,0)" /><sodipodi:guide
       position="61.678058,19.145975"
       orientation="1,0"
       id="guide3"
       inkscape:locked="false" /></sodipodi:namedview><defs
     id="defs1"><linearGradient
       id="linearGradient17"
       inkscape:collect="always"
       inkscape:label="Plum gradient"><stop
         style="stop-color:#ad7fa8;stop-opacity:1;"
         offset="0"
         id="stop17" /><stop
         style="stop-color:#75507b;stop-opacity:1;"
         offset="1"
         id="stop18" /></linearGradient><marker
       id="DistanceX"
       orient="auto"
       refX="0.0"
       refY="0.0"
       style="overflow:visible"><path
         d="M 3,-3 L -3,3 M 0,-5 L  0,5"
         style="stroke:#000000; stroke-width:0.5"
         id="path1-36" /></marker><pattern
       id="Hatch"
       patternUnits="userSpaceOnUse"
       width="8"
       height="8"
       x="0"
       y="0"><path
         d="M8 4 l-4,4"
         stroke="#000000"
         stroke-width="0.25"
         linecap="square"
         id="path2-7" /><path
         d="M6 2 l-4,4"
         stroke="#000000"
         stroke-width="0.25"
         linecap="square"
         id="path3" /><path
         d="M4 0 l-4,4"
         stroke="#000000"
         stroke-width="0.25"
         linecap="square"
         id="path4" /></pattern><symbol
       id="*MODEL_SPACE" /><symbol
       id="*PAPER_SPACE" /><linearGradient
       inkscape:collect="always"
       xlink:href="#linearGradient17"
       id="linearGradient7"
       x1="367.14825"
       y1="696.26501"
       x2="425.95218"
       y2="755.06897"
       gradientUnits="userSpaceOnUse" /></defs><metadata
     id="metadata1"><rdf:RDF><cc:Work
         rdf:about=""><cc:license
           rdf:resource="http://creativecommons.org/licenses/by-nc-sa/4.0/" /><dc:creator><cc:Agent><dc:title>hasecilu</dc:title></cc:Agent></dc:creator><dc:subject><rdf:Bag><rdf:li>FreeCAD</rdf:li><rdf:li>command</rdf:li></rdf:Bag></dc:subject><dc:description>Template file to create icons for FreeCAD commands.</dc:description><dc:date>2024</dc:date><dc:rights><cc:Agent><dc:title>FreeCAD LGPL2+</dc:title></cc:Agent></dc:rights><dc:identifier>FreeCAD/src/</dc:identifier><dc:publisher><cc:Agent><dc:title>FreeCAD</dc:title></cc:Agent></dc:publisher><dc:relation>https://wiki.freecad.org/Artwork</dc:relation><dc:title>Brace - Straight - Standard - Double - Axis Z</dc:title></cc:Work><cc:License
         rdf:about="http://creativecommons.org/licenses/by-nc-sa/4.0/"><cc:permits
           rdf:resource="http://creativecommons.org/ns#Reproduction" /><cc:permits
           rdf:resource="http://creativecommons.org/ns#Distribution" /><cc:requires
           rdf:resource="http://creativecommons.org/ns#Notice" /><cc:requires
           rdf:resource="http://creativecommons.org/ns#Attribution" /><cc:prohibits
           rdf:resource="http://creativecommons.org/ns#CommercialUse" /><cc:permits
           rdf:resource="http://creativecommons.org/ns#DerivativeWorks" /><cc:requires
           rdf:resource="http://creativecommons.org/ns#ShareAlike" /></cc:License></rdf:RDF></metadata><path
     id="path19"
     style="fill:#ad7fa8;stroke:#5c3566;stroke-width:3.18423;stroke-dasharray:none"
     d="m 396.64784,682.36596 c -0.60117,-4.4e-4 -1.20041,0.0211 -1.79827,0.0638 -7.97147,0.56944 -15.54062,4.94719 -19.82043,12.36005 l -21.29064,36.87057 c -9.48796,16.43364 2.56681,37.31101 21.54275,37.31102 h 42.57825 c 13.69059,-0.007 24.86287,-11.18141 24.86287,-24.87199 0,-13.54241 -10.94406,-24.58751 -24.43152,-24.8325 6.53889,-11.80372 2.44891,-26.81046 -9.28296,-33.58386 -3.89175,-2.24691 -8.15189,-3.31404 -12.36005,-3.31708 z m -1.04191,10.43117 a 12.921799,12.921799 0 0 1 13.88495,12.88253 12.92202,12.92202 0 0 1 -25.84404,0 12.921799,12.921799 0 0 1 11.95909,-12.88253 z m -22.59376,39.93552 a 12.921799,12.921799 0 0 1 6.94398,1.72232 12.921799,12.921799 0 0 1 6.461,11.19057 12.921799,12.921799 0 1 1 -15.79863,-12.59698 12.921799,12.921799 0 0 1 2.39365,-0.31591 z m 45.66749,0.0304 a 12.921799,12.921799 0 0 1 13.88797,12.88253 12.922014,12.922014 0 0 1 -25.84402,0 12.921799,12.921799 0 0 1 11.95605,-12.88253 z"
     transform="matrix(0.62807987,0,0,0.62807987,-217.08618,-423.77789)"
     inkscape:label="main" /><path
     id="path6"
     style="fill:url(#linearGradient7);fill-opacity:1;stroke:none;stroke-width:3.18423;stroke-dasharray:none"
     inkscape:label="gradient"
     sodipodi:type="inkscape:offset"
     inkscape:radius="-4.5927744"
     inkscape:original="M 396.64844 682.36523 C 396.04727 682.36479 395.44747 682.38699 394.84961 682.42969 C 386.87814 682.99913 379.30911 687.3762 375.0293 694.78906 L 353.73828 731.66016 C 344.25032 748.0938 356.30531 768.97069 375.28125 768.9707 L 417.85938 768.9707 C 431.54996 768.9637 442.72266 757.79019 442.72266 744.09961 C 442.72266 730.5572 431.77848 719.51257 418.29102 719.26758 C 424.82991 707.46386 420.73968 692.45699 409.00781 685.68359 C 405.11606 683.43668 400.8566 682.36827 396.64844 682.36523 z M 395.60547 692.79688 A 12.921799 12.921799 0 0 1 409.49023 705.67969 A 12.92202 12.92202 0 0 1 383.64648 705.67969 A 12.921799 12.921799 0 0 1 395.60547 692.79688 z M 373.01172 732.73242 A 12.921799 12.921799 0 0 1 379.95703 734.45508 A 12.921799 12.921799 0 0 1 386.41797 745.64648 A 12.921799 12.921799 0 1 1 370.61914 733.04883 A 12.921799 12.921799 0 0 1 373.01172 732.73242 z M 418.67969 732.76367 A 12.921799 12.921799 0 0 1 432.56836 745.64648 A 12.922014 12.922014 0 0 1 406.72266 745.64648 A 12.921799 12.921799 0 0 1 418.67969 732.76367 z "
     d="m 396.64453,686.95703 c -0.48587,-3.5e-4 -0.97383,0.0195 -1.4668,0.0547 -6.50912,0.46498 -12.67302,4.01401 -16.17187,10.07422 l -21.29102,36.87109 c -7.80355,13.51616 1.95905,30.41991 17.56641,30.41992 h 42.57617 c 11.19294,-0.006 20.27344,-9.0855 20.27344,-20.27734 0,-11.068 -8.89731,-20.03995 -19.92383,-20.24024 a 4.5932337,4.5932337 0 0 1 -3.93359,-6.8164 c 5.34588,-9.65016 2.02579,-21.84701 -7.5625,-27.38281 -3.18104,-1.83658 -6.63338,-2.70065 -10.06641,-2.70313 z m 0.42383,1.05078 c 0.0571,0.002 0.11122,0.0894 1.78906,0.31055 3.35569,0.44231 0.30338,-0.28423 3.49805,0.83398 3.19467,1.11822 0.35488,-0.21769 3.2539,1.5293 2.89903,1.74699 0.38989,-0.14005 2.8711,2.16211 2.4812,2.30216 0.41226,-0.0572 2.37109,2.70312 1.95883,2.76031 0.41562,0.0287 1.76953,3.13086 1.35391,3.10214 0.39987,0.1106 1.0918,3.42383 0.69194,3.31324 0.36834,0.19146 0.36914,3.57617 a 4.5932337,4.5932337 0 0 1 0,0.0234 c -0.0218,4.59914 -1.89839,9.08763 -5.1582,12.33203 -3.25982,3.24441 -7.75628,5.09961 -12.35547,5.09961 -4.59919,0 -9.09566,-1.8552 -12.35547,-5.09961 -3.25981,-3.2444 -5.13641,-7.73289 -5.1582,-12.33203 a 4.5932337,4.5932337 0 0 1 -0.002,-0.0234 c 8.3e-4,-3.49357 -0.34366,0.17666 0.30664,-3.25586 0.65031,-3.43251 -0.37085,0.10921 0.90625,-3.14257 1.27711,-3.25179 -0.38476,0.0397 1.47461,-2.91797 1.85938,-2.95767 -0.38463,-0.0333 1.99219,-2.59375 2.37682,-2.56043 -0.37194,-0.10577 2.43945,-2.17969 2.8114,-2.07392 -0.34716,-0.1724 2.80079,-1.6875 3.14794,-1.5151 -0.30834,-0.23326 3.0664,-1.13672 3.37474,-0.90345 -0.25925,-0.28657 3.22461,-0.54687 1.68765,-0.12612 1.74757,-0.2106 1.80469,-0.20899 z m 23.07226,39.96485 c 0.0574,0.002 0.11323,0.0918 1.79102,0.3125 3.35557,0.44139 0.30336,-0.2854 3.49805,0.83203 3.19469,1.11742 0.35477,-0.21705 3.2539,1.52929 2.89914,1.74635 0.3917,-0.13953 2.87305,2.16211 2.48135,2.30165 0.41408,-0.0568 2.37305,2.70313 1.95897,2.75992 0.41553,0.029 1.76953,3.13086 1.354,3.10183 0.39985,0.11279 1.0918,3.42578 0.69194,3.31299 0.37037,0.19169 0.37109,3.57617 a 4.5932337,4.5932337 0 0 1 0,0.002 c 0,4.58558 -1.88837,9.14228 -5.13086,12.38477 -3.24249,3.24249 -7.79919,5.13086 -12.38477,5.13086 -4.58558,0 -9.14422,-1.88837 -12.38671,-5.13086 -3.2425,-3.24249 -5.12891,-7.79919 -5.12891,-12.38477 a 4.5932337,4.5932337 0 0 1 0,-0.002 c 7.9e-4,-3.49368 -0.34554,0.17873 0.30469,-3.25391 0.65022,-3.43263 -0.37075,0.10936 0.90625,-3.14257 1.27699,-3.25194 -0.38464,0.0379 1.47461,-2.91993 1.85924,-2.95787 -0.38645,-0.0331 1.99023,-2.59375 2.37668,-2.56069 -0.37182,-0.10347 2.43945,-2.17773 2.81128,-2.07426 -0.34708,-0.17199 2.80078,-1.6875 3.14787,-1.51551 -0.3083,-0.23474 3.06641,-1.13867 3.37472,-0.90394 -0.26127,-0.28603 3.22266,-0.54688 1.68749,-0.12662 1.74732,-0.21254 1.80468,-0.21093 z m -46.07226,0.16796 c 4.17359,0.13658 -2.92915,-0.34669 1.22461,0.082 4.15376,0.42872 -2.8967,-0.54885 1.2168,0.16992 4.1135,0.71877 -2.85185,-0.75137 1.20117,0.2539 4.05301,1.00528 -2.79096,-0.9509 1.18164,0.33594 3.9726,1.28685 -2.71835,-1.14216 1.15429,0.41992 3.87265,1.56209 -2.6306,-1.33159 1.12305,0.49805 3.75366,1.82964 -2.53222,-1.51008 1.08399,0.57813 3.30912,1.9105 -1.12713,-1.05464 1.90429,1.27148 3.03143,2.32612 -0.97919,-1.1902 1.72266,1.51172 2.70185,2.70192 -0.81432,-1.30883 1.51172,1.72265 2.32604,3.03149 -0.63895,-1.40487 1.27148,1.9043 1.91043,3.30917 -0.44845,-1.47554 1.01367,2.05469 1.46213,3.53023 -0.25246,-1.52096 0.73633,2.16992 0.9888,3.69089 -0.0513,-1.54033 0.44727,2.24805 0.49855,3.78838 0.15062,-1.53589 0.15039,2.28515 -1e-5,0.6551 -0.50419,4.21817 -0.68555,4.84766 -0.18136,0.62949 -1.65147,3.91602 -2,4.4707 -0.34853,0.55469 -2.66974,3.30371 -3.1582,3.74024 -0.48846,0.43653 -3.48205,2.43645 -4.07227,2.7207 -0.59021,0.28425 -4.02017,1.37853 -4.66601,1.48828 -0.64584,0.10975 -4.24355,0.21004 -4.89453,0.13672 -0.65098,-0.0733 -4.13499,-0.97199 -4.74024,-1.22266 -0.60524,-0.25066 -3.70655,-2.07986 -4.21875,-2.48828 -0.5122,-0.40841 -2.98416,-3.02239 -3.36328,-3.55664 -0.37912,-0.53424 -2.03163,-3.73324 -2.24805,-4.35156 -0.21641,-0.61832 -0.91829,-4.14867 -0.95507,-4.80273 -0.0368,-0.65407 0.26444,-4.24022 0.41015,-4.87891 0.14571,-0.63869 1.42927,-4.00083 1.7461,-4.57422 0.31682,-0.57339 2.48018,-3.44883 2.94335,-3.91211 0.46318,-0.46327 3.3388,-2.62836 3.91211,-2.94531 0.57311,-0.31684 3.93183,-1.59944 4.57227,-1.74609 8.67333,-1.98516 -7.95391,1.4135 0.80273,-0.16407 8.75665,-1.57756 -8.01221,1.03957 0.8086,-0.12695 8.82081,-1.16652 -8.05125,0.66504 0.81445,-0.0879 8.8657,-0.75293 -8.07284,0.28691 0.81836,-0.0508 a 4.5932337,4.5932337 0 0 1 0.002,0 c 4.1729,-0.15626 -2.94507,-0.13853 1.22852,-0.002 z"
     transform="matrix(0.62807987,0,0,0.62807987,-217.08618,-423.77789)" /></svg>
