<?xml version="1.0" encoding="UTF-8" standalone="no"?>
<!-- Created with Inkscape (http://www.inkscape.org/) -->

<svg
   width="64"
   height="64"
   viewBox="0 0 64 64"
   version="1.1"
   id="svg1"
   inkscape:version="1.4 (e7c3feb100, 2024-10-09)"
   sodipodi:docname="STR_STD_TRPL_AY.svg"
   xml:space="preserve"
   xmlns:inkscape="http://www.inkscape.org/namespaces/inkscape"
   xmlns:sodipodi="http://sodipodi.sourceforge.net/DTD/sodipodi-0.dtd"
   xmlns="http://www.w3.org/2000/svg"
   xmlns:svg="http://www.w3.org/2000/svg"
   xmlns:rdf="http://www.w3.org/1999/02/22-rdf-syntax-ns#"
   xmlns:cc="http://creativecommons.org/ns#"
   xmlns:dc="http://purl.org/dc/elements/1.1/"><title
     id="title4">template</title><sodipodi:namedview
     id="namedview1"
     pagecolor="#323232"
     bordercolor="#ffffff"
     borderopacity="1"
     inkscape:showpageshadow="0"
     inkscape:pageopacity="0"
     inkscape:pagecheckerboard="1"
     inkscape:deskcolor="#191919"
     inkscape:document-units="px"
     showgrid="true"
     inkscape:zoom="7.9999995"
     inkscape:cx="17.437501"
     inkscape:cy="43.187503"
     inkscape:window-width="1894"
     inkscape:window-height="999"
     inkscape:window-x="0"
     inkscape:window-y="0"
     inkscape:window-maximized="1"
     inkscape:current-layer="svg1"
     showguides="true"
     inkscape:lockguides="false"
     guidecolor="#ffff00"
     guideopacity="0.6"
     guidehicolor="#ff00ff"
     guidehiopacity="0.50196078"><inkscape:grid
       id="grid1"
       units="px"
       originx="0"
       originy="0"
       spacingx="2"
       spacingy="2"
       empcolor="#0099e5"
       empopacity="0.30196078"
       color="#0099e5"
       opacity="0.14901961"
       empspacing="4"
       enabled="true"
       visible="true" /><sodipodi:guide
       position="-2,62"
       orientation="0,1"
       id="guide5"
       inkscape:locked="false"
       inkscape:label="top margin"
       inkscape:color="rgb(255,255,0)" /><sodipodi:guide
       position="64,2"
       orientation="0,1"
       id="guide6"
       inkscape:locked="false"
       inkscape:label="bottom margin"
       inkscape:color="rgb(255,255,0)" /><sodipodi:guide
       position="2,-2"
       orientation="-1,0"
       id="guide7"
       inkscape:locked="false"
       inkscape:label="right margin"
       inkscape:color="rgb(255,255,0)" /><sodipodi:guide
       position="62,64"
       orientation="-1,0"
       id="guide8"
       inkscape:locked="false"
       inkscape:label="left margin"
       inkscape:color="rgb(255,255,0)" /><sodipodi:guide
       position="64,64"
       orientation="0.70710678,-0.70710678"
       id="guide1"
       inkscape:locked="false" /><sodipodi:guide
       position="0,64"
       orientation="0.70710678,0.70710678"
       id="guide2"
       inkscape:label=""
       inkscape:locked="false"
       inkscape:color="rgb(255,255,0)" /></sodipodi:namedview><defs
     id="defs1" /><metadata
     id="metadata1"><rdf:RDF><cc:Work
         rdf:about=""><cc:license
           rdf:resource="http://creativecommons.org/licenses/by-nc-sa/4.0/" /><dc:creator><cc:Agent><dc:title>hasecilu</dc:title></cc:Agent></dc:creator><dc:subject><rdf:Bag><rdf:li>FreeCAD</rdf:li><rdf:li>command</rdf:li></rdf:Bag></dc:subject><dc:description>Template file to create icons for FreeCAD commands.</dc:description><dc:date>2024</dc:date><dc:rights><cc:Agent><dc:title>FreeCAD LGPL2+</dc:title></cc:Agent></dc:rights><dc:identifier>FreeCAD/src/</dc:identifier><dc:publisher><cc:Agent><dc:title>FreeCAD</dc:title></cc:Agent></dc:publisher><dc:relation>https://wiki.freecad.org/Artwork</dc:relation><dc:title>template</dc:title></cc:Work><cc:License
         rdf:about="http://creativecommons.org/licenses/by-nc-sa/4.0/"><cc:permits
           rdf:resource="http://creativecommons.org/ns#Reproduction" /><cc:permits
           rdf:resource="http://creativecommons.org/ns#Distribution" /><cc:requires
           rdf:resource="http://creativecommons.org/ns#Notice" /><cc:requires
           rdf:resource="http://creativecommons.org/ns#Attribution" /><cc:prohibits
           rdf:resource="http://creativecommons.org/ns#CommercialUse" /><cc:permits
           rdf:resource="http://creativecommons.org/ns#DerivativeWorks" /><cc:requires
           rdf:resource="http://creativecommons.org/ns#ShareAlike" /></cc:License></rdf:RDF></metadata><g
     id="g36"
     inkscape:label="main"
     style="display:inline;stroke-width:2;stroke-dasharray:none"><path
       style="fill:#ad7fa8;stroke:#5c3566;stroke-width:9.53683;stroke-linecap:round;stroke-linejoin:round;stroke-dasharray:none"
       d="m -62.5,75.8339 h 125 c 4.1038,0 8.1674,-0.5715 11.9589,-1.682 3.7914,-1.1105 7.2364,-2.7382 10.1382,-4.7901 l 44.1939,-31.25 c 16.517,-11.679 31.655,-31.59343 39.248,-51.6303 7.593,-20.037 6.373,-36.852 -3.163,-43.5949 l -22.097,-15.625 c -8.284,-5.8571 -21.738,-3.3079 -36.085,6.8369 l -44.194,31.25 h -125 l -44.194,-31.25 c -14.347,-10.1448 -27.801,-12.694 -36.085,-6.8369 l -22.097,15.625 c -9.536,6.7429 -10.756,23.5579 -3.163,43.5949 7.593,20.03687 22.731,39.9513 39.248,51.6303 l 44.1939,31.25 c 2.9018,2.0519 6.3468,3.6796 10.1382,4.7901 3.7915,1.1105 7.8551,1.682 11.9589,1.682"
       transform="matrix(0.14828975,0.14828975,-0.14828975,0.14828975,28.030253,35.969756)"
       id="path36" /><path
       style="fill:#ad7fa8;stroke:#5c3566;stroke-width:9.53683;stroke-linecap:round;stroke-linejoin:round;stroke-dasharray:none"
       d="m -62.5,53.7368 h 125 v -88.3883 h -125 v 88.3883"
       transform="matrix(0.14828975,0.14828975,-0.14828975,0.14828975,28.030253,35.969756)"
       id="path35" /><path
       style="fill:#ad7fa8;stroke:#5c3566;stroke-width:9.53683;stroke-linecap:round;stroke-linejoin:round;stroke-dasharray:none"
       d="m -62.5,-34.6515 v 88.3883 l -44.194,-31.25 c -16.517,-11.679 -31.655,-31.59343 -39.248,-51.6303 -7.593,-20.037 -6.372,-36.852 3.163,-43.5949 8.284,-5.8571 21.738,-3.3079 36.085,6.8369 l 44.194,31.25"
       transform="matrix(0.14828975,0.14828975,-0.14828975,0.14828975,28.030253,35.969756)"
       id="path34" /><path
       style="fill:#ad7fa8;stroke:#5c3566;stroke-width:9.53683;stroke-linecap:round;stroke-linejoin:round;stroke-dasharray:none"
       d="m 62.5,53.7368 v -88.3883 l 44.194,-31.25 c 14.347,-10.1448 27.801,-12.694 36.085,-6.8369 9.535,6.7429 10.756,23.5579 3.163,43.5949 -7.593,20.03687 -22.731,39.9513 -39.248,51.6303 L 62.5,53.7368"
       transform="matrix(0.14828975,0.14828975,-0.14828975,0.14828975,28.030253,35.969756)"
       id="path33" /><path
       style="fill:#ad7fa8;stroke:#5c3566;stroke-width:9.53683;stroke-linecap:round;stroke-linejoin:round;stroke-dasharray:none"
       d="m -62.5,75.8339 h 125 c 4.1038,0 8.1674,-0.5715 11.9589,-1.682 3.7914,-1.1105 7.2364,-2.7382 10.1382,-4.7901 l 44.1939,-31.25 -22.097,-15.625 -44.194,31.25 h -125 l -44.194,-31.25 -22.097,15.625 44.1939,31.25 c 2.9018,2.0519 6.3468,3.6796 10.1382,4.7901 3.7915,1.1105 7.8551,1.682 11.9589,1.682"
       transform="matrix(0.14828975,0.14828975,-0.14828975,0.14828975,28.030253,35.969756)"
       id="path32" /><path
       style="fill:#ad7fa8;stroke:#5c3566;stroke-width:9.53683;stroke-linecap:round;stroke-linejoin:round;stroke-dasharray:none"
       d="m -106.694,22.4868 c -16.517,-11.679 -31.655,-31.59343 -39.248,-51.6303 -7.593,-20.037 -6.372,-36.852 3.163,-43.5949 l -22.097,15.625 c -9.536,6.7429 -10.756,23.5579 -3.163,43.5949 7.593,20.03687 22.731,39.9513 39.248,51.6303 l 22.097,-15.625"
       transform="matrix(0.14828975,0.14828975,-0.14828975,0.14828975,28.030253,35.969756)"
       id="path31" /><path
       style="fill:#ad7fa8;stroke:#5c3566;stroke-width:9.53683;stroke-linecap:round;stroke-linejoin:round;stroke-dasharray:none"
       d="m 106.694,22.4868 c 16.517,-11.679 31.655,-31.59343 39.248,-51.6303 7.593,-20.037 6.372,-36.852 -3.163,-43.5949 l 22.097,15.625 c 9.536,6.7429 10.756,23.5579 3.163,43.5949 -7.593,20.03687 -22.731,39.9513 -39.248,51.6303 l -22.097,-15.625"
       transform="matrix(0.14828975,0.14828975,-0.14828975,0.14828975,28.030253,35.969756)"
       id="path30" /><path
       style="fill:#ad7fa8;stroke:#5c3566;stroke-width:9.53683;stroke-linecap:round;stroke-linejoin:round;stroke-dasharray:none"
       d="m -62.5,53.7368 h 125"
       transform="matrix(0.14828975,0.14828975,-0.14828975,0.14828975,28.030253,35.969756)"
       id="path28" /><path
       style="fill:#ad7fa8;stroke:#5c3566;stroke-width:9.53683;stroke-linecap:round;stroke-linejoin:round;stroke-dasharray:none"
       d="M -62.5,-34.6515 V 53.7368"
       transform="matrix(0.14828975,0.14828975,-0.14828975,0.14828975,28.030253,35.969756)"
       id="path27" /><path
       style="fill:#ad7fa8;stroke:#5c3566;stroke-width:9.53683;stroke-linecap:round;stroke-linejoin:round;stroke-dasharray:none"
       d="M 62.5,53.7368 V -34.6515"
       transform="matrix(0.14828975,0.14828975,-0.14828975,0.14828975,28.030253,35.969756)"
       id="path26" /><path
       style="fill:#ad7fa8;stroke:#5c3566;stroke-width:9.53683;stroke-linecap:round;stroke-linejoin:round;stroke-dasharray:none"
       d="m -62.5,53.7368 -44.194,-31.25"
       transform="matrix(0.14828975,0.14828975,-0.14828975,0.14828975,28.030253,35.969756)"
       id="path24" /><path
       style="fill:#ad7fa8;stroke:#5c3566;stroke-width:9.53683;stroke-linecap:round;stroke-linejoin:round;stroke-dasharray:none"
       d="m -106.694,22.4868 c -16.517,-11.679 -31.655,-31.59343 -39.248,-51.6303 -7.593,-20.037 -6.372,-36.852 3.163,-43.5949"
       transform="matrix(0.14828975,0.14828975,-0.14828975,0.14828975,28.030253,35.969756)"
       id="path23" /><path
       style="fill:#ad7fa8;stroke:#5c3566;stroke-width:9.53683;stroke-linecap:round;stroke-linejoin:round;stroke-dasharray:none"
       d="m 62.5,53.7368 44.194,-31.25"
       transform="matrix(0.14828975,0.14828975,-0.14828975,0.14828975,28.030253,35.969756)"
       id="path20" /><path
       style="fill:#ad7fa8;stroke:#5c3566;stroke-width:9.53683;stroke-linecap:round;stroke-linejoin:round;stroke-dasharray:none"
       d="m 106.694,22.4868 c 16.517,-11.679 31.655,-31.59343 39.248,-51.6303 7.593,-20.037 6.372,-36.852 -3.163,-43.5949"
       transform="matrix(0.14828975,0.14828975,-0.14828975,0.14828975,28.030253,35.969756)"
       id="path19" /><path
       style="fill:#ad7fa8;stroke:#5c3566;stroke-width:9.53683;stroke-linecap:round;stroke-linejoin:round;stroke-dasharray:none"
       d="m -106.694,22.4868 -22.097,15.625"
       transform="matrix(0.14828975,0.14828975,-0.14828975,0.14828975,28.030253,35.969756)"
       id="path16" /><path
       style="fill:#ad7fa8;stroke:#5c3566;stroke-width:9.53683;stroke-linecap:round;stroke-linejoin:round;stroke-dasharray:none"
       d="m 106.694,22.4868 22.097,15.625"
       transform="matrix(0.14828975,0.14828975,-0.14828975,0.14828975,28.030253,35.969756)"
       id="path14" /><path
       style="fill:#ad7fa8;stroke:#5c3566;stroke-width:9.53683;stroke-linecap:round;stroke-linejoin:round;stroke-dasharray:none"
       d="m -74.4589,74.1519 c -3.7914,-1.1105 -7.2364,-2.7382 -10.1382,-4.7901"
       transform="matrix(0.14828975,0.14828975,-0.14828975,0.14828975,28.030253,35.969756)"
       id="path9" /><path
       style="fill:#ad7fa8;stroke:#5c3566;stroke-width:9.53683;stroke-linecap:round;stroke-linejoin:round;stroke-dasharray:none"
       d="m 74.4589,74.1519 c -3.7915,1.1105 -7.8551,1.682 -11.9589,1.682"
       transform="matrix(0.14828975,0.14828975,-0.14828975,0.14828975,28.030253,35.969756)"
       id="path6" /><path
       id="path52"
       style="fill:#ad7fa8;stroke:#5c3566;stroke-width:9.53683;stroke-linecap:round;stroke-linejoin:round;stroke-dasharray:none"
       transform="matrix(0.14828975,0.14828975,-0.14828975,0.14828975,28.030253,35.969756)"
       d="m 164.876,-57.1134 -22.097,-15.625 m -307.655,15.625 22.097,-15.625 M 84.5971,69.3618 c -2.9018,2.0519 -6.3468,3.6796 -10.1382,4.7901 M -62.5,75.8339 c -4.1038,0 -8.1674,-0.5715 -11.9589,-1.682 m 159.056,-4.7901 44.1939,-31.25 m -213.3881,31.25 -44.1939,-31.25 m 257.582,0 c 16.517,-11.679 31.655,-31.59343 39.248,-51.6303 7.593,-20.037 6.373,-36.852 -3.163,-43.5949 m -293.667,95.2252 c -16.517,-11.679 -31.655,-31.59343 -39.248,-51.6303 -7.593,-20.037 -6.373,-36.852 3.163,-43.5949 m 271.57,-8.7881 -44.194,31.25 m 80.279,-38.0869 c -8.284,-5.8571 -21.738,-3.3079 -36.085,6.8369 m -213.388,0 44.194,31.25 m -80.279,-38.0869 c 8.284,-5.8571 21.738,-3.3079 36.085,6.8369 m 169.194,31.25 h -125 m 0,110.4854 h 125" /></g><path
     id="path38"
     style="display:inline;fill:none;stroke:#5c3566;stroke-width:9.53683;stroke-linecap:round;stroke-linejoin:round;stroke-dasharray:none"
     transform="matrix(0.14828975,0.14828975,-0.14828975,0.14828975,28.030253,35.969756)"
     d="M 86.4869,6.87004 C 92.711,11.2711 103.917,7.10807 114.191,-3.42212 124.465,-13.9523 131.443,-28.427 131.443,-39.2073 m -4.542,-11.0774 c -7.891,-5.5801 -23.335,2.6909 -34.4955,18.4737 -11.1602,15.7829 -13.81,33.10096 -5.9186,38.68104 M 131.443,-39.2073 c 0,-5.1179 -1.587,-8.988 -4.542,-11.0774 M -34.999998,9.54266 c 0,13.66834 15.67,24.74874 34.9999996858887,24.74874 C 19.330002,34.2914 35.000002,23.211 35.000002,9.54266 m 0,0 c 0,-13.66835 -15.67,-24.74876 -35.0000003141113,-24.74876 C -19.329998,-15.2061 -34.999998,-4.12569 -34.999998,9.54266 m -51.4869,-2.67262 C -92.710998,11.2711 -103.917,7.10807 -114.191,-3.42212 -124.465,-13.9523 -131.443,-28.427 -131.443,-39.2073 m 4.542,-11.0774 c 7.891,-5.5801 23.335,2.6909 34.495502,18.4737 11.1602,15.7829 13.81,33.10096 5.9186,38.68104 M -131.443,-39.2073 c 0,-5.1179 1.587,-8.988 4.542,-11.0774"
     inkscape:label="holes" /></svg>
