<?xml version="1.0" encoding="UTF-8" standalone="no"?>
<!-- Created with Inkscape (http://www.inkscape.org/) -->

<svg
   width="64"
   height="64"
   viewBox="0 0 64 64"
   version="1.1"
   id="svg1"
   inkscape:version="1.4 (e7c3feb100, 2024-10-09)"
   sodipodi:docname="STR_STD_CRS.svg"
   xml:space="preserve"
   xmlns:inkscape="http://www.inkscape.org/namespaces/inkscape"
   xmlns:sodipodi="http://sodipodi.sourceforge.net/DTD/sodipodi-0.dtd"
   xmlns:xlink="http://www.w3.org/1999/xlink"
   xmlns="http://www.w3.org/2000/svg"
   xmlns:svg="http://www.w3.org/2000/svg"
   xmlns:rdf="http://www.w3.org/1999/02/22-rdf-syntax-ns#"
   xmlns:cc="http://creativecommons.org/ns#"
   xmlns:dc="http://purl.org/dc/elements/1.1/"><title
     id="title4">Brace - Straight - Standard - Cross</title><sodipodi:namedview
     id="namedview1"
     pagecolor="#323232"
     bordercolor="#ffffff"
     borderopacity="1"
     inkscape:showpageshadow="0"
     inkscape:pageopacity="0"
     inkscape:pagecheckerboard="1"
     inkscape:deskcolor="#191919"
     inkscape:document-units="px"
     showgrid="true"
     inkscape:zoom="8"
     inkscape:cx="28.875"
     inkscape:cy="27.3125"
     inkscape:window-width="1894"
     inkscape:window-height="999"
     inkscape:window-x="0"
     inkscape:window-y="0"
     inkscape:window-maximized="1"
     inkscape:current-layer="svg1"
     showguides="true"
     inkscape:lockguides="false"
     guidecolor="#ffff00"
     guideopacity="0.6"
     guidehicolor="#ff00ff"
     guidehiopacity="0.50196078"><inkscape:grid
       id="grid1"
       units="px"
       originx="0"
       originy="0"
       spacingx="2"
       spacingy="2"
       empcolor="#0099e5"
       empopacity="0.30196078"
       color="#0099e5"
       opacity="0.14901961"
       empspacing="4"
       enabled="true"
       visible="true" /><sodipodi:guide
       position="-2,62"
       orientation="0,1"
       id="guide5"
       inkscape:locked="false"
       inkscape:label="top margin"
       inkscape:color="rgb(255,255,0)" /><sodipodi:guide
       position="64,2"
       orientation="0,1"
       id="guide6"
       inkscape:locked="false"
       inkscape:label="bottom margin"
       inkscape:color="rgb(255,255,0)" /><sodipodi:guide
       position="2,-2"
       orientation="-1,0"
       id="guide7"
       inkscape:locked="false"
       inkscape:label="right margin"
       inkscape:color="rgb(255,255,0)" /><sodipodi:guide
       position="62,64"
       orientation="-1,0"
       id="guide8"
       inkscape:locked="false"
       inkscape:label="left margin"
       inkscape:color="rgb(255,255,0)" /><sodipodi:guide
       position="64,64"
       orientation="0.70710678,-0.70710678"
       id="guide1"
       inkscape:locked="false" /><sodipodi:guide
       position="0,64"
       orientation="0.70710678,0.70710678"
       id="guide2"
       inkscape:label=""
       inkscape:locked="false"
       inkscape:color="rgb(255,255,0)" /></sodipodi:namedview><defs
     id="defs1"><linearGradient
       id="linearGradient28"
       inkscape:collect="always"><stop
         style="stop-color:#ad7fa8;stop-opacity:1;"
         offset="0"
         id="stop28" /><stop
         style="stop-color:#75507b;stop-opacity:1;"
         offset="1"
         id="stop31" /></linearGradient><marker
       id="DistanceX"
       orient="auto"
       refX="0.0"
       refY="0.0"
       style="overflow:visible"><path
         d="M 3,-3 L -3,3 M 0,-5 L  0,5"
         style="stroke:#000000; stroke-width:0.5"
         id="path1-36" /></marker><pattern
       id="Hatch"
       patternUnits="userSpaceOnUse"
       width="8"
       height="8"
       x="0"
       y="0"><path
         d="M8 4 l-4,4"
         stroke="#000000"
         stroke-width="0.25"
         linecap="square"
         id="path2-7" /><path
         d="M6 2 l-4,4"
         stroke="#000000"
         stroke-width="0.25"
         linecap="square"
         id="path3" /><path
         d="M4 0 l-4,4"
         stroke="#000000"
         stroke-width="0.25"
         linecap="square"
         id="path4" /></pattern><symbol
       id="*MODEL_SPACE" /><symbol
       id="*PAPER_SPACE" /><linearGradient
       inkscape:collect="always"
       xlink:href="#linearGradient28"
       id="linearGradient31"
       x1="13.39423"
       y1="14.137394"
       x2="49.172176"
       y2="49.91534"
       gradientUnits="userSpaceOnUse" /></defs><metadata
     id="metadata1"><rdf:RDF><cc:Work
         rdf:about=""><cc:license
           rdf:resource="http://creativecommons.org/licenses/by-nc-sa/4.0/" /><dc:creator><cc:Agent><dc:title>hasecilu</dc:title></cc:Agent></dc:creator><dc:subject><rdf:Bag><rdf:li>FreeCAD</rdf:li><rdf:li>command</rdf:li></rdf:Bag></dc:subject><dc:description>Template file to create icons for FreeCAD commands.</dc:description><dc:date>2024</dc:date><dc:rights><cc:Agent><dc:title>FreeCAD LGPL2+</dc:title></cc:Agent></dc:rights><dc:identifier>FreeCAD/src/</dc:identifier><dc:publisher><cc:Agent><dc:title>FreeCAD</dc:title></cc:Agent></dc:publisher><dc:relation>https://wiki.freecad.org/Artwork</dc:relation><dc:title>Brace - Straight - Standard - Cross</dc:title></cc:Work><cc:License
         rdf:about="http://creativecommons.org/licenses/by-nc-sa/4.0/"><cc:permits
           rdf:resource="http://creativecommons.org/ns#Reproduction" /><cc:permits
           rdf:resource="http://creativecommons.org/ns#Distribution" /><cc:requires
           rdf:resource="http://creativecommons.org/ns#Notice" /><cc:requires
           rdf:resource="http://creativecommons.org/ns#Attribution" /><cc:prohibits
           rdf:resource="http://creativecommons.org/ns#CommercialUse" /><cc:permits
           rdf:resource="http://creativecommons.org/ns#DerivativeWorks" /><cc:requires
           rdf:resource="http://creativecommons.org/ns#ShareAlike" /></cc:License></rdf:RDF></metadata><path
     id="path16"
     style="fill:#ad7fa8;stroke:#5c3566;stroke-width:2.39412;stroke-linejoin:round;stroke-dasharray:none;stroke-opacity:1"
     d="M 56.546164,7.4538338 C 51.308851,2.2165199 42.731681,2.2165206 37.494366,7.453835 l -5.501114,5.501114 -5.501115,-5.501114 c -5.237313,-5.2373145 -13.814488,-5.2373111 -19.0517988,0 -5.2373091,5.237309 -5.237316,13.814487 -2.4e-6,19.051801 l 5.5011152,5.501114 -5.5011116,5.501112 c -5.2373171,5.237317 -5.2373188,13.814488 -4.8e-6,19.051801 5.2373094,5.237311 13.8144874,5.237316 19.0518044,-10e-7 l 5.501112,-5.501112 5.501111,5.501111 c 5.237314,5.237314 13.814496,5.237311 19.051804,2e-6 5.237311,-5.237311 5.237311,-13.814489 -3e-6,-19.051803 l -5.501111,-5.501111 5.501114,-5.501114 c 5.237315,-5.237315 5.237309,-13.814491 -2e-6,-19.0518012 z m -3.60347,3.6034702 a 6.4817072,6.4817073 45 0 1 0.0017,9.164529 6.4817072,6.4817073 45 0 1 -9.16624,-9.16624 6.4817072,6.4817073 45 0 1 9.164526,0.0017 z m 0.0017,32.734363 a 6.4817067,6.4817068 45 0 1 0.0017,9.167952 6.4827212,6.4827213 45 0 1 -9.167952,-9.167952 6.4817067,6.4817068 45 0 1 9.166236,0 z m -32.737816,-32.7343 a 6.4817067,6.4817068 45 0 1 0.0017,9.164527 6.4827205,6.4827206 45 0 1 -9.167951,-9.16795 6.4817067,6.4817068 45 0 1 9.166237,0.0035 z M 36.57288,27.423694 a 6.4817067,6.4817068 45 0 1 0.0017,9.164524 6.4817067,6.4817068 45 0 1 -9.166235,-9.166235 6.4817067,6.4817068 45 0 1 9.164523,0.0017 z M 20.204908,43.795223 a 6.4817072,6.4817073 45 0 1 0.0035,9.162817 6.4817072,6.4817073 45 0 1 -9.16624,-9.16624 6.4817072,6.4817073 45 0 1 9.162814,0.0035 z"
     inkscape:label="main" /><path
     id="path22"
     style="fill:url(#linearGradient31);fill-opacity:1;stroke:none;stroke-width:2;stroke-linejoin:round;stroke-dasharray:none;stroke-opacity:1"
     inkscape:label="gradient"
     sodipodi:type="inkscape:offset"
     inkscape:radius="-2.2921343"
     inkscape:original="M 31.994141 3 C 25.806744 3 20.740234 8.0665092 20.740234 14.253906 L 20.740234 20.751953 L 14.240234 20.751953 C 8.0528372 20.751953 2.9863281 25.818466 2.9863281 32.005859 C 2.9863281 38.193251 8.0528372 43.259766 14.240234 43.259766 L 20.740234 43.259766 L 20.740234 49.759766 C 20.740234 55.947167 25.806744 61.013672 31.994141 61.013672 C 38.181534 61.013672 43.248047 55.947167 43.248047 49.759766 L 43.248047 43.259766 L 49.746094 43.259766 C 55.933492 43.259766 61 38.193251 61 32.005859 C 61 25.818466 55.933492 20.751953 49.746094 20.751953 L 43.248047 20.751953 L 43.248047 14.253906 C 43.248047 8.0665092 38.181534 3 31.994141 3 z M 31.994141 7.2578125 A 5.4146924 5.4146925 0 0 1 37.408203 12.669922 A 5.4146924 5.4146925 0 0 1 26.578125 12.669922 A 5.4146924 5.4146925 0 0 1 31.994141 7.2578125 z M 51.330078 26.591797 A 5.414692 5.4146921 0 0 1 56.748047 32.005859 A 5.4155395 5.4155396 0 0 1 45.916016 32.005859 A 5.414692 5.4146921 0 0 1 51.330078 26.591797 z M 12.65625 26.59375 A 5.414692 5.4146921 0 0 1 18.070312 32.005859 A 5.4155389 5.415539 0 0 1 7.2402344 32.005859 A 5.414692 5.4146921 0 0 1 12.65625 26.59375 z M 31.992188 26.59375 A 5.414692 5.4146921 0 0 1 37.40625 32.005859 A 5.414692 5.4146921 0 0 1 26.576172 32.005859 A 5.414692 5.4146921 0 0 1 31.992188 26.59375 z M 31.994141 45.933594 A 5.4146924 5.4146925 0 0 1 37.408203 51.34375 A 5.4146924 5.4146925 0 0 1 26.578125 51.34375 A 5.4146924 5.4146925 0 0 1 31.994141 45.933594 z "
     d="m 37.628906,7.4511719 c 0.341246,0.301287 0.09504,-0.074312 0.771485,0.9375 0.841132,1.2581507 0.133269,-0.065998 0.71289,1.3320312 0.579621,1.3980299 0.141648,-0.038911 0.4375,1.4453129 0.295852,1.484223 0.149669,-0.01147 0.150391,1.501953 a 2.2923635,2.2923635 0 0 1 0,0.002 c 0,2.017733 -0.83106,4.022466 -2.257813,5.449219 -1.426752,1.426753 -3.433438,2.257812 -5.451172,2.257812 -2.017733,0 -4.022465,-0.831059 -5.449218,-2.257812 -1.426753,-1.426753 -2.257813,-3.431486 -2.257813,-5.449219 a 2.2923635,2.2923635 0 0 1 0,-0.002 c 7.22e-4,-1.513307 -0.145505,-0.01786 0.150391,-1.501953 0.295896,-1.4840968 -0.142203,-0.04744 0.4375,-1.4453129 0.579703,-1.3978702 -0.128348,-0.074091 0.71289,-1.3320312 0.671263,-1.003768 0.439557,-0.6457378 0.765625,-0.9316407 -1.98062,1.6460865 -3.318359,4.0303648 -3.318359,6.7968748 v 6.498047 a 2.2923635,2.2923635 0 0 1 -2.292969,2.292969 h -6.5 c -2.76651,0 -5.1507881,1.337738 -6.7968746,3.318359 0.2857364,-0.325463 -0.072402,-0.09327 0.9316406,-0.763672 1.2585472,-0.84033 -0.066257,-0.134196 1.3320313,-0.71289 1.3982877,-0.578694 -0.037044,-0.142675 1.4472657,-0.4375 1.484309,-0.294826 -0.01135,-0.148808 1.501953,-0.148438 1.513422,1.76e-4 0.01958,-0.146879 1.503906,0.148438 1.48433,0.295316 0.04707,-0.139664 1.445313,0.439453 1.398238,0.579117 0.07358,-0.129741 1.332031,0.710937 1.258454,0.840679 0.09567,-0.110973 1.166016,0.958985 1.070344,1.069958 0.117851,-0.09213 0.958984,1.166015 0.841133,1.258151 0.133269,-0.066 0.712891,1.332032 0.579621,1.398029 0.141648,-0.03891 0.4375,1.445312 0.295852,1.484223 0.149668,-0.01147 0.15039,1.501953 a 2.2923635,2.2923635 0 0 1 -0.002,0.0332 c -0.05532,4.070269 -3.636387,7.603516 -7.707031,7.603516 -2.8236116,0 -5.3307859,-1.752449 -6.669922,-4.152344 1.363593,3.214641 4.553762,5.478516 8.255859,5.478516 h 6.5 a 2.2923635,2.2923635 0 0 1 2.292969,2.292969 v 6.5 c 0,2.793734 1.366573,5.194197 3.380859,6.839843 -1.326922,-1.413782 -2.128906,-3.31615 -2.128906,-5.255859 a 2.2923635,2.2923635 0 0 1 0,-0.002 c 0.0013,-1.513422 -0.145997,-0.01784 0.150391,-1.501953 0.296387,-1.484117 -0.140673,-0.04749 0.439453,-1.445313 0.580126,-1.39782 -0.128696,-0.07418 0.712891,-1.332031 0.841586,-1.257847 -0.111746,-0.09644 0.958984,-1.166016 1.07073,-1.069571 -0.09079,-0.11876 1.167969,-0.958984 1.258757,-0.840224 -0.06642,-0.132325 1.332031,-0.710938 1.398447,-0.578612 -0.03912,-0.142719 1.445312,-0.4375 1.484437,-0.29478 -0.01147,-0.148807 1.501954,-0.148437 1.513538,1.76e-4 0.0175,-0.146834 1.501953,0.148437 1.484457,0.295272 0.04691,-0.139581 1.445312,0.439454 1.398398,0.579034 0.07337,-0.129636 1.332031,0.710937 1.258665,0.840573 0.09735,-0.112815 1.167969,0.957031 1.07062,1.069847 0.117504,-0.09009 0.958985,1.167969 0.84148,1.258057 0.130893,-0.0679 0.710937,1.330078 0.580044,1.39798 0.14311,-0.03893 0.439453,1.445313 0.296344,1.484243 0.149123,-0.01158 0.150391,1.501953 a 2.2923635,2.2923635 0 0 1 0,0.002 c 0,1.940618 -0.80279,3.843851 -2.13086,5.257812 2.016214,-1.645608 3.384766,-4.046508 3.384766,-6.841796 v -6.5 a 2.2923635,2.2923635 0 0 1 2.292969,-2.292969 h 6.498047 c 2.791785,0 5.190244,-1.365079 6.835937,-3.376953 -1.413388,1.323478 -3.312913,2.125 -5.25,2.125 -2.017989,0 -4.024238,-0.830879 -5.451172,-2.257813 -1.426933,-1.426933 -2.257812,-3.433183 -2.257812,-5.451172 1.76e-4,-1.513306 -0.146924,-0.0197 0.148437,-1.503906 0.295361,-1.484203 -0.139745,-0.04723 0.439453,-1.445312 0.579199,-1.39808 -0.129847,-0.07379 0.710938,-1.332032 0.840785,-1.258244 -0.111085,-0.0979 0.958984,-1.167968 1.07007,-1.07007 -0.09027,-0.1182 1.167969,-0.958985 1.258244,-0.840784 -0.06605,-0.131739 1.332031,-0.710937 1.39808,-0.579199 -0.03889,-0.144092 1.445313,-0.439453 1.482294,-0.294981 -0.0017,-0.14864 1.501953,-0.148438 h 0.002 c 1.503415,-0.0013 0.0197,-0.145563 1.501953,0.148438 1.484162,0.294378 0.04909,-0.140854 1.447266,0.4375 1.398178,0.578353 0.07555,-0.127198 1.333984,0.71289 0.997078,0.665618 0.652924,0.445192 0.925781,0.757813 -1.646109,-1.976788 -4.029566,-3.310547 -6.792968,-3.310547 h -6.498047 a 2.2923635,2.2923635 0 0 1 -2.292969,-2.292969 v -6.498047 c 0,-2.770011 -1.341231,-5.1566799 -3.326172,-6.8027341 z M 31.992187,24.300781 c 1.513423,1.76e-4 0.01958,-0.146879 1.503907,0.148438 1.48433,0.295316 0.04707,-0.139664 1.445312,0.439453 1.398239,0.579117 0.07358,-0.129741 1.332031,0.710937 1.258454,0.840679 0.09567,-0.110973 1.166016,0.958985 1.070344,1.069958 0.117852,-0.09213 0.958984,1.166015 0.841133,1.258151 0.13327,-0.066 0.712891,1.332032 0.579621,1.398029 0.141648,-0.03891 0.4375,1.445312 0.295852,1.484223 0.149669,-0.01147 0.150391,1.501953 a 2.2923635,2.2923635 0 0 1 0,0.002 c 0,2.017734 -0.83106,4.022466 -2.257813,5.449219 -1.426753,1.426753 -3.431485,2.257813 -5.449219,2.257813 -2.017733,0 -4.024419,-0.83106 -5.451171,-2.257813 -1.426753,-1.426753 -2.257813,-3.431485 -2.257813,-5.449219 a 2.2923635,2.2923635 0 0 1 0,-0.002 c 7.22e-4,-1.513306 -0.145506,-0.01786 0.150391,-1.501953 0.295896,-1.484096 -0.142203,-0.04744 0.4375,-1.445312 0.579703,-1.39787 -0.128348,-0.07409 0.71289,-1.332032 0.841239,-1.25794 -0.111471,-0.09829 0.958985,-1.167968 1.070455,-1.069683 -0.09058,-0.116701 1.167968,-0.957032 1.258548,-0.84033 -0.06626,-0.134196 1.332032,-0.71289 1.398288,-0.578694 -0.03704,-0.142675 1.447265,-0.4375 1.48431,-0.294825 -0.01135,-0.148808 1.501953,-0.148438 z"
     transform="matrix(0.84644866,0.84644866,-0.84644866,0.84644866,32.004677,-22.165965)" /></svg>
