<?xml version="1.0" encoding="UTF-8" standalone="no"?>
<!-- Created with Inkscape (http://www.inkscape.org/) -->

<svg
   width="64"
   height="64"
   viewBox="0 0 64 64"
   version="1.1"
   id="svg1"
   inkscape:version="1.4 (e7c3feb100, 2024-10-09)"
   sodipodi:docname="STR_BEM.svg"
   xml:space="preserve"
   xmlns:inkscape="http://www.inkscape.org/namespaces/inkscape"
   xmlns:sodipodi="http://sodipodi.sourceforge.net/DTD/sodipodi-0.dtd"
   xmlns:xlink="http://www.w3.org/1999/xlink"
   xmlns="http://www.w3.org/2000/svg"
   xmlns:svg="http://www.w3.org/2000/svg"
   xmlns:rdf="http://www.w3.org/1999/02/22-rdf-syntax-ns#"
   xmlns:cc="http://creativecommons.org/ns#"
   xmlns:dc="http://purl.org/dc/elements/1.1/"><title
     id="title4">Beam - Straight - Block</title><sodipodi:namedview
     id="namedview1"
     pagecolor="#323232"
     bordercolor="#ffffff"
     borderopacity="1"
     inkscape:showpageshadow="0"
     inkscape:pageopacity="0"
     inkscape:pagecheckerboard="1"
     inkscape:deskcolor="#191919"
     inkscape:document-units="px"
     showgrid="true"
     inkscape:zoom="5.6568543"
     inkscape:cx="26.516504"
     inkscape:cy="27.842329"
     inkscape:window-width="1894"
     inkscape:window-height="999"
     inkscape:window-x="0"
     inkscape:window-y="0"
     inkscape:window-maximized="1"
     inkscape:current-layer="svg1"
     showguides="true"
     inkscape:lockguides="false"
     guidecolor="#ffff00"
     guideopacity="0.6"
     guidehicolor="#ff00ff"
     guidehiopacity="0.50196078"><inkscape:grid
       id="grid1"
       units="px"
       originx="0"
       originy="0"
       spacingx="2"
       spacingy="2"
       empcolor="#0099e5"
       empopacity="0.30196078"
       color="#0099e5"
       opacity="0.14901961"
       empspacing="4"
       enabled="true"
       visible="true" /><sodipodi:guide
       position="-2,62"
       orientation="0,1"
       id="guide5"
       inkscape:locked="false"
       inkscape:label="top margin"
       inkscape:color="rgb(255,255,0)" /><sodipodi:guide
       position="64,2"
       orientation="0,1"
       id="guide6"
       inkscape:locked="false"
       inkscape:label="bottom margin"
       inkscape:color="rgb(255,255,0)" /><sodipodi:guide
       position="2,-2"
       orientation="-1,0"
       id="guide7"
       inkscape:locked="false"
       inkscape:label="right margin"
       inkscape:color="rgb(255,255,0)" /><sodipodi:guide
       position="62,64"
       orientation="-1,0"
       id="guide8"
       inkscape:locked="false"
       inkscape:label="left margin"
       inkscape:color="rgb(255,255,0)" /><sodipodi:guide
       position="64,64"
       orientation="0.70710678,-0.70710678"
       id="guide1"
       inkscape:locked="false" /><sodipodi:guide
       position="0,64"
       orientation="0.70710678,0.70710678"
       id="guide2"
       inkscape:label=""
       inkscape:locked="false"
       inkscape:color="rgb(255,255,0)" /></sodipodi:namedview><defs
     id="defs1"><linearGradient
       id="linearGradient1"
       inkscape:collect="always"><stop
         style="stop-color:#729fcf;stop-opacity:1;"
         offset="0"
         id="stop1" /><stop
         style="stop-color:#3465a4;stop-opacity:1;"
         offset="1"
         id="stop2" /></linearGradient><marker
       id="DistanceX"
       orient="auto"
       refX="0.0"
       refY="0.0"
       style="overflow:visible"><path
         d="M 3,-3 L -3,3 M 0,-5 L  0,5"
         style="stroke:#000000; stroke-width:0.5"
         id="path1-36" /></marker><pattern
       id="Hatch"
       patternUnits="userSpaceOnUse"
       width="8"
       height="8"
       x="0"
       y="0"><path
         d="M8 4 l-4,4"
         stroke="#000000"
         stroke-width="0.25"
         linecap="square"
         id="path2-7" /><path
         d="M6 2 l-4,4"
         stroke="#000000"
         stroke-width="0.25"
         linecap="square"
         id="path3" /><path
         d="M4 0 l-4,4"
         stroke="#000000"
         stroke-width="0.25"
         linecap="square"
         id="path4" /></pattern><symbol
       id="*MODEL_SPACE" /><symbol
       id="*PAPER_SPACE" /><marker
       id="DistanceX-3"
       orient="auto"
       refX="0.0"
       refY="0.0"
       style="overflow:visible"><path
         d="M 3,-3 L -3,3 M 0,-5 L  0,5"
         style="stroke:#000000; stroke-width:0.5"
         id="path1-6" /></marker><pattern
       id="Hatch-7"
       patternUnits="userSpaceOnUse"
       width="8"
       height="8"
       x="0"
       y="0"><path
         d="M8 4 l-4,4"
         stroke="#000000"
         stroke-width="0.25"
         linecap="square"
         id="path2" /><path
         d="M6 2 l-4,4"
         stroke="#000000"
         stroke-width="0.25"
         linecap="square"
         id="path3-5" /><path
         d="M4 0 l-4,4"
         stroke="#000000"
         stroke-width="0.25"
         linecap="square"
         id="path4-3" /></pattern><symbol
       id="*MODEL_SPACE-5" /><symbol
       id="*PAPER_SPACE-6" /><linearGradient
       inkscape:collect="always"
       xlink:href="#linearGradient1"
       id="linearGradient40"
       x1="5.7624207"
       y1="31.999994"
       x2="58.237587"
       y2="31.999994"
       gradientUnits="userSpaceOnUse" /></defs><metadata
     id="metadata1"><rdf:RDF><cc:Work
         rdf:about=""><cc:license
           rdf:resource="http://creativecommons.org/licenses/by-nc-sa/4.0/" /><dc:creator><cc:Agent><dc:title>hasecilu</dc:title></cc:Agent></dc:creator><dc:subject><rdf:Bag><rdf:li>FreeCAD</rdf:li><rdf:li>command</rdf:li></rdf:Bag></dc:subject><dc:description>Template file to create icons for FreeCAD commands.</dc:description><dc:date>2024</dc:date><dc:rights><cc:Agent><dc:title>FreeCAD LGPL2+</dc:title></cc:Agent></dc:rights><dc:identifier>FreeCAD/src/</dc:identifier><dc:publisher><cc:Agent><dc:title>FreeCAD</dc:title></cc:Agent></dc:publisher><dc:relation>https://wiki.freecad.org/Artwork</dc:relation><dc:title>Beam - Straight - Block</dc:title></cc:Work><cc:License
         rdf:about="http://creativecommons.org/licenses/by-nc-sa/4.0/"><cc:permits
           rdf:resource="http://creativecommons.org/ns#Reproduction" /><cc:permits
           rdf:resource="http://creativecommons.org/ns#Distribution" /><cc:requires
           rdf:resource="http://creativecommons.org/ns#Notice" /><cc:requires
           rdf:resource="http://creativecommons.org/ns#Attribution" /><cc:prohibits
           rdf:resource="http://creativecommons.org/ns#CommercialUse" /><cc:permits
           rdf:resource="http://creativecommons.org/ns#DerivativeWorks" /><cc:requires
           rdf:resource="http://creativecommons.org/ns#ShareAlike" /></cc:License></rdf:RDF></metadata><path
     style="display:inline;fill:#729fcf;fill-opacity:1;stroke:#204a87;stroke-width:2;stroke-linecap:round;stroke-linejoin:round;stroke-opacity:1"
     d="M 6.7624208,20.744748 V 51.012762 L 38.76242,61.609701 57.237588,43.255242 V 12.987228 L 25.237589,2.3902892 Z"
     id="path35"
     inkscape:label="main" /><path
     id="path39"
     style="display:inline;fill:url(#linearGradient40);fill-opacity:1;stroke:none;stroke-width:2;stroke-linecap:round;stroke-linejoin:round;stroke-opacity:1"
     inkscape:label="gradient"
     sodipodi:type="inkscape:offset"
     inkscape:radius="-2.8405337"
     inkscape:original="M 25.238281 2.390625 L 6.7617188 20.744141 L 6.7617188 51.013672 L 38.761719 61.609375 L 57.238281 43.255859 L 57.238281 12.986328 L 25.238281 2.390625 z "
     d="M 26.001953,5.6367187 9.6015625,21.925781 v 27.03711 l 28.3964845,9.402343 16.40039,-16.291015 v -27.03711 z" /><g
     id="g38"
     inkscape:label="holes"
     style="display:inline"><path
       id="path62"
       d="m -141.294,70.5345 c 5.689,-5.6522 14.877,-7.0827 24.667,-3.8406 m 24.668,53.5001 c -9.728,9.665 -28.658,6.383 -42.282,-7.33 -13.623,-13.7135 -16.781,-32.6649 -7.053,-42.3295 m 24.667,-3.8406 c 11.354,3.7597 21.7552,13.2055 26.951,24.4743 5.1958,11.2688 4.3146,22.4708 -2.283,29.0258"
       style="fill:none;fill-opacity:1;stroke:#204a87;stroke-width:13.5316;stroke-dasharray:none;stroke-opacity:1"
       transform="matrix(0.1478017,0,0,0.1478017,32.000005,31.999995)" /><path
       id="path65"
       d="m -141.294,-31.8594 c 5.689,-5.6523 14.877,-7.0828 24.668,-3.8406 m 24.667,53.5 c -9.728,9.6646 -28.658,6.3826 -42.282,-7.3304 -13.623,-13.7131 -16.781,-32.6644 -7.053,-42.329 m 24.668,-3.8406 c 11.353,3.7597 21.7542,13.2054 26.95,24.4742 5.1958,11.2689035 4.3147,22.4712 -2.283,29.0258"
       style="fill:none;fill-opacity:1;stroke:#204a87;stroke-width:13.5316;stroke-dasharray:none;stroke-opacity:1"
       transform="matrix(0.1478017,0,0,0.1478017,32.000005,31.999995)" /><path
       id="path68"
       d="m -33.0408,106.383 c 5.6895,-5.652 14.8771,-7.0827 24.66753,-3.841 m 24.66747,53.5 c -9.72814,9.665 -28.6584,6.383 -42.2819,-7.33 -13.6234,-13.713 -16.7812,-32.664 -7.0531,-42.329 m 24.66753,-3.841 c 11.35332,3.76 21.75467,13.206 26.95047,24.475 5.1958,11.269 4.3147,22.471 -2.283,29.025"
       style="fill:none;fill-opacity:1;stroke:#204a87;stroke-width:13.5316;stroke-dasharray:none;stroke-opacity:1"
       transform="matrix(0.1478017,0,0,0.1478017,32.000005,31.999995)" /><path
       id="path71"
       d="m -33.0407,3.98909 c 5.6894,-5.65229 14.877,-7.08274 24.66748,-3.840593 M 16.2943,53.6485 C 6.56611,63.3131 -12.3641,60.0312 -25.9876,46.3181 -39.6111,32.605 -42.7689,13.6537 -33.0407,3.98909 M -8.37322,0.148497 C 2.9801,3.90819 13.3815,13.3539 18.5773,24.6228 23.773,35.8916 22.8919,47.094 16.2943,53.6485"
       style="fill:none;fill-opacity:1;stroke:#204a87;stroke-width:13.5316;stroke-dasharray:none;stroke-opacity:1"
       transform="matrix(0.1478017,0,0,0.1478017,32.000005,31.999995)" /><path
       id="path76"
       d="m -120.377,-89.2725 c 0,9.0862 10.64,17.0395 25.9418,19.3912 15.3015,2.3517 31.449,-1.4847 39.3696,-9.3536 m 4.6891,-10.0375 c 0,-11.0876 -15.67,-20.0756 -35,-20.0756 -19.3295,0 -35.0005,8.988 -35.0005,20.0755 m 65.3114,10.0376 c 3.0719,-3.0518 4.6891,-6.5136 4.6891,-10.0375"
       style="fill:none;fill-opacity:1;stroke:#204a87;stroke-width:13.5316;stroke-dasharray:none;stroke-opacity:1"
       transform="matrix(0.1478017,0,0,0.1478017,32.000005,31.999995)" /><path
       id="path79"
       d="m -12.1233,-53.424 c 0,9.0862 10.63995,17.0395 25.9414,19.3912 15.3014,2.3517 31.449,-1.4847 39.3695,-9.3536 m 4.6891,-10.0375 c 0,-11.0872 -15.67,-20.0752 -35,-20.0752 -19.32992,0 -35,8.9879 -35,20.0751 m 65.3109,10.0376 c 3.0719,-3.0518 4.6891,-6.5136 4.6891,-10.0375"
       style="fill:none;fill-opacity:1;stroke:#204a87;stroke-width:13.5316;stroke-dasharray:none;stroke-opacity:1"
       transform="matrix(0.1478017,0,0,0.1478017,32.000005,31.999995)" /><path
       id="path82"
       d="m -57.8766,-151.364 c 0,9.086 10.6399,17.039 25.9413,19.391 15.3014,2.352 31.448988,-1.485 39.36958,-9.353 m 4.68912,-10.038 c 0,-11.087 -15.67006,-20.075 -35,-20.075 -19.33,0 -35,8.988 -35,20.075 m 65.31088,10.038 c 3.07192,-3.052 4.68912,-6.514 4.68912,-10.038 m -7.36659,12.32 c 0.98246,-0.724 1.87705,-1.487 2.67747,-2.282 3.07192,-3.052 4.68912,-6.514 4.68912,-10.038 0,-11.087 -15.67006,-20.075 -35,-20.075 -19.33,0 -35,8.988 -35,20.075 m 65.31088,10.038 c 3.07192,-3.052 4.68912,-6.514 4.68912,-10.038 0,-11.087 -15.67006,-20.075 -35,-20.075 -19.33,0 -35,8.988 -35,20.075 0,8.24477 8.860467,15.74112 22.432,18.736 4.828,1.066 10.0078,1.504 15.1665,1.284 4.181269,-0.17882 19.0882241,-1.41624 27.71238,-9.982"
       sodipodi:nodetypes="csccscccccssccsssccc"
       style="fill:none;fill-opacity:1;stroke:#204a87;stroke-width:13.5316;stroke-dasharray:none;stroke-opacity:1"
       transform="matrix(0.1478017,0,0,0.1478017,32.000005,31.999995)" /><path
       id="path85"
       d="m 50.3766,-115.515 c 0,9.086 10.6399,17.039 25.9414,19.3907 15.3014,2.3516 31.449,-1.4848 39.37,-9.3537 m 4.689,-10.037 c 0,-11.088 -15.67,-20.076 -35.0004,-20.076 -19.3299,0 -35,8.988 -35,20.076 m 65.3114,10.037 c 3.071,-3.052 4.689,-6.514 4.689,-10.037 m -4.689,10.037 c 3.071,-3.052 4.689,-6.514 4.689,-10.037 0,-11.088 -15.67,-20.076 -35.0004,-20.076 -19.3299,0 -35,8.988 -35,20.076 m 65.3114,10.037 c 3.071,-3.052 4.689,-6.514 4.689,-10.037 0,-11.088 -15.67,-20.076 -35.0004,-20.076 -19.3299,0 -35,8.988 -35,20.076 0,8.2382 8.849941,15.738419 22.4321,18.7358 4.828,1.0654 10.0077,1.5038 15.1665,1.2835 4.226216,-0.180447 19.08958,-1.423676 27.7128,-9.9823"
       sodipodi:nodetypes="ccccsccccssccsssccc"
       style="fill:none;fill-opacity:1;stroke:#204a87;stroke-width:13.5316;stroke-dasharray:none;stroke-opacity:1"
       transform="matrix(0.1478017,0,0,0.1478017,32.000005,31.999995)" /><path
       id="path109"
       d="m 150.506,22.7742 c -3.114,-1.0313 -6.998,0.5765 -11.003,4.5552 M 128.5,89.2253 c 7.516,2.4889 18.535,-10.3691 24.612,-28.7191 6.076,-18.35 4.91,-35.2432 -2.606,-37.732 m -11.003,4.5552 c -7.415,7.367 -14.026,21.5909 -16.498,35.5008 -2.473,13.9099 -0.271,24.4856 5.495,26.3951"
       style="fill:none;fill-opacity:1;stroke:#204a87;stroke-width:13.5316;stroke-dasharray:none;stroke-opacity:1"
       transform="matrix(0.1478017,0,0,0.1478017,32.000005,31.999995)" /><path
       id="path112"
       d="m 150.506,-79.6198 c -3.114,-1.0313 -6.998,0.5766 -11.003,4.5553 M 128.5,-13.1687 c 7.516,2.4889 18.535,-10.3691 24.612,-28.7191 6.076,-18.3499 4.91,-35.2432 -2.606,-37.732 m -11.003,4.5553 c -7.415,7.3669 -14.026,21.5909 -16.498,35.5008 -2.473,13.9099 -0.271,24.4855 5.495,26.395"
       style="fill:none;fill-opacity:1;stroke:#204a87;stroke-width:13.5316;stroke-dasharray:none;stroke-opacity:1"
       transform="matrix(0.1478017,0,0,0.1478017,32.000005,31.999995)" /><path
       id="path115"
       d="m 88.0061,84.8657 c -3.1143,-1.0313 -6.998,0.5766 -11.0028,4.5553 m -11.0028,61.896 c 7.5157,2.489 18.5345,-10.369 24.6111,-28.719 6.0767,-18.35 4.9102,-35.2434 -2.6055,-37.7323 M 77.0033,89.421 c -7.4154,7.3669 -14.0258,21.591 -16.4984,35.501 -2.4727,13.91 -0.2708,24.485 5.4956,26.395"
       style="fill:none;fill-opacity:1;stroke:#204a87;stroke-width:13.5316;stroke-dasharray:none;stroke-opacity:1"
       transform="matrix(0.1478017,0,0,0.1478017,32.000005,31.999995)" /><path
       id="path118"
       d="m 88.0061,-17.5283 c -3.1142,-1.0313 -6.9979,0.5766 -11.0028,4.5553 M 66.0005,48.9229 C 73.5162,51.4117 84.535,38.5537 90.6117,20.2038 96.6884,1.85379 95.5218,-15.0394 88.0061,-17.5283 M 77.0033,-12.973 C 69.5879,-5.60606 62.9776,8.6179 60.5049,22.5278 58.0323,36.4377 60.2342,47.0133 66.0005,48.9229"
       style="fill:none;fill-opacity:1;stroke:#204a87;stroke-width:13.5316;stroke-dasharray:none;stroke-opacity:1"
       transform="matrix(0.1478017,0,0,0.1478017,32.000005,31.999995)" /></g><path
     id="path38"
     style="display:inline;fill:#729fcf;fill-opacity:1;stroke:#204a87;stroke-width:2;stroke-linecap:round;stroke-linejoin:round;stroke-opacity:1"
     d="m 38.76242,61.609701 1.5e-5,-30.268003 M 57.237588,12.987228 38.762435,31.341698 M 6.7624208,20.744748 38.762435,31.341698"
     inkscape:label="strokes" /></svg>
