<?xml version="1.0" encoding="UTF-8" standalone="no"?>
<!-- Created with Inkscape (http://www.inkscape.org/) -->

<svg
   width="64"
   height="64"
   viewBox="0 0 64 64"
   version="1.1"
   id="svg1"
   inkscape:version="1.4 (e7c3feb100, 2024-10-09)"
   sodipodi:docname="STR_STD_TRPL_AZ.svg"
   xml:space="preserve"
   xmlns:inkscape="http://www.inkscape.org/namespaces/inkscape"
   xmlns:sodipodi="http://sodipodi.sourceforge.net/DTD/sodipodi-0.dtd"
   xmlns:xlink="http://www.w3.org/1999/xlink"
   xmlns="http://www.w3.org/2000/svg"
   xmlns:svg="http://www.w3.org/2000/svg"
   xmlns:rdf="http://www.w3.org/1999/02/22-rdf-syntax-ns#"
   xmlns:cc="http://creativecommons.org/ns#"
   xmlns:dc="http://purl.org/dc/elements/1.1/"><title
     id="title4">Brace - Straight - Standard - Triple - Axis Z</title><sodipodi:namedview
     id="namedview1"
     pagecolor="#323232"
     bordercolor="#ffffff"
     borderopacity="1"
     inkscape:showpageshadow="0"
     inkscape:pageopacity="0"
     inkscape:pagecheckerboard="1"
     inkscape:deskcolor="#191919"
     inkscape:document-units="px"
     showgrid="true"
     inkscape:zoom="11.313709"
     inkscape:cx="22.892582"
     inkscape:cy="33.808543"
     inkscape:window-width="1894"
     inkscape:window-height="999"
     inkscape:window-x="0"
     inkscape:window-y="0"
     inkscape:window-maximized="1"
     inkscape:current-layer="svg1"
     showguides="true"
     inkscape:lockguides="false"
     guidecolor="#ffff00"
     guideopacity="0.6"
     guidehicolor="#ff00ff"
     guidehiopacity="0.50196078"><inkscape:grid
       id="grid1"
       units="px"
       originx="0"
       originy="0"
       spacingx="2"
       spacingy="2"
       empcolor="#0099e5"
       empopacity="0.30196078"
       color="#0099e5"
       opacity="0.14901961"
       empspacing="4"
       enabled="true"
       visible="true" /><sodipodi:guide
       position="-2,62"
       orientation="0,1"
       id="guide5"
       inkscape:locked="false"
       inkscape:label="top margin"
       inkscape:color="rgb(255,255,0)" /><sodipodi:guide
       position="64,2"
       orientation="0,1"
       id="guide6"
       inkscape:locked="false"
       inkscape:label="bottom margin"
       inkscape:color="rgb(255,255,0)" /><sodipodi:guide
       position="2,-2"
       orientation="-1,0"
       id="guide7"
       inkscape:locked="false"
       inkscape:label="right margin"
       inkscape:color="rgb(255,255,0)" /><sodipodi:guide
       position="62,64"
       orientation="-1,0"
       id="guide8"
       inkscape:locked="false"
       inkscape:label="left margin"
       inkscape:color="rgb(255,255,0)" /><sodipodi:guide
       position="64,64"
       orientation="0.70710678,-0.70710678"
       id="guide1"
       inkscape:locked="false" /><sodipodi:guide
       position="0,64"
       orientation="0.70710678,0.70710678"
       id="guide2"
       inkscape:label=""
       inkscape:locked="false"
       inkscape:color="rgb(255,255,0)" /><sodipodi:guide
       position="50.78309,50.530689"
       orientation="0,-1"
       id="guide3"
       inkscape:locked="false" /><sodipodi:guide
       position="41.267952,32.001939"
       orientation="1,0"
       id="guide9"
       inkscape:locked="false" /><sodipodi:guide
       position="22.732101,32.001939"
       orientation="1,0"
       id="guide10"
       inkscape:locked="false" /></sodipodi:namedview><defs
     id="defs1"><linearGradient
       id="linearGradient17"
       inkscape:collect="always"
       inkscape:label="Plum gradient"><stop
         style="stop-color:#ad7fa8;stop-opacity:1;"
         offset="0"
         id="stop17" /><stop
         style="stop-color:#75507b;stop-opacity:1;"
         offset="1"
         id="stop18" /></linearGradient><marker
       id="DistanceX"
       orient="auto"
       refX="0.0"
       refY="0.0"
       style="overflow:visible"><path
         d="M 3,-3 L -3,3 M 0,-5 L  0,5"
         style="stroke:#000000; stroke-width:0.5"
         id="path1-36" /></marker><pattern
       id="Hatch"
       patternUnits="userSpaceOnUse"
       width="8"
       height="8"
       x="0"
       y="0"><path
         d="M8 4 l-4,4"
         stroke="#000000"
         stroke-width="0.25"
         linecap="square"
         id="path2-7" /><path
         d="M6 2 l-4,4"
         stroke="#000000"
         stroke-width="0.25"
         linecap="square"
         id="path3" /><path
         d="M4 0 l-4,4"
         stroke="#000000"
         stroke-width="0.25"
         linecap="square"
         id="path4" /></pattern><symbol
       id="*MODEL_SPACE" /><symbol
       id="*PAPER_SPACE" /><inkscape:path-effect
       effect="fill_between_many"
       method="originald"
       linkedpaths="#path33,0,1|"
       id="path-effect8" /><linearGradient
       inkscape:collect="always"
       xlink:href="#linearGradient17"
       id="linearGradient28"
       x1="646.64362"
       y1="632.73846"
       x2="746.28217"
       y2="732.37701"
       gradientUnits="userSpaceOnUse" /></defs><metadata
     id="metadata1"><rdf:RDF><cc:Work
         rdf:about=""><cc:license
           rdf:resource="http://creativecommons.org/licenses/by-nc-sa/4.0/" /><dc:creator><cc:Agent><dc:title>hasecilu</dc:title></cc:Agent></dc:creator><dc:subject><rdf:Bag><rdf:li>FreeCAD</rdf:li><rdf:li>command</rdf:li></rdf:Bag></dc:subject><dc:description>Template file to create icons for FreeCAD commands.</dc:description><dc:date>2024</dc:date><dc:rights><cc:Agent><dc:title>FreeCAD LGPL2+</dc:title></cc:Agent></dc:rights><dc:identifier>FreeCAD/src/</dc:identifier><dc:publisher><cc:Agent><dc:title>FreeCAD</dc:title></cc:Agent></dc:publisher><dc:relation>https://wiki.freecad.org/Artwork</dc:relation><dc:title>Brace - Straight - Standard - Triple - Axis Z</dc:title></cc:Work><cc:License
         rdf:about="http://creativecommons.org/licenses/by-nc-sa/4.0/"><cc:permits
           rdf:resource="http://creativecommons.org/ns#Reproduction" /><cc:permits
           rdf:resource="http://creativecommons.org/ns#Distribution" /><cc:requires
           rdf:resource="http://creativecommons.org/ns#Notice" /><cc:requires
           rdf:resource="http://creativecommons.org/ns#Attribution" /><cc:prohibits
           rdf:resource="http://creativecommons.org/ns#CommercialUse" /><cc:permits
           rdf:resource="http://creativecommons.org/ns#DerivativeWorks" /><cc:requires
           rdf:resource="http://creativecommons.org/ns#ShareAlike" /></cc:License></rdf:RDF></metadata><path
     id="path33"
     style="fill:#ad7fa8;fill-opacity:1;stroke:#5c3566;stroke-width:4.88786;stroke-linejoin:round;stroke-dasharray:none;stroke-opacity:1"
     d="m 649.7977,621.29869 c -13.04342,-0.002 -23.62008,10.56774 -23.62609,23.61116 h 0.0548 c -0.03,0 -0.0548,0.0247 -0.0548,0.0548 v 47.13769 c 0,0.0265 -0.28678,0.0449 0,0.0498 0.0381,6.5e-4 -0.009,0.007 0.0548,0.005 0,15.13248 7.66955,23.61613 23.57133,23.61613 h 94.48446 c 11.81858,0 23.57134,-8.73168 23.57134,-23.62111 0.0297,-0.004 0.0547,-0.0247 0.0547,-0.0548 v -47.13271 c 0,-0.03 -0.0247,-0.0548 -0.0547,-0.0548 h 0.0547 c -0.006,-13.04342 -10.58267,-23.61339 -23.62609,-23.61116 -13.04148,5.2e-4 -23.6151,10.56968 -23.62111,23.61116 h 0.0548 c -0.03,0 -0.0548,0.0247 -0.0548,0.0548 v 23.57133 h -47.24223 v -23.57133 c 0,-0.03 -0.0247,-0.0548 -0.0548,-0.0548 h 0.0548 c -0.006,-13.04148 -10.57964,-23.61065 -23.62112,-23.61116 z m -0.99064,10.42415 c 7.67227,-0.57529 14.21497,5.4932 14.21747,13.18701 -0.005,7.30287 -5.92644,13.2204 -13.22931,13.2204 -7.30288,0 -13.2244,-5.91753 -13.22932,-13.2204 0.002,-6.92114 5.33932,-12.67051 12.24116,-13.18701 z m 94.48944,0 c 7.67227,-0.57529 14.21497,5.4932 14.21747,13.18701 0,7.30636 -5.92297,13.22931 -13.22932,13.22931 -7.30635,0 -13.22932,-5.92295 -13.22932,-13.22931 0.002,-6.92114 5.33932,-12.67051 12.24117,-13.18701 z m -94.32516,47.19743 c 0.27331,-0.009 0.54904,-0.006 0.82636,0.005 l 0.94086,0.0349 0.94087,0.0996 c 6.34035,0.77932 11.47604,6.70569 11.3451,13.09242 0.0195,3.78647 -1.69051,7.53116 -4.56492,9.99604 -6.47467,6.07948 -18.28829,3.06743 -21.05739,-5.37138 -3.32621,-7.93503 3.09633,-17.58366 11.56912,-17.85647 z m 95.31082,0.005 c 7.30657,-0.002 13.23097,5.92026 13.23181,13.22683 10e-4,11.78555 -14.24576,17.68772 -22.57996,9.35665 -8.3342,-8.33106 -2.4374,-22.58039 9.34815,-22.58348 z m -46.87385,0.005 c 7.15844,0.20025 12.85773,6.06061 12.85845,13.22185 -0.10956,7.2268 -5.99921,13.02782 -13.22683,13.02782 -7.22762,0 -13.11727,-5.80102 -13.22683,-13.02782 -4.7e-4,-6.92128 5.33441,-12.67287 12.23619,-13.19198 0.4522,-0.0332 0.9058,-0.0432 1.35902,-0.0299 z"
     transform="matrix(0.4091958,0,0,0.4091958,-253.2028,-241.56212)"
     sodipodi:nodetypes="cccsssccccsscccccsccscccccscccssccsscccccssscsccscccccs"
     inkscape:label="main" /><path
     id="path20"
     style="fill:url(#linearGradient28);stroke-width:4.88786;stroke-linejoin:round"
     transform="matrix(0.4091958,0,0,0.4091958,-253.2028,-241.56212)"
     d="m 633.17773,656.3477 v 24.16796 c 3.4534,-4.9158 8.99762,-8.38431 15.5625,-8.59765 h 0.006 c 0.48556,-0.0158 0.92169,-0.007 1.3125,0.008 L 651,671.96094 c 0.15853,0.006 0.31683,0.0168 0.47461,0.0332 l 0.94141,0.0996 c 0.0398,0.004 0.0795,0.009 0.11914,0.0137 10.11755,1.2436 17.64104,9.90181 17.48632,20.08399 0.008,5.83209 -2.49079,11.31313 -6.8789,15.14453 -0.62263,0.57633 -1.33297,0.95519 -2.00196,1.43164 h 24.71094 c -5.35243,-3.58782 -8.93903,-9.65423 -9.04297,-16.50977 -9.3e-4,-0.0352 -0.002,-0.0703 -0.002,-0.10547 -4.6e-4,-6.83953 3.50754,-12.93465 8.82227,-16.61132 h -12.21094 c -3.86927,1e-4 -7.00596,-3.13659 -7.00586,-7.00586 v -12.1875 c -3.66836,5.28523 -9.76282,8.78906 -16.61719,8.78906 -6.85439,0 -12.94939,-3.50371 -16.61719,-8.78906 z m 127.72461,0.006 c -3.66775,5.28552 -9.76252,8.79101 -16.61718,8.79101 -6.85467,0 -12.95082,-3.5036 -16.61914,-8.78906 v 12.17969 c 10e-5,3.86927 -3.13659,7.00596 -7.00586,7.00586 h -12.14454 c 5.27847,3.67312 8.75713,9.77605 8.75782,16.61132 -4e-4,0.0352 -0.001,0.0703 -0.002,0.10547 -0.10394,6.85633 -3.68996,12.92221 -9.04296,16.50977 h 24.56054 c -0.97947,-0.67694 -1.92808,-1.42451 -2.80859,-2.30469 -6.16339,-6.16107 -7.27179,-15.08785 -4.39063,-22.04883 2.88116,-6.96097 9.97415,-12.49185 18.68946,-12.49414 6.85629,-0.002 12.95405,3.50254 16.62304,8.78906 z m -134.89453,28.8006 c 1.56126,0.0593 3.05789,0.63888 4.25196,1.64648 0.0116,-0.0419 0.0174,-0.0852 0.0293,-0.12695 -0.36964,-0.29384 -0.60292,-0.48113 -0.75195,-0.59961 -0.0428,-0.0219 -0.54329,-0.27333 -0.84375,-0.40625 0.33032,0.14366 0.48209,0.21057 0.73437,0.32031 -0.0185,-0.0147 -0.15236,-0.1211 -0.15234,-0.12109 10e-5,5e-5 -0.3232,-0.11308 -0.61523,-0.21485 -0.0285,-0.0123 -0.0638,-0.0324 -0.0859,-0.041 -0.0203,-0.008 -0.0214,-0.004 -0.041,-0.0117 0.0405,0.0176 0.0626,0.0265 0.10938,0.0469 -0.1451,-0.0506 -0.15595,-0.0543 -0.30274,-0.10546 -0.28158,-0.0957 -0.52737,-0.17134 -0.68945,-0.20704 0.0791,0.0156 0.14721,0.0263 0.20117,0.0371 -0.0317,-0.011 -0.16802,-0.0586 -0.16797,-0.0586 4.8e-4,10e-5 -0.30327,-0.0377 -0.55273,-0.0723 0.0757,0.0134 0.097,0.0177 0.17969,0.0332 -0.79291,-0.1465 -0.97514,-0.13565 -0.94922,-0.11719 -0.16323,-0.003 -0.31521,-0.003 -0.35352,-0.002 z m 140.91016,0.0566 c -1.04946,0.14134 -2.19338,0.74502 -3.22852,1.56836 0.0136,0.0482 0.0317,0.0943 0.0449,0.14257 0.89329,-0.83894 1.99102,-1.42888 3.1836,-1.71093 z m -136.91602,12.6934 c -0.19661,0.12445 -0.36507,0.23304 -0.50976,0.30273 0.15244,-0.0841 0.40063,-0.21305 0.40039,-0.21289 -4e-5,2e-5 0.0898,-0.0739 0.10937,-0.0898 z m -1.44922,0.77148 c -0.24622,0.086 -0.50953,0.18018 -0.61718,0.20508 0.0756,-0.0201 0.11405,-0.0268 0.25586,-0.0723 0.0857,-0.0275 0.22915,-0.0829 0.36132,-0.13281 z m 2.19336,0.28516 0.19532,0.52539 c -0.039,-0.0929 -0.0407,-0.18815 -0.0781,-0.28125 -0.0303,-0.0881 -0.088,-0.15527 -0.11719,-0.24414 z"
     sodipodi:nodetypes="cccccccccccccccccccscccsccccccccsscccccccccscccccccccccccsccssccsccccsccccccc"
     inkscape:label="gradient" /></svg>
