<?xml version="1.0" encoding="UTF-8" standalone="no"?>
<!-- Created with Inkscape (http://www.inkscape.org/) -->

<svg
   width="64"
   height="64"
   viewBox="0 0 64 64"
   version="1.1"
   id="svg1"
   inkscape:version="1.4 (e7c3feb100, 2024-10-09)"
   sodipodi:docname="STR_STD_sqr_AY.svg"
   xml:space="preserve"
   xmlns:inkscape="http://www.inkscape.org/namespaces/inkscape"
   xmlns:sodipodi="http://sodipodi.sourceforge.net/DTD/sodipodi-0.dtd"
   xmlns:xlink="http://www.w3.org/1999/xlink"
   xmlns="http://www.w3.org/2000/svg"
   xmlns:svg="http://www.w3.org/2000/svg"
   xmlns:rdf="http://www.w3.org/1999/02/22-rdf-syntax-ns#"
   xmlns:cc="http://creativecommons.org/ns#"
   xmlns:dc="http://purl.org/dc/elements/1.1/"><title
     id="title4">template</title><sodipodi:namedview
     id="namedview1"
     pagecolor="#323232"
     bordercolor="#ffffff"
     borderopacity="1"
     inkscape:showpageshadow="0"
     inkscape:pageopacity="0"
     inkscape:pagecheckerboard="1"
     inkscape:deskcolor="#191919"
     inkscape:document-units="px"
     showgrid="true"
     inkscape:zoom="22.627417"
     inkscape:cx="19.821087"
     inkscape:cy="23.003067"
     inkscape:window-width="1894"
     inkscape:window-height="999"
     inkscape:window-x="0"
     inkscape:window-y="0"
     inkscape:window-maximized="1"
     inkscape:current-layer="g42"
     showguides="true"
     inkscape:lockguides="false"
     guidecolor="#ffff00"
     guideopacity="0.6"
     guidehicolor="#ff00ff"
     guidehiopacity="0.50196078"><inkscape:grid
       id="grid1"
       units="px"
       originx="0"
       originy="0"
       spacingx="2"
       spacingy="2"
       empcolor="#0099e5"
       empopacity="0.30196078"
       color="#0099e5"
       opacity="0.14901961"
       empspacing="4"
       enabled="true"
       visible="true" /><sodipodi:guide
       position="-2,62"
       orientation="0,1"
       id="guide5"
       inkscape:locked="false"
       inkscape:label="top margin"
       inkscape:color="rgb(255,255,0)" /><sodipodi:guide
       position="64,2"
       orientation="0,1"
       id="guide6"
       inkscape:locked="false"
       inkscape:label="bottom margin"
       inkscape:color="rgb(255,255,0)" /><sodipodi:guide
       position="2,-2"
       orientation="-1,0"
       id="guide7"
       inkscape:locked="false"
       inkscape:label="right margin"
       inkscape:color="rgb(255,255,0)" /><sodipodi:guide
       position="62,64"
       orientation="-1,0"
       id="guide8"
       inkscape:locked="false"
       inkscape:label="left margin"
       inkscape:color="rgb(255,255,0)" /><sodipodi:guide
       position="64,64"
       orientation="0.70710678,-0.70710678"
       id="guide1"
       inkscape:locked="false" /><sodipodi:guide
       position="0,64"
       orientation="0.70710678,0.70710678"
       id="guide2"
       inkscape:label=""
       inkscape:locked="false"
       inkscape:color="rgb(255,255,0)" /></sodipodi:namedview><defs
     id="defs1"><linearGradient
       id="linearGradient29"
       inkscape:collect="always"
       inkscape:label="Free Teal gradiente"><stop
         style="stop-color:#34e0e2;stop-opacity:1;"
         offset="0"
         id="stop29" /><stop
         style="stop-color:#16d0d2;stop-opacity:1;"
         offset="1"
         id="stop30" /></linearGradient><linearGradient
       id="linearGradient26"
       inkscape:collect="always"
       inkscape:label="Aluminium gradient"><stop
         style="stop-color:#babdb6;stop-opacity:1;"
         offset="0"
         id="stop26" /><stop
         style="stop-color:#555753;stop-opacity:1;"
         offset="1"
         id="stop27" /></linearGradient><linearGradient
       id="linearGradient24"
       inkscape:collect="always"
       inkscape:label="White gradient"><stop
         style="stop-color:#ffffff;stop-opacity:1;"
         offset="0"
         id="stop24" /><stop
         style="stop-color:#eeeeec;stop-opacity:1;"
         offset="1"
         id="stop25" /></linearGradient><linearGradient
       id="linearGradient22"
       inkscape:collect="always"
       inkscape:label="Scarlet red gradient"><stop
         style="stop-color:#ef2929;stop-opacity:1;"
         offset="0"
         id="stop22" /><stop
         style="stop-color:#cc0000;stop-opacity:1;"
         offset="1"
         id="stop23" /></linearGradient><linearGradient
       id="linearGradient19"
       inkscape:collect="always"
       inkscape:label="Chocolate gradient"><stop
         style="stop-color:#e9b96e;stop-opacity:1;"
         offset="0"
         id="stop19" /><stop
         style="stop-color:#c17d11;stop-opacity:1;"
         offset="1"
         id="stop20" /></linearGradient><linearGradient
       id="linearGradient17"
       inkscape:collect="always"
       inkscape:label="Plum gradient"><stop
         style="stop-color:#ad7fa8;stop-opacity:1;"
         offset="0"
         id="stop17" /><stop
         style="stop-color:#75507b;stop-opacity:1;"
         offset="1"
         id="stop18" /></linearGradient><linearGradient
       id="linearGradient13"
       inkscape:collect="always"
       inkscape:label="Orange gradient"><stop
         style="stop-color:#fcaf3e;stop-opacity:1;"
         offset="0"
         id="stop13" /><stop
         style="stop-color:#f57900;stop-opacity:1;"
         offset="1"
         id="stop14" /></linearGradient><linearGradient
       id="linearGradient11"
       inkscape:collect="always"
       inkscape:label="Chameleon gradient"><stop
         style="stop-color:#8ae234;stop-opacity:1;"
         offset="0"
         id="stop11" /><stop
         style="stop-color:#73d216;stop-opacity:1;"
         offset="1"
         id="stop12" /></linearGradient><linearGradient
       id="linearGradient9"
       inkscape:collect="always"
       inkscape:label="Butter gradient"><stop
         style="stop-color:#fce94f;stop-opacity:1;"
         offset="0"
         id="stop9" /><stop
         style="stop-color:#edd400;stop-opacity:1;"
         offset="1"
         id="stop10" /></linearGradient><linearGradient
       id="linearGradient3"
       inkscape:collect="always"
       inkscape:label="Sky Blue gradient"><stop
         style="stop-color:#729fcf;stop-opacity:1;"
         offset="0"
         id="stop3" /><stop
         style="stop-color:#3465a4;stop-opacity:1;"
         offset="1"
         id="stop4" /></linearGradient><linearGradient
       inkscape:collect="always"
       xlink:href="#linearGradient3"
       id="linearGradient4"
       x1="17.12866"
       y1="17.12866"
       x2="46.871338"
       y2="46.871338"
       gradientUnits="userSpaceOnUse" /><linearGradient
       inkscape:collect="always"
       xlink:href="#linearGradient9"
       id="linearGradient10"
       x1="9.7573595"
       y1="11.757359"
       x2="18.242641"
       y2="20.24264"
       gradientUnits="userSpaceOnUse"
       gradientTransform="matrix(1.1666667,0,0,1.0000001,-1.3333333,-4.000001)" /><linearGradient
       inkscape:collect="always"
       xlink:href="#linearGradient11"
       id="linearGradient12"
       x1="25.757359"
       y1="11.75736"
       x2="34.242641"
       y2="20.242641"
       gradientUnits="userSpaceOnUse"
       gradientTransform="matrix(1.1666667,0,0,1,-3,-4)" /><linearGradient
       inkscape:collect="always"
       xlink:href="#linearGradient13"
       id="linearGradient14"
       x1="41.757359"
       y1="11.75736"
       x2="50.242641"
       y2="20.242641"
       gradientUnits="userSpaceOnUse"
       gradientTransform="matrix(1.1666667,0,0,1,-4.6666667,-4)" /><linearGradient
       inkscape:collect="always"
       xlink:href="#linearGradient3"
       id="linearGradient16"
       x1="9.7573595"
       y1="35.757359"
       x2="18.242641"
       y2="44.242641"
       gradientUnits="userSpaceOnUse"
       gradientTransform="matrix(1.1666667,0,0,1,-1.3333333,-6)" /><linearGradient
       inkscape:collect="always"
       xlink:href="#linearGradient17"
       id="linearGradient18"
       x1="25.757359"
       y1="35.757359"
       x2="34.242641"
       y2="44.242641"
       gradientUnits="userSpaceOnUse"
       gradientTransform="matrix(1.1666667,0,0,1,-3,-6)" /><linearGradient
       inkscape:collect="always"
       xlink:href="#linearGradient19"
       id="linearGradient20"
       x1="41.757359"
       y1="35.757359"
       x2="50.242641"
       y2="44.242641"
       gradientUnits="userSpaceOnUse"
       gradientTransform="matrix(1.1666667,0,0,1,-4.6666665,-6)" /><linearGradient
       inkscape:collect="always"
       xlink:href="#linearGradient22"
       id="linearGradient23"
       x1="10.050253"
       y1="47.050251"
       x2="19.949747"
       y2="56.949749"
       gradientUnits="userSpaceOnUse"
       gradientTransform="translate(0,4)" /><linearGradient
       inkscape:collect="always"
       xlink:href="#linearGradient24"
       id="linearGradient25"
       x1="27.050253"
       y1="47.050251"
       x2="36.949749"
       y2="56.949749"
       gradientUnits="userSpaceOnUse"
       gradientTransform="translate(17,4)" /><linearGradient
       inkscape:collect="always"
       xlink:href="#linearGradient26"
       id="linearGradient27"
       x1="44.050251"
       y1="47.050251"
       x2="53.949749"
       y2="56.949749"
       gradientUnits="userSpaceOnUse"
       gradientTransform="translate(14,-18)" /><linearGradient
       inkscape:collect="always"
       xlink:href="#linearGradient29"
       id="linearGradient30"
       x1="27.050253"
       y1="47.050251"
       x2="36.949749"
       y2="56.949749"
       gradientUnits="userSpaceOnUse"
       gradientTransform="translate(0,4)" /><linearGradient
       inkscape:collect="always"
       xlink:href="#linearGradient3"
       id="linearGradient15"
       x1="15.931274"
       y1="15.872681"
       x2="48.068726"
       y2="48.010132"
       gradientUnits="userSpaceOnUse" /></defs><metadata
     id="metadata1"><rdf:RDF><cc:Work
         rdf:about=""><cc:license
           rdf:resource="http://creativecommons.org/licenses/by-nc-sa/4.0/" /><dc:creator><cc:Agent><dc:title>hasecilu</dc:title></cc:Agent></dc:creator><dc:subject><rdf:Bag><rdf:li>FreeCAD</rdf:li><rdf:li>command</rdf:li></rdf:Bag></dc:subject><dc:description>Template file to create icons for FreeCAD commands.</dc:description><dc:date>2024</dc:date><dc:rights><cc:Agent><dc:title>FreeCAD LGPL2+</dc:title></cc:Agent></dc:rights><dc:identifier>FreeCAD/src/</dc:identifier><dc:publisher><cc:Agent><dc:title>FreeCAD</dc:title></cc:Agent></dc:publisher><dc:relation>https://wiki.freecad.org/Artwork</dc:relation><dc:title>template</dc:title></cc:Work><cc:License
         rdf:about="http://creativecommons.org/licenses/by-nc-sa/4.0/"><cc:permits
           rdf:resource="http://creativecommons.org/ns#Reproduction" /><cc:permits
           rdf:resource="http://creativecommons.org/ns#Distribution" /><cc:requires
           rdf:resource="http://creativecommons.org/ns#Notice" /><cc:requires
           rdf:resource="http://creativecommons.org/ns#Attribution" /><cc:prohibits
           rdf:resource="http://creativecommons.org/ns#CommercialUse" /><cc:permits
           rdf:resource="http://creativecommons.org/ns#DerivativeWorks" /><cc:requires
           rdf:resource="http://creativecommons.org/ns#ShareAlike" /></cc:License></rdf:RDF></metadata><g
     id="g1"
     inkscape:label="Example icon"
     style="display:none"><path
       style="fill:#729fcf;fill-opacity:1;stroke:#204a87;stroke-width:2;stroke-dasharray:none;stroke-dashoffset:0;stroke-opacity:1"
       d="M 8,12 V 52 L 56,44 V 20 Z"
       id="path1"
       inkscape:label="main" /><path
       id="path2"
       style="fill:url(#linearGradient4);fill-opacity:1;stroke:none;stroke-width:2;stroke-dasharray:none;stroke-dashoffset:0;stroke-opacity:1"
       inkscape:label="gradient"
       sodipodi:type="inkscape:offset"
       inkscape:radius="-0.96875"
       inkscape:original="M 10 14.361328 L 10 49.638672 L 54 42.3125 L 54 21.6875 L 10 14.361328 z "
       d="m 10.96875,15.503906 v 32.992188 l 42.0625,-7.003907 V 22.507812 Z" /><path
       style="display:inline;fill:none;fill-opacity:1;stroke:#000000;stroke-width:2;stroke-dasharray:8, 2, 2, 2;stroke-dashoffset:0;stroke-opacity:1"
       d="M 2,32 H 62"
       id="path11"
       inkscape:label="horizontal" /></g><g
     id="g30"
     inkscape:label="Gradient samples"
     style="display:none"
     transform="translate(-6,-2)"><rect
       style="display:inline;opacity:1;fill:url(#linearGradient10);stroke:none;stroke-width:2.87095;stroke-dasharray:none;stroke-opacity:1"
       id="rect3"
       width="14"
       height="16"
       x="8"
       y="4"
       ry="0.039028071"
       inkscape:label="Butter" /><rect
       style="fill:url(#linearGradient12);stroke:none;stroke-width:1.87083;stroke-dasharray:none;stroke-opacity:1"
       id="rect4"
       width="14"
       height="16"
       x="25"
       y="4"
       ry="0.022097087"
       inkscape:label="Chamaleon" /><rect
       style="fill:url(#linearGradient14);stroke:none;stroke-width:2.16025;stroke-dasharray:none;stroke-opacity:1"
       id="rect5"
       width="14"
       height="16"
       x="42"
       y="4"
       ry="0.022097087"
       inkscape:label="Orange" /><rect
       style="fill:url(#linearGradient16);stroke:none;stroke-width:2.16025;stroke-dasharray:none;stroke-opacity:1"
       id="rect6"
       width="14"
       height="16"
       x="8"
       y="26"
       ry="0.022097087"
       inkscape:label="Sky Blue" /><rect
       style="fill:url(#linearGradient18);stroke:none;stroke-width:2.16025;stroke-dasharray:none;stroke-opacity:1"
       id="rect7"
       width="14"
       height="16"
       x="25"
       y="26"
       ry="0.022097087"
       inkscape:label="Plum" /><rect
       style="fill:url(#linearGradient20);stroke:none;stroke-width:2.16025;stroke-dasharray:none;stroke-opacity:1"
       id="rect8"
       width="14"
       height="16"
       x="42"
       y="26"
       ry="0.022097087"
       inkscape:label="Chocolate" /><rect
       style="opacity:1;fill:url(#linearGradient23);fill-opacity:1;stroke:none;stroke-width:2;stroke-dasharray:none;stroke-opacity:1"
       id="rect20"
       width="14"
       height="16"
       x="8"
       y="48"
       ry="0.022097087"
       inkscape:label="Scarlet Red" /><rect
       style="opacity:1;fill:url(#linearGradient25);stroke:none;stroke-width:2;stroke-dasharray:none;stroke-opacity:1"
       id="rect21"
       width="14"
       height="16"
       x="42"
       y="48"
       ry="0.022097087"
       inkscape:label="White" /><rect
       style="opacity:1;fill:url(#linearGradient27);stroke:none;stroke-width:2;stroke-dasharray:none;stroke-opacity:1"
       id="rect22"
       width="10"
       height="20"
       x="58"
       y="24"
       ry="0.022097087"
       inkscape:label="Aluminium" /><rect
       style="opacity:1;fill:url(#linearGradient30);fill-opacity:1;stroke:none;stroke-width:2;stroke-dasharray:none;stroke-opacity:1"
       id="rect27"
       width="14"
       height="16"
       x="25"
       y="48"
       ry="0.022097087"
       inkscape:label="Free Teal" /></g><g
     id="g2"
     inkscape:label="Up arrow"
     transform="translate(-1.0602643e-7,0.06366303)"
     style="display:none"><path
       d="M 14.400051,49.561876 5.5999492,40.761775 23.199898,23.161825 32,14.313498 40.800102,23.113599 58.400051,40.713549 49.599949,49.51365 32,32 Z"
       fill-rule="evenodd"
       stroke="#a40000"
       stroke-width="3.80732"
       fill="#cc0000"
       id="path5"
       inkscape:label="up"
       style="display:inline;fill:#729fcf;stroke:#204a87;stroke-width:2;stroke-dasharray:none;stroke-opacity:1"
       sodipodi:nodetypes="ccccccccc" /><path
       id="path7"
       style="display:inline;fill:url(#linearGradient15);fill-opacity:1;stroke:none;stroke-width:2;stroke-dasharray:none"
       inkscape:label="gradient"
       sodipodi:type="inkscape:offset"
       inkscape:radius="-2.5991442"
       inkscape:original="M 32 14.314453 L 23.199219 23.162109 L 5.5996094 40.761719 L 14.400391 49.5625 L 32 32 L 49.599609 49.513672 L 58.400391 40.712891 L 40.800781 23.113281 L 32 14.314453 z "
       d="m 32.003906,17.994141 -6.96289,7 A 2.5994041,2.5994041 0 0 1 25.037109,25 L 9.2753906,40.761719 14.402344,45.888672 30.164062,30.160156 a 2.5994041,2.5994041 0 0 1 3.669922,-0.002 L 49.595703,45.841797 54.724609,40.712891 38.962891,24.951172 Z" /><path
       d="M 14.400051,59.377418 5.5999492,50.577317 23.199898,32.977367 5.5999492,15.377418 14.400051,6.5773167 32,24.12904 49.599949,6.5290907 58.400051,15.329192 40.800102,32.929141 58.400051,50.529091 49.599949,59.329192 32,41.815542 Z"
       fill-rule="evenodd"
       stroke="#a40000"
       stroke-width="3.80732"
       fill="#cc0000"
       id="path1-3"
       inkscape:label="cross"
       style="display:none"
       transform="translate(1.0602643e-7,-0.06366303)" /></g><g
     id="g42"
     inkscape:label="main"><path
       style="stroke-width:13.25773508;stroke-dasharray:none;fill:#ad7fa8;stroke:#5c3566;stroke-linecap:round;stroke-linejoin:round"
       d="M -135.429,64.4562 -2.8463,141.003 c 24.4077,14.092 63.9806,14.092 88.3883,0 L 173.93,89.9717 c 11.721,-6.7671 18.306,-15.9453 18.306,-25.5155 V 38.9407 c 0,-9.5702 -6.585,-18.7484 -18.306,-25.5155 L 41.3479,-63.1214 10.0979,-117.248 c -17.2588,-29.893 -51.0363,-42.703 -75.444,-28.611 h -10e-5 l -88.3888,51.0311 -15.625,9.0211 v 0 c -24.408,14.0918 -30.203,49.7488 -12.944,79.64202 l 31.25,54.12658 c 2.052,3.554 4.488,6.8399 7.169,9.67 2.681,2.8301 5.554,5.1491 8.456,6.8244"
       transform="matrix(0.15085533,0,0,0.15085533,32.000195,31.997867)"
       id="path42" /><path
       style="stroke-width:13.25773508;stroke-dasharray:none;fill:#ad7fa8;stroke:#5c3566;stroke-linecap:round;stroke-linejoin:round"
       d="m -2.8463,115.487 c 24.4077,14.092 63.9806,14.092 88.3883,0 L 173.93,64.4562 c 11.721,-6.7671 18.306,-15.9453 18.306,-25.5155 0,-9.5702 -6.585,-18.7484 -18.306,-25.5155 L 41.3479,-63.1214 -135.429,38.9407 -2.8463,115.487"
       transform="matrix(0.15085533,0,0,0.15085533,32.000195,31.997867)"
       id="path41" /><path
       style="stroke-width:13.25773508;stroke-dasharray:none;fill:#ad7fa8;stroke:#5c3566;stroke-linecap:round;stroke-linejoin:round"
       d="m 41.3479,-63.1214 -176.7769,102.0621 -31.25,-54.1266 c -17.259,-29.8932 -11.464,-65.5502 12.944,-79.642 v 0 l 88.3888,-51.0311 h 10e-5 c 24.4077,-14.092 58.1852,-1.282 75.444,28.611 l 31.25,54.1266"
       transform="matrix(0.15085533,0,0,0.15085533,32.000195,31.997867)"
       id="path40" /><path
       style="stroke-width:13.25773508;stroke-dasharray:none;fill:#ad7fa8;stroke:#5c3566;stroke-linecap:round;stroke-linejoin:round"
       d="M -135.429,38.9407 -2.8463,115.487 v 25.516 L -135.429,64.4562 c -2.902,-1.6753 -5.775,-3.9943 -8.456,-6.8244 -2.681,-2.8301 -5.117,-6.116 -7.169,-9.67 l -31.25,-54.12658 15.625,-9.02112 31.25,54.1266"
       transform="matrix(0.15085533,0,0,0.15085533,32.000195,31.997867)"
       id="path39" /><path
       style="stroke-width:13.25773508;stroke-dasharray:none;fill:#ad7fa8;stroke:#5c3566;stroke-linecap:round;stroke-linejoin:round"
       d="m -2.8463,115.487 v 25.516 c 24.4077,14.092 63.9806,14.092 88.3883,0 v -25.516 c -24.4077,14.092 -63.9806,14.092 -88.3883,0"
       transform="matrix(0.15085533,0,0,0.15085533,32.000195,31.997867)"
       id="path38" /><path
       style="stroke-width:13.25773508;stroke-dasharray:none;fill:#ad7fa8;stroke:#5c3566;stroke-linecap:round;stroke-linejoin:round"
       d="M 85.542,115.487 173.93,64.4562 V 89.9717 L 85.542,141.003 v -25.516"
       transform="matrix(0.15085533,0,0,0.15085533,32.000195,31.997867)"
       id="path37" /><path
       style="stroke-width:13.25773508;stroke-dasharray:none;fill:#ad7fa8;stroke:#5c3566;stroke-linecap:round;stroke-linejoin:round"
       d="m -166.679,-15.1859 c -17.259,-29.8932 -11.464,-65.5502 12.944,-79.642 v 0 l -15.625,9.0211 v 0 c -24.408,14.0918 -30.203,49.7488 -12.944,79.64202 l 15.625,-9.02112"
       transform="matrix(0.15085533,0,0,0.15085533,32.000195,31.997867)"
       id="path36" /><path
       style="stroke-width:13.25773508;stroke-dasharray:none;fill:#ad7fa8;stroke:#5c3566;stroke-linecap:round;stroke-linejoin:round"
       d="m 173.93,64.4562 c 11.721,-6.7671 18.306,-15.9453 18.306,-25.5155 v 25.5155 c 0,9.5702 -6.585,18.7484 -18.306,25.5155 V 64.4562"
       transform="matrix(0.15085533,0,0,0.15085533,32.000195,31.997867)"
       id="path35" /><path
       style="stroke-width:13.25773508;stroke-dasharray:none;fill:#ad7fa8;stroke:#5c3566;stroke-linecap:round;stroke-linejoin:round"
       d="m -2.8463,115.487 v 25.516"
       transform="matrix(0.15085533,0,0,0.15085533,32.000195,31.997867)"
       id="path34" /><path
       style="stroke-width:13.25773508;stroke-dasharray:none;fill:#ad7fa8;stroke:#5c3566;stroke-linecap:round;stroke-linejoin:round"
       d="m -2.8463,115.487 c 24.4077,14.092 63.9806,14.092 88.3883,0"
       transform="matrix(0.15085533,0,0,0.15085533,32.000195,31.997867)"
       id="path33" /><path
       style="stroke-width:13.25773508;stroke-dasharray:none;fill:#ad7fa8;stroke:#5c3566;stroke-linecap:round;stroke-linejoin:round"
       d="m -2.8463,141.003 c 24.4077,14.092 63.9806,14.092 88.3883,0"
       transform="matrix(0.15085533,0,0,0.15085533,32.000195,31.997867)"
       id="path32" /><path
       style="stroke-width:13.25773508;stroke-dasharray:none;fill:#ad7fa8;stroke:#5c3566;stroke-linecap:round;stroke-linejoin:round"
       d="M -135.429,38.9407 -2.8463,115.487"
       transform="matrix(0.15085533,0,0,0.15085533,32.000195,31.997867)"
       id="path31" /><path
       style="stroke-width:13.25773508;stroke-dasharray:none;fill:#ad7fa8;stroke:#5c3566;stroke-linecap:round;stroke-linejoin:round"
       d="M 41.3479,-63.1214 -135.429,38.9407"
       transform="matrix(0.15085533,0,0,0.15085533,32.000195,31.997867)"
       id="path30" /><path
       style="stroke-width:13.25773508;stroke-dasharray:none;fill:#ad7fa8;stroke:#5c3566;stroke-linecap:round;stroke-linejoin:round"
       d="M 173.93,13.4252 41.3479,-63.1214"
       transform="matrix(0.15085533,0,0,0.15085533,32.000195,31.997867)"
       id="path29" /><path
       style="stroke-width:13.25773508;stroke-dasharray:none;fill:#ad7fa8;stroke:#5c3566;stroke-linecap:round;stroke-linejoin:round"
       d="M 85.542,115.487 173.93,64.4562"
       transform="matrix(0.15085533,0,0,0.15085533,32.000195,31.997867)"
       id="path28" /><path
       style="stroke-width:13.25773508;stroke-dasharray:none;fill:#ad7fa8;stroke:#5c3566;stroke-linecap:round;stroke-linejoin:round"
       d="m 173.93,64.4562 c 11.721,-6.7671 18.306,-15.9453 18.306,-25.5155"
       transform="matrix(0.15085533,0,0,0.15085533,32.000195,31.997867)"
       id="path27" /><path
       style="stroke-width:13.25773508;stroke-dasharray:none;fill:#ad7fa8;stroke:#5c3566;stroke-linecap:round;stroke-linejoin:round"
       d="m 192.236,38.9407 c 0,-9.5702 -6.585,-18.7484 -18.306,-25.5155"
       transform="matrix(0.15085533,0,0,0.15085533,32.000195,31.997867)"
       id="path26" /><path
       style="stroke-width:13.25773508;stroke-dasharray:none;fill:#ad7fa8;stroke:#5c3566;stroke-linecap:round;stroke-linejoin:round"
       d="M -135.429,64.4562 -2.8463,141.003"
       transform="matrix(0.15085533,0,0,0.15085533,32.000195,31.997867)"
       id="path25" /><path
       style="stroke-width:13.25773508;stroke-dasharray:none;fill:#ad7fa8;stroke:#5c3566;stroke-linecap:round;stroke-linejoin:round"
       d="M 85.542,141.003 173.93,89.9717"
       transform="matrix(0.15085533,0,0,0.15085533,32.000195,31.997867)"
       id="path24" /><path
       style="stroke-width:13.25773508;stroke-dasharray:none;fill:#ad7fa8;stroke:#5c3566;stroke-linecap:round;stroke-linejoin:round"
       d="m 173.93,89.9717 c 11.721,-6.7671 18.306,-15.9453 18.306,-25.5155"
       transform="matrix(0.15085533,0,0,0.15085533,32.000195,31.997867)"
       id="path23" /><path
       style="stroke-width:13.25773508;stroke-dasharray:none;fill:#ad7fa8;stroke:#5c3566;stroke-linecap:round;stroke-linejoin:round"
       d="m -135.429,38.9407 -31.25,-54.1266"
       transform="matrix(0.15085533,0,0,0.15085533,32.000195,31.997867)"
       id="path22" /><path
       style="stroke-width:13.25773508;stroke-dasharray:none;fill:#ad7fa8;stroke:#5c3566;stroke-linecap:round;stroke-linejoin:round"
       d="m -166.679,-15.1859 c -17.259,-29.8932 -11.464,-65.5502 12.944,-79.642"
       transform="matrix(0.15085533,0,0,0.15085533,32.000195,31.997867)"
       id="path21" /><path
       style="stroke-width:13.25773508;stroke-dasharray:none;fill:#ad7fa8;stroke:#5c3566;stroke-linecap:round;stroke-linejoin:round"
       d="m -153.735,-94.8279 v -1e-4"
       transform="matrix(0.15085533,0,0,0.15085533,32.000195,31.997867)"
       id="path20" /><path
       style="stroke-width:13.25773508;stroke-dasharray:none;fill:#ad7fa8;stroke:#5c3566;stroke-linecap:round;stroke-linejoin:round"
       d="m 10.0979,-117.248 31.25,54.1266"
       transform="matrix(0.15085533,0,0,0.15085533,32.000195,31.997867)"
       id="path19" /><path
       style="stroke-width:13.25773508;stroke-dasharray:none;fill:#ad7fa8;stroke:#5c3566;stroke-linecap:round;stroke-linejoin:round"
       d="m -153.735,-94.828 88.3887,-51.031"
       transform="matrix(0.15085533,0,0,0.15085533,32.000195,31.997867)"
       id="path18" /><path
       style="stroke-width:13.25773508;stroke-dasharray:none;fill:#ad7fa8;stroke:#5c3566;stroke-linecap:round;stroke-linejoin:round"
       d="m -65.3463,-145.859 h 2e-4"
       transform="matrix(0.15085533,0,0,0.15085533,32.000195,31.997867)"
       id="path17" /><path
       style="stroke-width:13.25773508;stroke-dasharray:none;fill:#ad7fa8;stroke:#5c3566;stroke-linecap:round;stroke-linejoin:round"
       d="m -65.3461,-145.859 c 24.4077,-14.092 58.1852,-1.282 75.444,28.611"
       transform="matrix(0.15085533,0,0,0.15085533,32.000195,31.997867)"
       id="path16" /><path
       style="stroke-width:13.25773508;stroke-dasharray:none;fill:#ad7fa8;stroke:#5c3566;stroke-linecap:round;stroke-linejoin:round"
       d="m -166.679,-15.1859 -15.625,9.02112"
       transform="matrix(0.15085533,0,0,0.15085533,32.000195,31.997867)"
       id="path15" /><path
       style="stroke-width:13.25773508;stroke-dasharray:none;fill:#ad7fa8;stroke:#5c3566;stroke-linecap:round;stroke-linejoin:round"
       d="m -153.735,-94.828 -15.625,9.0211"
       transform="matrix(0.15085533,0,0,0.15085533,32.000195,31.997867)"
       id="path14" /><path
       style="stroke-width:13.25773508;stroke-dasharray:none;fill:none;stroke:#5c3566;stroke-linecap:round;stroke-linejoin:round"
       d="M -182.304,-6.16478 C -199.563,-36.058 -193.768,-71.715 -169.36,-85.8068"
       transform="matrix(0.15085533,0,0,0.15085533,32.000195,31.997867)"
       id="path13" /><path
       style="stroke-width:13.25773508;stroke-dasharray:none;fill:#ad7fa8;stroke:#5c3566;stroke-linecap:round;stroke-linejoin:round"
       d="m -169.36,-85.8068 v -1e-4"
       transform="matrix(0.15085533,0,0,0.15085533,32.000195,31.997867)"
       id="path12" /><path
       style="stroke-width:13.25773508;stroke-dasharray:none;fill:#ad7fa8;stroke:#5c3566;stroke-linecap:round;stroke-linejoin:round"
       d="m -151.054,47.9618 -31.25,-54.12658"
       transform="matrix(0.15085533,0,0,0.15085533,32.000195,31.997867)"
       id="path10" /><path
       style="stroke-width:13.25773508;stroke-dasharray:none;fill:#ad7fa8;stroke:#5c3566;stroke-linecap:round;stroke-linejoin:round"
       d="m -143.885,57.6318 c -2.681,-2.8301 -5.117,-6.116 -7.169,-9.67"
       transform="matrix(0.15085533,0,0,0.15085533,32.000195,31.997867)"
       id="path9" /><path
       style="stroke-width:13.25773508;stroke-dasharray:none;fill:#ad7fa8;stroke:#5c3566;stroke-linecap:round;stroke-linejoin:round"
       d="m -135.429,64.4562 c -2.902,-1.6753 -5.775,-3.9943 -8.456,-6.8244"
       transform="matrix(0.15085533,0,0,0.15085533,32.000195,31.997867)"
       id="path8" /><path
       style="stroke-width:13.25773508;stroke-dasharray:none;fill:#ad7fa8;stroke:#5c3566;stroke-linecap:round;stroke-linejoin:round"
       d="M 192.236,64.4562 V 38.9407"
       transform="matrix(0.15085533,0,0,0.15085533,32.000195,31.997867)"
       id="path6" /><path
       style="stroke-width:13.25773508;stroke-dasharray:none;fill:#ad7fa8;stroke:#5c3566;stroke-linecap:round;stroke-linejoin:round"
       d="m -169.36,-85.8068 15.625,-9.0211"
       transform="matrix(0.15085533,0,0,0.15085533,32.000195,31.997867)"
       id="path4" /><path
       style="stroke-width:13.25773508;stroke-dasharray:none;fill:#ad7fa8;stroke:#5c3566;stroke-linecap:round;stroke-linejoin:round"
       d="m 85.542,115.487 v 25.516"
       transform="matrix(0.15085533,0,0,0.15085533,32.000195,31.997867)"
       id="path3" /><path
       style="stroke-width:13.25773508;stroke-dasharray:none;fill:#ad7fa8;stroke:#5c3566;stroke-linecap:round;stroke-linejoin:round"
       d="M 173.93,64.4562 V 89.9717"
       transform="matrix(0.15085533,0,0,0.15085533,32.000195,31.997867)"
       id="path78" /></g><path
     id="path65"
     style="display:inline;fill:none;stroke:#5c3566;stroke-width:13.2577;stroke-linecap:round;stroke-linejoin:round;stroke-dasharray:none"
     d="m -16.5963,-61.4215 c -13.6684,7.8914 -32.5838,0.718 -42.2487,-16.0222 -9.665,-16.7403 -6.4197,-36.7083 7.2487,-44.5993 m 0,0 c 13.6683,-7.892 32.5838,-0.718 42.24873,16.022 9.664986,16.7401 6.41962,36.708 -7.24873,44.5995 m -88.3887,51.031 c -13.668,7.89141 -32.583,0.71803 -42.248,-16.0222 -9.665,-16.7403 -6.42,-36.7082 7.248,-44.5996 m 0,0 c 13.669,-7.8914 32.584,-0.718 42.2491,16.0222 9.665,16.7403 6.4196,36.7082 -7.2491,44.5996 M 94.7362,38.9407 c 0,8.1731 8.5278,15.5414 21.6058,18.6691 13.079,3.1277 28.133,1.3988 38.143,-4.3804 m 10.251,-14.2887 c 0,-11.1602 -15.67,-20.2073 -35,-20.2073 -19.33,0 -34.9998,9.0471 -34.9998,20.2073 M 154.485,53.2294 C 161.049,49.4398 164.736,44.3 164.736,38.9407 M 6.34787,-12.0903 c 0,8.17304 8.52743,15.54134 21.60613,18.66904 13.0786,3.1277 28.1327,1.39886 38.1426,-4.38038 M 76.3479,-12.0903 c 0,-11.1602 -15.6701,-20.2073 -35,-20.2073 -19.33,0 -35.00003,9.0471 -35.00003,20.2073 M 66.0966,2.19836 c 6.5638,-3.7896 10.2513,-8.92939 10.2513,-14.28866 M 6.34787,89.9717 c 0,8.1731 8.52743,15.5413 21.60613,18.6693 13.0786,3.128 28.1327,1.399 38.1426,-4.381 M 76.3479,89.9717 c 0,-11.1601 -15.6701,-20.2072 -35,-20.2072 -19.33,0 -35.00003,9.0471 -35.00003,20.2072 M 66.0966,104.26 c 6.5638,-3.789 10.2513,-8.929 10.2513,-14.2883 M -82.0405,38.9407 c 0,8.1731 8.5275,15.5414 21.6061,18.6691 13.0786,3.1277 28.1327,1.3988 38.1427,-4.3804 m 10.2512,-14.2887 c 0,-11.1602 -15.67,-20.2073 -35,-20.2073 -19.3299,0 -35,9.0471 -35,20.2073 m 59.7488,14.2887 C -15.728,49.4398 -12.0405,44.3 -12.0405,38.9407"
     transform="matrix(0.15085533,0,0,0.15085533,32.000195,31.997867)"
     inkscape:label="holes" /></svg>
