<?xml version="1.0" encoding="UTF-8" standalone="no"?>
<!-- Created with Inkscape (http://www.inkscape.org/) -->

<svg
   width="64"
   height="64"
   viewBox="0 0 64 64"
   version="1.1"
   id="svg1"
   inkscape:version="1.4 (e7c3feb100, 2024-10-09)"
   sodipodi:docname="STR_STD_DBL_AY.svg"
   xml:space="preserve"
   xmlns:inkscape="http://www.inkscape.org/namespaces/inkscape"
   xmlns:sodipodi="http://sodipodi.sourceforge.net/DTD/sodipodi-0.dtd"
   xmlns:xlink="http://www.w3.org/1999/xlink"
   xmlns="http://www.w3.org/2000/svg"
   xmlns:svg="http://www.w3.org/2000/svg"
   xmlns:rdf="http://www.w3.org/1999/02/22-rdf-syntax-ns#"
   xmlns:cc="http://creativecommons.org/ns#"
   xmlns:dc="http://purl.org/dc/elements/1.1/"><title
     id="title4">template</title><sodipodi:namedview
     id="namedview1"
     pagecolor="#323232"
     bordercolor="#ffffff"
     borderopacity="1"
     inkscape:showpageshadow="0"
     inkscape:pageopacity="0"
     inkscape:pagecheckerboard="1"
     inkscape:deskcolor="#191919"
     inkscape:document-units="px"
     showgrid="true"
     inkscape:zoom="11.313708"
     inkscape:cx="23.422914"
     inkscape:cy="28.505244"
     inkscape:window-width="1894"
     inkscape:window-height="999"
     inkscape:window-x="0"
     inkscape:window-y="0"
     inkscape:window-maximized="1"
     inkscape:current-layer="svg1"
     showguides="true"
     inkscape:lockguides="false"
     guidecolor="#ffff00"
     guideopacity="0.6"
     guidehicolor="#ff00ff"
     guidehiopacity="0.50196078"><inkscape:grid
       id="grid1"
       units="px"
       originx="0"
       originy="0"
       spacingx="2"
       spacingy="2"
       empcolor="#0099e5"
       empopacity="0.30196078"
       color="#0099e5"
       opacity="0.14901961"
       empspacing="4"
       enabled="true"
       visible="true" /><sodipodi:guide
       position="-2,62"
       orientation="0,1"
       id="guide5"
       inkscape:locked="false"
       inkscape:label="top margin"
       inkscape:color="rgb(255,255,0)" /><sodipodi:guide
       position="64,2"
       orientation="0,1"
       id="guide6"
       inkscape:locked="false"
       inkscape:label="bottom margin"
       inkscape:color="rgb(255,255,0)" /><sodipodi:guide
       position="2,-2"
       orientation="-1,0"
       id="guide7"
       inkscape:locked="false"
       inkscape:label="right margin"
       inkscape:color="rgb(255,255,0)" /><sodipodi:guide
       position="62,64"
       orientation="-1,0"
       id="guide8"
       inkscape:locked="false"
       inkscape:label="left margin"
       inkscape:color="rgb(255,255,0)" /><sodipodi:guide
       position="64,64"
       orientation="0.70710678,-0.70710678"
       id="guide1"
       inkscape:locked="false" /><sodipodi:guide
       position="0,64"
       orientation="0.70710678,0.70710678"
       id="guide2"
       inkscape:label=""
       inkscape:locked="false"
       inkscape:color="rgb(255,255,0)" /></sodipodi:namedview><defs
     id="defs1"><linearGradient
       id="linearGradient17"
       inkscape:collect="always"
       inkscape:label="Plum gradient"><stop
         style="stop-color:#ad7fa8;stop-opacity:1;"
         offset="0"
         id="stop17" /><stop
         style="stop-color:#75507b;stop-opacity:1;"
         offset="1"
         id="stop18" /></linearGradient><linearGradient
       inkscape:collect="always"
       xlink:href="#linearGradient17"
       id="linearGradient74"
       x1="-102.93796"
       y1="-1.358574"
       x2="104.77916"
       y2="-1.358574"
       gradientUnits="userSpaceOnUse" /></defs><metadata
     id="metadata1"><rdf:RDF><cc:Work
         rdf:about=""><cc:license
           rdf:resource="http://creativecommons.org/licenses/by-nc-sa/4.0/" /><dc:creator><cc:Agent><dc:title>hasecilu</dc:title></cc:Agent></dc:creator><dc:subject><rdf:Bag><rdf:li>FreeCAD</rdf:li><rdf:li>command</rdf:li></rdf:Bag></dc:subject><dc:description>Template file to create icons for FreeCAD commands.</dc:description><dc:date>2024</dc:date><dc:rights><cc:Agent><dc:title>FreeCAD LGPL2+</dc:title></cc:Agent></dc:rights><dc:identifier>FreeCAD/src/</dc:identifier><dc:publisher><cc:Agent><dc:title>FreeCAD</dc:title></cc:Agent></dc:publisher><dc:relation>https://wiki.freecad.org/Artwork</dc:relation><dc:title>template</dc:title></cc:Work><cc:License
         rdf:about="http://creativecommons.org/licenses/by-nc-sa/4.0/"><cc:permits
           rdf:resource="http://creativecommons.org/ns#Reproduction" /><cc:permits
           rdf:resource="http://creativecommons.org/ns#Distribution" /><cc:requires
           rdf:resource="http://creativecommons.org/ns#Notice" /><cc:requires
           rdf:resource="http://creativecommons.org/ns#Attribution" /><cc:prohibits
           rdf:resource="http://creativecommons.org/ns#CommercialUse" /><cc:permits
           rdf:resource="http://creativecommons.org/ns#DerivativeWorks" /><cc:requires
           rdf:resource="http://creativecommons.org/ns#ShareAlike" /></cc:License></rdf:RDF></metadata><path
     id="path4"
     style="display:inline;fill:#ad7fa8;fill-opacity:1;stroke:#5c3566;stroke-width:6.9855;stroke-linecap:round;stroke-linejoin:round;stroke-dasharray:none"
     transform="matrix(0.28630752,0,0,0.28630752,32.000241,32.000896)"
     d="m -45.880121,62.866333 c -2.830222,-1.634073 -5.632744,-3.895772 -8.247611,-6.656062 m 0,0 c -2.614771,-2.76029 -4.990682,-5.965137 -6.991968,-9.43147 m 0,0 -30.479157,-52.7914507 m 34.528252,-57.3370093 c 12.18386,-1.675817 25.363633,5.783335 32.714035,18.514649 7.350402,12.731315 7.22039,27.87492 -0.322835,37.5885348 m -51.679873,-7.5647608 -15.239579,8.7985863 m 75.411969,-4.1214743 c -13.331144,7.6967428 -31.779958,0.7003085 -41.206552,-15.626981 -9.426594,-16.327367 -6.261248,-35.802719 7.069896,-43.499462 m 0,0 c 13.331242,-7.696743 31.780056,-0.700289 41.2065913,15.626981 9.42658093,16.327269 6.2612673,35.802719 -7.0699353,43.499462 m 26.0357344,-54.449331 30.4791566,52.79146 m -86.208124,49.772219 -30.479157,-52.79146 M 66.800979,50.423327 c -6.48255,-4.597329 -16.20506,-7.265743 -26.472976,-7.265743 -10.267916,0 -19.990425,2.668414 -26.473074,7.265743 m -59.73505,12.443006 43.1040716,24.88611 M 6.1913281,37.980224 c 0,7.971494 8.3171719,15.15804 21.0731619,18.208589 12.755991,3.050549 27.438751,1.364296 37.201737,-4.272348 m 9.998432,-13.936241 c 0,-10.884912 -15.283566,-19.708847 -34.136656,-19.708847 -18.853187,0 -34.1366749,8.823935 -34.1366749,19.708847 M 64.466227,51.916465 c 6.401891,-3.696122 9.998432,-8.709139 9.998432,-13.936241 m 8.967406,-24.88611 -43.104062,-24.886109 m 0,0 -86.208124,49.772219 m 0,0 43.1040716,24.886109 M 101.28641,37.980224 c 0,-9.334132 -6.422466,-18.285934 -17.854345,-24.88611 M -2.7760494,62.866333 C 14.657921,72.931868 40.877116,75.942916 63.655726,70.495486 86.434238,65.048056 101.28641,52.215014 101.28641,37.980224 M -2.7760494,62.866333 v 24.88611 M 64.466227,51.916465 c 0.821816,-0.4745 1.601107,-0.972797 2.334752,-1.493138 -6.48255,-4.597329 -16.20506,-7.265743 -26.472976,-7.265743 -10.267916,0 -19.990425,2.668414 -26.473074,7.265743 6.09827,4.324724 15.084403,6.955393 24.730934,7.239995 9.646531,0.284602 19.0504,-1.803586 25.880364,-5.746857 M -57.070605,-63.349659 c 1.879272,-2.419899 4.157357,-4.415723 6.747061,-5.910908 13.331242,-7.696743 31.780056,-0.700289 41.2065913,15.626981 9.42658093,16.327269 6.2612673,35.802719 -7.0699353,43.499462 -2.589704,1.4951366 -5.457183,2.4701575 -8.492517,2.8876488 7.543225,-9.7136148 7.673237,-24.8572198 0.322835,-37.5885348 -7.350402,-12.731314 -20.530175,-20.190466 -32.714035,-18.514649 M 66.800979,50.423327 c 4.957131,-3.51549 7.66368,-7.910048 7.66368,-12.443103 0,-10.884912 -15.283566,-19.708847 -34.136656,-19.708847 -18.853187,0 -34.1366749,8.823935 -34.1366749,19.708847 0,4.533055 2.7065686,8.927613 7.6636009,12.443103 6.482649,-4.597329 16.205158,-7.265743 26.473074,-7.265743 10.267916,0 19.990426,2.668414 26.472976,7.265743 M -24.679405,-7.2464752 c -12.18386,1.6757879 -25.363633,-5.7834128 -32.714035,-18.5146298 -7.350402,-12.731314 -7.22039,-27.87492 0.322835,-37.588554 12.18386,-1.675817 25.363633,5.783335 32.714035,18.514649 7.350402,12.731315 7.22039,27.87492 -0.322835,37.5885348 M 64.466227,51.916465 c 0.821816,-0.4745 1.601107,-0.972797 2.334752,-1.493138 4.957131,-3.51549 7.66368,-7.910048 7.66368,-12.443103 0,-10.884912 -15.283566,-19.708847 -34.136656,-19.708847 -18.853187,0 -34.1366749,8.823935 -34.1366749,19.708847 0,4.533055 2.7065686,8.927613 7.6636009,12.443103 6.09827,4.324724 15.084403,6.955393 24.730934,7.239995 9.646531,0.284602 19.0504,-1.803586 25.880364,-5.746857 m -110.346348,-13.936241 -30.479157,-52.79146 30.479157,52.79146 m 43.1040716,24.886109 v 24.88611 C 14.657921,97.818172 40.877116,100.82903 63.655726,95.381595 86.434238,89.934263 101.28641,77.101124 101.28641,62.866333 V 37.980224 c 0,14.23479 -14.852172,27.067832 -37.630684,32.515262 -22.77861,5.44743 -48.997805,2.436382 -66.4317754,-7.629153 m -47.5474946,-132.1269 c 13.331242,-7.696743 31.780056,-0.700289 41.2065913,15.626981 9.42658093,16.327269 6.2612673,35.802719 -7.0699353,43.499462 -2.589704,1.4951366 -5.457183,2.4701575 -8.492517,2.8876488 -12.18386,1.6757879 -25.363633,-5.7834128 -32.714035,-18.5146298 -7.350402,-12.731314 -7.22039,-27.87492 0.322835,-37.588554 1.879272,-2.419899 4.157357,-4.415723 6.747061,-5.910908 m 47.5474946,132.1269 C 14.657921,72.931868 40.877116,75.942916 63.655726,70.495486 86.434238,65.048056 101.28641,52.215014 101.28641,37.980224 c 0,-9.334132 -6.422466,-18.285934 -17.854345,-24.88611 L 40.328003,-11.791995 -45.880121,37.980224 -2.7760494,62.866333 m -43.1040716,0 43.1040716,24.88611 C 14.657921,97.818172 40.877116,100.82903 63.655726,95.381595 86.434238,89.934263 101.28641,77.101124 101.28641,62.866333 V 37.980224 c 0,-9.334132 -6.422466,-18.285934 -17.854345,-24.88611 L 40.328003,-11.791995 C -41.913817,-191.0148 -125.73977,-52.187116 -91.598857,-6.0126497 L -61.1197,46.778801"
     sodipodi:nodetypes="cccccccsccccccccccccccsccccsccsccccccccccccscccccscsccccscsccssscsccccscccssscscccccccscscccssccccsscccccccsscccc" /><g
     id="g72"
     inkscape:label="stroke"
     style="display:inline"><path
       style="fill:#ad7fa8;stroke:#5c3566;stroke-width:6.9855;stroke-linecap:round;stroke-linejoin:round;stroke-dasharray:none"
       d="m -76.359278,-14.811236 c -16.833175,-29.155922 -11.180828,-63.933372 12.624905,-77.67757"
       transform="matrix(0.28630752,0,0,0.28630752,32.000241,32.000896)"
       id="path49"
       inkscape:label="1" /><path
       style="fill:#ad7fa8;stroke:#5c3566;stroke-width:6.9855;stroke-linecap:round;stroke-linejoin:round;stroke-dasharray:none"
       d="m -63.734373,-92.488806 c 23.805734,-13.744394 56.750025,-1.250572 73.5832194,27.905351"
       transform="matrix(0.28630752,0,0,0.28630752,32.000241,32.000896)"
       id="path48"
       inkscape:label="2" /></g><path
     id="path73"
     style="display:inline;fill:url(#linearGradient74);fill-opacity:1;stroke:none;stroke-width:6.9855;stroke-linecap:round;stroke-linejoin:round;stroke-dasharray:none"
     sodipodi:type="inkscape:offset"
     inkscape:radius="-10.476504"
     inkscape:original="M -46.558594 -100.89844 C -88.194882 -99.923529 -112.93768 -34.87076 -91.599609 -6.0117188 L -61.119141 46.779297 L -45.880859 62.867188 L -2.7753906 87.751953 C 1.583102 90.268385 6.490242 92.344386 11.755859 93.957031 C 17.021477 95.569676 22.644861 96.719765 28.435547 97.384766 C 37.121575 98.382267 46.183665 98.289296 54.976562 97.03125 C 57.907528 96.611901 60.808924 96.061789 63.65625 95.380859 C 66.503564 94.699943 69.226411 93.903941 71.8125 93.003906 C 74.398589 92.103871 76.846722 91.099684 79.144531 90.003906 C 81.442341 88.908128 83.589789 87.721271 85.572266 86.453125 C 87.554742 85.184979 89.373583 83.837059 91.013672 82.419922 C 92.653761 81.002784 94.116071 79.51541 95.386719 77.972656 C 99.198663 73.344395 101.28711 68.205234 101.28711 62.867188 L 101.28711 37.980469 C 101.28711 36.813702 101.18622 35.652926 100.98828 34.501953 C 100.5924 32.200008 99.806878 29.936754 98.652344 27.744141 C 98.075076 26.647834 97.405135 25.569153 96.646484 24.511719 C 95.129184 22.396849 93.254636 20.368305 91.044922 18.455078 C 88.835208 16.541851 86.28961 14.743794 83.431641 13.09375 L 40.328125 -11.792969 C 9.4874425 -79.001521 -21.576821 -101.48338 -46.558594 -100.89844 z M -45.880859 62.867188 L -54.126953 56.210938 C -51.512086 58.971228 -48.711081 61.233114 -45.880859 62.867188 z M -54.126953 56.210938 L -61.119141 46.779297 C -59.117855 50.24563 -56.741724 53.450648 -54.126953 56.210938 z "
     d="m -46.3125,-90.425781 c -15.414997,0.360941 -29.158672,13.2372 -36.779297,30.703125 -7.620625,17.465925 -7.36488,37.635249 -0.08398,47.482422 a 10.477552,10.477552 0 0 1 0.648437,0.990234 l 29.863282,51.720703 13.341796,14.085938 41.7851566,24.123046 c 3.5703878,2.06141 7.7602724,3.850649 12.3613284,5.259766 4.602237,1.409478 9.612371,2.440601 14.80664,3.037109 7.792206,0.894855 15.99584,0.808951 23.861328,-0.316406 2.618914,-0.374702 5.203622,-0.865396 7.726563,-1.46875 2.520438,-0.602745 4.909273,-1.302056 7.150391,-2.082031 2.239898,-0.779551 4.33278,-1.640766 6.265625,-2.5625 1.933949,-0.92226 3.703933,-1.903452 5.292968,-2.919922 1.594025,-1.019662 3.008882,-2.074177 4.236328,-3.134766 1.227118,-1.060305 2.272966,-2.130963 3.136719,-3.179687 2.58622,-3.140051 3.509766,-5.839805 3.509766,-8.445313 V 37.980469 c 0,-0.562834 -0.04718,-1.125671 -0.146485,-1.703125 C 90.466121,35.126364 90.065352,33.921232 89.382812,32.625 89.042476,31.978657 88.629177,31.308268 88.134766,30.619141 87.150225,29.246851 85.843399,27.80872 84.1875,26.375 82.532249,24.941842 80.530121,23.515141 78.193359,22.166016 L 35.089844,-2.7207031 a 10.477552,10.477552 0 0 1 -4.283203,-4.703125 C 15.757712,-40.218716 0.81912434,-61.546581 -12.511719,-74.158203 -25.842562,-86.769825 -37.063332,-90.642347 -46.3125,-90.425781 Z"
     transform="matrix(0.28630752,0,0,0.28630752,32.000241,32.000896)" /><path
     id="path74"
     style="display:inline;fill:none;fill-opacity:1;stroke:#5c3566;stroke-width:6.9855;stroke-linecap:round;stroke-linejoin:round;stroke-dasharray:none"
     transform="matrix(0.28630752,0,0,0.28630752,32.000241,32.000896)"
     d="m -45.880121,62.866333 c -2.830222,-1.634073 -5.632744,-3.895772 -8.247611,-6.656062 m 0,0 c -2.614771,-2.76029 -4.990682,-5.965137 -6.991968,-9.43147 m 0,0 -30.479157,-52.7914507 m 34.528252,-57.3370093 c 12.18386,-1.675817 25.363633,5.783335 32.714035,18.514649 7.350402,12.731315 7.22039,27.87492 -0.322835,37.5885348 m 8.492517,-2.8876488 c -13.331144,7.6967428 -31.779958,0.7003085 -41.206552,-15.626981 -9.426594,-16.327367 -6.261248,-35.802719 7.069896,-43.499462 m 0,0 c 13.331242,-7.696743 31.780056,-0.700289 41.2065913,15.626981 9.42658093,16.327269 6.2612673,35.802719 -7.0699353,43.499462 m 26.0357344,-54.449331 30.4791566,52.79146 m -86.208124,49.772219 -30.479157,-52.79146 M 66.800979,50.423327 c -6.48255,-4.597329 -16.20506,-7.265743 -26.472976,-7.265743 -10.267916,0 -19.990425,2.668414 -26.473074,7.265743 m -59.73505,12.443006 43.1040716,24.88611 M 6.1913281,37.980224 c 0,7.971494 8.3171719,15.15804 21.0731619,18.208589 12.755991,3.050549 27.438751,1.364296 37.201737,-4.272348 m 9.998432,-13.936241 c 0,-10.884912 -15.283566,-19.708847 -34.136656,-19.708847 -18.853187,0 -34.1366749,8.823935 -34.1366749,19.708847 M 64.466227,51.916465 c 6.401891,-3.696122 9.998432,-8.709139 9.998432,-13.936241 m 8.967406,-24.88611 -43.104062,-24.886109 m 0,0 -86.208124,49.772219 m 0,0 43.1040716,24.886109 M 101.28641,37.980224 c 0,-9.334132 -6.422466,-18.285934 -17.854345,-24.88611 M -2.7760494,62.866333 C 14.657921,72.931868 40.877116,75.942916 63.655726,70.495486 86.434238,65.048056 101.28641,52.215014 101.28641,37.980224 M -2.7760494,62.866333 v 24.88611 M 64.466227,51.916465 c 0.821816,-0.4745 1.601107,-0.972797 2.334752,-1.493138 -6.48255,-4.597329 -16.20506,-7.265743 -26.472976,-7.265743 -10.267916,0 -19.990425,2.668414 -26.473074,7.265743 6.09827,4.324724 15.084403,6.955393 24.730934,7.239995 9.646531,0.284602 19.0504,-1.803586 25.880364,-5.746857 M -57.070605,-63.349659 c 1.879272,-2.419899 4.157357,-4.415723 6.747061,-5.910908 13.331242,-7.696743 31.780056,-0.700289 41.2065913,15.626981 9.42658093,16.327269 6.2612673,35.802719 -7.0699353,43.499462 -2.589704,1.4951366 -5.457183,2.4701575 -8.492517,2.8876488 7.543225,-9.7136148 7.673237,-24.8572198 0.322835,-37.5885348 -7.350402,-12.731314 -20.530175,-20.190466 -32.714035,-18.514649 M 66.800979,50.423327 c 4.957131,-3.51549 7.66368,-7.910048 7.66368,-12.443103 0,-10.884912 -15.283566,-19.708847 -34.136656,-19.708847 -18.853187,0 -34.1366749,8.823935 -34.1366749,19.708847 0,4.533055 2.7065686,8.927613 7.6636009,12.443103 6.482649,-4.597329 16.205158,-7.265743 26.473074,-7.265743 10.267916,0 19.990426,2.668414 26.472976,7.265743 M -24.679405,-7.2464752 c -12.18386,1.6757879 -25.363633,-5.7834128 -32.714035,-18.5146298 -7.350402,-12.731314 -7.22039,-27.87492 0.322835,-37.588554 12.18386,-1.675817 25.363633,5.783335 32.714035,18.514649 7.350402,12.731315 7.22039,27.87492 -0.322835,37.5885348 M 64.466227,51.916465 c 0.821816,-0.4745 1.601107,-0.972797 2.334752,-1.493138 4.957131,-3.51549 7.66368,-7.910048 7.66368,-12.443103 0,-10.884912 -15.283566,-19.708847 -34.136656,-19.708847 -18.853187,0 -34.1366749,8.823935 -34.1366749,19.708847 0,4.533055 2.7065686,8.927613 7.6636009,12.443103 6.09827,4.324724 15.084403,6.955393 24.730934,7.239995 9.646531,0.284602 19.0504,-1.803586 25.880364,-5.746857 m -110.346348,-13.936241 -30.479157,-52.79146 30.479157,52.79146 m 43.1040716,24.886109 v 24.88611 C 14.657921,97.818172 40.877116,100.82903 63.655726,95.381595 86.434238,89.934263 101.28641,77.101124 101.28641,62.866333 V 37.980224 c 0,14.23479 -14.852172,27.067832 -37.630684,32.515262 -22.77861,5.44743 -48.997805,2.436382 -66.4317754,-7.629153 m -47.5474946,-132.1269 c 13.331242,-7.696743 31.780056,-0.700289 41.2065913,15.626981 9.42658093,16.327269 6.2612673,35.802719 -7.0699353,43.499462 -2.589704,1.4951366 -5.457183,2.4701575 -8.492517,2.8876488 -12.18386,1.6757879 -25.363633,-5.7834128 -32.714035,-18.5146298 -7.350402,-12.731314 -7.22039,-27.87492 0.322835,-37.588554 1.879272,-2.419899 4.157357,-4.415723 6.747061,-5.910908 m 47.5474946,132.1269 C 14.657921,72.931868 40.877116,75.942916 63.655726,70.495486 86.434238,65.048056 101.28641,52.215014 101.28641,37.980224 c 0,-9.334132 -6.422466,-18.285934 -17.854345,-24.88611 L 40.328003,-11.791995 -45.880121,37.980224 -2.7760494,62.866333 m -43.1040716,0 43.1040716,24.88611 C 14.657921,97.818172 40.877116,100.82903 63.655726,95.381595 86.434238,89.934263 101.28641,77.101124 101.28641,62.866333 V 37.980224 c 0,-9.334132 -6.422466,-18.285934 -17.854345,-24.88611 L 40.328003,-11.791995 C -41.913817,-191.0148 -125.73977,-52.187116 -91.598857,-6.0126497 L -61.1197,46.778801 m -30.479157,-52.7914507 15.239579,-8.7985863 c 0,0 -12.393996,-12.760041 -9.930755,-35.868116 2.463241,-23.108075 10.973773,-38.028069 10.973773,-38.028069 l 1.086757,-0.953954 v 0"
     sodipodi:nodetypes="cccccccsccccccccccccccsccccsccsccccccccccccscccccscsccccscsccssscsccccscccssscscccccccscscccssccccsscccccccsscccc" /></svg>
