<?xml version="1.0" encoding="UTF-8" standalone="no"?>
<!-- Created with Inkscape (http://www.inkscape.org/) -->

<svg
   width="64"
   height="64"
   viewBox="0 0 64 64"
   version="1.1"
   id="svg1"
   inkscape:version="1.4 (e7c3feb100, 2024-10-09)"
   sodipodi:docname="STR_ERR.svg"
   xml:space="preserve"
   xmlns:inkscape="http://www.inkscape.org/namespaces/inkscape"
   xmlns:sodipodi="http://sodipodi.sourceforge.net/DTD/sodipodi-0.dtd"
   xmlns:xlink="http://www.w3.org/1999/xlink"
   xmlns="http://www.w3.org/2000/svg"
   xmlns:svg="http://www.w3.org/2000/svg"
   xmlns:rdf="http://www.w3.org/1999/02/22-rdf-syntax-ns#"
   xmlns:cc="http://creativecommons.org/ns#"
   xmlns:dc="http://purl.org/dc/elements/1.1/"><title
     id="title4">Beam - Straight - Standard - End Round Round</title><sodipodi:namedview
     id="namedview1"
     pagecolor="#323232"
     bordercolor="#ffffff"
     borderopacity="1"
     inkscape:showpageshadow="0"
     inkscape:pageopacity="0"
     inkscape:pagecheckerboard="1"
     inkscape:deskcolor="#191919"
     inkscape:document-units="px"
     showgrid="true"
     inkscape:zoom="11.313708"
     inkscape:cx="29.256544"
     inkscape:cy="28.68202"
     inkscape:window-width="1894"
     inkscape:window-height="999"
     inkscape:window-x="0"
     inkscape:window-y="0"
     inkscape:window-maximized="1"
     inkscape:current-layer="svg1"
     showguides="true"
     inkscape:lockguides="false"
     guidecolor="#ffff00"
     guideopacity="0.6"
     guidehicolor="#ff00ff"
     guidehiopacity="0.50196078"><inkscape:grid
       id="grid1"
       units="px"
       originx="0"
       originy="0"
       spacingx="2"
       spacingy="2"
       empcolor="#0099e5"
       empopacity="0.30196078"
       color="#0099e5"
       opacity="0.14901961"
       empspacing="4"
       enabled="true"
       visible="true" /><sodipodi:guide
       position="-2,62"
       orientation="0,1"
       id="guide5"
       inkscape:locked="false"
       inkscape:label="top margin"
       inkscape:color="rgb(255,255,0)" /><sodipodi:guide
       position="64,2"
       orientation="0,1"
       id="guide6"
       inkscape:locked="false"
       inkscape:label="bottom margin"
       inkscape:color="rgb(255,255,0)" /><sodipodi:guide
       position="2,-2"
       orientation="-1,0"
       id="guide7"
       inkscape:locked="false"
       inkscape:label="right margin"
       inkscape:color="rgb(255,255,0)" /><sodipodi:guide
       position="62,64"
       orientation="-1,0"
       id="guide8"
       inkscape:locked="false"
       inkscape:label="left margin"
       inkscape:color="rgb(255,255,0)" /><sodipodi:guide
       position="64,64"
       orientation="0.70710678,-0.70710678"
       id="guide1"
       inkscape:locked="false" /><sodipodi:guide
       position="0,64"
       orientation="0.70710678,0.70710678"
       id="guide2"
       inkscape:label=""
       inkscape:locked="false"
       inkscape:color="rgb(255,255,0)" /></sodipodi:namedview><defs
     id="defs1"><linearGradient
       id="linearGradient1"
       inkscape:collect="always"><stop
         style="stop-color:#729fcf;stop-opacity:1;"
         offset="0"
         id="stop1" /><stop
         style="stop-color:#3465a4;stop-opacity:1;"
         offset="1"
         id="stop2" /></linearGradient><marker
       id="DistanceX"
       orient="auto"
       refX="0.0"
       refY="0.0"
       style="overflow:visible"><path
         d="M 3,-3 L -3,3 M 0,-5 L  0,5"
         style="stroke:#000000; stroke-width:0.5"
         id="path1-36" /></marker><pattern
       id="Hatch"
       patternUnits="userSpaceOnUse"
       width="8"
       height="8"
       x="0"
       y="0"><path
         d="M8 4 l-4,4"
         stroke="#000000"
         stroke-width="0.25"
         linecap="square"
         id="path2-7" /><path
         d="M6 2 l-4,4"
         stroke="#000000"
         stroke-width="0.25"
         linecap="square"
         id="path3" /><path
         d="M4 0 l-4,4"
         stroke="#000000"
         stroke-width="0.25"
         linecap="square"
         id="path4" /></pattern><symbol
       id="*MODEL_SPACE" /><symbol
       id="*PAPER_SPACE" /><linearGradient
       inkscape:collect="always"
       xlink:href="#linearGradient1"
       id="linearGradient2"
       x1="16.163197"
       y1="16.178822"
       x2="47.817272"
       y2="47.832897"
       gradientUnits="userSpaceOnUse" /><marker
       id="DistanceX-3"
       orient="auto"
       refX="0.0"
       refY="0.0"
       style="overflow:visible"><path
         d="M 3,-3 L -3,3 M 0,-5 L  0,5"
         style="stroke:#000000; stroke-width:0.5"
         id="path1-6" /></marker><pattern
       id="Hatch-7"
       patternUnits="userSpaceOnUse"
       width="8"
       height="8"
       x="0"
       y="0"><path
         d="M8 4 l-4,4"
         stroke="#000000"
         stroke-width="0.25"
         linecap="square"
         id="path2" /><path
         d="M6 2 l-4,4"
         stroke="#000000"
         stroke-width="0.25"
         linecap="square"
         id="path3-5" /><path
         d="M4 0 l-4,4"
         stroke="#000000"
         stroke-width="0.25"
         linecap="square"
         id="path4-3" /></pattern><symbol
       id="*MODEL_SPACE-5" /><symbol
       id="*PAPER_SPACE-6" /><linearGradient
       inkscape:collect="always"
       xlink:href="#linearGradient1"
       id="linearGradient49"
       x1="13.615224"
       y1="13.610164"
       x2="50.384777"
       y2="50.379715"
       gradientUnits="userSpaceOnUse" /></defs><metadata
     id="metadata1"><rdf:RDF><cc:Work
         rdf:about=""><cc:license
           rdf:resource="http://creativecommons.org/licenses/by-nc-sa/4.0/" /><dc:creator><cc:Agent><dc:title>hasecilu</dc:title></cc:Agent></dc:creator><dc:subject><rdf:Bag><rdf:li>FreeCAD</rdf:li><rdf:li>command</rdf:li></rdf:Bag></dc:subject><dc:description>Template file to create icons for FreeCAD commands.</dc:description><dc:date>2024</dc:date><dc:rights><cc:Agent><dc:title>FreeCAD LGPL2+</dc:title></cc:Agent></dc:rights><dc:identifier>FreeCAD/src/</dc:identifier><dc:publisher><cc:Agent><dc:title>FreeCAD</dc:title></cc:Agent></dc:publisher><dc:relation>https://wiki.freecad.org/Artwork</dc:relation><dc:title>Beam - Straight - Standard - End Round Round</dc:title></cc:Work><cc:License
         rdf:about="http://creativecommons.org/licenses/by-nc-sa/4.0/"><cc:permits
           rdf:resource="http://creativecommons.org/ns#Reproduction" /><cc:permits
           rdf:resource="http://creativecommons.org/ns#Distribution" /><cc:requires
           rdf:resource="http://creativecommons.org/ns#Notice" /><cc:requires
           rdf:resource="http://creativecommons.org/ns#Attribution" /><cc:prohibits
           rdf:resource="http://creativecommons.org/ns#CommercialUse" /><cc:permits
           rdf:resource="http://creativecommons.org/ns#DerivativeWorks" /><cc:requires
           rdf:resource="http://creativecommons.org/ns#ShareAlike" /></cc:License></rdf:RDF></metadata><g
     id="g2"
     inkscape:label="plain"
     style="display:none"><path
       id="path16"
       style="fill:#729fcf;stroke:#204a87;stroke-width:2.39412;stroke-linejoin:round;stroke-dasharray:none;stroke-opacity:1"
       d="m 26.492137,7.453835 c -5.237313,-5.2373145 -13.814488,-5.2373111 -19.0517988,0 -5.2373091,5.237309 -5.237316,13.814487 -2.4e-6,19.051801 L 37.494362,56.559661 c 5.237314,5.237314 13.814496,5.237311 19.051804,2e-6 5.237311,-5.237311 5.237311,-13.814489 -3e-6,-19.051803 z m 26.452257,36.337832 c 2.53269,2.530958 2.533451,6.636055 0.0017,9.167952 -2.531832,2.530669 -6.635648,2.530193 -9.166897,-0.0011 -2.531248,-2.531249 -2.531724,-6.635065 -0.0011,-9.166897 2.531232,-2.531076 6.635004,-2.531076 9.166236,0 z m -32.737816,-32.7343 c 2.530407,2.530567 2.531168,6.633022 0.0017,9.164527 -2.531961,2.529911 -6.635157,2.529077 -9.166092,-0.0019 -2.5309349,-2.530934 -2.5317699,-6.63413 -0.0019,-9.166092 2.532198,-2.5301106 6.635972,-2.5285437 9.166237,0.0035 z M 36.57288,27.423694 c 2.530405,2.530566 2.531166,6.633019 0.0017,9.164524 -6.110634,6.015427 -15.181662,-3.055601 -9.166235,-9.166235 2.531505,-2.529465 6.633957,-2.528704 9.164523,0.0017 z"
       inkscape:label="main"
       sodipodi:nodetypes="sssssssscscssccscccsccss" /><path
       id="path1"
       style="fill:url(#linearGradient2);fill-opacity:1;stroke:none;stroke-width:2.39412;stroke-linejoin:round;stroke-dasharray:none;stroke-opacity:1"
       inkscape:label="gradient"
       sodipodi:type="inkscape:offset"
       inkscape:radius="-3.5631552"
       inkscape:original="M 16.966797 3.5253906 C 13.513175 3.5253911 10.058109 4.8344694 7.4394531 7.453125 C 2.202144 12.690434 2.2021395 21.268545 7.4394531 26.505859 L 37.494141 56.560547 C 42.731455 61.797861 51.309567 61.797856 56.546875 56.560547 C 61.784186 51.323236 61.784189 42.745127 56.546875 37.507812 L 26.492188 7.453125 C 23.873531 4.8344677 20.420419 3.5253902 16.966797 3.5253906 z M 15.625 9.1582031 C 17.283751 9.1588365 18.941899 9.7906188 20.207031 11.056641 C 22.737438 13.587208 22.738452 17.691151 20.208984 20.222656 C 17.677023 22.752567 13.573904 22.75168 11.042969 20.220703 C 8.5120338 17.689769 8.5111457 13.58665 11.041016 11.054688 C 12.307115 9.7896322 13.966249 9.1575698 15.625 9.1582031 z M 31.990234 25.525391 C 33.648606 25.525698 35.306983 26.158626 36.572266 27.423828 C 39.102671 29.954394 39.103685 34.056386 36.574219 36.587891 C 30.463585 42.603318 21.392776 33.532509 27.408203 27.421875 C 28.673956 26.157142 30.331862 25.525083 31.990234 25.525391 z M 48.361328 41.892578 C 50.020079 41.892578 51.677743 42.525478 52.943359 43.791016 L 52.945312 43.791016 C 55.478003 46.321974 55.477064 50.427087 52.945312 52.958984 C 50.41348 55.489653 46.310546 55.490277 43.779297 52.958984 C 41.248049 50.427735 41.24672 46.322848 43.777344 43.791016 C 45.04296 42.525478 46.702577 41.892578 48.361328 41.892578 z "
       d="m 23.443359,9.6210938 c 2.989379,3.9222562 2.85966,9.5437132 -0.71289,13.1191402 a 3.5635115,3.5635115 0 0 1 -0.0039,0.0039 c -3.575333,3.572439 -9.196931,3.702392 -13.1191401,0.71289 0.1434743,0.163708 0.1954694,0.373204 0.3515625,0.529297 L 24.626953,38.654297 c -1.507378,-1.653893 -2.591323,-3.749024 -2.740234,-6.15625 -0.160255,-2.59061 0.855316,-5.415401 2.982422,-7.576172 a 3.5635115,3.5635115 0 0 1 0.02148,-0.02148 c 1.946352,-1.944784 4.535441,-2.937977 7.099609,-2.9375 2.349455,4.35e-4 4.667483,0.935936 6.544922,2.572265 L 23.972656,9.9726563 C 23.816227,9.8162272 23.607242,9.7647008 23.443359,9.6210938 Z M 39.457031,25.457031 c 3.418105,3.922793 3.366524,9.917581 -0.361328,13.648438 a 3.5635115,3.5635115 0 0 1 -0.02148,0.02148 c -2.160772,2.127105 -4.985562,3.142677 -7.576172,2.982422 -2.407226,-0.148911 -4.502357,-1.232856 -6.15625,-2.740234 l 14.671875,14.671875 c 0.155428,0.155428 0.364365,0.206692 0.527344,0.349609 -2.987171,-3.922747 -2.85618,-9.544459 0.716796,-13.119141 1.946926,-1.946805 4.538412,-2.941406 7.103516,-2.941406 2.143926,0 4.223601,0.854236 6.011719,2.21875 -0.141464,-0.161085 -0.192005,-0.367786 -0.345703,-0.521484 z" /></g><path
     style="display:inline;fill:#729fcf;stroke:#204a87;stroke-width:1.99995;stroke-dasharray:none"
     d="m 61.000027,31.999989 c 0,-1.839348 -1.265416,-3.603363 -3.518143,-4.903971 L 23.506056,7.4800392 C 20.070595,5.4965791 14.903912,4.9032707 10.415257,5.976684 5.9265259,7.0500973 2.9999612,9.5790091 2.9999612,12.384106 v 19.615883 0 c 0,1.839348 1.2654169,3.603363 3.5181433,4.903971 L 40.493932,56.519939 c 3.435461,1.98346 8.602144,2.576769 13.090799,1.503354 4.488731,-1.073413 7.415296,-3.602324 7.415296,-6.407421 V 31.999989"
     id="path65" /><path
     id="path48"
     style="display:inline;fill:url(#linearGradient49);stroke:none;stroke-width:1.951;stroke-dasharray:none"
     inkscape:label="gradient"
     sodipodi:type="inkscape:offset"
     inkscape:radius="-3.0253906"
     inkscape:original="M 13.855469 5.4570312 C 12.685209 5.5214201 11.519595 5.6864983 10.396484 5.9550781 C 9.2733544 6.2236579 8.2481545 6.5833967 7.3417969 7.015625 C 6.4354393 7.4478533 5.6488649 7.9527265 5.0019531 8.5117188 C 4.3550413 9.070711 3.8486989 9.6831598 3.5039062 10.332031 C 3.1591136 10.980903 2.9746094 11.665321 2.9746094 12.367188 L 2.9746094 32 C 2.9746094 33.8409 4.2414662 35.606498 6.4960938 36.908203 L 40.501953 56.541016 C 41.361543 57.037299 42.328688 57.445629 43.367188 57.763672 C 46.482685 58.7178 50.234183 58.850662 53.603516 58.044922 C 54.726646 57.776342 55.751845 57.416603 56.658203 56.984375 C 57.564561 56.552147 58.351135 56.047273 58.998047 55.488281 C 60.291871 54.370297 61.025391 53.036545 61.025391 51.632812 L 61.025391 32 C 61.025391 30.1591 59.758534 28.393502 57.503906 27.091797 L 23.498047 7.4589844 C 22.638457 6.9627009 21.671312 6.554371 20.632812 6.2363281 C 18.555814 5.6002424 16.195988 5.3282536 13.855469 5.4570312 z "
     d="M 14.021484,8.4785156 C 13.024415,8.5333754 12.034932,8.6747653 11.099609,8.8984375 10.165772,9.1217509 9.3395198,9.4146642 8.6445313,9.7460938 7.9505313,10.077052 7.3912911,10.445792 6.9804687,10.800781 6.5698099,11.155629 6.3148121,11.490309 6.1757812,11.751953 6.0347858,12.017295 6,12.195523 6,12.367188 V 32 c 0,0.452906 0.3540886,1.334288 2.0078125,2.289062 L 42.013672,53.921875 c 0.630911,0.364255 1.392123,0.689483 2.240234,0.949219 2.54049,0.77803 5.844373,0.900564 8.646485,0.230468 0.933837,-0.223313 1.760087,-0.516225 2.455078,-0.847656 0.693998,-0.330957 1.253238,-0.699697 1.664062,-1.054687 C 57.84069,52.489662 58,51.982601 58,51.632812 V 32 c 0,-0.452906 -0.354088,-1.334288 -2.007813,-2.289063 L 21.986328,10.078125 C 21.355418,9.7138698 20.594205,9.3886421 19.746094,9.1289063 18.051703,8.6099951 16.017297,8.3687041 14.021484,8.4785156 Z" /><path
     id="path47"
     style="display:inline;fill:none;stroke:#204a87;stroke-width:1.99995;stroke-dasharray:none"
     d="M 40.493932,56.519939 V 36.90396 m -33.9758275,0 V 17.288057 M 40.493932,36.90396 c 3.435461,1.98348 8.602144,2.576826 13.090799,1.503375 4.488731,-1.073434 7.415296,-3.602287 7.415296,-6.407346 M 2.9999612,12.384106 c 0,1.839333 1.2654169,3.603344 3.5181433,4.903951 m 0,0 33.9758275,19.615903"
     inkscape:label="strokes" /><g
     id="g48"
     inkscape:label="holes"
     style="display:inline;fill:none"
     transform="matrix(0.97549852,0,0,0.97549852,0.7840473,0.78404717)"><path
       id="path20"
       d="m -61.6942,-4.79537 c 4.6413,-2.67965 10.9363,-2.05609 17.5,1.73351 m 17.5,58.88826 c -9.665,5.5801 -25.335,-3.467 -35,-20.2073 -9.665,-16.7402 -9.665,-34.83439 0,-40.41447 m 17.5,1.73351 c 10.01,5.77923 19.0342,17.95206 22.8649,30.84236 3.8306,12.8902 1.7132,23.9594 -5.3649,28.0459"
       transform="matrix(0.19718939,0,0,0.19718939,31.999994,31.999989)"
       style="fill:none;stroke:#204a87;stroke-width:10.1425;stroke-dasharray:none" /><path
       id="path31"
       d="m -123.388,-102.062 c 0,8.173 8.527,15.5413 21.606,18.669 13.0783,3.1277 28.1325,1.3989 38.1424,-4.3804 m 10.2513,-14.2886 c 0,-11.16 -15.6701,-20.207 -35,-20.207 -19.3297,0 -34.9997,9.047 -34.9997,20.207 m 59.7484,14.2886 c 6.5638,-3.7896 10.2513,-8.9294 10.2513,-14.2886"
       transform="matrix(0.19718939,0,0,0.19718939,31.999994,31.999989)"
       style="fill:none;stroke:#204a87;stroke-width:10.1425;stroke-dasharray:none" /><path
       id="path34"
       d="m -35,-51.031 c 0,8.173 8.5275,15.5413 21.6061,18.669 13.078584,3.1277 28.1327,1.3989 38.1426,-4.3803 M 35,-51.031 c 0,-11.1602 -15.67,-20.2073 -35,-20.2073 -19.33,0 -35,9.0471 -35,20.2073 m 59.7487,14.2887 C 31.3125,-40.5319 35,-45.6717 35,-51.031"
       transform="matrix(0.19718939,0,0,0.19718939,31.999994,31.999989)"
       style="fill:none;stroke:#204a87;stroke-width:10.1425;stroke-dasharray:none" /><path
       id="path37"
       d="m 53.3883,0 c 0,8.17307 8.5275,15.5414 21.6061,18.6691 13.0786,3.1277 28.1326,1.3988 38.1426,-4.3804 M 123.388,0 c 0,-11.1602 -15.67,-20.2073 -34.9997,-20.2073 -19.3299,0 -35,9.0471 -35,20.2073 M 113.137,14.2887 C 119.701,10.4991 123.388,5.3593 123.388,0"
       transform="matrix(0.19718939,0,0,0.19718939,31.999994,31.999989)"
       style="fill:none;stroke:#204a87;stroke-width:10.1425;stroke-dasharray:none" /></g></svg>
