<?xml version="1.0" encoding="UTF-8" standalone="no"?>
<!-- Created with Inkscape (http://www.inkscape.org/) -->

<svg
   width="64"
   height="64"
   viewBox="0 0 64 64"
   version="1.1"
   id="svg1"
   inkscape:version="1.4 (e7c3feb100, 2024-10-09)"
   sodipodi:docname="STR_DBL.svg"
   xml:space="preserve"
   xmlns:inkscape="http://www.inkscape.org/namespaces/inkscape"
   xmlns:sodipodi="http://sodipodi.sourceforge.net/DTD/sodipodi-0.dtd"
   xmlns:xlink="http://www.w3.org/1999/xlink"
   xmlns="http://www.w3.org/2000/svg"
   xmlns:svg="http://www.w3.org/2000/svg"
   xmlns:rdf="http://www.w3.org/1999/02/22-rdf-syntax-ns#"
   xmlns:cc="http://creativecommons.org/ns#"
   xmlns:dc="http://purl.org/dc/elements/1.1/"><title
     id="title4">Beam - Straight - Double</title><sodipodi:namedview
     id="namedview1"
     pagecolor="#323232"
     bordercolor="#ffffff"
     borderopacity="1"
     inkscape:showpageshadow="0"
     inkscape:pageopacity="0"
     inkscape:pagecheckerboard="1"
     inkscape:deskcolor="#191919"
     inkscape:document-units="px"
     showgrid="true"
     inkscape:zoom="8"
     inkscape:cx="-0.375"
     inkscape:cy="25.3125"
     inkscape:window-width="1894"
     inkscape:window-height="999"
     inkscape:window-x="0"
     inkscape:window-y="0"
     inkscape:window-maximized="1"
     inkscape:current-layer="svg1"
     showguides="true"
     inkscape:lockguides="false"
     guidecolor="#ffff00"
     guideopacity="0.6"
     guidehicolor="#ff00ff"
     guidehiopacity="0.50196078"><inkscape:grid
       id="grid1"
       units="px"
       originx="0"
       originy="0"
       spacingx="2"
       spacingy="2"
       empcolor="#0099e5"
       empopacity="0.30196078"
       color="#0099e5"
       opacity="0.14901961"
       empspacing="4"
       enabled="true"
       visible="true" /><sodipodi:guide
       position="-2,62"
       orientation="0,1"
       id="guide5"
       inkscape:locked="false"
       inkscape:label="top margin"
       inkscape:color="rgb(255,255,0)" /><sodipodi:guide
       position="64,2"
       orientation="0,1"
       id="guide6"
       inkscape:locked="false"
       inkscape:label="bottom margin"
       inkscape:color="rgb(255,255,0)" /><sodipodi:guide
       position="2,-2"
       orientation="-1,0"
       id="guide7"
       inkscape:locked="false"
       inkscape:label="right margin"
       inkscape:color="rgb(255,255,0)" /><sodipodi:guide
       position="62,64"
       orientation="-1,0"
       id="guide8"
       inkscape:locked="false"
       inkscape:label="left margin"
       inkscape:color="rgb(255,255,0)" /><sodipodi:guide
       position="64,64"
       orientation="0.70710678,-0.70710678"
       id="guide1"
       inkscape:locked="false" /><sodipodi:guide
       position="0,64"
       orientation="0.70710678,0.70710678"
       id="guide2"
       inkscape:label=""
       inkscape:locked="false"
       inkscape:color="rgb(255,255,0)" /><sodipodi:guide
       position="27.404274,30.668743"
       orientation="0,-1"
       id="guide160"
       inkscape:locked="false" /><sodipodi:guide
       position="29.149296,28.779183"
       orientation="0,-1"
       id="guide161"
       inkscape:locked="false" /><sodipodi:guide
       position="27.404274,30.668743"
       orientation="1,0"
       id="guide162"
       inkscape:locked="false" /><sodipodi:guide
       position="29.149296,28.779183"
       orientation="1,0"
       id="guide163"
       inkscape:locked="false" /></sodipodi:namedview><defs
     id="defs1"><linearGradient
       id="linearGradient3"
       inkscape:collect="always"
       inkscape:label="Sky Blue gradient"><stop
         style="stop-color:#729fcf;stop-opacity:1;"
         offset="0"
         id="stop3" /><stop
         style="stop-color:#3465a4;stop-opacity:1;"
         offset="1"
         id="stop4" /></linearGradient><linearGradient
       inkscape:collect="always"
       xlink:href="#linearGradient3"
       id="linearGradient156"
       x1="-112.98695"
       y1="-108.85189"
       x2="112.98695"
       y2="117.12201"
       gradientUnits="userSpaceOnUse" /></defs><metadata
     id="metadata1"><rdf:RDF><cc:Work
         rdf:about=""><cc:license
           rdf:resource="http://creativecommons.org/licenses/by-nc-sa/4.0/" /><dc:creator><cc:Agent><dc:title>hasecilu</dc:title></cc:Agent></dc:creator><dc:subject><rdf:Bag><rdf:li>FreeCAD</rdf:li><rdf:li>command</rdf:li></rdf:Bag></dc:subject><dc:description>Template file to create icons for FreeCAD commands.</dc:description><dc:date>2024</dc:date><dc:rights><cc:Agent><dc:title>FreeCAD LGPL2+</dc:title></cc:Agent></dc:rights><dc:identifier>FreeCAD/src/</dc:identifier><dc:publisher><cc:Agent><dc:title>FreeCAD</dc:title></cc:Agent></dc:publisher><dc:relation>https://wiki.freecad.org/Artwork</dc:relation><dc:title>Beam - Straight - Double</dc:title></cc:Work><cc:License
         rdf:about="http://creativecommons.org/licenses/by-nc-sa/4.0/"><cc:permits
           rdf:resource="http://creativecommons.org/ns#Reproduction" /><cc:permits
           rdf:resource="http://creativecommons.org/ns#Distribution" /><cc:requires
           rdf:resource="http://creativecommons.org/ns#Notice" /><cc:requires
           rdf:resource="http://creativecommons.org/ns#Attribution" /><cc:prohibits
           rdf:resource="http://creativecommons.org/ns#CommercialUse" /><cc:permits
           rdf:resource="http://creativecommons.org/ns#DerivativeWorks" /><cc:requires
           rdf:resource="http://creativecommons.org/ns#ShareAlike" /></cc:License></rdf:RDF></metadata><path
     id="path149"
     style="display:inline;fill:#729fcf;stroke:#204a87;stroke-width:2.06849;stroke-linecap:round;stroke-linejoin:round;stroke-dasharray:none"
     d="m 16.299174,40.972402 9.819848,-9.819849 c 1.118713,2.219374 2.969598,4.188202 5.145504,5.473336 l -9.819915,9.819915 C 19.268694,45.160681 17.417832,43.19183 16.299174,40.972402 m 0,0 9.819848,-9.819849 L 13.464777,6.0481316 3.6448958,15.868013 16.299174,40.972402 m 5.145437,5.473402 9.819915,-9.819915 24.612675,14.536888 -9.819882,9.819881 -24.612708,-14.536854 m 4.674411,-15.293251 c 1.118713,2.219374 2.969598,4.188202 5.145504,5.473336 L 55.877201,51.162777 60.355099,37.185452 39.140726,24.655593 28.233651,3.017334 13.464777,6.0481316 26.119022,31.152553"
     inkscape:label="main" /><path
     id="path153"
     style="display:inline;fill:url(#linearGradient156);stroke:none;stroke-width:13.1652;stroke-linecap:round;stroke-linejoin:round;stroke-dasharray:none"
     inkscape:label="gradient"
     sodipodi:type="inkscape:offset"
     inkscape:radius="-18.015982"
     inkscape:original="M -144.13086 -114.33398 L -196.95703 -34.226562 L -196.95703 54.162109 L -27.025391 110.19336 C -12.002391 115.14736 5.189275 115.67892 20.765625 111.66992 L 196.95703 66.322266 L 196.95703 -22.066406 L 154.20508 -105.12305 L 2.3398438 -66.039062 L -144.13086 -114.33398 z "
     d="m -136.67969,-92.908203 -42.26172,64.087891 v 69.953124 l 157.558598,51.951172 c 11.5047812,3.793829 25.5530133,4.254274 37.658203,1.138672 L 178.94141,52.355469 v -70.056641 l -34.17383,-66.390625 -137.9375019,35.5 a 18.017783,18.017783 0 0 1 -10.1308594,-0.33789 z"
     transform="matrix(0.11109921,0.11109921,-0.11109921,0.11109921,31.543963,31.73248)" /><g
     id="g135"
     inkscape:label="holes"
     style="display:inline;fill:none;fill-opacity:1;stroke:#204a87;stroke-width:2;stroke-linecap:round;stroke-linejoin:round;stroke-dasharray:none"
     transform="matrix(1.0342459,0,0,1.0342459,-1.0958683,-1.095868)"><path
       id="path133"
       style="fill:none;fill-opacity:1;stroke:#204a87;stroke-width:2;stroke-linecap:round;stroke-linejoin:round;stroke-dasharray:none"
       d="m 37.895938,32.339122 c 0.32152,-1.003597 0.16185,-2.242521 -0.443883,-3.444223 m 0,0 C 36.846314,27.69321 35.844134,26.62718 34.665986,25.931328 m 0,0 C 33.48783,25.235469 32.230205,24.9668 31.169771,25.184412 m -1.475796,0.77129 c -1.033185,1.033184 -1.126259,2.819334 -0.238653,4.580224 m 1.714449,-5.351514 c -0.583852,0.119817 -1.087589,0.383083 -1.475796,0.77129 m -0.238653,4.580224 c 0.605736,1.2017 1.607915,2.267731 2.786076,2.963585 m 4.972012,-0.02437 c 0.310123,-0.310123 0.541109,-0.694592 0.682528,-1.136015 m -5.65454,1.160389 c 1.867515,1.103005 3.854373,1.093264 4.972012,-0.02437" /><path
       id="path82"
       style="fill:none;fill-opacity:1;stroke:#204a87;stroke-width:2;stroke-linecap:round;stroke-linejoin:round;stroke-dasharray:none"
       d="m 53.078526,42.845481 c 0.310123,-0.310123 0.541152,-0.694549 0.682614,-1.135929 m -8.202006,-6.383463 c -1.468267,1.468266 -0.975228,4.341808 1.101157,6.418192 2.076438,2.076439 4.949968,2.569466 6.418235,1.1012 M 53.76114,41.709552 C 54.349386,39.873081 53.305,37.387628 51.284142,35.814842 49.26324,34.241991 46.849297,34.035926 45.559134,35.326089" /><path
       id="path117"
       style="display:inline;fill:none;fill-opacity:1;stroke:#204a87;stroke-width:2;stroke-linecap:round;stroke-linejoin:round;stroke-dasharray:none"
       d="M 29.056541,17.292991 C 30.303092,16.04644 30.157376,13.74241 28.706103,11.751543 27.25482,9.7606438 24.887659,8.6175178 23.012946,9.0023088 m -1.475883,0.7712039 c -1.468255,1.4682553 -0.975238,4.3417973 1.1012,6.4182353 2.076481,2.076481 4.950023,2.569498 6.418278,1.101243 M 23.012946,9.0023088 c -0.583863,0.119806 -1.087676,0.382997 -1.475883,0.7712039" /><path
       id="path49"
       style="fill:none;fill-opacity:1;stroke:#204a87;stroke-width:2;stroke-linecap:round;stroke-linejoin:round;stroke-dasharray:none"
       d="m 40.91006,46.86073 c 1.395618,-0.05651 2.9042,0.332381 4.155176,1.071262 m -7.932617,-4.685231 0.368688,0.225239 0.357979,0.233823 0.346023,0.24161 0.332821,0.248539 0.318448,0.254575 0.302958,0.259711 0.286394,0.263943 0.268798,0.26723 0.250311,0.269604 0.230879,0.270989 0.210663,0.271441 0.189597,0.270807 0.168016,0.2694 0.145866,0.267058 m -12.876226,-1.919486 -0.281689,-0.718847 -0.09955,-0.673258 0.08527,-0.609418 0.267799,-0.529067 0.443045,-0.434387 0.606314,-0.327923 0.753146,-0.212585 0.879559,-0.09148 0.982157,0.03211 1.058145,0.154803 1.105443,0.273321 1.122802,0.384436 1.10974,0.485133 1.0666,0.57268 m 0.199211,7.1922 -0.756176,-0.09524 -0.785824,-0.157973 -0.804472,-0.2186 -0.811723,-0.276146 -0.807469,-0.32977 L 32.574391,48.982511 31.809514,48.560219 31.082374,48.10032 30.403272,47.609333 29.781834,47.09422 29.226835,46.562252 28.746161,46.020992 28.34661,45.4781 28.033834,44.941244 m 19.436375,7.271412 c -0.510967,1.595055 -2.637206,2.430958 -5.091549,2.001491 -2.454226,-0.42937 -4.561805,-2.005884 -5.04683,-3.775186 m 7.733406,-2.506969 c 1.899318,1.121776 2.865807,2.842089 2.404973,4.280664" /><path
       id="path88"
       style="fill:none;fill-opacity:1;stroke:#204a87;stroke-width:2;stroke-linecap:round;stroke-linejoin:round;stroke-dasharray:none"
       d="m 16.888033,21.308197 c 0.120859,-1.412483 -0.176868,-2.944987 -0.819955,-4.22086 m -3.727414,-2.550025 c -1.626549,0.333851 -2.6408778,2.448596 -2.4013409,5.006718 0.2395259,2.558134 1.6631919,4.814694 3.3704789,5.342398 m 2.758276,-7.799091 c -0.91789,-1.820902 -2.386075,-2.825322 -3.727414,-2.550025 m 5.680559,19.789745 0.678596,0.315838 0.645243,0.128528 0.594154,-0.06229 0.526682,-0.251407 0.444743,-0.433613 0.350545,-0.603886 0.246713,-0.757519 0.13608,-0.890322 0.02172,-0.998624 -0.09325,-1.079458 -0.205646,-1.130558 -0.3124,-1.15056 -0.410529,-1.138904 -0.49739,-1.095893 m -6.836681,-0.291958 0.05324,0.758217 0.11045,0.788659 0.166136,0.808168 0.21945,0.816406 0.269733,0.813324 0.316278,0.798983 0.358451,0.773589 0.395641,0.737452 0.427372,0.691111 0.453164,0.635178 0.472683,0.570456 0.485648,0.49783 0.491878,0.418295 0.491299,0.332961 M 20.146483,25.178386 19.953696,24.809407 19.75253,24.450741 19.543661,24.103579 19.3278,23.769104 19.105686,23.448465 18.878073,23.142757 18.645755,22.853011 18.40943,22.580163 18.170021,22.325222 17.928347,22.08909 17.685072,21.872391 17.441195,21.676059 17.197458,21.500641 16.95472,21.346783" /></g><path
     id="path166"
     style="display:inline;fill:none;fill-opacity:1;stroke:#204a87;stroke-width:2.06849;stroke-linecap:round;stroke-linejoin:round;stroke-dasharray:none"
     d="m 16.299173,40.972402 9.819848,-9.819848 m -4.674409,15.29325 9.819914,-9.819914 M 13.464777,6.0481316 26.119021,31.152554 M 55.8772,51.162777 31.264526,36.62589 c -2.212855,-1.294773 -4.017637,-3.249043 -5.145505,-5.473336"
     inkscape:label="strokes" /></svg>
