<?xml version="1.0" encoding="UTF-8" standalone="no"?>
<!-- Created with Inkscape (http://www.inkscape.org/) -->

<svg
   width="64"
   height="64"
   viewBox="0 0 64 64"
   version="1.1"
   id="svg1"
   inkscape:version="1.4 (e7c3feb100, 2024-10-09)"
   sodipodi:docname="TRH-H_BEM_SFT_3W.svg"
   xml:space="preserve"
   xmlns:inkscape="http://www.inkscape.org/namespaces/inkscape"
   xmlns:sodipodi="http://sodipodi.sourceforge.net/DTD/sodipodi-0.dtd"
   xmlns:xlink="http://www.w3.org/1999/xlink"
   xmlns="http://www.w3.org/2000/svg"
   xmlns:svg="http://www.w3.org/2000/svg"
   xmlns:rdf="http://www.w3.org/1999/02/22-rdf-syntax-ns#"
   xmlns:cc="http://creativecommons.org/ns#"
   xmlns:dc="http://purl.org/dc/elements/1.1/"><title
     id="title48">Connector Through-Hole Shaft Beam 3W</title><sodipodi:namedview
     id="namedview1"
     pagecolor="#323232"
     bordercolor="#ffffff"
     borderopacity="1"
     inkscape:showpageshadow="0"
     inkscape:pageopacity="0"
     inkscape:pagecheckerboard="1"
     inkscape:deskcolor="#191919"
     inkscape:document-units="px"
     showgrid="true"
     inkscape:zoom="11.313708"
     inkscape:cx="20.108349"
     inkscape:cy="22.052893"
     inkscape:window-width="1894"
     inkscape:window-height="999"
     inkscape:window-x="0"
     inkscape:window-y="0"
     inkscape:window-maximized="1"
     inkscape:current-layer="svg1"
     showguides="true"
     inkscape:lockguides="false"
     guidecolor="#ffff00"
     guideopacity="0.6"
     guidehicolor="#ff00ff"
     guidehiopacity="0.50196078"><inkscape:grid
       id="grid1"
       units="px"
       originx="0"
       originy="0"
       spacingx="2"
       spacingy="2"
       empcolor="#0099e5"
       empopacity="0.30196078"
       color="#0099e5"
       opacity="0.14901961"
       empspacing="4"
       enabled="true"
       visible="true" /><sodipodi:guide
       position="-2,62"
       orientation="0,1"
       id="guide5"
       inkscape:locked="false"
       inkscape:label="top margin"
       inkscape:color="rgb(255,255,0)" /><sodipodi:guide
       position="64,2"
       orientation="0,1"
       id="guide6"
       inkscape:locked="false"
       inkscape:label="bottom margin"
       inkscape:color="rgb(255,255,0)" /><sodipodi:guide
       position="2,-2"
       orientation="-1,0"
       id="guide7"
       inkscape:locked="false"
       inkscape:label="right margin"
       inkscape:color="rgb(255,255,0)" /><sodipodi:guide
       position="62,64"
       orientation="-1,0"
       id="guide8"
       inkscape:locked="false"
       inkscape:label="left margin"
       inkscape:color="rgb(255,255,0)" /><sodipodi:guide
       position="64,64"
       orientation="0.70710678,-0.70710678"
       id="guide1"
       inkscape:locked="false" /><sodipodi:guide
       position="0,64"
       orientation="0.70710678,0.70710678"
       id="guide2"
       inkscape:label=""
       inkscape:locked="false"
       inkscape:color="rgb(255,255,0)" /></sodipodi:namedview><defs
     id="defs1"><linearGradient
       id="linearGradient11"
       inkscape:collect="always"
       inkscape:label="Chameleon gradient"><stop
         style="stop-color:#8ae234;stop-opacity:1;"
         offset="0"
         id="stop11" /><stop
         style="stop-color:#73d216;stop-opacity:1;"
         offset="1"
         id="stop12" /></linearGradient><marker
       id="DistanceX"
       orient="auto"
       refX="0.0"
       refY="0.0"
       style="overflow:visible"><path
         d="M 3,-3 L -3,3 M 0,-5 L  0,5"
         style="stroke:#000000; stroke-width:0.5"
         id="path1-36" /></marker><pattern
       id="Hatch"
       patternUnits="userSpaceOnUse"
       width="8"
       height="8"
       x="0"
       y="0"><path
         d="M8 4 l-4,4"
         stroke="#000000"
         stroke-width="0.25"
         linecap="square"
         id="path2-7" /><path
         d="M6 2 l-4,4"
         stroke="#000000"
         stroke-width="0.25"
         linecap="square"
         id="path3" /><path
         d="M4 0 l-4,4"
         stroke="#000000"
         stroke-width="0.25"
         linecap="square"
         id="path4" /></pattern><symbol
       id="*MODEL_SPACE" /><symbol
       id="*PAPER_SPACE" /><linearGradient
       inkscape:collect="always"
       xlink:href="#linearGradient11"
       id="linearGradient2"
       x1="13.373537"
       y1="7.9360366"
       x2="50.626465"
       y2="45.188965"
       gradientUnits="userSpaceOnUse" /></defs><metadata
     id="metadata1"><rdf:RDF><cc:Work
         rdf:about=""><cc:license
           rdf:resource="http://creativecommons.org/licenses/by-nc-sa/4.0/" /><dc:creator><cc:Agent><dc:title>hasecilu</dc:title></cc:Agent></dc:creator><dc:subject><rdf:Bag><rdf:li>FreeCAD</rdf:li><rdf:li>command</rdf:li></rdf:Bag></dc:subject><dc:description>Template file to create icons for FreeCAD commands.</dc:description><dc:date>2024</dc:date><dc:rights><cc:Agent><dc:title>FreeCAD LGPL2+</dc:title></cc:Agent></dc:rights><dc:identifier>FreeCAD/src/</dc:identifier><dc:publisher><cc:Agent><dc:title>FreeCAD</dc:title></cc:Agent></dc:publisher><dc:relation>https://wiki.freecad.org/Artwork</dc:relation><dc:title>Connector Through-Hole Shaft Beam 3W</dc:title></cc:Work><cc:License
         rdf:about="http://creativecommons.org/licenses/by-nc-sa/4.0/"><cc:permits
           rdf:resource="http://creativecommons.org/ns#Reproduction" /><cc:permits
           rdf:resource="http://creativecommons.org/ns#Distribution" /><cc:requires
           rdf:resource="http://creativecommons.org/ns#Notice" /><cc:requires
           rdf:resource="http://creativecommons.org/ns#Attribution" /><cc:prohibits
           rdf:resource="http://creativecommons.org/ns#CommercialUse" /><cc:permits
           rdf:resource="http://creativecommons.org/ns#DerivativeWorks" /><cc:requires
           rdf:resource="http://creativecommons.org/ns#ShareAlike" /></cc:License></rdf:RDF></metadata><path
     id="path44"
     style="display:inline;fill:#8ae234;fill-opacity:1;stroke:#4e9a06;stroke-width:2;stroke-linejoin:round;stroke-dasharray:none"
     d="M 21.560547,3 18.195312,13.875 H 13.875 v 4.320312 L 3,21.560547 v 20.880859 l 10.875,3.363282 V 50.125 H 18.195312 45.804688 50.125 V 45.804688 L 61,42.439453 V 21.560547 L 50.125,18.195312 V 13.875 H 50.123 45.804641 L 42.439453,3 Z M 32,8 c 1.104569,0 2,0.8954305 2,2 0,1.104569 -0.895431,2 -2,2 -1.104569,0 -2,-0.895431 -2,-2 0,-1.1045695 0.895431,-2 2,-2 z M 20.021484,20 H 43.978516 C 43.990757,20 44,20.009243 44,20.021484 V 43.978516 C 44,43.990757 43.990757,44 43.978516,44 H 20.021484 C 20.009243,44 20,43.990757 20,43.978516 V 20.021484 C 20,20.009243 20.009243,20 20.021484,20 Z M 10,30 c 1.104569,0 2,0.895431 2,2 0,1.104569 -0.895431,2 -2,2 -1.1045695,0 -2,-0.895431 -2,-2 0,-1.104569 0.8954305,-2 2,-2 z m 44,0 c 1.104569,0 2,0.895431 2,2 0,1.104569 -0.895431,2 -2,2 -1.104569,0 -2,-0.895431 -2,-2 0,-1.104569 0.895431,-2 2,-2 z"
     inkscape:label="main"
     sodipodi:nodetypes="ccccccccccccccccccccssssssssssssssssssssssss" /><path
     id="path1"
     style="display:inline;fill:url(#linearGradient2);stroke:none;stroke-width:2;stroke-linejoin:round;stroke-dasharray:none"
     inkscape:label="g"
     sodipodi:type="inkscape:offset"
     inkscape:radius="-2.6574953"
     inkscape:original="M 21.560547 3 L 18.195312 13.875 L 13.875 13.875 L 13.875 18.195312 L 3 21.560547 L 3 42.441406 L 13.875 45.804688 L 13.875 50.125 L 18.195312 50.125 L 45.804688 50.125 L 50.125 50.125 L 50.125 45.804688 L 61 42.439453 L 61 21.560547 L 50.125 18.195312 L 50.125 13.875 L 50.123047 13.875 L 45.804688 13.875 L 42.439453 3 L 21.560547 3 z M 32 8 C 33.104569 8 34 8.8954305 34 10 C 34 11.104569 33.104569 12 32 12 C 30.895431 12 30 11.104569 30 10 C 30 8.8954305 30.895431 8 32 8 z M 20.021484 20 L 43.978516 20 C 43.990757 20 44 20.009243 44 20.021484 L 44 43.978516 C 44 43.990757 43.990757 44 43.978516 44 L 20.021484 44 C 20.009243 44 20 43.990757 20 43.978516 L 20 20.021484 C 20 20.009243 20.009243 20 20.021484 20 z M 10 30 C 11.104569 30 12 30.895431 12 32 C 12 33.104569 11.104569 34 10 34 C 8.8954305 34 8 33.104569 8 32 C 8 30.895431 8.8954305 30 10 30 z M 54 30 C 55.104569 30 56 30.895431 56 32 C 56 33.104569 55.104569 34 54 34 C 52.895431 34 52 33.104569 52 32 C 52 30.895431 52.895431 30 54 30 z "
     d="m 23.519531,5.6582031 -2.785156,9.0019529 a 2.657761,2.657761 0 0 1 -2.539063,1.873047 h -1.662109 v 1.662109 a 2.657761,2.657761 0 0 1 -1.873047,2.539063 l -9.0019529,2.785156 v 6.947266 c 0.6493838,-1.796681 2.3424174,-3.125 4.3417969,-3.125 2.540787,0 4.658203,2.117416 4.658203,4.658203 0,2.540787 -2.117416,4.658203 -4.658203,4.658203 -1.9993795,0 -3.6924131,-1.328319 -4.3417969,-3.125 v 6.949219 l 9.0019529,2.783203 a 2.657761,2.657761 0 0 1 1.873047,2.539062 v 1.66211 h 1.662109 27.609375 1.66211 v -1.66211 a 2.657761,2.657761 0 0 1 1.873047,-2.539062 l 9.001953,-2.785156 v -6.947266 c -0.649384,1.796681 -2.342417,3.125 -4.341797,3.125 -2.540787,0 -4.658203,-2.117416 -4.658203,-4.658203 0,-2.540787 2.117416,-4.658203 4.658203,-4.658203 1.99938,0 3.692413,1.328319 4.341797,3.125 v -6.947266 l -9.001953,-2.785156 a 2.657761,2.657761 0 0 1 -1.873047,-2.539063 v -1.662109 h -1.66211 A 2.657761,2.657761 0 0 1 43.265625,14.660156 L 40.480469,5.6582031 h -6.947266 c 1.796681,0.6493838 3.125,2.3424174 3.125,4.3417969 0,2.540787 -2.117416,4.658203 -4.658203,4.658203 -2.540787,0 -4.658203,-2.117416 -4.658203,-4.658203 0,-1.9993795 1.328319,-3.6924131 3.125,-4.3417969 z M 20.021484,17.341797 h 23.957032 c 1.349998,0 2.679687,1.329689 2.679687,2.679687 v 23.957032 c 0,1.349998 -1.329689,2.679687 -2.679687,2.679687 H 20.021484 c -1.349998,0 -2.679687,-1.329689 -2.679687,-2.679687 V 20.021484 c 0,-1.349998 1.329689,-2.679687 2.679687,-2.679687 z" /><path
     style="display:inline;fill:#8ae234;fill-opacity:1;stroke:#4e9a06;stroke-width:2;stroke-linecap:round;stroke-linejoin:miter;stroke-dasharray:none;stroke-opacity:1"
     d="M 60,28 50,24"
     id="path48"
     sodipodi:nodetypes="cc" /><path
     style="display:inline;fill:#8ae234;fill-opacity:1;stroke:#4e9a06;stroke-width:2;stroke-linecap:round;stroke-linejoin:miter;stroke-dasharray:none;stroke-opacity:1"
     d="M 60,36 50,40"
     id="path49"
     sodipodi:nodetypes="cc" /><path
     style="display:inline;fill:#8ae234;fill-opacity:1;stroke:#4e9a06;stroke-width:2;stroke-linecap:round;stroke-linejoin:miter;stroke-dasharray:none;stroke-opacity:1"
     d="m 4,36 10,4"
     id="path52"
     sodipodi:nodetypes="cc" /><path
     style="display:inline;fill:#8ae234;fill-opacity:1;stroke:#4e9a06;stroke-width:2;stroke-linecap:round;stroke-linejoin:miter;stroke-dasharray:none;stroke-opacity:1"
     d="M 4,28 14,24"
     id="path53"
     sodipodi:nodetypes="cc" /><path
     style="display:inline;fill:#8ae234;fill-opacity:1;stroke:#4e9a06;stroke-width:2;stroke-linecap:round;stroke-linejoin:miter;stroke-dasharray:none;stroke-opacity:1"
     d="m 36,4 4,10"
     id="path54"
     sodipodi:nodetypes="cc" /><path
     style="display:inline;fill:#8ae234;fill-opacity:1;stroke:#4e9a06;stroke-width:2;stroke-linecap:round;stroke-linejoin:miter;stroke-dasharray:none;stroke-opacity:1"
     d="M 28,4 24,14"
     id="path55"
     sodipodi:nodetypes="cc" /><path
     style="display:inline;fill:#8ae234;fill-opacity:1;stroke:#4e9a06;stroke-width:2;stroke-linecap:round;stroke-linejoin:miter;stroke-dasharray:none;stroke-opacity:1"
     d="M 50,18 V 46"
     id="path56" /><path
     style="display:inline;fill:#8ae234;fill-opacity:1;stroke:#4e9a06;stroke-width:2;stroke-linecap:round;stroke-linejoin:miter;stroke-dasharray:none;stroke-opacity:1"
     d="M 46,50 18.195312,50.125"
     id="path57" /><path
     style="display:inline;fill:#8ae234;fill-opacity:1;stroke:#4e9a06;stroke-width:2;stroke-linecap:round;stroke-linejoin:miter;stroke-dasharray:none;stroke-opacity:1"
     d="M 46,14 H 18"
     id="path58" /><path
     style="display:inline;fill:#8ae234;fill-opacity:1;stroke:#4e9a06;stroke-width:2;stroke-linecap:round;stroke-linejoin:miter;stroke-dasharray:none;stroke-opacity:1"
     d="M 14,18 V 46"
     id="path59" /></svg>
