<?xml version="1.0" encoding="UTF-8" standalone="no"?>
<!-- Created with Inkscape (http://www.inkscape.org/) -->

<svg
   width="64"
   height="64"
   viewBox="0 0 64 64"
   version="1.1"
   id="svg1"
   inkscape:version="1.4 (e7c3feb100, 2024-10-09)"
   sodipodi:docname="TRH-H_BEM_SFT_4W.svg"
   xml:space="preserve"
   xmlns:inkscape="http://www.inkscape.org/namespaces/inkscape"
   xmlns:sodipodi="http://sodipodi.sourceforge.net/DTD/sodipodi-0.dtd"
   xmlns:xlink="http://www.w3.org/1999/xlink"
   xmlns="http://www.w3.org/2000/svg"
   xmlns:svg="http://www.w3.org/2000/svg"
   xmlns:rdf="http://www.w3.org/1999/02/22-rdf-syntax-ns#"
   xmlns:cc="http://creativecommons.org/ns#"
   xmlns:dc="http://purl.org/dc/elements/1.1/"><title
     id="title48">Connector Through-Hole Shaft Beam 4W</title><sodipodi:namedview
     id="namedview1"
     pagecolor="#323232"
     bordercolor="#ffffff"
     borderopacity="1"
     inkscape:showpageshadow="0"
     inkscape:pageopacity="0"
     inkscape:pagecheckerboard="1"
     inkscape:deskcolor="#191919"
     inkscape:document-units="px"
     showgrid="true"
     inkscape:zoom="11.313709"
     inkscape:cx="15.158601"
     inkscape:cy="36.106638"
     inkscape:window-width="1894"
     inkscape:window-height="999"
     inkscape:window-x="0"
     inkscape:window-y="0"
     inkscape:window-maximized="1"
     inkscape:current-layer="svg1"
     showguides="true"
     inkscape:lockguides="false"
     guidecolor="#ffff00"
     guideopacity="0.6"
     guidehicolor="#ff00ff"
     guidehiopacity="0.50196078"><inkscape:grid
       id="grid1"
       units="px"
       originx="0"
       originy="0"
       spacingx="2"
       spacingy="2"
       empcolor="#0099e5"
       empopacity="0.30196078"
       color="#0099e5"
       opacity="0.14901961"
       empspacing="4"
       enabled="true"
       visible="true" /><sodipodi:guide
       position="-2,62"
       orientation="0,1"
       id="guide5"
       inkscape:locked="false"
       inkscape:label="top margin"
       inkscape:color="rgb(255,255,0)" /><sodipodi:guide
       position="64,2"
       orientation="0,1"
       id="guide6"
       inkscape:locked="false"
       inkscape:label="bottom margin"
       inkscape:color="rgb(255,255,0)" /><sodipodi:guide
       position="2,-2"
       orientation="-1,0"
       id="guide7"
       inkscape:locked="false"
       inkscape:label="right margin"
       inkscape:color="rgb(255,255,0)" /><sodipodi:guide
       position="62,64"
       orientation="-1,0"
       id="guide8"
       inkscape:locked="false"
       inkscape:label="left margin"
       inkscape:color="rgb(255,255,0)" /><sodipodi:guide
       position="64,64"
       orientation="0.70710678,-0.70710678"
       id="guide1"
       inkscape:locked="false" /><sodipodi:guide
       position="0,64"
       orientation="0.70710678,0.70710678"
       id="guide2"
       inkscape:label=""
       inkscape:locked="false"
       inkscape:color="rgb(255,255,0)" /></sodipodi:namedview><defs
     id="defs1"><linearGradient
       id="linearGradient11"
       inkscape:collect="always"
       inkscape:label="Chameleon gradient"><stop
         style="stop-color:#8ae234;stop-opacity:1;"
         offset="0"
         id="stop11" /><stop
         style="stop-color:#73d216;stop-opacity:1;"
         offset="1"
         id="stop12" /></linearGradient><marker
       id="DistanceX"
       orient="auto"
       refX="0.0"
       refY="0.0"
       style="overflow:visible"><path
         d="M 3,-3 L -3,3 M 0,-5 L  0,5"
         style="stroke:#000000; stroke-width:0.5"
         id="path1-36" /></marker><pattern
       id="Hatch"
       patternUnits="userSpaceOnUse"
       width="8"
       height="8"
       x="0"
       y="0"><path
         d="M8 4 l-4,4"
         stroke="#000000"
         stroke-width="0.25"
         linecap="square"
         id="path2-7" /><path
         d="M6 2 l-4,4"
         stroke="#000000"
         stroke-width="0.25"
         linecap="square"
         id="path3" /><path
         d="M4 0 l-4,4"
         stroke="#000000"
         stroke-width="0.25"
         linecap="square"
         id="path4" /></pattern><symbol
       id="*MODEL_SPACE" /><symbol
       id="*PAPER_SPACE" /><linearGradient
       inkscape:collect="always"
       xlink:href="#linearGradient11"
       id="linearGradient61"
       x1="13.615224"
       y1="13.615224"
       x2="50.384777"
       y2="50.384777"
       gradientUnits="userSpaceOnUse" /></defs><metadata
     id="metadata1"><rdf:RDF><cc:Work
         rdf:about=""><cc:license
           rdf:resource="http://creativecommons.org/licenses/by-nc-sa/4.0/" /><dc:creator><cc:Agent><dc:title>hasecilu</dc:title></cc:Agent></dc:creator><dc:subject><rdf:Bag><rdf:li>FreeCAD</rdf:li><rdf:li>command</rdf:li></rdf:Bag></dc:subject><dc:description>Template file to create icons for FreeCAD commands.</dc:description><dc:date>2024</dc:date><dc:rights><cc:Agent><dc:title>FreeCAD LGPL2+</dc:title></cc:Agent></dc:rights><dc:identifier>FreeCAD/src/</dc:identifier><dc:publisher><cc:Agent><dc:title>FreeCAD</dc:title></cc:Agent></dc:publisher><dc:relation>https://wiki.freecad.org/Artwork</dc:relation><dc:title>Connector Through-Hole Shaft Beam 4W</dc:title></cc:Work><cc:License
         rdf:about="http://creativecommons.org/licenses/by-nc-sa/4.0/"><cc:permits
           rdf:resource="http://creativecommons.org/ns#Reproduction" /><cc:permits
           rdf:resource="http://creativecommons.org/ns#Distribution" /><cc:requires
           rdf:resource="http://creativecommons.org/ns#Notice" /><cc:requires
           rdf:resource="http://creativecommons.org/ns#Attribution" /><cc:prohibits
           rdf:resource="http://creativecommons.org/ns#CommercialUse" /><cc:permits
           rdf:resource="http://creativecommons.org/ns#DerivativeWorks" /><cc:requires
           rdf:resource="http://creativecommons.org/ns#ShareAlike" /></cc:License></rdf:RDF></metadata><path
     id="path44"
     style="display:inline;fill:#8ae234;fill-opacity:1;stroke:#4e9a06;stroke-width:2;stroke-linejoin:round;stroke-dasharray:none"
     d="M 21.560547,3 18.195312,13.875 H 13.875 v 4.320312 L 3,21.560547 v 20.880859 l 10.875,3.363282 V 50.125 h 4.320312 L 21.560547,61 H 42.439453 L 45.804688,50.125 H 50.125 V 45.804688 L 61,42.439453 V 21.560547 L 50.125,18.195312 V 13.875 H 50.123 45.804641 L 42.439453,3 Z M 32,8 c 1.104569,0 2,0.8954305 2,2 0,1.104569 -0.895431,2 -2,2 -1.104569,0 -2,-0.895431 -2,-2 0,-1.1045695 0.895431,-2 2,-2 z M 20.021484,20 H 43.978516 C 43.990757,20 44,20.009243 44,20.021484 V 43.978516 C 44,43.990757 43.990757,44 43.978516,44 H 20.021484 C 20.009243,44 20,43.990757 20,43.978516 V 20.021484 C 20,20.009243 20.009243,20 20.021484,20 Z M 10,30 c 1.104569,0 2,0.895431 2,2 0,1.104569 -0.895431,2 -2,2 -1.1045695,0 -2,-0.895431 -2,-2 0,-1.104569 0.8954305,-2 2,-2 z m 44,0 c 1.104569,0 2,0.895431 2,2 0,1.104569 -0.895431,2 -2,2 -1.104569,0 -2,-0.895431 -2,-2 0,-1.104569 0.895431,-2 2,-2 z M 32,52 c 1.104569,0 2,0.895431 2,2 0,1.104569 -0.895431,2 -2,2 -1.104569,0 -2,-0.895431 -2,-2 0,-1.104569 0.895431,-2 2,-2 z"
     inkscape:label="main" /><path
     id="path60"
     style="display:inline;fill:url(#linearGradient61);fill-opacity:1;stroke:none;stroke-width:2;stroke-linejoin:round;stroke-dasharray:none"
     inkscape:label="gradient"
     sodipodi:type="inkscape:offset"
     inkscape:radius="-3"
     inkscape:original="M 21.560547 3 L 18.195312 13.875 L 13.875 13.875 L 13.875 18.195312 L 3 21.560547 L 3 42.441406 L 13.875 45.804688 L 13.875 50.125 L 18.195312 50.125 L 21.560547 61 L 42.439453 61 L 45.804688 50.125 L 50.125 50.125 L 50.125 45.804688 L 61 42.439453 L 61 21.560547 L 50.125 18.195312 L 50.125 13.875 L 50.123047 13.875 L 45.804688 13.875 L 42.439453 3 L 21.560547 3 z M 32 8 C 33.104569 8 34 8.8954305 34 10 C 34 11.104569 33.104569 12 32 12 C 30.895431 12 30 11.104569 30 10 C 30 8.8954305 30.895431 8 32 8 z M 20.021484 20 L 43.978516 20 C 43.990757 20 44 20.009243 44 20.021484 L 44 43.978516 C 44 43.990757 43.990757 44 43.978516 44 L 20.021484 44 C 20.009243 44 20 43.990757 20 43.978516 L 20 20.021484 C 20 20.009243 20.009243 20 20.021484 20 z M 10 30 C 11.104569 30 12 30.895431 12 32 C 12 33.104569 11.104569 34 10 34 C 8.8954305 34 8 33.104569 8 32 C 8 30.895431 8.8954305 30 10 30 z M 54 30 C 55.104569 30 56 30.895431 56 32 C 56 33.104569 55.104569 34 54 34 C 52.895431 34 52 33.104569 52 32 C 52 30.895431 52.895431 30 54 30 z M 32 52 C 33.104569 52 34 52.895431 34 54 C 34 55.104569 33.104569 56 32 56 C 30.895431 56 30 55.104569 30 54 C 30 52.895431 30.895431 52 32 52 z "
     d="m 23.771484,6 -2.710937,8.761719 A 3.0003,3.0003 0 0 1 18.195312,16.875 H 16.875 v 1.320312 a 3.0003,3.0003 0 0 1 -2.113281,2.865235 L 6,23.773437 v 5.410157 C 6.9125972,27.901894 8.3349261,27 10,27 c 2.725891,0 5,2.274109 5,5 0,2.725891 -2.274109,5 -5,5 -1.6650739,0 -3.0874028,-0.901894 -4,-2.183594 v 5.41211 l 8.761719,2.710937 A 3.0003,3.0003 0 0 1 16.875,45.804687 V 47.125 h 1.320312 a 3.0003,3.0003 0 0 1 2.865235,2.113281 L 23.773437,58 h 5.410157 C 27.901894,57.087403 27,55.665074 27,54 c 0,-2.725891 2.274109,-5 5,-5 2.725891,0 5,2.274109 5,5 0,1.665074 -0.901894,3.087403 -2.183594,4 h 5.410156 l 2.712891,-8.761719 A 3.0003,3.0003 0 0 1 45.804687,47.125 H 47.125 v -1.320313 a 3.0003,3.0003 0 0 1 2.113281,-2.865234 L 58,40.226562 V 34.816406 C 57.087403,36.098106 55.665074,37 54,37 c -2.725891,0 -5,-2.274109 -5,-5 0,-2.725891 2.274109,-5 5,-5 1.665074,0 3.087403,0.901894 4,2.183594 v -5.410157 l -8.761719,-2.71289 A 3.0003,3.0003 0 0 1 47.125,18.195312 V 16.875 H 45.804687 A 3.0003,3.0003 0 0 1 42.939453,14.761719 L 40.226562,6 H 34.816406 C 36.098106,6.9125972 37,8.3349261 37,10 c 0,2.725891 -2.274109,5 -5,5 -2.725891,0 -5,-2.274109 -5,-5 0,-1.6650739 0.901894,-3.0874028 2.183594,-4 z m -3.75,11 H 43.978516 C 45.500927,17 47,18.499073 47,20.021484 V 43.978516 C 47,45.500927 45.500927,47 43.978516,47 H 20.021484 C 18.499073,47 17,45.500927 17,43.978516 V 20.021484 C 17,18.499073 18.499073,17 20.021484,17 Z" /><path
     style="display:inline;fill:#8ae234;fill-opacity:1;stroke:#4e9a06;stroke-width:2;stroke-linecap:round;stroke-linejoin:miter;stroke-dasharray:none;stroke-opacity:1"
     d="M 60,28 50,24"
     id="path48"
     sodipodi:nodetypes="cc" /><path
     style="display:inline;fill:#8ae234;fill-opacity:1;stroke:#4e9a06;stroke-width:2;stroke-linecap:round;stroke-linejoin:miter;stroke-dasharray:none;stroke-opacity:1"
     d="M 60,36 50,40"
     id="path49"
     sodipodi:nodetypes="cc" /><path
     style="display:inline;fill:#8ae234;fill-opacity:1;stroke:#4e9a06;stroke-width:2;stroke-linecap:round;stroke-linejoin:miter;stroke-dasharray:none;stroke-opacity:1"
     d="M 36,60 40,50"
     id="path50"
     sodipodi:nodetypes="cc" /><path
     style="display:inline;fill:#8ae234;fill-opacity:1;stroke:#4e9a06;stroke-width:2;stroke-linecap:round;stroke-linejoin:miter;stroke-dasharray:none;stroke-opacity:1"
     d="M 28,60 24,50"
     id="path51"
     sodipodi:nodetypes="cc" /><path
     style="display:inline;fill:#8ae234;fill-opacity:1;stroke:#4e9a06;stroke-width:2;stroke-linecap:round;stroke-linejoin:miter;stroke-dasharray:none;stroke-opacity:1"
     d="m 4,36 10,4"
     id="path52"
     sodipodi:nodetypes="cc" /><path
     style="display:inline;fill:#8ae234;fill-opacity:1;stroke:#4e9a06;stroke-width:2;stroke-linecap:round;stroke-linejoin:miter;stroke-dasharray:none;stroke-opacity:1"
     d="M 4,28 14,24"
     id="path53"
     sodipodi:nodetypes="cc" /><path
     style="display:inline;fill:#8ae234;fill-opacity:1;stroke:#4e9a06;stroke-width:2;stroke-linecap:round;stroke-linejoin:miter;stroke-dasharray:none;stroke-opacity:1"
     d="m 36,4 4,10"
     id="path54"
     sodipodi:nodetypes="cc" /><path
     style="display:inline;fill:#8ae234;fill-opacity:1;stroke:#4e9a06;stroke-width:2;stroke-linecap:round;stroke-linejoin:miter;stroke-dasharray:none;stroke-opacity:1"
     d="M 28,4 24,14"
     id="path55"
     sodipodi:nodetypes="cc" /><path
     style="display:inline;fill:#8ae234;fill-opacity:1;stroke:#4e9a06;stroke-width:2;stroke-linecap:round;stroke-linejoin:miter;stroke-dasharray:none;stroke-opacity:1"
     d="M 50,18 V 46"
     id="path56" /><path
     style="display:inline;fill:#8ae234;fill-opacity:1;stroke:#4e9a06;stroke-width:2;stroke-linecap:round;stroke-linejoin:miter;stroke-dasharray:none;stroke-opacity:1"
     d="M 46,50 18.195312,50.125"
     id="path57" /><path
     style="display:inline;fill:#8ae234;fill-opacity:1;stroke:#4e9a06;stroke-width:2;stroke-linecap:round;stroke-linejoin:miter;stroke-dasharray:none;stroke-opacity:1"
     d="M 46,14 H 18"
     id="path58" /><path
     style="display:inline;fill:#8ae234;fill-opacity:1;stroke:#4e9a06;stroke-width:2;stroke-linecap:round;stroke-linejoin:miter;stroke-dasharray:none;stroke-opacity:1"
     d="M 14,18 V 46"
     id="path59" /></svg>
