<?xml version="1.0" encoding="UTF-8" standalone="no"?>
<!-- Created with Inkscape (http://www.inkscape.org/) -->

<svg
   width="64"
   height="64"
   viewBox="0 0 64 64"
   version="1.1"
   id="svg1"
   inkscape:version="1.4 (e7c3feb100, 2024-10-09)"
   sodipodi:docname="TRH-H_BEM_SFT_2W_90.svg"
   xml:space="preserve"
   xmlns:inkscape="http://www.inkscape.org/namespaces/inkscape"
   xmlns:sodipodi="http://sodipodi.sourceforge.net/DTD/sodipodi-0.dtd"
   xmlns:xlink="http://www.w3.org/1999/xlink"
   xmlns="http://www.w3.org/2000/svg"
   xmlns:svg="http://www.w3.org/2000/svg"
   xmlns:rdf="http://www.w3.org/1999/02/22-rdf-syntax-ns#"
   xmlns:cc="http://creativecommons.org/ns#"
   xmlns:dc="http://purl.org/dc/elements/1.1/"><title
     id="title48">Connector Through-Hole Shaft Beam 2W_90</title><sodipodi:namedview
     id="namedview1"
     pagecolor="#323232"
     bordercolor="#ffffff"
     borderopacity="1"
     inkscape:showpageshadow="0"
     inkscape:pageopacity="0"
     inkscape:pagecheckerboard="1"
     inkscape:deskcolor="#191919"
     inkscape:document-units="px"
     showgrid="true"
     inkscape:zoom="11.313708"
     inkscape:cx="15.335378"
     inkscape:cy="25.146485"
     inkscape:window-width="1894"
     inkscape:window-height="999"
     inkscape:window-x="0"
     inkscape:window-y="0"
     inkscape:window-maximized="1"
     inkscape:current-layer="svg1"
     showguides="true"
     inkscape:lockguides="false"
     guidecolor="#ffff00"
     guideopacity="0.6"
     guidehicolor="#ff00ff"
     guidehiopacity="0.50196078"><inkscape:grid
       id="grid1"
       units="px"
       originx="0"
       originy="0"
       spacingx="2"
       spacingy="2"
       empcolor="#0099e5"
       empopacity="0.30196078"
       color="#0099e5"
       opacity="0.14901961"
       empspacing="4"
       enabled="true"
       visible="true" /><sodipodi:guide
       position="-2,62"
       orientation="0,1"
       id="guide5"
       inkscape:locked="false"
       inkscape:label="top margin"
       inkscape:color="rgb(255,255,0)" /><sodipodi:guide
       position="64,2"
       orientation="0,1"
       id="guide6"
       inkscape:locked="false"
       inkscape:label="bottom margin"
       inkscape:color="rgb(255,255,0)" /><sodipodi:guide
       position="2,-2"
       orientation="-1,0"
       id="guide7"
       inkscape:locked="false"
       inkscape:label="right margin"
       inkscape:color="rgb(255,255,0)" /><sodipodi:guide
       position="62,64"
       orientation="-1,0"
       id="guide8"
       inkscape:locked="false"
       inkscape:label="left margin"
       inkscape:color="rgb(255,255,0)" /><sodipodi:guide
       position="64,64"
       orientation="0.70710678,-0.70710678"
       id="guide1"
       inkscape:locked="false" /><sodipodi:guide
       position="0,64"
       orientation="0.70710678,0.70710678"
       id="guide2"
       inkscape:label=""
       inkscape:locked="false"
       inkscape:color="rgb(255,255,0)" /></sodipodi:namedview><defs
     id="defs1"><linearGradient
       id="linearGradient11"
       inkscape:collect="always"
       inkscape:label="Chameleon gradient"><stop
         style="stop-color:#8ae234;stop-opacity:1;"
         offset="0"
         id="stop11" /><stop
         style="stop-color:#73d216;stop-opacity:1;"
         offset="1"
         id="stop12" /></linearGradient><marker
       id="DistanceX"
       orient="auto"
       refX="0.0"
       refY="0.0"
       style="overflow:visible"><path
         d="M 3,-3 L -3,3 M 0,-5 L  0,5"
         style="stroke:#000000; stroke-width:0.5"
         id="path1-36" /></marker><pattern
       id="Hatch"
       patternUnits="userSpaceOnUse"
       width="8"
       height="8"
       x="0"
       y="0"><path
         d="M8 4 l-4,4"
         stroke="#000000"
         stroke-width="0.25"
         linecap="square"
         id="path2-7" /><path
         d="M6 2 l-4,4"
         stroke="#000000"
         stroke-width="0.25"
         linecap="square"
         id="path3" /><path
         d="M4 0 l-4,4"
         stroke="#000000"
         stroke-width="0.25"
         linecap="square"
         id="path4" /></pattern><symbol
       id="*MODEL_SPACE" /><symbol
       id="*PAPER_SPACE" /><linearGradient
       inkscape:collect="always"
       xlink:href="#linearGradient11"
       id="linearGradient2"
       x1="22.632452"
       y1="11.757452"
       x2="52.24255"
       y2="41.36755"
       gradientUnits="userSpaceOnUse" /></defs><metadata
     id="metadata1"><rdf:RDF><cc:Work
         rdf:about=""><cc:license
           rdf:resource="http://creativecommons.org/licenses/by-nc-sa/4.0/" /><dc:creator><cc:Agent><dc:title>hasecilu</dc:title></cc:Agent></dc:creator><dc:subject><rdf:Bag><rdf:li>FreeCAD</rdf:li><rdf:li>command</rdf:li></rdf:Bag></dc:subject><dc:description>Template file to create icons for FreeCAD commands.</dc:description><dc:date>2024</dc:date><dc:rights><cc:Agent><dc:title>FreeCAD LGPL2+</dc:title></cc:Agent></dc:rights><dc:identifier>FreeCAD/src/</dc:identifier><dc:publisher><cc:Agent><dc:title>FreeCAD</dc:title></cc:Agent></dc:publisher><dc:relation>https://wiki.freecad.org/Artwork</dc:relation><dc:title>Connector Through-Hole Shaft Beam 2W_90</dc:title></cc:Work><cc:License
         rdf:about="http://creativecommons.org/licenses/by-nc-sa/4.0/"><cc:permits
           rdf:resource="http://creativecommons.org/ns#Reproduction" /><cc:permits
           rdf:resource="http://creativecommons.org/ns#Distribution" /><cc:requires
           rdf:resource="http://creativecommons.org/ns#Notice" /><cc:requires
           rdf:resource="http://creativecommons.org/ns#Attribution" /><cc:prohibits
           rdf:resource="http://creativecommons.org/ns#CommercialUse" /><cc:permits
           rdf:resource="http://creativecommons.org/ns#DerivativeWorks" /><cc:requires
           rdf:resource="http://creativecommons.org/ns#ShareAlike" /></cc:License></rdf:RDF></metadata><path
     id="path44"
     style="display:inline;fill:#8ae234;fill-opacity:1;stroke:#4e9a06;stroke-width:2;stroke-linejoin:round;stroke-dasharray:none"
     d="M 21.560547,3 18.195312,13.875 H 13.875 V 18.195312 45.804688 50.125 H 18.195312 45.804688 50.125 V 45.804688 L 61,42.439453 V 21.560547 L 50.125,18.195312 V 13.875 H 50.123 45.804641 L 42.439453,3 Z M 32,8 c 1.104569,0 2,0.8954305 2,2 0,1.104569 -0.895431,2 -2,2 -1.104569,0 -2,-0.895431 -2,-2 0,-1.1045695 0.895431,-2 2,-2 z M 20.021484,20 H 43.978516 C 43.990757,20 44,20.009243 44,20.021484 V 43.978516 C 44,43.990757 43.990757,44 43.978516,44 H 20.021484 C 20.009243,44 20,43.990757 20,43.978516 V 20.021484 C 20,20.009243 20.009243,20 20.021484,20 Z M 54,30 c 1.104569,0 2,0.895431 2,2 0,1.104569 -0.895431,2 -2,2 -1.104569,0 -2,-0.895431 -2,-2 0,-1.104569 0.895431,-2 2,-2 z"
     inkscape:label="main"
     sodipodi:nodetypes="ccccccccccccccccccsssssssssssssssssss" /><path
     id="path1"
     style="display:inline;fill:url(#linearGradient2);fill-opacity:1;stroke:none;stroke-width:2;stroke-linejoin:round;stroke-dasharray:none"
     inkscape:label="gradient"
     sodipodi:type="inkscape:offset"
     inkscape:radius="-2.625"
     inkscape:original="M 21.560547 3 L 18.195312 13.875 L 13.875 13.875 L 13.875 18.195312 L 13.875 45.804688 L 13.875 50.125 L 18.195312 50.125 L 45.804688 50.125 L 50.125 50.125 L 50.125 45.804688 L 61 42.439453 L 61 21.560547 L 50.125 18.195312 L 50.125 13.875 L 50.123047 13.875 L 45.804688 13.875 L 42.439453 3 L 21.560547 3 z M 32 8 C 33.104569 8 34 8.8954305 34 10 C 34 11.104569 33.104569 12 32 12 C 30.895431 12 30 11.104569 30 10 C 30 8.8954305 30.895431 8 32 8 z M 20.021484 20 L 43.978516 20 C 43.990757 20 44 20.009243 44 20.021484 L 44 43.978516 C 44 43.990757 43.990757 44 43.978516 44 L 20.021484 44 C 20.009243 44 20 43.990757 20 43.978516 L 20 20.021484 C 20 20.009243 20.009243 20 20.021484 20 z M 54 30 C 55.104569 30 56 30.895431 56 32 C 56 33.104569 55.104569 34 54 34 C 52.895431 34 52 33.104569 52 32 C 52 30.895431 52.895431 30 54 30 z "
     d="m 23.496094,5.625 -2.792969,9.025391 A 2.6252625,2.6252625 0 0 1 18.195312,16.5 H 16.5 V 18.195312 45.804687 47.5 H 18.195312 45.804687 47.5 v -1.695313 a 2.6252625,2.6252625 0 0 1 1.849609,-2.507812 L 58.375,40.503906 V 33.216797 C 57.821673,35.151069 56.093726,36.625 54,36.625 c -2.523226,0 -4.625,-2.101774 -4.625,-4.625 0,-2.523226 2.101774,-4.625 4.625,-4.625 2.093726,0 3.821673,1.473931 4.375,3.408203 V 23.496094 L 49.349609,20.703125 A 2.6252625,2.6252625 0 0 1 47.5,18.195312 V 16.5 H 45.804687 A 2.6252625,2.6252625 0 0 1 43.296875,14.650391 L 40.503906,5.625 H 33.216797 C 35.151069,6.1783274 36.625,7.9062737 36.625,10 c 0,2.523226 -2.101774,4.625 -4.625,4.625 -2.523226,0 -4.625,-2.101774 -4.625,-4.625 0,-2.0937263 1.473931,-3.8216726 3.408203,-4.375 z m -3.47461,11.75 h 23.957032 c 1.33364,0 2.646484,1.312844 2.646484,2.646484 v 23.957032 c 0,1.33364 -1.312844,2.646484 -2.646484,2.646484 H 20.021484 C 18.687844,46.625 17.375,45.312156 17.375,43.978516 V 20.021484 c 0,-1.33364 1.312844,-2.646484 2.646484,-2.646484 z" /><path
     style="display:inline;fill:#8ae234;fill-opacity:1;stroke:#4e9a06;stroke-width:2;stroke-linecap:round;stroke-linejoin:miter;stroke-dasharray:none;stroke-opacity:1"
     d="M 60,28 50,24"
     id="path48"
     sodipodi:nodetypes="cc" /><path
     style="display:inline;fill:#8ae234;fill-opacity:1;stroke:#4e9a06;stroke-width:2;stroke-linecap:round;stroke-linejoin:miter;stroke-dasharray:none;stroke-opacity:1"
     d="M 60,36 50,40"
     id="path49"
     sodipodi:nodetypes="cc" /><path
     style="display:inline;fill:#8ae234;fill-opacity:1;stroke:#4e9a06;stroke-width:2;stroke-linecap:round;stroke-linejoin:miter;stroke-dasharray:none;stroke-opacity:1"
     d="m 36,4 4,10"
     id="path54"
     sodipodi:nodetypes="cc" /><path
     style="display:inline;fill:#8ae234;fill-opacity:1;stroke:#4e9a06;stroke-width:2;stroke-linecap:round;stroke-linejoin:miter;stroke-dasharray:none;stroke-opacity:1"
     d="M 28,4 24,14"
     id="path55"
     sodipodi:nodetypes="cc" /><path
     style="display:inline;fill:#8ae234;fill-opacity:1;stroke:#4e9a06;stroke-width:2;stroke-linecap:round;stroke-linejoin:miter;stroke-dasharray:none;stroke-opacity:1"
     d="M 50,18 V 46"
     id="path56" /><path
     style="display:inline;fill:#8ae234;fill-opacity:1;stroke:#4e9a06;stroke-width:2;stroke-linecap:round;stroke-linejoin:miter;stroke-dasharray:none;stroke-opacity:1"
     d="M 46,50 18.195312,50.125"
     id="path57" /><path
     style="display:inline;fill:#8ae234;fill-opacity:1;stroke:#4e9a06;stroke-width:2;stroke-linecap:round;stroke-linejoin:miter;stroke-dasharray:none;stroke-opacity:1"
     d="M 46,14 H 18"
     id="path58" /><path
     style="display:inline;fill:#8ae234;fill-opacity:1;stroke:#4e9a06;stroke-width:2;stroke-linecap:round;stroke-linejoin:miter;stroke-dasharray:none;stroke-opacity:1"
     d="M 14,18 V 46"
     id="path59" /></svg>
